<?xml version="1.0" encoding="utf-8"?>
<!-- Generator: Adobe Illustrator 27.0.0, SVG Export Plug-In . SVG Version: 6.00 Build 0)  -->
<svg version="1.1" id="Layer_1" xmlns="http://www.w3.org/2000/svg" xmlns:xlink="http://www.w3.org/1999/xlink" x="0px" y="0px"
	 viewBox="0 0 90.24 101.92" style="enable-background:new 0 0 90.24 101.92;" xml:space="preserve">
<style type="text/css">
	.st0{fill:url(#SVGID_1_);}
	.st1{opacity:0.22;fill:url(#);}
	.st2{fill:#FFFFFF;}
	.st3{fill-rule:evenodd;clip-rule:evenodd;fill:none;}
	.st4{display:none;}
	.st5{display:inline;}
	.st6{display:inline;opacity:0.5;clip-path:url(#SVGID_00000106843362540633156180000012194494053418066367_);fill:#FAFAFA;}
	.st7{display:inline;clip-path:url(#SVGID_00000068646728592380014370000013685833693020255392_);}
	.st8{clip-path:url(#SVGID_00000096043424587713396700000017691185329384713910_);}
	.st9{opacity:0.5;clip-path:url(#SVGID_00000128452104000611001690000012620407782272978874_);fill:#FAFAFA;}
	.st10{fill:#573F2F;}
	.st11{fill:#00A650;}
	.st12{fill:#496E6E;}
	.st13{fill:#007E3A;}
	.st14{fill:#D21034;}
	.st15{fill:#FEC00F;}
	.st16{fill:url(#path66_00000163063070448833319680000015805820402984732566_);}
	.st17{fill:url(#path78_00000114751999065652924530000017781559899119641015_);}
	.st18{fill:url(#path100_00000175308542743776996170000011586388314457531270_);}
	.st19{fill:url(#path112_00000171678205129574221260000014601455067029081765_);}
	.st20{fill:url(#path124_00000077307681583162752000000004215331679467788954_);}
	.st21{fill:url(#path136_00000070834046756769708570000002317036804947218600_);}
	.st22{fill:url(#path148_00000044137491511111006410000001904119376193413773_);}
	.st23{fill:#C7C4E2;}
	.st24{opacity:0.1;fill:url(#);}
	.st25{opacity:0.3;enable-background:new    ;}
	.st26{opacity:0.29;}
	.st27{fill-rule:evenodd;clip-rule:evenodd;fill:url(#SVGID_00000058551996372539394280000001202525664557656965_);}
	.st28{fill-rule:evenodd;clip-rule:evenodd;fill:url(#SVGID_00000064328854646989307700000005986147314376848798_);}
	.st29{fill-rule:evenodd;clip-rule:evenodd;fill:url(#SVGID_00000155858664390039863240000001466842734045138316_);}
	.st30{fill-rule:evenodd;clip-rule:evenodd;fill:url(#SVGID_00000180329193193254922950000017691703761636824965_);}
	.st31{fill-rule:evenodd;clip-rule:evenodd;fill:url(#SVGID_00000172406135426268505510000007416347733783280812_);}
	.st32{fill-rule:evenodd;clip-rule:evenodd;fill:url(#SVGID_00000142896638436636710530000015125765529030915257_);}
	.st33{fill-rule:evenodd;clip-rule:evenodd;fill:url(#SVGID_00000170278325924210715140000009249528006595865007_);}
	.st34{fill-rule:evenodd;clip-rule:evenodd;fill:url(#SVGID_00000078756729231680086620000013548029374527582396_);}
	.st35{fill-rule:evenodd;clip-rule:evenodd;fill:url(#SVGID_00000137832469913016306510000017805696738363578038_);}
	.st36{fill-rule:evenodd;clip-rule:evenodd;fill:url(#SVGID_00000166670191835669471650000006684455847619645618_);}
	.st37{fill-rule:evenodd;clip-rule:evenodd;fill:url(#SVGID_00000004512631138730087460000003696155207623266962_);}
	.st38{fill-rule:evenodd;clip-rule:evenodd;fill:url(#SVGID_00000142860394908862132860000014376519908053098116_);}
	.st39{fill-rule:evenodd;clip-rule:evenodd;fill:url(#SVGID_00000090977888771701649660000003147327780470724258_);}
	.st40{fill-rule:evenodd;clip-rule:evenodd;fill:url(#SVGID_00000151525929925093459650000011041191090613375372_);}
	.st41{fill-rule:evenodd;clip-rule:evenodd;fill:url(#SVGID_00000088128524932973901520000012335193136846358153_);}
	.st42{fill-rule:evenodd;clip-rule:evenodd;fill:url(#SVGID_00000157278919921415602280000006700983933565548948_);}
	.st43{fill-rule:evenodd;clip-rule:evenodd;fill:url(#SVGID_00000095329686919078929460000011850527791452841362_);}
	.st44{fill-rule:evenodd;clip-rule:evenodd;fill:url(#SVGID_00000076585407450716949080000002326497892303975851_);}
	.st45{fill-rule:evenodd;clip-rule:evenodd;fill:url(#SVGID_00000168835651960646546310000010472656908791003313_);}
	.st46{fill-rule:evenodd;clip-rule:evenodd;fill:url(#SVGID_00000009569939991084978730000011045559763213431482_);}
	.st47{fill-rule:evenodd;clip-rule:evenodd;fill:url(#SVGID_00000152980432917176650420000005878147118924706477_);}
	.st48{fill-rule:evenodd;clip-rule:evenodd;fill:url(#SVGID_00000088839753402063947320000005548629283596202165_);}
	.st49{fill-rule:evenodd;clip-rule:evenodd;fill:url(#SVGID_00000134954504554781471810000002150842114175051394_);}
	.st50{fill-rule:evenodd;clip-rule:evenodd;fill:url(#SVGID_00000003818243021501190090000007209957667607475085_);}
	.st51{fill-rule:evenodd;clip-rule:evenodd;fill:url(#SVGID_00000125562189966625171920000013027717093900413108_);}
	.st52{fill-rule:evenodd;clip-rule:evenodd;fill:url(#SVGID_00000060751372158706201330000015604487332754338233_);}
	.st53{fill-rule:evenodd;clip-rule:evenodd;fill:url(#SVGID_00000116937126137959237170000016852811926353138567_);}
	.st54{fill-rule:evenodd;clip-rule:evenodd;fill:url(#SVGID_00000036246157564180399160000000787480059030677407_);}
	.st55{fill-rule:evenodd;clip-rule:evenodd;fill:url(#SVGID_00000008116299887023967860000009732099832010277011_);}
	.st56{fill-rule:evenodd;clip-rule:evenodd;fill:url(#SVGID_00000134214478910071064720000003299402761192820135_);}
	.st57{fill-rule:evenodd;clip-rule:evenodd;fill:url(#SVGID_00000160186021164060054090000002848267057549945220_);}
	.st58{fill-rule:evenodd;clip-rule:evenodd;fill:url(#SVGID_00000010271044065372465810000010583434121173896075_);}
	.st59{fill-rule:evenodd;clip-rule:evenodd;fill:url(#SVGID_00000043420685634148686920000014572598718179035559_);}
	.st60{fill-rule:evenodd;clip-rule:evenodd;fill:url(#SVGID_00000052073646780472758910000006545162652319052964_);}
	.st61{fill-rule:evenodd;clip-rule:evenodd;fill:url(#SVGID_00000031177909158963537770000010264496785739627928_);}
	.st62{fill-rule:evenodd;clip-rule:evenodd;fill:url(#SVGID_00000107554597166883977140000003586553349761922231_);}
	.st63{fill-rule:evenodd;clip-rule:evenodd;fill:url(#SVGID_00000028285199372701431020000009338205399390405255_);}
	.st64{fill-rule:evenodd;clip-rule:evenodd;fill:url(#SVGID_00000112626379061529776590000000977857038671124916_);}
	.st65{fill-rule:evenodd;clip-rule:evenodd;fill:url(#SVGID_00000043422067225937968980000007236093757190453945_);}
	.st66{fill-rule:evenodd;clip-rule:evenodd;fill:url(#SVGID_00000090292439643846353890000008167528039700168087_);}
	.st67{fill-rule:evenodd;clip-rule:evenodd;fill:url(#SVGID_00000142863323743547071660000011331455943132936582_);}
	.st68{fill-rule:evenodd;clip-rule:evenodd;fill:url(#SVGID_00000025400982362316893710000015463689836891183774_);}
	.st69{fill-rule:evenodd;clip-rule:evenodd;fill:url(#SVGID_00000008864535225370501670000013006122006417456281_);}
	.st70{fill-rule:evenodd;clip-rule:evenodd;fill:url(#SVGID_00000086692844775403643250000016454357825273097110_);}
	.st71{fill-rule:evenodd;clip-rule:evenodd;fill:url(#SVGID_00000121972837908209979670000008364514684087188881_);}
	.st72{fill-rule:evenodd;clip-rule:evenodd;fill:url(#SVGID_00000104669126382200844910000015159420128842120884_);}
	.st73{fill-rule:evenodd;clip-rule:evenodd;fill:url(#SVGID_00000094589732324600182120000005389337239975717025_);}
	.st74{fill-rule:evenodd;clip-rule:evenodd;fill:url(#SVGID_00000002365596458373523520000002912412596053355705_);}
	.st75{fill-rule:evenodd;clip-rule:evenodd;fill:url(#SVGID_00000080908687194577257730000012377136526237271955_);}
	.st76{fill-rule:evenodd;clip-rule:evenodd;fill:url(#SVGID_00000040561267301515056240000003482366843487386766_);}
	.st77{fill-rule:evenodd;clip-rule:evenodd;fill:url(#SVGID_00000048472018986038931150000011549323184193633187_);}
	.st78{fill-rule:evenodd;clip-rule:evenodd;fill:url(#SVGID_00000140003158908758154130000004338258299481202611_);}
	.st79{fill-rule:evenodd;clip-rule:evenodd;fill:url(#SVGID_00000072964528956459819960000002173314030311091899_);}
	.st80{fill-rule:evenodd;clip-rule:evenodd;fill:url(#SVGID_00000169530574008935933870000013408932637390766492_);}
	.st81{fill-rule:evenodd;clip-rule:evenodd;fill:url(#SVGID_00000164472491750684703070000009891900829827682949_);}
	.st82{fill-rule:evenodd;clip-rule:evenodd;fill:url(#SVGID_00000026157765997000760450000000120287427995421599_);}
	.st83{fill-rule:evenodd;clip-rule:evenodd;fill:url(#SVGID_00000168821267226162069910000001823295382883886738_);}
	.st84{fill-rule:evenodd;clip-rule:evenodd;fill:url(#SVGID_00000142881086432089838310000006803973264044454582_);}
	.st85{fill-rule:evenodd;clip-rule:evenodd;fill:url(#SVGID_00000071557556891177037590000003342383443885163403_);}
	.st86{fill-rule:evenodd;clip-rule:evenodd;fill:url(#SVGID_00000086670184686894364200000014387167363753105317_);}
	.st87{fill-rule:evenodd;clip-rule:evenodd;fill:url(#SVGID_00000135674984262182937570000000505101350006730393_);}
	.st88{fill-rule:evenodd;clip-rule:evenodd;fill:url(#SVGID_00000121990215991481749290000017263840838652901272_);}
	.st89{fill:url(#SVGID_00000158741084133973791280000005238350749961328526_);}
	.st90{fill-rule:evenodd;clip-rule:evenodd;fill:url(#SVGID_00000035511911848793076270000007623184173551247280_);}
	.st91{fill-rule:evenodd;clip-rule:evenodd;fill:url(#SVGID_00000141413744402694498010000006945142434917115292_);}
	.st92{fill:url(#SVGID_00000130623880708020845530000003125468397208830886_);}
	.st93{fill-rule:evenodd;clip-rule:evenodd;fill:url(#SVGID_00000054974682923617331080000010561368924230818180_);}
	.st94{fill-rule:evenodd;clip-rule:evenodd;fill:url(#SVGID_00000005240993085877026820000012641008257076050056_);}
	.st95{fill-rule:evenodd;clip-rule:evenodd;fill:url(#SVGID_00000032638345054849876500000012109430893458482357_);}
	.st96{fill-rule:evenodd;clip-rule:evenodd;fill:url(#SVGID_00000006691323905924646280000001805573892953186703_);}
	.st97{fill-rule:evenodd;clip-rule:evenodd;fill:url(#SVGID_00000175313316247227415100000002742095380274370969_);}
	.st98{fill:url(#SVGID_00000025402115487885713100000007202398172746296765_);}
	.st99{fill-rule:evenodd;clip-rule:evenodd;fill:url(#SVGID_00000100380604683388717890000015510285189958658708_);}
	.st100{fill-rule:evenodd;clip-rule:evenodd;fill:url(#SVGID_00000146468647756176696530000005518418707388572554_);}
	.st101{fill-rule:evenodd;clip-rule:evenodd;fill:url(#SVGID_00000062183607976327675060000015330007818133237653_);}
	.st102{fill-rule:evenodd;clip-rule:evenodd;fill:url(#SVGID_00000102506463503008691080000013971056650927006113_);}
	.st103{fill-rule:evenodd;clip-rule:evenodd;fill:url(#SVGID_00000044869868125972947790000016393977698576252328_);}
	.st104{fill:url(#SVGID_00000181801857603774752020000009003713804226164639_);}
	.st105{fill-rule:evenodd;clip-rule:evenodd;fill:url(#SVGID_00000046341010708539416610000008390304392299268023_);}
	.st106{fill-rule:evenodd;clip-rule:evenodd;fill:url(#SVGID_00000062168887896034977950000007650551356606790072_);}
	.st107{fill-rule:evenodd;clip-rule:evenodd;fill:url(#SVGID_00000003084410501914210340000017684182094786173348_);}
	.st108{fill:#143360;}
	.st109{fill:#0C213A;}
	.st110{fill:url(#path66_00000048488718738797978440000003628200028425546129_);}
	.st111{fill:url(#path78_00000136372396827541469810000005335869740541413766_);}
	.st112{fill:url(#path100_00000147913655591268266380000014938145435528225177_);}
	.st113{fill:url(#path112_00000088122275233634205110000000598313948381393851_);}
	.st114{fill:url(#path124_00000175316735702900297460000016787195254292480140_);}
	.st115{fill:url(#path136_00000074424447510449165100000014689438619292262077_);}
	.st116{fill:url(#path148_00000071529963126647849280000005350493737229232514_);}
</style>
<g id="g12_00000127035285794234498840000017919776915916402105_" transform="matrix(1.25,0,0,-1.25,-99.132688,774.00054)">
	
		<g id="g2964_00000166658423891527682350000011191777919530769564_" transform="matrix(0.97794693,0,0,0.97794693,1.7489442,3.0744652)">
		<path id="path14_00000096054162605433510270000012780975419533943959_" class="st10" d="M90.34,600.45
			c-0.59-0.35-0.9-0.93-0.69-1.29c0.21-0.36,0.87-0.36,1.46-0.01c0.59,0.35,0.9,0.93,0.69,1.29
			C91.59,600.79,90.93,600.8,90.34,600.45L90.34,600.45L90.34,600.45z"/>
		<path id="path16_00000068660685832021296780000006005090790588568751_" class="st10" d="M142.09,600.45
			c0.59-0.35,0.9-0.93,0.69-1.29c-0.21-0.36-0.87-0.36-1.46-0.01c-0.59,0.35-0.9,0.93-0.69,1.29
			C140.84,600.79,141.5,600.8,142.09,600.45L142.09,600.45L142.09,600.45z"/>
		<path id="path18_00000110428828041327554710000001431607599008024472_" class="st11" d="M111.16,629.89c0,0-0.18-0.07-0.13-0.36
			c0.05-0.29-0.43-0.07-0.43,0.02c0,0.09-0.15-0.11-0.09-0.16c0.05-0.05,0.22-0.13,0.29-0.25c0.07-0.13-0.02-0.36-0.09-0.29
			c-0.07,0.07-0.31,0.09-0.27,0.02c0.04-0.07,0.22-0.09,0.36-0.34c0.15-0.25-0.02-0.27-0.02-0.27s-0.22,0.07-0.22-0.04
			c0-0.11,0.04-0.22,0.16-0.29c0.13-0.07,0.4-0.29,0.54-0.29c0.15,0,0.09-0.2,0.09-0.2s-0.27,0.13-0.33-0.05
			c-0.05-0.18,0.13-0.33,0.13-0.33s0.45-0.33,0.63-0.36c0.18-0.04,0.29-0.27,0.18-0.29c-0.11-0.02-0.44-0.04-0.54-0.02
			c-0.11,0.02-0.24-0.2-0.13-0.29c0.11-0.09,0.45-0.22,0.76-0.29c0.31-0.07,0.25-0.2,0.18-0.24c-0.07-0.04-0.54-0.09-0.65,0
			c-0.11,0.09-0.38-0.11-0.13-0.25c0.25-0.15,0.73-0.07,0.69-0.36c-0.04-0.29-0.27-0.18-0.38-0.2c-0.11-0.02-0.25-0.18-0.05-0.29
			c0.2-0.11,0.58-0.33,0.78-0.33c0.2,0,0.25-0.31,0.15-0.31c-0.11,0-0.53,0.04-0.54,0.07c-0.02,0.04-0.38,0-0.02-0.27
			c0.36-0.25,0.14-0.16,0.49-0.29c0.34-0.13,0-0.33-0.05-0.31c-0.05,0.02-0.31-0.18-0.07-0.25c0.24-0.07,0.42-0.18,0.34-0.25
			c-0.07-0.07-0.29-0.27-0.04-0.33c0.25-0.05,0.63-0.11,0.49-0.31c-0.15-0.2,0.05-0.09,0.31-0.18c0.25-0.09,0.02-0.29-0.07-0.27
			c-0.09,0.02-0.67,0.31-0.73,0.15c-0.05-0.16,0.04-0.22,0.04-0.22s0.42-0.07,0.6-0.22c0.18-0.14,0.22-0.27,0-0.27
			c-0.22,0-0.31,0.22-0.43,0.09c-0.13-0.13,0.14-0.33,0.05-0.58c-0.09-0.25-0.25-0.09-0.25,0.25c0,0.34-0.29,0.62-0.29,0.62
			s-0.11-0.27-0.11,0.16c0,0.43-0.25,0.22-0.25,0.07c0-0.15,0.16-0.4,0.04-0.45c-0.13-0.05-0.47,0.51-0.47,0.71
			c0,0.2-0.29,0.24-0.29,0c0-0.24,0.15-0.76,0.33-1.07c0.18-0.31,0.51-0.71,0.34-0.8c-0.16-0.09-0.31-0.11-0.31,0.05
			c0,0.16-0.62,1.61-0.92,1.98c-0.31,0.36-0.33,0.34-0.33,0.11c0-0.24,0.56-0.89,0.43-1.27c-0.13-0.38-0.25,0-0.27,0
			c-0.02,0-0.29,1.09-0.83,1.79c-0.54,0.71-0.54,0.24-0.4,0.05c0.14-0.18,0.71-0.89,0.63-1.34c-0.07-0.45-0.22-0.25-0.25-0.04
			c-0.04,0.22-0.54,1.59-1.2,2.14c-0.65,0.54-0.54,0.02-0.4-0.07c0.15-0.09,0.83-0.8,0.85-1.43c0.02-0.63-0.2-0.22-0.25-0.09
			c-0.05,0.13-0.31,1.2-1.07,1.83c-0.76,0.63-0.36-0.16-0.36-0.05c0,0.11,0.8-0.74,0.8-1.29c0-0.54-0.24-0.34-0.25-0.24
			c-0.02,0.11-0.34,1.07-0.94,1.47c-0.6,0.4-0.56,0.51-0.78,0.43c-0.22-0.07-0.34-0.02-0.42,0.11c-0.07,0.13-0.69,0.34-0.45-0.11
			c0.24-0.45-0.36,0.09-0.38,0.11c-0.02,0.02-0.76,0.36-0.51,0c0.25-0.36,1.2-0.54,1.2-1c0-0.45,0.16-0.51-0.16-0.29
			c-0.33,0.22-0.51,0.91-1.27,1.14c-0.76,0.24,0-0.42-0.02-0.33c-0.02,0.09,0.63-0.38,0.29-0.47c-0.34-0.09-0.4,0.24-0.51,0.4
			s-0.54,0.54-0.65,0.38c-0.11-0.16,0.13-0.24-0.04-0.24c-0.16,0-0.62,0.16-0.6-0.15c0.02-0.31-0.15-0.13-0.25-0.13
			s-0.29-0.05-0.27-0.16c0.02-0.11-0.34,0-0.34-0.13c0-0.13,0.18-0.18,0.29-0.2c0.11-0.02,0.2-0.09,0-0.27
			c-0.2-0.18-0.13-0.51,0.11-0.42c0.24,0.09,0.43,0.24,0.65,0.24c0.22,0,0.27,0.05,0.16-0.11c-0.11-0.16-0.24-0.36,0-0.36
			c0.24,0,0.89,0.56,1.03,0.34c0.14-0.22,0.14-0.27-0.04-0.42c-0.18-0.14-0.02-0.31,0.27-0.27c0.29,0.04,0.74,0.33,1,0.18
			c0.25-0.15,0.07-0.18-0.05-0.25c-0.13-0.07-0.29-0.27-0.07-0.27c0.22,0,0.4,0.07,0.78,0.05c0.38-0.02,0.22,0.22,0.42,0.04
			c0.2-0.18,0.33-0.18,0.07-0.29c-0.25-0.11-0.34-0.38-0.04-0.36c0.31,0.02,0.63,0.25,1.03,0.2c0.4-0.05,0.42-0.09,0.25-0.25
			c-0.16-0.16-0.42-0.15-0.42-0.33c0-0.18,0.27-0.18,0.38-0.14c0.11,0.04,0.42,0.18,0.56,0.18c0.15,0,0.29-0.02,0.16-0.16
			c-0.13-0.15-0.22-0.07-0.31-0.22c-0.09-0.15-0.09-0.2,0.18-0.22c0.27-0.02,0.71,0.04,0.78,0c0.07-0.04,0.44-0.04,0.25-0.11
			c-0.18-0.07-0.6-0.29-0.36-0.34c0.24-0.05,0.49-0.11,0.78-0.07c0.29,0.04,0.56-0.15,0.4-0.2c-0.16-0.05-0.36-0.22,0.02-0.22
			c0.38,0,0.62,0,0.62-0.15c0-0.15-0.24-0.05-0.34-0.29c-0.11-0.24,0.74-0.96,1.16-1.61c0.42-0.65,0.38-0.16,0.24-0.42
			c-0.14-0.25-0.44-0.16-0.53,0.05c-0.09,0.22-0.29,0.6-0.83,1.12c-0.54,0.53-0.51,0.58-0.58,0.58c-0.07,0-0.22-0.15,0.02-0.42
			c0.24-0.27,0.82-0.67,0.92-1.14c0.11-0.47-0.34-0.24-0.36-0.13c-0.02,0.11-0.31,0.82-1,1.43c-0.69,0.62-1.31,0.63-1.05,0.34
			c0.25-0.29,1.16-0.76,1.27-1.36c0.11-0.6-0.34-0.25-0.36-0.15c-0.02,0.11-0.4,0.85-1.05,1.31c-0.65,0.45-1.07,0.4-0.89,0.09
			c0.18-0.31-0.11-0.2-0.16-0.15c-0.05,0.05-0.53,0.38-0.65,0.31c-0.13-0.07-0.22-0.09-0.11-0.29c0.11-0.2-0.18-0.07-0.44,0.02
			c-0.25,0.09-0.56,0.2-0.56-0.04c0-0.24-0.42,0.07-0.53,0.09c-0.11,0.02-0.94,0.22-0.94,0.05c0-0.16,0.34-0.38,0-0.4
			c-0.34-0.02-0.72-0.07-0.54-0.27c0.18-0.2,0.67,0.07,1.2-0.63c0.53-0.71-0.2-0.27-0.22-0.27c-0.02,0-0.27,0.38-0.62,0.53
			c-0.34,0.15-0.71,0.33-1.07,0.36c-0.36,0.04-0.67-0.16-0.34-0.31c0.33-0.15,1.02-0.18,1.38-0.62c0.36-0.43-0.45-0.13-0.53,0.02
			c-0.07,0.15-0.98,0.31-0.98,0.31s-1.38,0.02-0.42-0.33c0.96-0.34,1.45-0.69,0.56-0.43c-0.89,0.25-2.28,0.22-1.65-0.05
			c0.63-0.27-0.25-0.11-0.4-0.13c-0.15-0.02-0.56-0.15-0.27-0.53c0.29-0.38-0.4-0.07-0.04-0.22c0.36-0.15-0.47-0.31,0.13-0.34
			c0.6-0.04-0.89-0.34-0.53-0.38c0.36-0.04-0.62-0.67,0.11-0.51c0.73,0.16,0.07-0.05,0.34-0.2c0.27-0.15,0.29,0.36,0.4,0.38
			c0.11,0.02,0.42,0.58,0.42,0.16c0-0.42-0.18-0.67,0.36-0.09c0.54,0.58,0.42,0.18,0.38-0.02c-0.04-0.2,0-0.42,0.2-0.29
			c0.2,0.13,0.09-0.45,0.31-0.16c0.22,0.29,0.18,0.67,0.44,0.83c0.25,0.16,0.51,0.34,0.34-0.07c-0.16-0.42-0.09-0.82,0.31-0.24
			c0.4,0.58,0.56,0.71,0.47,0.36c-0.09-0.34-0.04-0.65,0.25-0.24c0.29,0.42,0.54,0.53,0.38,0.16c-0.16-0.36,0.11-0.18,0.27-0.11
			c0.16,0.07,0.25,0.09,0.2-0.15c-0.05-0.24,0.45,0.58,0.6,0.74c0.14,0.16,0.63,0.63,0.22-0.22c-0.42-0.85,0.31-0.18,0.31-0.18
			s1.18,1.14,0.74,0.34c-0.44-0.8-0.22-0.87,0.13-0.62c0.34,0.25,0.78,1.09,0.53,0.42c-0.25-0.67-0.16-0.82,0.25-0.38
			c0.42,0.44,1.31,1.5,0.98,0.54c-0.33-0.96,0.36-0.2,0.47-0.07c0.11,0.13,0.67,0.42,0.24-0.15c-0.43-0.56,0.36-0.22,0.53-0.09
			c0.16,0.13,0.74,0.65,0.33-0.04c-0.42-0.69-0.15-0.45,0.31-0.22c0.45,0.24,0.51,0,0.29-0.29c-0.22-0.29-0.42,0.07-0.22-0.43
			c0.2-0.51-0.27-0.24-0.47-0.27c-0.2-0.04,0.18-0.24-0.27-0.33c-0.45-0.09-1.79-0.13-1.03-0.49c0.76-0.36-0.2-0.07-0.31-0.18
			c-0.11-0.11-0.62-0.18-0.33-0.31c0.29-0.13-0.33-0.22-0.45-0.2c-0.13,0.02-1.54-0.25-0.78-0.34c0.76-0.09,2.3,0.31,2.41-0.09
			c0.11-0.4-0.74-0.14-0.98-0.14c-0.24,0-3.39-0.2-2.05-0.34c1.34-0.14,1.49,0.02,1.63-0.11c0.14-0.13-0.69-0.18-0.94-0.18
			s-2.07-0.25-1.32-0.33c0.74-0.07,0.67-0.15,0.18-0.25c-0.49-0.11-1.32-0.4-0.38-0.44s2.14-0.07,1-0.27
			c-1.14-0.2-1.18,0.09-1.83-0.13c-0.65-0.22-1-0.36,0.98-0.38c1.98-0.02,0.27-0.14,0.33-0.22c0.05-0.07-1.47-0.02-2.21-0.31
			c-0.74-0.29-0.38-0.42-0.6-0.6c-0.22-0.18-0.73-0.6,0.42-0.42c1.14,0.18-0.43-0.4-0.58-0.4s-1.69-1.23,0.27-0.38
			c1.96,0.85,0.73,0.16,0.6-0.09c-0.13-0.25-1.69-0.67-1.69-0.67s-0.15-0.36,0.31-0.25c0.45,0.11,0.8,0.63,1.03,0.4
			c0.24-0.24-0.45-0.36-1-0.62c-0.54-0.25-1.34-1.01,0.24-0.36c1.58,0.65,0.25-0.16,0.13-0.24c-0.13-0.07-0.94-0.25-1.23-0.78
			c-0.29-0.53-0.16-0.94,0.22-0.69c0.38,0.25,0.42,0.2,0.24-0.13c-0.18-0.33-0.27-0.91-0.14-1.03c0.13-0.13,0.31-0.31,0.38,0.33
			c0.07,0.63,0.29,0.53,0.29,0.24c0-0.29,0.2-0.11,0.25,0.31c0.05,0.42,0.33,0.34,0.33,0.13c0-0.22,0.15-0.4,0.25,0.34
			c0.11,0.74,0.24,0.78,0.27,0.45c0.04-0.33,0.25-0.94,0.34,0.05c0.09,1,0.24,0.94,0.29,0.56c0.05-0.38,0.24-0.62,0.36,0.27
			c0.13,0.89,0.09,1.6,0.27,0.74c0.18-0.85,0.36,0.16,0.36,0.53c0,0.36,0.25,0.8,0.25,0.29c0-0.51,0.27-1.02,0.56-0.07
			c0.29,0.94,0.31,1.27,0.31,0.62s0.31-0.22,0.34,0.02c0.04,0.24,0.38,2.07,0.54,0.82c0.16-1.25,0.36-0.2,0.34,0.09
			c-0.02,0.29,0.33,1.59,0.34,0.29c0.02-1.31,0.44,0.18,0.42,0.25c-0.02,0.07,0.16,1.45,0.34,0.33c0.18-1.12,0.36,0.07,0.34,0.2
			c-0.02,0.13,0.44,1.61,0.34,0.33c-0.09-1.29,0.29-0.31,0.29-0.14s0.29,1.29,0.31,0.42c0.02-0.87,0.31,0.38,0.31,0.33
			c0-0.05,0.11,0.02,0.18,0.45c0.07,0.43,0.24,0.11,0.24-0.09s-0.29-0.74,0.18-0.49s0.18-0.05,0.2-0.25
			c0.02-0.2,0.85,0.51,1.31,0.62c0.45,0.11,0.72-0.09,0.11-0.25c-0.62-0.16-1.65-0.83-1.79-1.07c-0.14-0.24-0.25-0.63,0.04-0.51
			c0.29,0.13,0.18-0.11,0.05-0.2c-0.13-0.09-0.56-0.89,0.09-0.44c0.65,0.45,0.16,0.38,1.09,0.71c0.92,0.33,0.22-0.18-0.07-0.31
			c-0.29-0.13-1.36-0.56-1.79-1.09c-0.44-0.53,0.04-0.47,0.09-0.43c0.05,0.04,0.51,0.6,1.14,0.85c0.63,0.25,0.65,0.27,0.56-0.02
			c-0.09-0.29-0.58-0.2-0.91-0.45c-0.33-0.25-0.89-0.58-1.16-1.09c-0.27-0.51-0.29-0.44,0.05-0.45c0.34-0.02,0.94,1.12,1.49,1.2
			c0.54,0.07,0.14-0.33,0.07-0.33c-0.07,0-0.34-0.02-0.69-0.29c-0.34-0.27-0.76-0.49-0.92-0.87c-0.16-0.38-0.18-0.11,0.29-0.11
			s0.31,0.62,0.89,0.71c0.58,0.09,0.38-0.34,0.22-0.38c-0.16-0.04-1.12-0.34-1.58-1.07c-0.45-0.73,0.29-0.34,0.29-0.34
			s0.33,0.54,0.94,0.8c0.62,0.25,0.2-0.2,0.25-0.22c0.05-0.02-1.07-0.34-1.63-1.18c-0.56-0.83,0.22-0.49,0.27-0.34
			c0.05,0.15,0.47,0.78,0.98,0.91c0.51,0.13,0.22-0.31,0.09-0.44c-0.13-0.13-1.03-0.27-1.43-1.09c-0.4-0.82,0.29-0.25,0.29-0.25
			s0.25,0.71,0.91,0.8c0.65,0.09,0.43,0,0.05-0.33c-0.38-0.33-1.03-0.69-1.05-1.09c-0.02-0.4-0.09-0.65,0.27-0.29
			c0.36,0.36,0.83,0.76,0.83,0.76s0.51-0.04,0-0.24c-0.51-0.2-1.14-0.82-1.14-1.02c0-0.2-0.24-0.76,0.33-0.16
			c0.56,0.6,0.25,0.11,0.13-0.15c-0.13-0.25-0.34-1.14,0.2-0.42c0.54,0.73,0.07,0.69,0.36,0.45c0.29-0.24,0.2-0.22,0.11-0.34
			c-0.09-0.13-0.11-0.05-0.42-0.53c-0.31-0.47-0.69-0.76-0.31-0.82c0.38-0.05,0.2-0.51,0.22-0.71c0.02-0.2,0.2-0.33,0.38-0.16
			c0.18,0.16,0.15-0.45,0.15-0.63c0-0.18,0.25-0.11,0.25-0.02c0,0.09-0.04,0.72,0.16,0.47c0.2-0.25,0.38-0.18,0.33,0.04
			c-0.05,0.22-0.47,1.18-0.07,0.82c0.4-0.36,0.07,0.45,0.04,0.56c-0.04,0.11-0.04,0.69,0.22,0.07c0.25-0.62,0.25,0.38,0.2,0.51
			c-0.05,0.13,0.05,0.53,0.18,0.09c0.13-0.43,0.07,0.11-0.04,0.71c-0.11,0.6-0.29,1.23,0.04,0.94c0.33-0.29,0.65-0.38,0.42,0.09
			c-0.24,0.47-0.67,1.67-0.27,1.25c0.4-0.42,0.36-0.42,0.33-0.04c-0.04,0.38-0.05,0.54,0.22,0.27c0.27-0.27,0.31,0.34,0.15,0.49
			c-0.16,0.14-0.44,0.87-0.18,0.69c0.25-0.18,0.16,0.14,0.13,0.29c-0.04,0.15,0.18,0.13,0.29,0.02c0.11-0.11,0.02,0.53-0.09,0.6
			c-0.11,0.07-0.36,0.96-0.05,0.67c0.31-0.29,0.27-0.15,0.36,0.09c0.09,0.24,0.18,0.14,0.09-0.16c-0.09-0.31-0.31-0.8,0.04-0.67
			c0.34,0.13,0.05-0.2,0.02-0.38c-0.04-0.18-0.11-0.63,0.22-0.4c0.33,0.24,0.09-0.31,0.05-0.44c-0.04-0.13-0.31-1.2,0.22-0.4
			c0.53,0.8,0.38,0.67,0.2,0.2c-0.18-0.47-0.42-1.05-0.34-1.21c0.07-0.16,0.38,0.22,0.76,1.16c0.38,0.94,0.89,1.2,0.73,0.87
			c-0.16-0.33-0.62-1.12-0.82-1.67c-0.2-0.54-0.6-1.87-0.16-1.49c0.44,0.38,0.13-0.2,0.09-0.34c-0.04-0.15-0.18-0.73,0.02-0.45
			c0.2,0.27,0.2-0.22,0.18-0.53c-0.02-0.31,0.11-0.38,0.04-0.83c-0.07-0.45,0.24-0.4,0.31-0.25c0.07,0.15,0.05-0.31,0.09-0.44
			c0.04-0.13,0.07-0.4,0.27-0.25c0.2,0.14,0.2-0.2,0.2-0.36c0-0.16,0.25,0.58,0.2-0.04c-0.05-0.62,0.34-1.03,0.36-0.74
			c0.02,0.29,0.31,0.05,0.4-0.36c0.09-0.42,0.4-0.53,0.4-0.25c0,0.27-0.31,1.11,0.02,0.74c0.33-0.36,0.24,0.07,0.2,0.22
			c-0.04,0.15-0.63,0.69-0.31,0.56c0.33-0.13,0.45,0.05,0.33,0.22s-0.6,0.62-0.27,0.63c0.33,0.02,0.36,0.22,0.11,0.54
			c-0.25,0.33,0.15,0.27,0.34,0.13c0.2-0.14,0.13,0.31-0.09,0.54c-0.22,0.24-0.51,0.83-0.13,0.69c0.38-0.15,0.27,0.13,0.22,0.25
			c-0.05,0.13-0.89,0.96-0.27,0.65c0.62-0.31,0.45-0.18,0.33,0.18c-0.13,0.36-0.87,1.16-0.38,1.05c0.49-0.11,0.38,0.22,0.22,0.42
			c-0.16,0.2-0.45,0.62-0.02,0.53c0.44-0.09-0.16,0.33-0.15,0.4c0.02,0.07-0.34,0.47,0.02,0.45c0.36-0.02,0.27,0.09,0.13,0.38
			c-0.15,0.29-0.27,0.53,0.14,0.29c0.42-0.24,0.22,0.29,0.14,0.47c-0.07,0.18-0.62,0.65-0.16,0.6c0.45-0.05,0.13,0.25,0.11,0.36
			c-0.02,0.11,0.53,0,0.33,0.34c-0.2,0.34-0.89,0.96-0.47,0.89c0.42-0.07,0.04,0.45-0.02,0.63c-0.05,0.18-0.29,0.62,0.02,0.49
			c0.31-0.13,0.44-0.69,0.67-0.73c0.24-0.04,0.53,0.07,0.42-0.09c-0.11-0.16,0.11-0.14,0.36,0.13c0.25,0.27,0.45,0.76,0.49,0.51
			c0.04-0.25-0.14-0.54-0.25-0.69c-0.11-0.15-0.74-0.85-0.74-1.14c0-0.29-0.02-0.4,0.4,0.13c0.42,0.53,0.89,0.74,0.62,0.2
			c-0.27-0.54-0.76-1.67-0.16-0.94c0.6,0.73,0.78,0.56,0.27-0.16c-0.51-0.73-0.47-1.11-0.02-0.58c0.45,0.53,1.07,1.34,0.53,0.18
			c-0.54-1.16-1.03-1.52-0.44-1.18c0.6,0.34,0.56,0.38,0.4,0.04c-0.16-0.34-0.62-0.65-0.62-0.74c0-0.09-0.11-0.67,0.43-0.09
			c0.54,0.58,0.53,0.2,0.34-0.09c-0.18-0.29-1.56-1.9-0.36-1.11c1.2,0.8,0.22-0.04,0.22-0.14c0-0.11-0.73-1.32,0.09-0.49
			c0.82,0.83,0.29-0.2,0.15-0.24s-1.23-1.56-0.49-1.14c0.74,0.42,0.92,0.85,0.78,0.4c-0.15-0.45-0.63-0.74-0.73-0.87
			c-0.09-0.13-0.63-1.11-0.05-0.71c0.58,0.4,0.91,0.94,0.73,0.47c-0.18-0.47-0.73-1.03-0.31-0.96c0.42,0.07,0.04-0.25-0.05-0.45
			c-0.09-0.2-0.14-0.54,0.11-0.44c0.25,0.11,0.18-0.27,0.18-0.43c0-0.16,0.29-0.27,0.36,0.04c0.07,0.31-0.09,0.29,0.27,0.24
			c0.36-0.05-0.05,0.25-0.02,0.49c0.04,0.24,0.36,0.09,0.49-0.02c0.13-0.11,0.36-0.36,0.51-0.13c0.14,0.24-0.33,1.05-0.6,1.36
			c-0.27,0.31-0.25,0.94-0.04,0.69c0.22-0.25,0.56-0.91,0.6-1.07c0.04-0.16,0.27,0,0.16,0.4c-0.11,0.4-0.27,0.83-0.51,1.05
			c-0.24,0.22-0.45,0.78-0.16,0.58c0.29-0.2,0.73-1.32,0.73-1.32s0.45-0.74,0.36,0.11c-0.09,0.85-0.87,1.5-0.96,1.63
			c-0.09,0.13-0.36,0.56-0.09,0.54c0.27-0.02,0.83-1.2,0.83-1.2s0.33-0.11,0.05,0.63c-0.27,0.74-0.83,0.96-0.91,1.09
			c-0.07,0.13-0.22,0.87,0.13,0.45c0.34-0.42,0.74-0.94,0.82-1.34c0.07-0.4,0.31,0.07,0.18,0.33c-0.13,0.25-0.4,1.07-0.91,1.5
			c-0.51,0.43-0.29,0.63-0.04,0.36c0.25-0.27,1.18-1.94,1.12-1.11c-0.05,0.83-0.92,1.5-1.09,1.69c-0.16,0.18-0.2,0.63,0.09,0.29
			c0.29-0.34,1-1.31,0.8-0.58c-0.2,0.73-1.09,1.25-1.09,1.25s-0.31,0.49,0.05,0.33c0.36-0.16,1.79-2.21,1.36-0.96
			c-0.43,1.25-0.56,0.63-0.63,0.91c-0.07,0.27,0.38,0.18,0.38,0.18s-0.25,0.36-0.56,0.56c-0.31,0.2-0.24,0.34-0.02,0.25
			c0.22-0.09,0.49-0.02,0.16,0.34c-0.33,0.36-0.62,1.01-0.15,0.53c0.47-0.49,0.85-0.49,0.56,0.02s-0.71,0.65-0.53,0.92
			c0.18,0.27-0.25,0.73,0.13,0.53c0.38-0.2,0.22-0.74,0.47-0.58c0.25,0.16,0.24,1.14,0.4,0.07c0.16-1.07,0.43-1.29,0.43-0.69
			c0,0.6,0.38-0.04,0.38-0.69c0-0.65,0.27-1.07,0.34-0.51c0.07,0.56,0.27,0.78,0.25,0c-0.02-0.78,0.51-0.76,0.49-0.09
			c-0.02,0.67,0.4-0.11,0.25-0.89c-0.15-0.78-0.13-1.96,0.33-0.63c0.45,1.32,0.36,0.54,0.44,0.09c0.07-0.45,0.09-1.07,0.4-0.47
			c0.31,0.6,0.16-0.58,0.14-0.91c-0.02-0.33,0.38-0.42,0.38-0.02c0,0.4,0.4-0.15,0.27-0.69c-0.13-0.54,0-0.62,0.24-0.65
			c0.24-0.04,0.42-0.91,0.43-0.51c0.02,0.4,0.16,0.16,0.36-0.07c0.2-0.24,0.42,0.11,0.44-0.27c0.02-0.38,0.27-0.02,0.22,0.62
			c-0.05,0.63,0.31-0.04,0.47-0.15c0.16-0.11,0.49-0.09-0.07,1.03c-0.56,1.12,0.16,0.15,0.31,0.24c0.15,0.09-0.2,0.54-0.33,0.74
			c-0.13,0.2-0.15,0.49,0.16,0.54c0.31,0.05,0.13,0.2-0.36,0.53c-0.49,0.33-0.29,0.29,0.04,0.31c0.33,0.02-0.09,0.29-0.4,0.51
			c-0.31,0.22-0.73,0.6-0.25,0.69c0.47,0.09,0.31,0.33-0.34,0.51c-0.65,0.18-1.16,0.31-0.58,0.47c0.58,0.16,0.69,0.14,0.34,0.25
			c-0.34,0.11-0.67-0.02-0.63,0.34c0.04,0.36,0.25,0.42-0.15,0.56c-0.4,0.15-0.22,0-0.76,0.07c-0.54,0.07,0.34,0.13,0.45,0.42
			c0.11,0.29-0.25,0.18-0.42,0.2c-0.16,0.02-0.62,0.18-0.27,0.33c0.34,0.15-0.36,0.45-0.62,0.45c-0.25,0-0.6,0.15-0.16,0.38
			c0.43,0.24-0.24,0.34-0.49,0.34c-0.25,0-0.65,0.13-0.25,0.27c0.4,0.15-0.31,0.29-0.45,0.27c-0.15-0.02-0.85,0.05-0.24,0.24
			c0.62,0.18-0.29,0.34-0.53,0.31c-0.24-0.04-0.43,0.4-0.43,0.4s-0.31,1-0.02,0.69c0.29-0.31,1.27-1.27,0.98-0.69
			c-0.29,0.58-0.47,1.02-0.11,0.69c0.36-0.33,0.8-1.6,0.8-0.85c0,0.74-0.51,1.18,0.05,0.67c0.56-0.51,0.56-1.52,0.76-0.85
			c0.2,0.67-0.04,0.87,0.34,0.34c0.38-0.53,0.24-0.16,0.29,0.11c0.05,0.27,0.16,0.07,0.24-0.27c0.07-0.34,0.53-0.87,0.44-0.02
			c-0.09,0.85,0.2,0.31,0.33,0c0.13-0.31,0.33-0.91,0.45-0.27c0.13,0.63,0.44-0.15,0.49-0.45c0.05-0.31,0.45-0.69,0.36,0.02
			c-0.09,0.71,0.38-0.07,0.38-0.38s0.47-0.54,0.34,0.2c-0.13,0.74,0.29,0.51,0.45-0.16c0.16-0.67,0.47-1.03,0.47-0.31
			c0,0.73,0.31,0.16,0.45-0.29c0.15-0.45,0.62-1.51,0.56-0.31c-0.05,1.2,0.04,0.62,0.25,0.14c0.22-0.47,0.51-1.12,0.51-0.34
			s0.33,0.13,0.38-0.27c0.05-0.4,0.25-1.2,0.34-0.4c0.09,0.8,0.24,0.15,0.34-0.13c0.11-0.27,0.62-0.33,0.62-0.09
			c0,0.24-0.07,0.36,0.25,0.29c0.33-0.07,0.14,0.56,0.04,0.47c-0.11-0.09-0.13,0.38,0.24,0.31c0.36-0.07-0.02,0.51-0.16,0.51
			c-0.14,0,0,0.22-0.4,0.33c-0.4,0.11-0.22,0.31-0.18,0.42c0.04,0.11,0.05,0.2-0.25,0.27c-0.31,0.07-0.11,0.25-0.07,0.38
			c0.04,0.13-0.05,0.24-0.4,0.13c-0.34-0.11-1.02,0.04-0.49,0.24c0.53,0.2,0.45,0.43,0.07,0.45c-0.38,0.02-0.62-0.02-0.36,0.24
			c0.25,0.25-0.25,0.4-0.65,0.33c-0.4-0.07-1.36-0.34-0.87-0.07c0.49,0.27,0.54,0.6,0.16,0.54c-0.38-0.05-1.5-0.27-1.05-0.07
			c0.45,0.2,0.69,0.69,0.24,0.63c-0.45-0.05-1.32-0.36-0.87-0.02c0.45,0.34,0.49,0.62,0.04,0.6c-0.45-0.02-1.07-0.42-0.91-0.22
			c0.16,0.2-0.11,0.42-0.42,0.34c-0.31-0.07-0.65,0.15-0.02,0.31c0.63,0.16-0.22,0.18-0.85,0.05c-0.63-0.13-1.27-0.16-0.56,0.16
			c0.71,0.33-0.11,0.38-0.51,0.22c-0.4-0.16-1.09-0.45-0.65-0.07c0.44,0.38-0.4,0.15-0.63,0.04c-0.24-0.11-0.83-0.05-0.47,0.14
			c0.36,0.2-0.22,0.33-0.36,0.11c-0.15-0.22-0.54,0.11-0.25,0.25c0.29,0.15-0.31,0.02-0.62-0.18c-0.31-0.2-0.82-0.27-0.69-0.07
			c0.13,0.2-0.49-0.04-0.76-0.25c-0.27-0.22-0.76,0.38-0.49,0.45c0.27,0.07,0.11,0.31-0.18,0.42c-0.29,0.11,0.07,0.29,0.47-0.11
			c0.4-0.4,0.18,0.38,0.09,0.45c-0.09,0.07-0.56,0.47,0.09,0.36c0.65-0.11,0.8-0.2,0.58,0.15c-0.22,0.34-0.27,0.43,0.25,0.24
			c0.53-0.2,0.96-0.04,0.71,0.22c-0.25,0.25-0.09,0.36,0.24,0.2c0.33-0.16,0.45-0.18,0.29,0.13c-0.16,0.31-0.05,0.45,0.34-0.02
			c0.4-0.47,0.94-0.22,0.58,0.11c-0.36,0.33-0.22,0.45,0.14,0.18c0.36-0.27,0.63-0.13,0.34,0.18c-0.29,0.31-0.14,0.6,0.33,0.18
			c0.47-0.42,0.71-0.18,0.38,0.09c-0.33,0.27,0.04,0.47,0.42-0.13c0.38-0.6,0.6-0.29,0.47-0.02c-0.13,0.27-0.02,0.49,0.27-0.02
			c0.29-0.51,0.62-0.09,0.45,0.11c-0.16,0.2,0.15,0.44,0.44-0.09c0.29-0.53,0.67-0.36,0.44,0.02c-0.24,0.38,0.13,0.47,0.36,0
			c0.24-0.47,0.73-0.51,0.6-0.16c-0.13,0.34,0.25,0.22,0.33,0.07c0.07-0.15,0.67-0.27,0.42,0.11c-0.25,0.38,0.24,0.22,0.4-0.13
			c0.16-0.34,0.53-0.42,0.44-0.13c-0.09,0.29,0.27-0.09,0.42-0.31c0.15-0.22,0.51-0.18,0.45,0c-0.05,0.18,0.49-0.2,0.34,0.47
			c-0.15,0.67-0.27,0.51-0.18,0.67c0.09,0.16-0.16,0.16-0.25,0.2s-0.31,0.2-0.13,0.29c0.18,0.09-0.18,0.38-0.49,0.27
			c-0.31-0.11-1.2-0.09-0.44,0.22c0.76,0.31,0.18,0.38,0.04,0.38c-0.15,0,0.51,0.47-0.53,0.29c-1.03-0.18-0.62,0.02-0.31,0.15
			c0.31,0.13,0.13,0.51-1.07-0.13c-1.2-0.63-1.72-0.56-0.74-0.05c0.98,0.51,1.63,1,0.2,0.51c-1.43-0.49-0.63,0.04-0.42,0.15
			c0.22,0.11,0.92,0.76-0.49,0.11c-1.41-0.65-1.36-0.62-0.76-0.2c0.6,0.42,0.54,1.05-0.6-0.04c-1.14-1.09-1.5-1.38-1.25-0.96
			c0.25,0.42,1.7,1.79,0.43,1.14c-1.27-0.65-1.29-2.28-1.5-1.34c-0.22,0.94,0.54,0.76,0.87,1.09c0.33,0.33-0.2,0.4-0.58,0.02
			c-0.38-0.38-0.65-0.42-0.65-1.25c0-0.83-0.49-0.29-0.38-0.13c0.11,0.16,0.04,1.11,0.65,1.63c0.62,0.53-0.69-0.15-0.73-0.25
			c-0.04-0.11-0.56-0.73-0.53-0.34c0.04,0.38-0.14,0.07-0.43-0.05c-0.29-0.13-0.96-0.2-0.76-0.04c0.2,0.16,0.56,0.51,0.96,0.47
			c0.4-0.04,0.24,0.31-0.15,0.25c-0.38-0.05-0.87,0.22-0.31,0.27c0.56,0.05,1.16,0.34,0.85,0.47c-0.31,0.13-0.22,0.2,0.18,0.27
			c0.4,0.07,0.96,0.4,0.45,0.45c-0.51,0.05-0.65,0.36-0.07,0.36c0.58,0,1.2,0.25,0.91,0.4c-0.29,0.15-0.11,0.18,0.2,0.16
			c0.31-0.02,0.25,0.24-0.11,0.34c-0.36,0.11,0.11,0.29,0.6,0.29c0.49,0,0.85,0.24,0.62,0.31c-0.24,0.07-0.15,0.27,0.24,0.18
			c0.38-0.09,1.16,0.13,0.82,0.2c-0.34,0.07-0.22,0.36,0.16,0.36c0.38,0,0.69,0.02,0.53,0.2c-0.16,0.18,0.07,0.14,0.45,0.18
			c0.38,0.04,1.36,0.09,1,0.2c-0.36,0.11-0.76,0.38-0.49,0.43s-0.25,0.31-0.49,0.38c-0.24,0.07-0.51,0.22-0.49,0.33
			c0.02,0.11-0.24,0.11-0.42-0.04c-0.18-0.15-0.49-0.13-0.47,0.04c0.02,0.16,0,0.14-0.25,0c-0.25-0.15-0.51-0.22-0.45-0.04
			c0.05,0.18-0.31,0-0.45-0.15c-0.14-0.15-0.4-0.49-0.4-0.27c0,0.22-0.44,0.47-0.45,0.18c-0.02-0.29-0.33-1-0.33-0.76
			c0,0.24-0.11,0.78-0.36,0.43c-0.25-0.34-0.05-1.01-0.29-0.94c-0.24,0.07-0.04,0.4-0.02,0.65c0.02,0.25-0.36,0.63-0.53-0.09
			c-0.16-0.73,0.27-1.58,0.02-1.38c-0.25,0.2-0.31,0.4-0.29,0.87c0.02,0.47-0.31,0.25-0.34-0.13c-0.04-0.38,0.09-1.5-0.05-0.92
			c-0.15,0.58-0.16,1.7-0.45,0.96c-0.29-0.74,0.22-2.14,0-1.79c-0.22,0.34-0.31,0.51-0.31,0.91c0,0.4-0.31,0.34-0.4,0
			c-0.09-0.34,0-1.99-0.07-1.7c-0.07,0.29,0,0.65-0.16,0.98c-0.16,0.33-0.29-0.58-0.29-0.42c0,0.16,0.29-1.09,0.13-0.92
			c-0.16,0.16-0.38-0.31-0.53,0.51c-0.14,0.82-0.2-0.04-0.36-0.2c-0.16-0.16-0.34,0.22-0.51-0.6c-0.16-0.82-0.31-1.09-0.49-0.82
			c-0.18,0.27-0.4-0.07-0.4-0.38s-0.33-0.54-0.36-0.33c-0.04,0.22-0.42,0.11-0.44,0.38c-0.02,0.27-0.24,0.14-0.33-0.33
			c-0.09-0.47-0.36-0.25-0.2,0.51c0.16,0.76,0.22,1.32,0,1.09c-0.22-0.24-0.24,0.18-0.22,0.45c0.02,0.27,0.02,0.71-0.07,0.6
			c-0.09-0.11-0.29-0.25-0.2,0.34c0.09,0.6-0.11,0.8-0.27,0.14c-0.16-0.65,0.02-1.61-0.2-1.81c-0.22-0.2-0.43-0.24-0.29,0.16
			c0.15,0.4,0.44,1.18,0.4,2.07c-0.04,0.89-0.29,1.14-0.33,0.56c-0.04-0.58,0.2-1.54-0.18-1.83c-0.38-0.29-0.43-0.16-0.34,0.16
			c0.09,0.33,0.42,0.74,0.29,1.56c-0.13,0.82-0.49,1.23-0.51,0.65c-0.02-0.58,0.24-1.38-0.05-1.49c-0.29-0.11-0.29,0.07-0.16,0.4
			c0.13,0.33,0.22,1.32,0.16,1.79c-0.05,0.47-0.4,0.62-0.44,0.24c-0.04-0.38-0.07,0.42-0.04,0.72c0.04,0.31-0.29,0.98-0.33,0.47
			c-0.04-0.51-0.29-0.4-0.29,0.02s0.02,1.45-0.15,0.91c-0.16-0.54-0.34-0.63-0.38-0.36c-0.04,0.27-0.04,0.96-0.18,0.8
			s-0.38-0.14-0.43,0.09c-0.05,0.24-0.09,0.22-0.15-0.04C111.46,629.56,111.19,629.87,111.16,629.89L111.16,629.89L111.16,629.89z"
			/>
		<path id="path20_00000153694889921735828340000018247439513138920833_" class="st12" d="M89.96,593.04
			c0.63-2.24,1.54-3.05,2.55-4.3c-0.52-1.62-4.84-5.07-6.8-8.14c-0.83,2.1-1.64,2.15-2.54,4.21
			C85.42,588.95,88.06,590.02,89.96,593.04L89.96,593.04z"/>
		<path id="path22_00000125587114213105185570000001546377029397833868_" class="st12" d="M142.47,593.04
			c-0.63-2.24-1.54-3.05-2.55-4.3c0.52-1.62,4.84-5.07,6.8-8.14c0.83,2.1,1.64,2.15,2.54,4.21
			C147.01,588.95,144.36,590.02,142.47,593.04L142.47,593.04z"/>
		<path id="path24_00000181784587944603540180000009860728126246965913_" class="st2" d="M86.79,587.73
			c0.47,0.51,1.21,0.96,1.92,0.18c0.47-0.85,0.09-1.7-0.33-2.3c0.05,0.44,0.14,1.23-0.16,1.72
			C87.68,587.89,87.5,587.73,86.79,587.73L86.79,587.73z"/>
		<path id="path26_00000010301414434877156240000001971139874192452539_" class="st2" d="M145.64,587.73
			c-0.47,0.51-1.21,0.96-1.92,0.18c-0.47-0.85-0.09-1.7,0.33-2.3c-0.05,0.44-0.15,1.23,0.16,1.72
			C144.75,587.89,144.93,587.73,145.64,587.73L145.64,587.73z"/>
		<path id="path28_00000079443723112233223210000009564873102878366615_" class="st10" d="M91.48,599.44l24.73-43.88v-3.25
			l-25.5,46.65C90.99,599.07,91.25,599.22,91.48,599.44L91.48,599.44z"/>
		<path id="path30_00000163751209213428937450000000794454563038516893_" class="st10" d="M140.94,599.44l-24.73-43.88v-3.25
			l25.5,46.65C141.44,599.07,141.18,599.22,140.94,599.44L140.94,599.44z"/>
		<path id="path32_00000004520750229139903170000017947296735247520958_" class="st10" d="M90.34,600.45
			c-0.59-0.35-0.9-0.93-0.69-1.29c0.21-0.36,0.87-0.36,1.46-0.01c0.59,0.35,0.9,0.93,0.69,1.29
			C91.59,600.79,90.93,600.8,90.34,600.45L90.34,600.45L90.34,600.45z"/>
		<path id="path34_00000023989535889784066650000003835851276992002233_" class="st10" d="M142.09,600.45
			c0.59-0.35,0.9-0.93,0.69-1.29c-0.21-0.36-0.87-0.36-1.46-0.01c-0.59,0.35-0.9,0.93-0.69,1.29
			C140.84,600.79,141.5,600.8,142.09,600.45L142.09,600.45L142.09,600.45z"/>
		<path id="path36_00000100356791820808310220000015371316561370545317_" class="st10" d="M115.85,597.08
			c-0.11-15.19-0.53-28.62-0.65-43.81c-0.65-2.41-1.85-3.97-4.04-4.1c-0.36,0-0.54-0.16-0.51-0.49c0-0.29,0-0.58,0-0.87
			c-0.02-0.42,0.11-0.6,0.43-0.54c1.76,0.18,3.37-0.56,5.13-0.62c1.76,0.05,3.37,0.8,5.13,0.62c0.33-0.05,0.45,0.13,0.43,0.54
			c0,0.29,0,0.58,0,0.87c0.04,0.33-0.14,0.49-0.51,0.49c-2.19,0.13-3.39,1.69-4.04,4.1c-0.13,15.19-0.49,28.62-0.6,43.81H115.85
			L115.85,597.08z"/>
		<path id="path38_00000083776832749802927900000015416132185138554541_" class="st13" d="M111.16,629.89c0,0-0.18-0.07-0.13-0.36
			c0.05-0.29-0.43-0.07-0.43,0.02c0,0.09-0.15-0.11-0.09-0.16c0.05-0.05,0.22-0.13,0.29-0.25c0.07-0.13-0.02-0.36-0.09-0.29
			c-0.07,0.07-0.31,0.09-0.27,0.02c0.04-0.07,0.22-0.09,0.36-0.34c0.15-0.25-0.02-0.27-0.02-0.27s-0.22,0.07-0.22-0.04
			c0-0.11,0.04-0.22,0.16-0.29c0.13-0.07,0.4-0.29,0.54-0.29c0.15,0,0.09-0.2,0.09-0.2s-0.27,0.13-0.33-0.05
			c-0.05-0.18,0.13-0.33,0.13-0.33s0.45-0.33,0.63-0.36c0.18-0.04,0.29-0.27,0.18-0.29c-0.11-0.02-0.44-0.04-0.54-0.02
			c-0.11,0.02-0.24-0.2-0.13-0.29c0.11-0.09,0.45-0.22,0.76-0.29c0.31-0.07,0.25-0.2,0.18-0.24c-0.07-0.04-0.54-0.09-0.65,0
			c-0.11,0.09-0.38-0.11-0.13-0.25c0.25-0.15,0.73-0.07,0.69-0.36c-0.04-0.29-0.27-0.18-0.38-0.2c-0.11-0.02-0.25-0.18-0.05-0.29
			c0.2-0.11,0.58-0.33,0.78-0.33c0.2,0,0.25-0.31,0.15-0.31c-0.11,0-0.53,0.04-0.54,0.07c-0.02,0.04-0.38,0-0.02-0.27
			c0.36-0.25,0.14-0.16,0.49-0.29c0.34-0.13,0-0.33-0.05-0.31c-0.05,0.02-0.31-0.18-0.07-0.25c0.24-0.07,0.42-0.18,0.34-0.25
			c-0.07-0.07-0.29-0.27-0.04-0.33c0.25-0.05,0.63-0.11,0.49-0.31c-0.15-0.2,0.05-0.09,0.31-0.18c0.25-0.09,0.02-0.29-0.07-0.27
			c-0.09,0.02-0.67,0.31-0.73,0.15c-0.05-0.16,0.04-0.22,0.04-0.22s0.42-0.07,0.6-0.22c0.18-0.14,0.22-0.27,0-0.27
			c-0.22,0-0.31,0.22-0.43,0.09c-0.13-0.13,0.14-0.33,0.05-0.58c-0.09-0.25-0.25-0.09-0.25,0.25c0,0.34-0.29,0.62-0.29,0.62
			s-0.11-0.27-0.11,0.16c0,0.43-0.25,0.22-0.25,0.07c0-0.15,0.16-0.4,0.04-0.45c-0.13-0.05-0.47,0.51-0.47,0.71
			c0,0.2-0.29,0.24-0.29,0c0-0.24,0.15-0.76,0.33-1.07c0.18-0.31,0.51-0.71,0.34-0.8c-0.16-0.09-0.31-0.11-0.31,0.05
			c0,0.16-0.62,1.61-0.92,1.98c-0.31,0.36-0.33,0.34-0.33,0.11c0-0.24,0.56-0.89,0.43-1.27c-0.13-0.38-0.25,0-0.27,0
			c-0.02,0-0.29,1.09-0.83,1.79c-0.54,0.71-0.54,0.24-0.4,0.05c0.14-0.18,0.71-0.89,0.63-1.34c-0.07-0.45-0.22-0.25-0.25-0.04
			c-0.04,0.22-0.54,1.59-1.2,2.14c-0.65,0.54-0.54,0.02-0.4-0.07c0.15-0.09,0.83-0.8,0.85-1.43c0.02-0.63-0.2-0.22-0.25-0.09
			c-0.05,0.13-0.31,1.2-1.07,1.83c-0.76,0.63-0.36-0.16-0.36-0.05c0,0.11,0.8-0.74,0.8-1.29c0-0.54-0.24-0.34-0.25-0.24
			c-0.02,0.11-0.34,1.07-0.94,1.47c-0.6,0.4-0.56,0.51-0.78,0.43c-0.22-0.07-0.34-0.02-0.42,0.11c-0.07,0.13-0.69,0.34-0.45-0.11
			c0.24-0.45-0.36,0.09-0.38,0.11c-0.02,0.02-0.76,0.36-0.51,0c0.25-0.36,1.2-0.54,1.2-1c0-0.45,0.16-0.51-0.16-0.29
			c-0.33,0.22-0.51,0.91-1.27,1.14c-0.76,0.24,0-0.42-0.02-0.33c-0.02,0.09,0.63-0.38,0.29-0.47c-0.34-0.09-0.4,0.24-0.51,0.4
			s-0.54,0.54-0.65,0.38c-0.11-0.16,0.13-0.24-0.04-0.24c-0.16,0-0.62,0.16-0.6-0.15c0.02-0.31-0.15-0.13-0.25-0.13
			s-0.29-0.05-0.27-0.16c0.02-0.11-0.34,0-0.34-0.13c0-0.13,0.18-0.18,0.29-0.2c0.11-0.02,0.2-0.09,0-0.27
			c-0.2-0.18-0.13-0.51,0.11-0.42c0.24,0.09,0.43,0.24,0.65,0.24c0.22,0,0.27,0.05,0.16-0.11c-0.11-0.16-0.24-0.36,0-0.36
			c0.24,0,0.89,0.56,1.03,0.34c0.14-0.22,0.14-0.27-0.04-0.42c-0.18-0.14-0.02-0.31,0.27-0.27c0.29,0.04,0.74,0.33,1,0.18
			c0.25-0.15,0.07-0.18-0.05-0.25c-0.13-0.07-0.29-0.27-0.07-0.27c0.22,0,0.4,0.07,0.78,0.05c0.38-0.02,0.22,0.22,0.42,0.04
			c0.2-0.18,0.33-0.18,0.07-0.29c-0.25-0.11-0.34-0.38-0.04-0.36c0.31,0.02,0.63,0.25,1.03,0.2c0.4-0.05,0.42-0.09,0.25-0.25
			c-0.16-0.16-0.42-0.15-0.42-0.33c0-0.18,0.27-0.18,0.38-0.14c0.11,0.04,0.42,0.18,0.56,0.18c0.15,0,0.29-0.02,0.16-0.16
			c-0.13-0.15-0.22-0.07-0.31-0.22c-0.09-0.15-0.09-0.2,0.18-0.22c0.27-0.02,0.71,0.04,0.78,0c0.07-0.04,0.44-0.04,0.25-0.11
			c-0.18-0.07-0.6-0.29-0.36-0.34c0.24-0.05,0.49-0.11,0.78-0.07c0.29,0.04,0.56-0.15,0.4-0.2c-0.16-0.05-0.36-0.22,0.02-0.22
			c0.38,0,0.62,0,0.62-0.15c0-0.15-0.24-0.05-0.34-0.29c-0.11-0.24,0.74-0.96,1.16-1.61c0.42-0.65,0.38-0.16,0.24-0.42
			c-0.14-0.25-0.44-0.16-0.53,0.05c-0.09,0.22-0.29,0.6-0.83,1.12c-0.54,0.53-0.51,0.58-0.58,0.58c-0.07,0-0.22-0.15,0.02-0.42
			c0.24-0.27,0.82-0.67,0.92-1.14c0.11-0.47-0.34-0.24-0.36-0.13c-0.02,0.11-0.31,0.82-1,1.43c-0.69,0.62-1.31,0.63-1.05,0.34
			c0.25-0.29,1.16-0.76,1.27-1.36c0.11-0.6-0.34-0.25-0.36-0.15c-0.02,0.11-0.4,0.85-1.05,1.31c-0.65,0.45-1.07,0.4-0.89,0.09
			c0.18-0.31-0.11-0.2-0.16-0.15c-0.05,0.05-0.53,0.38-0.65,0.31c-0.13-0.07-0.22-0.09-0.11-0.29c0.11-0.2-0.18-0.07-0.44,0.02
			c-0.25,0.09-0.56,0.2-0.56-0.04c0-0.24-0.42,0.07-0.53,0.09c-0.11,0.02-0.94,0.22-0.94,0.05c0-0.16,0.34-0.38,0-0.4
			c-0.34-0.02-0.72-0.07-0.54-0.27c0.18-0.2,0.67,0.07,1.2-0.63c0.53-0.71-0.2-0.27-0.22-0.27c-0.02,0-0.27,0.38-0.62,0.53
			c-0.34,0.15-0.71,0.33-1.07,0.36c-0.36,0.04-0.67-0.16-0.34-0.31c0.33-0.15,1.02-0.18,1.38-0.62c0.36-0.43-0.45-0.13-0.53,0.02
			c-0.07,0.15-0.98,0.31-0.98,0.31s-1.38,0.02-0.42-0.33c0.96-0.34,1.45-0.69,0.56-0.43c-0.89,0.25-2.28,0.22-1.65-0.05
			c0.63-0.27-0.25-0.11-0.4-0.13c-0.15-0.02-0.56-0.15-0.27-0.53c0.29-0.38-0.4-0.07-0.04-0.22c0.36-0.15-0.47-0.31,0.13-0.34
			c0.6-0.04-0.89-0.34-0.53-0.38c0.36-0.04-0.62-0.67,0.11-0.51c0.73,0.16,0.07-0.05,0.34-0.2c0.27-0.15,0.29,0.36,0.4,0.38
			c0.11,0.02,0.42,0.58,0.42,0.16c0-0.42-0.18-0.67,0.36-0.09c0.54,0.58,0.42,0.18,0.38-0.02c-0.04-0.2,0-0.42,0.2-0.29
			c0.2,0.13,0.09-0.45,0.31-0.16c0.22,0.29,0.18,0.67,0.44,0.83c0.25,0.16,0.51,0.34,0.34-0.07c-0.16-0.42-0.09-0.82,0.31-0.24
			c0.4,0.58,0.56,0.71,0.47,0.36c-0.09-0.34-0.04-0.65,0.25-0.24c0.29,0.42,0.54,0.53,0.38,0.16c-0.16-0.36,0.11-0.18,0.27-0.11
			c0.16,0.07,0.25,0.09,0.2-0.15c-0.05-0.24,0.45,0.58,0.6,0.74c0.14,0.16,0.63,0.63,0.22-0.22c-0.42-0.85,0.31-0.18,0.31-0.18
			s1.18,1.14,0.74,0.34c-0.44-0.8-0.22-0.87,0.13-0.62c0.34,0.25,0.78,1.09,0.53,0.42c-0.25-0.67-0.16-0.82,0.25-0.38
			c0.42,0.44,1.31,1.5,0.98,0.54c-0.33-0.96,0.36-0.2,0.47-0.07c0.11,0.13,0.67,0.42,0.24-0.15c-0.43-0.56,0.36-0.22,0.53-0.09
			c0.16,0.13,0.74,0.65,0.33-0.04c-0.42-0.69-0.15-0.45,0.31-0.22c0.45,0.24,0.51,0,0.29-0.29c-0.22-0.29-0.42,0.07-0.22-0.43
			c0.2-0.51-0.27-0.24-0.47-0.27c-0.2-0.04,0.18-0.24-0.27-0.33c-0.45-0.09-1.79-0.13-1.03-0.49c0.76-0.36-0.2-0.07-0.31-0.18
			c-0.11-0.11-0.62-0.18-0.33-0.31c0.29-0.13-0.33-0.22-0.45-0.2c-0.13,0.02-1.54-0.25-0.78-0.34c0.76-0.09,2.3,0.31,2.41-0.09
			c0.11-0.4-0.74-0.14-0.98-0.14c-0.24,0-3.39-0.2-2.05-0.34c1.34-0.14,1.49,0.02,1.63-0.11c0.14-0.13-0.69-0.18-0.94-0.18
			s-2.07-0.25-1.32-0.33c0.74-0.07,0.67-0.15,0.18-0.25c-0.49-0.11-1.32-0.4-0.38-0.44s2.14-0.07,1-0.27
			c-1.14-0.2-1.18,0.09-1.83-0.13c-0.65-0.22-1-0.36,0.98-0.38c1.98-0.02,0.27-0.14,0.33-0.22c0.05-0.07-1.47-0.02-2.21-0.31
			c-0.74-0.29-0.38-0.42-0.6-0.6c-0.22-0.18-0.73-0.6,0.42-0.42c1.14,0.18-0.43-0.4-0.58-0.4s-1.69-1.23,0.27-0.38
			c1.96,0.85,0.73,0.16,0.6-0.09c-0.13-0.25-1.69-0.67-1.69-0.67s-0.15-0.36,0.31-0.25c0.45,0.11,0.8,0.63,1.03,0.4
			c0.24-0.24-0.45-0.36-1-0.62c-0.54-0.25-1.34-1.01,0.24-0.36c1.58,0.65,0.25-0.16,0.13-0.24c-0.13-0.07-0.94-0.25-1.23-0.78
			c-0.29-0.53-0.16-0.94,0.22-0.69c0.38,0.25,0.42,0.2,0.24-0.13c-0.18-0.33-0.27-0.91-0.14-1.03c0.13-0.13,0.31-0.31,0.38,0.33
			c0.07,0.63,0.29,0.53,0.29,0.24c0-0.29,0.2-0.11,0.25,0.31c0.05,0.42,0.33,0.34,0.33,0.13c0-0.22,0.15-0.4,0.25,0.34
			c0.11,0.74,0.24,0.78,0.27,0.45c0.04-0.33,0.25-0.94,0.34,0.05c0.09,1,0.24,0.94,0.29,0.56c0.05-0.38,0.24-0.62,0.36,0.27
			c0.13,0.89,0.09,1.6,0.27,0.74c0.18-0.85,0.36,0.16,0.36,0.53c0,0.36,0.25,0.8,0.25,0.29c0-0.51,0.27-1.02,0.56-0.07
			c0.29,0.94,0.31,1.27,0.31,0.62s0.31-0.22,0.34,0.02c0.04,0.24,0.38,2.07,0.54,0.82c0.16-1.25,0.36-0.2,0.34,0.09
			c-0.02,0.29,0.33,1.59,0.34,0.29c0.02-1.31,0.44,0.18,0.42,0.25c-0.02,0.07,0.16,1.45,0.34,0.33c0.18-1.12,0.36,0.07,0.34,0.2
			c-0.02,0.13,0.44,1.61,0.34,0.33c-0.09-1.29,0.29-0.31,0.29-0.14s0.29,1.29,0.31,0.42c0.02-0.87,0.31,0.38,0.31,0.33
			c0-0.05,0.11,0.02,0.18,0.45c0.07,0.43,0.24,0.11,0.24-0.09s-0.29-0.74,0.18-0.49s0.18-0.05,0.2-0.25
			c0.02-0.2,0.85,0.51,1.31,0.62c0.45,0.11,0.72-0.09,0.11-0.25c-0.62-0.16-1.65-0.83-1.79-1.07c-0.14-0.24-0.25-0.63,0.04-0.51
			c0.29,0.13,0.18-0.11,0.05-0.2c-0.13-0.09-0.56-0.89,0.09-0.44c0.65,0.45,0.16,0.38,1.09,0.71c0.92,0.33,0.22-0.18-0.07-0.31
			c-0.29-0.13-1.36-0.56-1.79-1.09c-0.44-0.53,0.04-0.47,0.09-0.43c0.05,0.04,0.51,0.6,1.14,0.85c0.63,0.25,0.65,0.27,0.56-0.02
			c-0.09-0.29-0.58-0.2-0.91-0.45c-0.33-0.25-0.89-0.58-1.16-1.09c-0.27-0.51-0.29-0.44,0.05-0.45c0.34-0.02,0.94,1.12,1.49,1.2
			c0.54,0.07,0.14-0.33,0.07-0.33c-0.07,0-0.34-0.02-0.69-0.29c-0.34-0.27-0.76-0.49-0.92-0.87c-0.16-0.38-0.18-0.11,0.29-0.11
			s0.31,0.62,0.89,0.71c0.58,0.09,0.38-0.34,0.22-0.38c-0.16-0.04-1.12-0.34-1.58-1.07c-0.45-0.73,0.29-0.34,0.29-0.34
			s0.33,0.54,0.94,0.8c0.62,0.25,0.2-0.2,0.25-0.22c0.05-0.02-1.07-0.34-1.63-1.18c-0.56-0.83,0.22-0.49,0.27-0.34
			c0.05,0.15,0.47,0.78,0.98,0.91c0.51,0.13,0.22-0.31,0.09-0.44c-0.13-0.13-1.03-0.27-1.43-1.09c-0.4-0.82,0.29-0.25,0.29-0.25
			s0.25,0.71,0.91,0.8c0.65,0.09,0.43,0,0.05-0.33c-0.38-0.33-1.03-0.69-1.05-1.09c-0.02-0.4-0.09-0.65,0.27-0.29
			c0.36,0.36,0.83,0.76,0.83,0.76s0.51-0.04,0-0.24c-0.51-0.2-1.14-0.82-1.14-1.02c0-0.2-0.24-0.76,0.33-0.16
			c0.56,0.6,0.25,0.11,0.13-0.15c-0.13-0.25-0.34-1.14,0.2-0.42c0.54,0.73,0.07,0.69,0.36,0.45c0.29-0.24,0.2-0.22,0.11-0.34
			c-0.09-0.13-0.11-0.05-0.42-0.53c-0.31-0.47-0.69-0.76-0.31-0.82c0.38-0.05,0.2-0.51,0.22-0.71c0.02-0.2,0.2-0.33,0.38-0.16
			c0.18,0.16,0.15-0.45,0.15-0.63c0-0.18,0.25-0.11,0.25-0.02c0,0.09-0.04,0.72,0.16,0.47c0.2-0.25,0.38-0.18,0.33,0.04
			c-0.05,0.22-0.47,1.18-0.07,0.82c0.4-0.36,0.07,0.45,0.04,0.56c-0.04,0.11-0.04,0.69,0.22,0.07c0.25-0.62,0.25,0.38,0.2,0.51
			c-0.05,0.13,0.05,0.53,0.18,0.09c0.13-0.43,0.07,0.11-0.04,0.71c-0.11,0.6-0.29,1.23,0.04,0.94c0.33-0.29,0.65-0.38,0.42,0.09
			c-0.24,0.47-0.67,1.67-0.27,1.25c0.4-0.42,0.36-0.42,0.33-0.04c-0.04,0.38-0.05,0.54,0.22,0.27c0.27-0.27,0.31,0.34,0.15,0.49
			c-0.16,0.14-0.44,0.87-0.18,0.69c0.25-0.18,0.16,0.14,0.13,0.29c-0.04,0.15,0.18,0.13,0.29,0.02c0.11-0.11,0.02,0.53-0.09,0.6
			c-0.11,0.07-0.36,0.96-0.05,0.67c0.31-0.29,0.27-0.15,0.36,0.09c0.09,0.24,0.18,0.14,0.09-0.16c-0.09-0.31-0.31-0.8,0.04-0.67
			c0.34,0.13,0.05-0.2,0.02-0.38c-0.04-0.18-0.11-0.63,0.22-0.4c0.33,0.24,0.09-0.31,0.05-0.44c-0.04-0.13-0.31-1.2,0.22-0.4
			c0.53,0.8,0.38,0.67,0.2,0.2c-0.18-0.47-0.42-1.05-0.34-1.21c0.07-0.16,0.38,0.22,0.76,1.16c0.38,0.94,0.89,1.2,0.73,0.87
			c-0.16-0.33-0.62-1.12-0.82-1.67c-0.2-0.54-0.6-1.87-0.16-1.49c0.44,0.38,0.13-0.2,0.09-0.34c-0.04-0.15-0.18-0.73,0.02-0.45
			c0.2,0.27,0.2-0.22,0.18-0.53c-0.02-0.31,0.11-0.38,0.04-0.83c-0.07-0.45,0.24-0.4,0.31-0.25c0.07,0.15,0.05-0.31,0.09-0.44
			c0.04-0.13,0.07-0.4,0.27-0.25c0.2,0.14,0.2-0.2,0.2-0.36c0-0.16,0.25,0.58,0.2-0.04c-0.05-0.62,0.34-1.03,0.36-0.74
			c0.02,0.29,0.31,0.05,0.4-0.36c0.09-0.42,0.4-0.53,0.4-0.25c0,0.27-0.31,1.11,0.02,0.74c0.33-0.36,0.24,0.07,0.2,0.22
			c-0.04,0.15-0.63,0.69-0.31,0.56c0.33-0.13,0.45,0.05,0.33,0.22s-0.6,0.62-0.27,0.63c0.33,0.02,0.36,0.22,0.11,0.54
			c-0.25,0.33,0.15,0.27,0.34,0.13c0.2-0.14,0.13,0.31-0.09,0.54c-0.22,0.24-0.51,0.83-0.13,0.69c0.38-0.15,0.27,0.13,0.22,0.25
			c-0.05,0.13-0.89,0.96-0.27,0.65c0.62-0.31,0.45-0.18,0.33,0.18c-0.13,0.36-0.87,1.16-0.38,1.05c0.49-0.11,0.38,0.22,0.22,0.42
			c-0.16,0.2-0.45,0.62-0.02,0.53c0.44-0.09-0.16,0.33-0.15,0.4c0.02,0.07-0.34,0.47,0.02,0.45c0.36-0.02,0.27,0.09,0.13,0.38
			c-0.15,0.29-0.27,0.53,0.14,0.29c0.42-0.24,0.22,0.29,0.14,0.47c-0.07,0.18-0.62,0.65-0.16,0.6c0.45-0.05,0.13,0.25,0.11,0.36
			c-0.02,0.11,0.53,0,0.33,0.34c-0.2,0.34-0.89,0.96-0.47,0.89c0.42-0.07,0.04,0.45-0.02,0.63c-0.05,0.18-0.29,0.62,0.02,0.49
			c0.31-0.13,0.44-0.69,0.67-0.73c0.24-0.04,0.53,0.07,0.42-0.09c-0.11-0.16,0.11-0.14,0.36,0.13c0.25,0.27,0.45,0.76,0.49,0.51
			c0.04-0.25-0.14-0.54-0.25-0.69c-0.11-0.15-0.74-0.85-0.74-1.14c0-0.29-0.02-0.4,0.4,0.13c0.42,0.53,0.89,0.74,0.62,0.2
			c-0.27-0.54-0.76-1.67-0.16-0.94c0.6,0.73,0.78,0.56,0.27-0.16c-0.51-0.73-0.47-1.11-0.02-0.58c0.45,0.53,1.07,1.34,0.53,0.18
			c-0.54-1.16-1.03-1.52-0.44-1.18c0.6,0.34,0.56,0.38,0.4,0.04c-0.16-0.34-0.62-0.65-0.62-0.74c0-0.09-0.11-0.67,0.43-0.09
			c0.54,0.58,0.53,0.2,0.34-0.09c-0.18-0.29-1.56-1.9-0.36-1.11c1.2,0.8,0.22-0.04,0.22-0.14c0-0.11-0.73-1.32,0.09-0.49
			c0.82,0.83,0.29-0.2,0.15-0.24s-1.23-1.56-0.49-1.14c0.74,0.42,0.92,0.85,0.78,0.4c-0.15-0.45-0.63-0.74-0.73-0.87
			c-0.09-0.13-0.63-1.11-0.05-0.71c0.58,0.4,0.91,0.94,0.73,0.47c-0.18-0.47-0.73-1.03-0.31-0.96c0.42,0.07,0.04-0.25-0.05-0.45
			c-0.09-0.2-0.14-0.54,0.11-0.44c0.25,0.11,0.18-0.27,0.18-0.43c0-0.16,0.29-0.27,0.36,0.04c0.07,0.31-0.09,0.29,0.27,0.24
			c0.36-0.05-0.05,0.25-0.02,0.49c0.04,0.24,0.36,0.09,0.49-0.02c0.13-0.11,0.36-0.36,0.51-0.13c0.14,0.24-0.33,1.05-0.6,1.36
			c-0.27,0.31-0.25,0.94-0.04,0.69c0.22-0.25,0.56-0.91,0.6-1.07c0.04-0.16,0.27,0,0.16,0.4c-0.11,0.4-0.27,0.83-0.51,1.05
			c-0.24,0.22-0.45,0.78-0.16,0.58c0.29-0.2,0.73-1.32,0.73-1.32s0.45-0.74,0.36,0.11c-0.09,0.85-0.87,1.5-0.96,1.63
			c-0.09,0.13-0.36,0.56-0.09,0.54c0.27-0.02,0.83-1.2,0.83-1.2s0.33-0.11,0.05,0.63c-0.27,0.74-0.83,0.96-0.91,1.09
			c-0.07,0.13-0.22,0.87,0.13,0.45c0.34-0.42,0.74-0.94,0.82-1.34c0.07-0.4,0.31,0.07,0.18,0.33c-0.13,0.25-0.4,1.07-0.91,1.5
			c-0.51,0.43-0.29,0.63-0.04,0.36c0.25-0.27,1.18-1.94,1.12-1.11c-0.05,0.83-0.92,1.5-1.09,1.69c-0.16,0.18-0.2,0.63,0.09,0.29
			c0.29-0.34,1-1.31,0.8-0.58c-0.2,0.73-1.09,1.25-1.09,1.25s-0.31,0.49,0.05,0.33c0.36-0.16,1.79-2.21,1.36-0.96
			c-0.43,1.25-0.56,0.63-0.63,0.91c-0.07,0.27,0.38,0.18,0.38,0.18s-0.25,0.36-0.56,0.56c-0.31,0.2-0.24,0.34-0.02,0.25
			c0.22-0.09,0.49-0.02,0.16,0.34c-0.33,0.36-0.62,1.01-0.15,0.53c0.47-0.49,0.85-0.49,0.56,0.02s-0.71,0.65-0.53,0.92
			c0.18,0.27-0.25,0.73,0.13,0.53c0.38-0.2,0.22-0.74,0.47-0.58c0.25,0.16,0.24,1.14,0.4,0.07c0.16-1.07,0.43-1.29,0.43-0.69
			c0,0.6,0.38-0.04,0.38-0.69c0-0.65,0.27-1.07,0.34-0.51c0.07,0.56,0.27,0.78,0.25,0c-0.02-0.78,0.51-0.76,0.49-0.09
			c-0.02,0.67,0.4-0.11,0.25-0.89c-0.15-0.78-0.13-1.96,0.33-0.63c0.45,1.32,0.36,0.54,0.44,0.09c0.07-0.45,0.09-1.07,0.4-0.47
			c0.31,0.6,0.16-0.58,0.14-0.91c-0.02-0.33,0.38-0.42,0.38-0.02c0,0.4,0.4-0.15,0.27-0.69c-0.13-0.54,0-0.62,0.24-0.65
			c0.24-0.04,0.42-0.91,0.43-0.51c0.02,0.4,0.16,0.16,0.36-0.07c0.2-0.24,0.42,0.11,0.44-0.27c0.02-0.38,0.27-0.02,0.22,0.62
			c-0.05,0.63,0.31-0.04,0.47-0.15c0.16-0.11,0.49-0.09-0.07,1.03c-0.56,1.12,0.16,0.15,0.31,0.24c0.15,0.09-0.2,0.54-0.33,0.74
			c-0.13,0.2-0.15,0.49,0.16,0.54c0.31,0.05,0.13,0.2-0.36,0.53c-0.49,0.33-0.29,0.29,0.04,0.31c0.33,0.02-0.09,0.29-0.4,0.51
			c-0.31,0.22-0.73,0.6-0.25,0.69c0.47,0.09,0.31,0.33-0.34,0.51c-0.65,0.18-1.16,0.31-0.58,0.47c0.58,0.16,0.69,0.14,0.34,0.25
			c-0.34,0.11-0.67-0.02-0.63,0.34c0.04,0.36,0.25,0.42-0.15,0.56c-0.4,0.15-0.22,0-0.76,0.07c-0.54,0.07,0.34,0.13,0.45,0.42
			c0.11,0.29-0.25,0.18-0.42,0.2c-0.16,0.02-0.62,0.18-0.27,0.33c0.34,0.15-0.36,0.45-0.62,0.45c-0.25,0-0.6,0.15-0.16,0.38
			c0.43,0.24-0.24,0.34-0.49,0.34c-0.25,0-0.65,0.13-0.25,0.27c0.4,0.15-0.31,0.29-0.45,0.27c-0.15-0.02-0.85,0.05-0.24,0.24
			c0.62,0.18-0.29,0.34-0.53,0.31c-0.24-0.04-0.43,0.4-0.43,0.4s-0.31,1-0.02,0.69c0.29-0.31,1.27-1.27,0.98-0.69
			c-0.29,0.58-0.47,1.02-0.11,0.69c0.36-0.33,0.8-1.6,0.8-0.85c0,0.74-0.51,1.18,0.05,0.67c0.56-0.51,0.56-1.52,0.76-0.85
			c0.2,0.67-0.04,0.87,0.34,0.34c0.38-0.53,0.24-0.16,0.29,0.11c0.05,0.27,0.16,0.07,0.24-0.27c0.07-0.34,0.53-0.87,0.44-0.02
			c-0.09,0.85,0.2,0.31,0.33,0c0.13-0.31,0.33-0.91,0.45-0.27c0.13,0.63,0.44-0.15,0.49-0.45c0.05-0.31,0.45-0.69,0.36,0.02
			c-0.09,0.71,0.38-0.07,0.38-0.38s0.47-0.54,0.34,0.2c-0.13,0.74,0.29,0.51,0.45-0.16c0.16-0.67,0.47-1.03,0.47-0.31
			c0,0.73,0.31,0.16,0.45-0.29c0.15-0.45,0.62-1.51,0.56-0.31c-0.05,1.2,0.04,0.62,0.25,0.14c0.22-0.47,0.51-1.12,0.51-0.34
			s0.33,0.13,0.38-0.27c0.05-0.4,0.25-1.2,0.34-0.4c0.09,0.8,0.24,0.15,0.34-0.13c0.11-0.27,0.62-0.33,0.62-0.09
			c0,0.24-0.07,0.36,0.25,0.29c0.33-0.07,0.14,0.56,0.04,0.47c-0.11-0.09-0.13,0.38,0.24,0.31c0.36-0.07-0.02,0.51-0.16,0.51
			c-0.14,0,0,0.22-0.4,0.33c-0.4,0.11-0.22,0.31-0.18,0.42c0.04,0.11,0.05,0.2-0.25,0.27c-0.31,0.07-0.11,0.25-0.07,0.38
			c0.04,0.13-0.05,0.24-0.4,0.13c-0.34-0.11-1.02,0.04-0.49,0.24c0.53,0.2,0.45,0.43,0.07,0.45c-0.38,0.02-0.62-0.02-0.36,0.24
			c0.25,0.25-0.25,0.4-0.65,0.33c-0.4-0.07-1.36-0.34-0.87-0.07c0.49,0.27,0.54,0.6,0.16,0.54c-0.38-0.05-1.5-0.27-1.05-0.07
			c0.45,0.2,0.69,0.69,0.24,0.63c-0.45-0.05-1.32-0.36-0.87-0.02c0.45,0.34,0.49,0.62,0.04,0.6c-0.45-0.02-1.07-0.42-0.91-0.22
			c0.16,0.2-0.11,0.42-0.42,0.34c-0.31-0.07-0.65,0.15-0.02,0.31c0.63,0.16-0.22,0.18-0.85,0.05c-0.63-0.13-1.27-0.16-0.56,0.16
			c0.71,0.33-0.11,0.38-0.51,0.22c-0.4-0.16-1.09-0.45-0.65-0.07c0.44,0.38-0.4,0.15-0.63,0.04c-0.24-0.11-0.83-0.05-0.47,0.14
			c0.36,0.2-0.22,0.33-0.36,0.11c-0.15-0.22-0.54,0.11-0.25,0.25c0.29,0.15-0.31,0.02-0.62-0.18c-0.31-0.2-0.82-0.27-0.69-0.07
			c0.13,0.2-0.49-0.04-0.76-0.25c-0.27-0.22-0.76,0.38-0.49,0.45c0.27,0.07,0.11,0.31-0.18,0.42c-0.29,0.11,0.07,0.29,0.47-0.11
			c0.4-0.4,0.18,0.38,0.09,0.45c-0.09,0.07-0.56,0.47,0.09,0.36c0.65-0.11,0.8-0.2,0.58,0.15c-0.22,0.34-0.27,0.43,0.25,0.24
			c0.53-0.2,0.96-0.04,0.71,0.22c-0.25,0.25-0.09,0.36,0.24,0.2c0.33-0.16,0.45-0.18,0.29,0.13c-0.16,0.31-0.05,0.45,0.34-0.02
			c0.4-0.47,0.94-0.22,0.58,0.11c-0.36,0.33-0.22,0.45,0.14,0.18c0.36-0.27,0.63-0.13,0.34,0.18c-0.29,0.31-0.14,0.6,0.33,0.18
			c0.47-0.42,0.71-0.18,0.38,0.09c-0.33,0.27,0.04,0.47,0.42-0.13c0.38-0.6,0.6-0.29,0.47-0.02c-0.13,0.27-0.02,0.49,0.27-0.02
			c0.29-0.51,0.62-0.09,0.45,0.11c-0.16,0.2,0.15,0.44,0.44-0.09c0.29-0.53,0.67-0.36,0.44,0.02c-0.24,0.38,0.13,0.47,0.36,0
			c0.24-0.47,0.73-0.51,0.6-0.16c-0.13,0.34,0.25,0.22,0.33,0.07c0.07-0.15,0.67-0.27,0.42,0.11c-0.25,0.38,0.24,0.22,0.4-0.13
			c0.16-0.34,0.53-0.42,0.44-0.13c-0.09,0.29,0.27-0.09,0.42-0.31c0.15-0.22,0.51-0.18,0.45,0c-0.05,0.18,0.49-0.2,0.34,0.47
			c-0.15,0.67-0.27,0.51-0.18,0.67c0.09,0.16-0.16,0.16-0.25,0.2s-0.31,0.2-0.13,0.29c0.18,0.09-0.18,0.38-0.49,0.27
			c-0.31-0.11-1.2-0.09-0.44,0.22c0.76,0.31,0.18,0.38,0.04,0.38c-0.15,0,0.51,0.47-0.53,0.29c-1.03-0.18-0.62,0.02-0.31,0.15
			c0.31,0.13,0.13,0.51-1.07-0.13c-1.2-0.63-1.72-0.56-0.74-0.05c0.98,0.51,1.63,1,0.2,0.51c-1.43-0.49-0.63,0.04-0.42,0.15
			c0.22,0.11,0.92,0.76-0.49,0.11c-1.41-0.65-1.36-0.62-0.76-0.2c0.6,0.42,0.54,1.05-0.6-0.04c-1.14-1.09-1.5-1.38-1.25-0.96
			c0.25,0.42,1.7,1.79,0.43,1.14c-1.27-0.65-1.29-2.28-1.5-1.34c-0.22,0.94,0.54,0.76,0.87,1.09c0.33,0.33-0.2,0.4-0.58,0.02
			c-0.38-0.38-0.65-0.42-0.65-1.25c0-0.83-0.49-0.29-0.38-0.13c0.11,0.16,0.04,1.11,0.65,1.63c0.62,0.53-0.69-0.15-0.73-0.25
			c-0.04-0.11-0.56-0.73-0.53-0.34c0.04,0.38-0.14,0.07-0.43-0.05c-0.29-0.13-0.96-0.2-0.76-0.04c0.2,0.16,0.56,0.51,0.96,0.47
			c0.4-0.04,0.24,0.31-0.15,0.25c-0.38-0.05-0.87,0.22-0.31,0.27c0.56,0.05,1.16,0.34,0.85,0.47c-0.31,0.13-0.22,0.2,0.18,0.27
			c0.4,0.07,0.96,0.4,0.45,0.45c-0.51,0.05-0.65,0.36-0.07,0.36c0.58,0,1.2,0.25,0.91,0.4c-0.29,0.15-0.11,0.18,0.2,0.16
			c0.31-0.02,0.25,0.24-0.11,0.34c-0.36,0.11,0.11,0.29,0.6,0.29c0.49,0,0.85,0.24,0.62,0.31c-0.24,0.07-0.15,0.27,0.24,0.18
			c0.38-0.09,1.16,0.13,0.82,0.2c-0.34,0.07-0.22,0.36,0.16,0.36c0.38,0,0.69,0.02,0.53,0.2c-0.16,0.18,0.07,0.14,0.45,0.18
			c0.38,0.04,1.36,0.09,1,0.2c-0.36,0.11-0.76,0.38-0.49,0.43s-0.25,0.31-0.49,0.38c-0.24,0.07-0.51,0.22-0.49,0.33
			c0.02,0.11-0.24,0.11-0.42-0.04c-0.18-0.15-0.49-0.13-0.47,0.04c0.02,0.16,0,0.14-0.25,0c-0.25-0.15-0.51-0.22-0.45-0.04
			c0.05,0.18-0.31,0-0.45-0.15c-0.14-0.15-0.4-0.49-0.4-0.27c0,0.22-0.44,0.47-0.45,0.18c-0.02-0.29-0.33-1-0.33-0.76
			c0,0.24-0.11,0.78-0.36,0.43c-0.25-0.34-0.05-1.01-0.29-0.94c-0.24,0.07-0.04,0.4-0.02,0.65c0.02,0.25-0.36,0.63-0.53-0.09
			c-0.16-0.73,0.27-1.58,0.02-1.38c-0.25,0.2-0.31,0.4-0.29,0.87c0.02,0.47-0.31,0.25-0.34-0.13c-0.04-0.38,0.09-1.5-0.05-0.92
			c-0.15,0.58-0.16,1.7-0.45,0.96c-0.29-0.74,0.22-2.14,0-1.79c-0.22,0.34-0.31,0.51-0.31,0.91c0,0.4-0.31,0.34-0.4,0
			c-0.09-0.34,0-1.99-0.07-1.7c-0.07,0.29,0,0.65-0.16,0.98c-0.16,0.33-0.29-0.58-0.29-0.42c0,0.16,0.29-1.09,0.13-0.92
			c-0.16,0.16-0.38-0.31-0.53,0.51c-0.14,0.82-0.2-0.04-0.36-0.2c-0.16-0.16-0.34,0.22-0.51-0.6c-0.16-0.82-0.31-1.09-0.49-0.82
			c-0.18,0.27-0.4-0.07-0.4-0.38s-0.33-0.54-0.36-0.33c-0.04,0.22-0.42,0.11-0.44,0.38c-0.02,0.27-0.24,0.14-0.33-0.33
			c-0.09-0.47-0.36-0.25-0.2,0.51c0.16,0.76,0.22,1.32,0,1.09c-0.22-0.24-0.24,0.18-0.22,0.45c0.02,0.27,0.02,0.71-0.07,0.6
			c-0.09-0.11-0.29-0.25-0.2,0.34c0.09,0.6-0.11,0.8-0.27,0.14c-0.16-0.65,0.02-1.61-0.2-1.81c-0.22-0.2-0.43-0.24-0.29,0.16
			c0.15,0.4,0.44,1.18,0.4,2.07c-0.04,0.89-0.29,1.14-0.33,0.56c-0.04-0.58,0.2-1.54-0.18-1.83c-0.38-0.29-0.43-0.16-0.34,0.16
			c0.09,0.33,0.42,0.74,0.29,1.56c-0.13,0.82-0.49,1.23-0.51,0.65c-0.02-0.58,0.24-1.38-0.05-1.49c-0.29-0.11-0.29,0.07-0.16,0.4
			c0.13,0.33,0.22,1.32,0.16,1.79c-0.05,0.47-0.4,0.62-0.44,0.24c-0.04-0.38-0.07,0.42-0.04,0.72c0.04,0.31-0.29,0.98-0.33,0.47
			c-0.04-0.51-0.29-0.4-0.29,0.02s0.02,1.45-0.15,0.91c-0.16-0.54-0.34-0.63-0.38-0.36c-0.04,0.27-0.04,0.96-0.18,0.8
			s-0.38-0.14-0.43,0.09c-0.05,0.24-0.09,0.22-0.15-0.04C111.46,629.56,111.19,629.87,111.16,629.89L111.16,629.89L111.16,629.89z"
			/>
		<path id="path40_00000060740016153996329780000004992938555770124183_" class="st14" d="M90.84,598.73
			c1.21-4.31,3.56-7.72,5.5-10.13c-1-3.12-7.21-8.36-10.99-14.25c-1.6,4.04-4.33,6.54-6.05,10.51
			C83.84,592.38,87.2,593.22,90.84,598.73L90.84,598.73z"/>
		<path id="path42_00000119805631192806848410000007772783364777530255_" class="st14" d="M141.59,598.73
			c-1.21-4.31-3.56-7.72-5.5-10.13c1-3.12,7.21-8.36,10.99-14.25c1.6,4.04,4.33,6.54,6.05,10.51
			C148.59,592.38,145.23,593.22,141.59,598.73L141.59,598.73z"/>
		<path id="path44_00000180344553366367817510000002683692241803188388_" class="st13" d="M89.96,593.04
			c0.63-2.24,1.54-3.05,2.55-4.3c-0.52-1.62-4.84-5.07-6.8-8.14c-0.83,2.1-1.64,2.15-2.54,4.21
			C85.42,588.95,88.06,590.02,89.96,593.04L89.96,593.04z"/>
		<path id="path46_00000134218822545064300250000012899152566583124152_" class="st13" d="M142.47,593.04
			c-0.63-2.24-1.54-3.05-2.55-4.3c0.52-1.62,4.84-5.07,6.8-8.14c0.83,2.1,1.64,2.15,2.54,4.21
			C147.01,588.95,144.36,590.02,142.47,593.04L142.47,593.04z"/>
		<path id="path48_00000070094002454132994790000014149605717878393774_" class="st2" d="M86.79,587.73
			c0.47,0.51,1.21,0.96,1.92,0.18c0.47-0.85,0.09-1.7-0.33-2.3c0.05,0.44,0.14,1.23-0.16,1.72
			C87.68,587.89,87.5,587.73,86.79,587.73L86.79,587.73z"/>
		<path id="path50_00000075125212055365617830000006782887224608246442_" class="st2" d="M145.64,587.73
			c-0.47,0.51-1.21,0.96-1.92,0.18c-0.47-0.85-0.09-1.7,0.33-2.3c-0.05,0.44-0.15,1.23,0.16,1.72
			C144.75,587.89,144.93,587.73,145.64,587.73L145.64,587.73z"/>
		<path id="path52_00000055695819953770824640000001861610051191590075_" class="st15" d="M121.18,593.56
			c-5.29,2.9-13.11,0.24-15.92-4.66c-2.81-4.89-3.37-11.93,1.58-16.71c4.95-4.79,11.15-4.82,15.99-2.16
			c4.84,2.66,6.78,7.56,6.42,11.24c-0.49-4.06-2.56-7.54-6.56-9.23s-10.22-1.45-13.63,2.92c-3.41,4.37-3.98,9.16-1.07,13.67
			C110.89,593.14,115.92,595.49,121.18,593.56L121.18,593.56z"/>
		<path id="path54_00000058557819858463772360000012185213001180732331_" class="st15" d="M121.18,593.56
			c-5.85,2.03-10.87-1.06-13.35-5.18c-2.48-4.12-2.17-10.11,1.68-14c3.84-3.89,9.78-3.71,13.33-2.32c3.54,1.4,6.05,5.13,6.41,9.21
			c-1.7-3.34-3.24-6.21-6.61-7.18c-3.37-0.97-8.35-0.49-11.07,2.97c-2.73,3.46-2.99,7.2-1.35,11.04
			C111.85,591.95,116.79,594.48,121.18,593.56L121.18,593.56z"/>
		
			<linearGradient id="path66_00000008860877226567671450000001763552877583556017_" gradientUnits="userSpaceOnUse" x1="-345.806" y1="845.9717" x2="-341.3348" y2="854.7471" gradientTransform="matrix(2.7772 0 0 -2.7772 1069.8916 2944.2654)">
			<stop  offset="0" style="stop-color:#CD8C5D"/>
			<stop  offset="0.76" style="stop-color:#FEC00F"/>
			<stop  offset="0.76" style="stop-color:#FEC00F"/>
			<stop  offset="1" style="stop-color:#FEC00F"/>
		</linearGradient>
		
			<path id="path66_00000021109446313234740140000012411556000148319934_" style="fill:url(#path66_00000008860877226567671450000001763552877583556017_);" d="
			M111.54,576.97c-2.68,3.58-2.97,7.29-1.33,11.14c1.64,3.84,6.55,6.37,10.93,5.46c-5.37,2.19-10.81-0.94-13.27-4.95
			c-2.35-3.83-2.93-9.07,1.57-14.3C109.77,573.94,111.14,577.28,111.54,576.97L111.54,576.97z"/>
		
			<linearGradient id="path78_00000150066518930198580650000006856656487057655693_" gradientUnits="userSpaceOnUse" x1="-339.7622" y1="855.7719" x2="-346.1482" y2="848.6797" gradientTransform="matrix(2.7772 0 0 -2.7772 1069.8916 2944.2654)">
			<stop  offset="0" style="stop-color:#CD8C5D"/>
			<stop  offset="0.75" style="stop-color:#FEC00F"/>
			<stop  offset="0.75" style="stop-color:#FEC00F"/>
			<stop  offset="1" style="stop-color:#FEC00F"/>
		</linearGradient>
		
			<path id="path78_00000106129845024679175910000012499147216956053925_" style="fill:url(#path78_00000150066518930198580650000006856656487057655693_);" d="
			M106.82,572.21c4.95-4.73,11.18-4.82,16.01-2.17c4.82,2.65,6.78,7.56,6.42,11.24c-0.49-4.06-2.6-7.61-6.51-9.17
			c-3.91-1.56-10.29-1.35-13.69,2.86C108.85,575.21,107.11,572.38,106.82,572.21L106.82,572.21z"/>
		<path id="path80_00000003788189588510301110000007087081335641852046_" class="st15" d="M115.54,574.29l3.43,9.12l1.05-3.71
			L115.54,574.29z"/>
		<path id="path82_00000034081647519001273570000000439085092398605744_" class="st15" d="M126.85,577.16l-7.88,6.24l3.85-0.08
			L126.85,577.16z"/>
		<path id="path84_00000171687659103074829520000003997738842438361486_" class="st15" d="M127.28,588.98l-8.31-5.57l1.31,3.66
			L127.28,588.98z"/>
		<path id="path86_00000008119899587811477780000014978436751789335430_" class="st15" d="M116.2,593.3l2.77-9.9l-3.07,2.42
			L116.2,593.3z"/>
		<path id="path88_00000168814874086841934520000009239788156957292685_" class="st15" d="M109.2,583.86l9.77-0.45l-3.22-2.14
			L109.2,583.86z"/>
		
			<linearGradient id="path100_00000145032749933255817390000013478502683053349801_" gradientUnits="userSpaceOnUse" x1="-341.8516" y1="852.725" x2="-344.6982" y2="850.2505" gradientTransform="matrix(2.7772 0 0 -2.7772 1069.8916 2944.2654)">
			<stop  offset="0" style="stop-color:#CD8C5D"/>
			<stop  offset="0.86" style="stop-color:#FEC00F"/>
			<stop  offset="0.86" style="stop-color:#FEC00F"/>
			<stop  offset="1" style="stop-color:#FEC00F"/>
		</linearGradient>
		
			<path id="path100_00000153694616177469583510000016092970720774907038_" style="fill:url(#path100_00000145032749933255817390000013478502683053349801_);" d="
			M115.54,574.29l3.43,9.12l-3.22-2.14L115.54,574.29z"/>
		
			<linearGradient id="path112_00000132082428829127762350000005437940707111295641_" gradientUnits="userSpaceOnUse" x1="-339.4528" y1="850.2419" x2="-343.1836" y2="852.5732" gradientTransform="matrix(2.7772 0 0 -2.7772 1069.8916 2944.2654)">
			<stop  offset="0" style="stop-color:#CD8C5D"/>
			<stop  offset="0.83" style="stop-color:#FEC00F"/>
			<stop  offset="0.83" style="stop-color:#FEC00F"/>
			<stop  offset="1" style="stop-color:#FEC00F"/>
		</linearGradient>
		
			<path id="path112_00000106149341678612245750000016918703045562627502_" style="fill:url(#path112_00000132082428829127762350000005437940707111295641_);" d="
			M126.85,577.16l-7.88,6.24l1.05-3.71L126.85,577.16z"/>
		
			<linearGradient id="path124_00000016062436436888585090000017414153885084910520_" gradientUnits="userSpaceOnUse" x1="-341.2214" y1="847.7872" x2="-340.4319" y2="850.954" gradientTransform="matrix(2.7772 0 0 -2.7772 1069.8916 2944.2654)">
			<stop  offset="0" style="stop-color:#CD8C5D"/>
			<stop  offset="0.9" style="stop-color:#FEC00F"/>
			<stop  offset="0.9" style="stop-color:#FEC00F"/>
			<stop  offset="1" style="stop-color:#FEC00F"/>
		</linearGradient>
		
			<path id="path124_00000153691400282832965410000017440891149205834655_" style="fill:url(#path124_00000016062436436888585090000017414153885084910520_);" d="
			M127.28,588.98l-8.31-5.57l3.85-0.08L127.28,588.98z"/>
		
			<linearGradient id="path136_00000163066294013455646740000005916798860559686540_" gradientUnits="userSpaceOnUse" x1="-343.3151" y1="848.2605" x2="-341.7211" y2="848.3719" gradientTransform="matrix(2.7772 0 0 -2.7772 1069.8916 2944.2654)">
			<stop  offset="0" style="stop-color:#CD8C5D"/>
			<stop  offset="0.94" style="stop-color:#FEC00F"/>
			<stop  offset="0.94" style="stop-color:#FEC00F"/>
			<stop  offset="1" style="stop-color:#FEC00F"/>
		</linearGradient>
		
			<path id="path136_00000078745375305372617080000009026653726272071358_" style="fill:url(#path136_00000163066294013455646740000005916798860559686540_);" d="
			M116.2,593.3l2.77-9.9l1.31,3.66L116.2,593.3z"/>
		
			<linearGradient id="path148_00000106118154364997208870000012912442471786004635_" gradientUnits="userSpaceOnUse" x1="-344.3275" y1="850.3916" x2="-343.5998" y2="848.6772" gradientTransform="matrix(2.7772 0 0 -2.7772 1069.8916 2944.2654)">
			<stop  offset="0" style="stop-color:#CD8C5D"/>
			<stop  offset="0.86" style="stop-color:#FEC00F"/>
			<stop  offset="0.86" style="stop-color:#FEC00F"/>
			<stop  offset="1" style="stop-color:#FEC00F"/>
		</linearGradient>
		
			<path id="path148_00000152250554009962442810000011612059782112147334_" style="fill:url(#path148_00000106118154364997208870000012912442471786004635_);" d="
			M109.2,583.86l9.77-0.45l-3.07,2.42L109.2,583.86z"/>
		<path id="path150_00000034059186139068216150000011939585026363130760_" class="st23" d="M131.48,560.88l-1.62-4.15l-2.67-0.72
			c2.77-0.72,5.61-1.81,8.16-2.94c-0.62,1.36-1.23,2.86-1.83,4.22c1.29,0.4,2.57,0.8,3.88,1.2
			C135.67,559.38,133.61,560.27,131.48,560.88L131.48,560.88z"/>
		<path id="path154_00000150809514507516227040000015252313354323965349_" class="st23" d="M116.03,559.08
			c4.62-0.07,9.23-0.38,13.56-1.78l2.27,5.8c-4.13,1.27-8.88,2.38-15.83,2.35c-6.94,0.03-11.69-1.08-15.83-2.35l2.27-5.8
			C106.8,558.69,111.41,559.01,116.03,559.08L116.03,559.08z"/>
		<path id="path158_00000002377876901643046000000013623302367081980337_" d="M129.54,561.91c0,0-0.54,1.09-0.54,0.05
			c0-1.03-0.02-1.6-0.27-2.1c-0.25-0.51-0.2-0.98,0.25-0.47c0.45,0.51,0.49,1.34,0.49,1.34s-0.07,0.29,0.14,0.18
			C129.83,560.81,129.54,561.75,129.54,561.91L129.54,561.91 M127.62,559.94c0,0-0.4-0.27-0.13-0.62c0.27-0.34,0.4-0.15,0.42,0.07
			c0.02,0.22,0,0.31-0.13,0.36C127.65,559.81,127.56,559.85,127.62,559.94L127.62,559.94 M128.02,562.69c0,0-0.38,0.56-0.45-0.25
			c-0.07-0.82,0.09-1.4-0.25-1.67c-0.34-0.27-2.19-0.11-2.27,0.11c-0.07,0.22-0.65-0.02-0.73,1.16c-0.07,1.18-0.36,1.2-0.4,1.31
			c-0.04,0.11-0.53,0.11-0.33-0.34c0.2-0.45,0.42-0.92,0.27-1.52c-0.15-0.6-1.61-1.03-1.58-0.6c0.04,0.43,0.73,0.43,0.69,1.16
			c-0.04,0.73-0.42,1.16-0.53,1.23c-0.11,0.07-0.69,0.24-0.69-0.24c0-0.47,0.09-1.09,0.44-1.05c0.34,0.04,0.6,0.09,0.36-0.07
			c-0.24-0.16-0.44-0.56-0.83-0.69c-0.4-0.13-0.98-0.38-1.36-0.4c-0.38-0.02,0.04-0.27,0.05-0.27c0.02,0,1.05-0.09,1.21,0.04
			c0.16,0.13,0.25,0.36,0.31,0.16c0.05-0.2-0.13-0.33,0.02-0.38c0.15-0.05,0.76-0.2,1.05-0.09c0.29,0.11,0.62,0.6,0.89,0.6
			c0.27,0,0.71-0.51,0.94-0.56c0.24-0.05,1.45-0.47,2.12-0.29c0.67,0.18,0.91,0.94,0.94,1.12c0.04,0.18-0.05,0.54,0.11,0.51
			c0.16-0.04,0.31,0.11,0.25,0.34C128.21,562.24,128.02,562.69,128.02,562.69L128.02,562.69 M125.5,563.16c0,0-0.4-0.85,0-0.83
			c0.4,0.02,0.07,0.04,0.2-0.33c0.13-0.36,0.16-0.51,0.13-0.69c-0.04-0.18,0.18-0.2,0.25,0.02c0.07,0.22,0.31,0.76,0.33,0.92
			c0.02,0.16,0.24,0.36,0.25,0.24c0.02-0.13,0.4-0.05,0.29,0.24c-0.11,0.29-0.42,0.36-0.63,0.05c-0.22-0.31-0.24-0.73-0.29-0.43
			C125.97,562.64,125.86,563.45,125.5,563.16L125.5,563.16 M106.88,562.35c0,0-0.16-0.22,0-0.22c0.16,0,0.04,0.02,0.09-0.07
			c0.05-0.11,0.05-0.15,0.05-0.2c-0.02-0.05,0.07-0.05,0.09,0c0.04,0.05,0.14,0.22,0.14,0.25c0,0.04,0.09,0.11,0.11,0.07
			c0-0.04,0.16-0.02,0.11,0.05c-0.04,0.09-0.16,0.11-0.25,0.02c-0.09-0.09-0.11-0.2-0.13-0.13
			C107.08,562.22,107.02,562.44,106.88,562.35L106.88,562.35 M124.7,563.31c0,0,0.36-0.18,0.31-0.51c-0.05-0.33-0.31-0.24-0.29-0.15
			c0.02,0.09-0.04,0.24,0.09,0.25C124.93,562.93,124.7,563.31,124.7,563.31L124.7,563.31 M123.81,560.62c0,0,0.36-0.18,0.31-0.51
			c-0.05-0.33-0.31-0.24-0.29-0.15c0.02,0.09-0.04,0.24,0.09,0.25C124.05,560.24,123.81,560.62,123.81,560.62L123.81,560.62
			 M122.78,564c0,0,0.36-0.18,0.31-0.51c-0.05-0.33-0.31-0.24-0.29-0.15c0.02,0.09-0.04,0.24,0.09,0.25
			C123.01,563.62,122.78,564,122.78,564L122.78,564 M120.27,562.98c0,0,0.36-0.18,0.31-0.51c-0.05-0.33-0.31-0.24-0.29-0.15
			c0.02,0.09-0.04,0.24,0.09,0.25C120.51,562.6,120.27,562.98,120.27,562.98L120.27,562.98 M118.57,564.18c0,0,0.36-0.18,0.31-0.51
			c-0.05-0.33-0.31-0.24-0.29-0.15c0.02,0.09-0.04,0.24,0.09,0.25C118.81,563.8,118.57,564.18,118.57,564.18L118.57,564.18
			 M104.99,560.55c0,0-0.29-0.4-0.07-0.87c0.24-0.43,0.45-0.2,0.4-0.07c-0.05,0.13-0.09,0.34-0.24,0.33
			C104.94,559.9,104.99,560.55,104.99,560.55L104.99,560.55 M114.27,560.73c0,0,0.2-0.09,0.16-0.27c-0.02-0.18-0.16-0.13-0.15-0.09
			c0,0.05-0.02,0.13,0.04,0.15C114.4,560.53,114.27,560.73,114.27,560.73L114.27,560.73 M112.12,563.82c0,0,0.36-0.18,0.31-0.51
			c-0.05-0.33-0.31-0.24-0.29-0.15c0.02,0.09-0.04,0.24,0.09,0.25C112.35,563.43,112.12,563.82,112.12,563.82L112.12,563.82
			 M120.98,564.2c0,0-0.33-0.2-0.16-0.74c0.16-0.54,0.31-1.03,0.16-1.32c-0.15-0.29-1.18-0.83-1.7-0.53
			c-0.53,0.31-0.4,1.01-0.94,0.45c-0.54-0.56-0.74-1.43-1.01-1.2c-0.27,0.24-0.31,0.04-0.31,0.45s0.22,0.07,0.34,0.18
			c0.13,0.11,0.29,0.38,0.05,0.38c-0.24,0-0.56,0.14-0.76,0.25c-0.2,0.11-0.91,0.16-0.31,0.33c0.6,0.16,0.58-0.13,0.73-0.15
			c0.14-0.02,0.18,0.04,0.11,0.24c-0.07,0.2-0.38,0.24-0.36,0.6c0.02,0.36-0.07,0.33-0.07,0.43c0,0.11-0.04-0.05,0.16,0.13
			c0.2,0.18-0.09,0.25-0.18,0.38c-0.09,0.13-0.34,0.49-0.36,0.33c-0.02-0.16-0.18-0.34-0.07-0.69c0.11-0.34,0.18-0.6,0.09-0.78
			c-0.09-0.18-0.92-0.43-1.09-0.62c-0.16-0.18-0.33-0.51-0.13-0.54c0.2-0.04,0.15,0,0.42-0.04c0.27-0.04-0.24-0.2-0.53-0.2
			c-0.29,0-1.09-0.11-1.2,0.25c-0.11,0.36-0.31,0-0.42,0.83c-0.11,0.83-0.18,0.74-0.29,1.43c-0.11,0.69-0.49-0.07-0.51-0.04
			c-0.02,0.04,0.24-1.4,0.29-1.63c0.05-0.24,0.24-1.47,0-1.16c-0.24,0.31-0.62,1.18-0.69,1.34c-0.07,0.16-0.34,0.6-0.4,0.62
			c-0.05,0.02-0.47,0.11-0.27-0.29c0.2-0.4,0.74-1.12,0.36-1.4c-0.38-0.27-0.74-0.4-0.89-0.38c-0.14,0.02-0.38,0.16-0.29,0.42
			c0.09,0.25,0.24,0.78,0,0.56c-0.24-0.22-0.42-0.94-0.33-1.12c0.09-0.18,0.38-0.63,0.92-0.42c0.54,0.22,0.82,0.69,0.96,0.6
			c0.14-0.09,0.05-0.34,0.33-0.42c0.27-0.07,0.85-0.07,1.12,0.25c0.27,0.33,0.47,0.04,0.51,0c0.04-0.04,0.78-0.07,1.47,0.29
			c0.69,0.36,0.91,0.13,1,0.13c0.09,0,0.18-0.2,0.16-0.62c-0.02-0.42,0.36-0.62,0.51-0.54c0.15,0.07,0.33,0.62,1,1.21
			c0.67,0.6,0.31,0.2,0.36,0.04c0.05-0.16,0.67-0.54,0.91-0.51c0.24,0.04,1.38,0.29,1.38,0.43c0,0.15,0.49,0.36,0.34,1.27
			c-0.14,0.91-0.29,0.76-0.25,0.85C121.18,563.65,121.6,563.54,120.98,564.2L120.98,564.2 M117.57,564.21c0,0-0.51-0.13-0.31-0.51
			c0.2-0.38,0.27-1.47,0.27-1.38c0,0.09,0.07-0.94,0.38-0.16c0.31,0.78,0,0.56-0.05,0.91c-0.05,0.34,0.18,0.2,0.07,0.56
			C117.83,564,117.57,564.21,117.57,564.21L117.57,564.21 M118.81,563.07l-0.18,0.16l-0.18-0.27l0.25-0.22l0.22,0.2l0.38-0.16
			l0.2,0.29l-0.33,0.27L118.81,563.07L118.81,563.07 M115.13,564.07l-1.41-0.73l-0.11-0.29l1.69,0.78L115.13,564.07L115.13,564.07
			 M115.56,563.33l-1.41-0.73l-0.11-0.29l1.69,0.78L115.56,563.33L115.56,563.33 M110.11,563.74l0.56-0.2c0,0-0.09-0.6-0.34-0.63
			c-0.25-0.04-0.63-0.2-0.43,0.15c0.2,0.34,0.04,0.34-0.02,0.22c-0.05-0.13-0.22,0.07-0.09,0.2
			C109.91,563.6,110.11,563.74,110.11,563.74L110.11,563.74 M102.91,562.67l0.56-0.2c0,0-0.09-0.6-0.34-0.63
			c-0.25-0.04-0.63-0.2-0.44,0.14c0.2,0.34,0.04,0.34-0.02,0.22c-0.05-0.13-0.22,0.07-0.09,0.2
			C102.71,562.53,102.91,562.67,102.91,562.67L102.91,562.67 M116.12,560.84c0,0-0.54-0.05-0.29-0.25c0.25-0.2,0.02-0.2,0.05-0.33
			c0.04-0.13,0.4-0.45,0.51-0.22c0.11,0.24,0.11,0.33-0.02,0.33c-0.13,0-0.18,0.09-0.13,0.2
			C116.3,560.68,116.12,560.84,116.12,560.84L116.12,560.84 M111.85,560.48c0,0-0.51-0.13-0.56-0.29c-0.05-0.16,0-0.29,0.29-0.13
			C111.86,560.23,112.12,560.5,111.85,560.48L111.85,560.48 M109.74,560.71l-0.16,0.18l-0.24-0.34l0.36-0.29l0.24,0.25l0.22-0.18
			l0.14,0.25l-0.16,0.25l-0.29-0.2L109.74,560.71L109.74,560.71 M104.16,562.56l-0.2,0.14l-0.16-0.38l0.42-0.22l0.18,0.29l0.24-0.13
			l0.09,0.27l-0.2,0.22l-0.25-0.25L104.16,562.56L104.16,562.56 M109.78,562.31c0,0,0.13-0.29,0.05-0.47
			c-0.07-0.18-0.44-0.24-0.47-0.02c-0.04,0.22-0.51,0.78-0.54,1.07c-0.04,0.29-0.22,0.04-0.22-0.16c0-0.2,0.07-0.56,0.18-0.71
			c0.11-0.14,0.16-0.45,0.02-0.54c-0.14-0.09-0.27-0.16-0.38-0.04c-0.11,0.13-0.54,0.63-0.65,0.36c-0.11-0.27-0.56-0.73-0.92-0.76
			c-0.36-0.04-0.6-0.27-1.09,0.09c-0.49,0.36-1.41,0.91-1.58,0.25c-0.16-0.65-0.24-1.78-0.78-1.27c-0.54,0.51-0.91,0.73-0.67,0.22
			c0.24-0.51,0.73-1.07,0.94-0.94c0.22,0.13,0.6,0.4,0.71,0.92c0.11,0.53,0.16,1.14,0.72,0.6c0.56-0.54,0.58-0.65,1.49-0.54
			c0.91,0.11,1.02,0.34,1.16,0.51c0.14,0.16,0.09,0.18,0.49,0.02c0.4-0.16,0.83,0,0.89,0.25c0.05,0.25,0.31,0.22,0.31,0.11
			c0-0.11,0.53-0.22,0.67,0.07C110.25,561.62,110.21,562.09,109.78,562.31L109.78,562.31 M107.01,563.43l-1.61-1l0.05-0.29l1.79,1
			l0.02,0.36L107.01,563.43L107.01,563.43 M108.75,560.48l-0.16-0.25l0.33-0.2l0.11,0.36L108.75,560.48L108.75,560.48z"/>
		<path id="path156_00000057135166084291991180000004519141422491750578_" d="M131.48,560.88l-1.62-4.15l-2.67-0.72
			c2.77-0.72,5.61-1.81,8.16-2.94c-0.62,1.36-1.23,2.86-1.83,4.22c1.29,0.4,2.57,0.8,3.88,1.2
			C135.67,559.38,133.61,560.27,131.48,560.88L131.48,560.88 M116.03,558.67c-3.5-0.08-7.25-0.2-10.84-1.07l0.66-1.78
			c-3.42-0.8-6.74-2.11-9.92-3.56c0.64,1.52,1.34,3.25,2.01,4.75c-1.21,0.43-2.74,0.9-4.33,1.31c1.44,0.86,3.72,2,6.82,2.93
			l-0.78,2.1c5.42,1.79,10.86,2.52,16.39,2.52c5.53,0,10.97-0.73,16.39-2.52l-0.78-2.1c3.11-0.92,5.39-2.07,6.82-2.93
			c-1.6-0.42-3.12-0.88-4.33-1.31c0.67-1.5,1.36-3.23,2.01-4.75c-3.17,1.44-6.5,2.76-9.92,3.56l0.66,1.78
			C123.28,558.47,119.53,558.59,116.03,558.67L116.03,558.67 M100.59,560.88l1.62-4.15l2.67-0.72c-2.77-0.72-5.61-1.81-8.16-2.94
			c0.62,1.36,1.23,2.86,1.83,4.22c-1.29,0.4-2.57,0.8-3.88,1.2C96.4,559.38,98.46,560.27,100.59,560.88L100.59,560.88
			 M116.03,559.08c4.62-0.07,9.23-0.38,13.56-1.78l2.27,5.79c-4.13,1.27-8.88,2.38-15.83,2.35c-6.94,0.03-11.69-1.08-15.83-2.35
			l2.27-5.79C106.8,558.69,111.41,559.01,116.03,559.08L116.03,559.08z"/>
		<path id="path152_00000105404992961434997140000013250177244195843457_" class="st23" d="M100.59,560.88l1.62-4.15l2.67-0.72
			c-2.77-0.72-5.61-1.81-8.16-2.94c0.62,1.36,1.23,2.86,1.83,4.22c-1.29,0.4-2.57,0.8-3.88,1.2
			C96.4,559.38,98.46,560.27,100.59,560.88L100.59,560.88z"/>
	</g>
</g>
</svg>
