<?xml version="1.0" encoding="utf-8"?>
<!-- Generator: Adobe Illustrator 27.0.0, SVG Export Plug-In . SVG Version: 6.00 Build 0)  -->
<svg version="1.1" id="Layer_1" xmlns="http://www.w3.org/2000/svg" xmlns:xlink="http://www.w3.org/1999/xlink" x="0px" y="0px"
	 viewBox="0 0 596.4 152.9" style="enable-background:new 0 0 596.4 152.9;" xml:space="preserve">
<style type="text/css">
	.st0{fill:#FFFFFF;}
</style>
<g>
	<g>
		<path class="st0" d="M286.1,31l-28.4,77.7h-0.2L229.1,31h-26.7l43,109h23.9l43.3-109H286.1z"/>
		<path class="st0" d="M335,140V31h25v109H335z"/>
		<path class="st0" d="M429.1,141.8c-17.4,0-32.1-5.3-44-15.9l12.5-18.8c8.6,8.5,19.1,12.7,31.5,12.7c4.8,0,8.5-1,11.2-2.9
			c2.7-1.9,4-4.5,4-7.8c0-2.5-1.5-4.7-4.6-6.4c-3.1-1.7-8.7-4-16.9-6.8c-10.7-3.7-19-8.2-24.7-13.4c-5.7-5.2-8.6-12.7-8.6-22.3
			c0-8.9,3.6-16.3,10.8-22.1c7.2-5.8,16.4-8.7,27.6-8.7c14.4,0,27.3,4.5,38.4,13.6l-12.5,19.7c-8.2-7.7-17.3-11.6-27.3-11.6
			c-3,0-5.7,0.8-8.2,2.3c-2.5,1.6-3.7,3.9-3.7,7c0,4.5,5.7,8.9,17.2,13.2c14.2,5.5,23,9.5,26.6,12.1c7.4,5.2,11.2,12.9,11.2,23
			c0,9.7-3.5,17.6-10.4,23.8C452.4,138.7,442.3,141.8,429.1,141.8z"/>
		<path class="st0" d="M537.4,141.8c-15.3,0-28-5.1-37.9-15.4c-9.9-10.3-14.9-23.8-14.9-40.4c0-16.4,5-29.9,15-40.6
			c10-10.6,22.5-16,37.5-16c14.6,0,25.8,5,33.7,15l0.4-0.2V31h25v109h-23.9v-14.3l-0.4-0.2C564,136.4,552.5,141.8,537.4,141.8z
			 M541.5,119c8.6,0,16-3.1,22-9.2c6-6.1,9-14,9-23.7c0-9.7-2.9-17.8-8.8-24.4c-5.9-6.6-13.3-9.8-22.2-9.8c-8.9,0-16.4,3.1-22.3,9.4
			c-6,6.3-8.9,14.5-8.9,24.8c0,9.7,2.9,17.6,8.7,23.7C524.7,116,532.2,119,541.5,119z"/>
	</g>
	<g>
		<g>
			<path class="st0" d="M30.5,22.8c-0.4,0-0.8,0-1.2,0c-2.6-0.2-6-0.2-9.8,0.8c-7,1.8-11.4,5.8-13.3,7.7c0.5,0,5.8-0.2,8.3,3.7
				c0.3,0.4,0.5,0.8,0.6,1.2c0.4,0.9,0.4,2,0.2,2.9c-0.1,0.3-0.1,0.6-0.2,1c1.8-3,3.8-5.7,5.9-8.3C23.9,28.4,27.1,25.4,30.5,22.8z"
				/>
			<path class="st0" d="M15.7,149.2c0.1-1.6,0.9-7.9,5-11.9c-3.8-2.4-6.8-5-9.2-7.4L15.7,149.2z"/>
			<path class="st0" d="M77.1,4.5C70.5,1.3,64.5,0.3,60.5,0c1,0.3,6.2,1.9,8.7,7c0.1,0.1,0.1,0.3,0.2,0.4c4.2-0.3,8.7-0.3,13.5,0.3
				C81.1,6.6,79.2,5.5,77.1,4.5z"/>
			<path class="st0" d="M52.3,51.6c0.5,1.4,0.8,3.1,0.8,4.8c0.1,7.6-5.4,15-13.7,19c3.6-0.1,11.9-0.7,20.4-6.1
				c7.3-4.7,11.4-10.7,13.5-14.8l-0.4-0.2C66.1,51.8,59.1,50.9,52.3,51.6z"/>
			<path class="st0" d="M36.9,20.7C36.9,20.7,36.9,20.7,36.9,20.7"/>
			<path class="st0" d="M129.2,37.9c-3.8-5.3-10.7-13.4-21.2-19.8c0.5,0.4,0.6,0.9,0.4,1.3c-0.3,0.4-0.9,0.5-1.5,0.1
				c-0.6-0.4-0.8-1-0.5-1.4c0.2-0.3,0.7-0.4,1.2-0.2c-2.7-1.6-5.6-3.1-8.8-4.3c0.1,0,0.2,0.1,0.2,0.2c0.4,0.3,0.4,0.9,0.1,1.2
				c-0.3,0.3-0.8,0.3-1.2-0.1c-0.4-0.3-0.4-0.9-0.1-1.2c0.2-0.2,0.5-0.3,0.8-0.2c-4-1.6-8.4-2.9-13.1-3.7C84,9.6,59.1,6.1,37.3,20.3
				c-0.3,0.2-0.6,0.4-0.8,0.5c-4.3,2.7-9.4,6.6-14.1,12.1c-2.1,2.5-5.8,6.8-8.6,13.3c-0.2,0.4-0.4,1-1.3,3.3
				c-1.1,3-3.8,10.3-5.6,16.7c-0.5,1.7-1.3,4.8-4.1,20.7C1.7,93.6,0.7,99.4,0,104c0.9-0.3,1.7-0.6,2.6-0.8c0.4,0.7,1,1.6,1.7,2.7
				c0,0,1.3,2.3,2.4,5c1.2,2.9,2.8,8.4,4.1,15.8c3.1,3.5,9.9,10.1,20.6,14c12.4,4.5,23.1,3.1,27.7,2.2c-4.5-0.3-16.8-1.7-28.6-11
				c-12.1-9.5-16.2-21.6-17.5-25.9c-0.3-1.4-5.5-26.1,12.5-43.6C38.8,49.6,59,46,76.5,53.5c7.5,4,15,8,22.5,12
				c2.1,0.6,10.4,2.8,19.1-1.6c7.3-3.6,10.9-9.9,12.7-14.7C132.2,45.5,131.6,41.2,129.2,37.9z M36.8,38.4c0.1,0.5-0.4,1-1.2,1.1
				c-0.7,0.1-1.3-0.3-1.4-0.8s0.4-1,1.2-1.1C36.1,37.5,36.7,37.9,36.8,38.4z M17.4,42c0.6-0.3,1.2-0.3,1.5,0.2
				c0.3,0.4,0,1.1-0.6,1.4c-0.6,0.3-1.2,0.3-1.5-0.2C16.6,42.9,16.8,42.3,17.4,42z M9.4,60.9c0.4-0.5,1-0.7,1.3-0.4s0.4,0.9,0,1.4
				s-1,0.7-1.3,0.4S9,61.4,9.4,60.9z M12.5,72.5c0.4,0.4,0.3,1.1-0.2,1.5c-0.5,0.4-1.2,0.4-1.5,0c-0.4-0.4-0.3-1.1,0.2-1.5
				C11.4,72,12.1,72,12.5,72.5z M9.8,80.5c-0.5,0.4-1.2,0.4-1.5,0C7.9,80,8,79.4,8.4,78.9s1.2-0.4,1.5,0
				C10.3,79.4,10.2,80.1,9.8,80.5z M7.9,68.4c0.4-0.5,1-0.7,1.3-0.4s0.4,0.9,0,1.4s-1,0.7-1.3,0.4C7.6,69.6,7.6,68.9,7.9,68.4z
				 M6.6,88.8c0.4-0.5,1.1-0.6,1.5-0.3c0.4,0.3,0.5,1,0.1,1.5s-1.1,0.6-1.5,0.3C6.3,90,6.2,89.3,6.6,88.8z M6.6,104
				c-0.5-0.2-0.8-0.8-0.5-1.4s0.8-0.9,1.4-0.7c0.5,0.2,0.8,0.8,0.5,1.4S7.1,104.2,6.6,104z M9.7,111.4c-0.2,0.6-0.8,0.9-1.4,0.7
				c-0.5-0.2-0.8-0.8-0.5-1.4s0.8-0.9,1.4-0.7C9.7,110.2,10,110.8,9.7,111.4z M10.1,92.1c0.3-0.5,0.9-0.7,1.4-0.4
				c0.4,0.3,0.5,0.9,0.2,1.4c-0.3,0.5-0.9,0.7-1.4,0.4S9.8,92.6,10.1,92.1z M13.3,112.1c0.5,0.1,0.8,0.7,0.6,1.3
				c-0.2,0.6-0.7,0.9-1.2,0.8c-0.5-0.1-0.8-0.7-0.6-1.3C12.3,112.3,12.8,112,13.3,112.1z M12.2,105.2c-0.2,0.6-0.7,0.9-1.2,0.8
				c-0.5-0.1-0.8-0.7-0.6-1.3c0.2-0.6,0.7-0.9,1.2-0.8C12,104.1,12.3,104.7,12.2,105.2z M12.5,84.2c-0.4,0.4-1,0.5-1.4,0.1
				s-0.4-1,0-1.4c0.4-0.4,1-0.5,1.4-0.1S12.9,83.7,12.5,84.2z M12.6,65.8c-0.4-0.4-0.3-1.1,0.2-1.5c0.5-0.4,1.2-0.4,1.5,0
				c0.4,0.4,0.3,1.1-0.2,1.5C13.6,66.2,12.9,66.2,12.6,65.8z M15,77.7c-0.4,0.4-1,0.5-1.4,0.1c-0.4-0.4-0.4-1,0-1.4
				c0.4-0.4,1-0.5,1.4-0.1C15.4,76.6,15.4,77.2,15,77.7z M14,54.3c-0.3-0.4-0.2-1,0.3-1.4s1.1-0.5,1.5-0.1c0.3,0.4,0.2,1-0.3,1.4
				S14.3,54.7,14,54.3z M17.4,70.9c-0.4,0.4-1,0.5-1.4,0.1s-0.4-1,0-1.4c0.4-0.4,1-0.5,1.4-0.1C17.8,69.9,17.8,70.5,17.4,70.9z
				 M18,59c-0.6,0.3-1.3,0.2-1.6-0.4c-0.3-0.5,0-1.2,0.6-1.5c0.6-0.3,1.3-0.2,1.6,0.4C18.8,58,18.6,58.7,18,59z M20.2,65
				c-0.5,0.3-1.2,0.3-1.5-0.2c-0.3-0.4-0.1-1.1,0.4-1.4c0.5-0.3,1.2-0.3,1.5,0.2C20.9,64,20.7,64.7,20.2,65z M20.3,48.6
				c-0.5,0.4-1.2,0.4-1.5,0c-0.3-0.4-0.1-1,0.4-1.4c0.5-0.4,1.2-0.4,1.5,0S20.8,48.1,20.3,48.6z M21.2,53.3c-0.3-0.5,0-1.2,0.7-1.5
				c0.6-0.3,1.3-0.1,1.6,0.5c0.3,0.5,0,1.2-0.7,1.5S21.5,53.8,21.2,53.3z M24.4,60.2c-0.5,0.3-1.2,0.2-1.5-0.3
				c-0.3-0.5-0.1-1.1,0.5-1.4c0.5-0.3,1.2-0.2,1.5,0.3C25.1,59.2,24.9,59.8,24.4,60.2z M24.5,36c-0.2-0.5,0.2-1.1,0.9-1.3
				s1.3,0,1.5,0.5c0.2,0.5-0.2,1.1-0.9,1.3C25.3,36.7,24.7,36.5,24.5,36z M25.8,41.8c-0.2-0.5,0.1-1.1,0.7-1.4
				c0.6-0.3,1.3-0.2,1.6,0.3c0.2,0.5-0.1,1.1-0.7,1.4S26.1,42.3,25.8,41.8z M27,47.6c-0.1-0.6,0.3-1.2,1-1.4
				c0.7-0.2,1.4,0.2,1.5,0.8c0.1,0.6-0.3,1.2-1,1.4C27.9,48.6,27.2,48.3,27,47.6z M29.2,56.3c-0.6,0.2-1.3-0.1-1.5-0.6
				c-0.2-0.6,0.2-1.2,0.8-1.4s1.3,0.1,1.5,0.6C30.2,55.5,29.9,56.1,29.2,56.3z M32.5,27.6c-0.1-0.6,0.4-1.2,1-1.3
				c0.6-0.1,1.2,0.4,1.3,1c0.1,0.6-0.4,1.2-1,1.3C33.1,28.7,32.6,28.3,32.5,27.6z M33.4,33.5c0-0.6,0.5-1.1,1.2-1.1
				c0.7,0,1.2,0.4,1.2,1s-0.5,1.1-1.2,1.1C33.9,34.5,33.4,34.1,33.4,33.5z M35,53.4c-0.6,0-1.2-0.4-1.2-1s0.5-1,1.1-1
				c0.6,0,1.2,0.4,1.2,1C36.2,52.9,35.7,53.3,35,53.4z M35.7,45.8c-0.7,0-1.3-0.5-1.3-1.1c0-0.6,0.6-1.2,1.3-1.2
				c0.7,0,1.3,0.5,1.3,1.1C37,45.3,36.4,45.8,35.7,45.8z M115.7,32.6c0.5,0.5,0.6,1.3,0.2,1.7c-0.4,0.4-1.2,0.4-1.7-0.1
				c-0.5-0.5-0.6-1.3-0.2-1.7C114.4,32.1,115.2,32.1,115.7,32.6z M112,23.4c0.4-0.5,1.2-0.4,1.7,0.1c0.5,0.5,0.6,1.3,0.1,1.7
				s-1.2,0.4-1.7-0.1C111.7,24.6,111.6,23.8,112,23.4z M110.1,27c0.4-0.5,1.2-0.5,1.7-0.1c0.6,0.4,0.7,1.2,0.3,1.7s-1.2,0.5-1.7,0.1
				C109.9,28.3,109.7,27.5,110.1,27z M101.4,26.4c0.4-0.3,1-0.2,1.4,0.3s0.5,1.2,0.1,1.5c-0.4,0.3-1,0.2-1.4-0.3
				S101,26.7,101.4,26.4z M101.4,39.9c0.5,0.5,0.6,1.3,0.1,1.7c-0.4,0.5-1.2,0.4-1.7-0.1c-0.5-0.5-0.6-1.3-0.1-1.7
				C100.1,39.4,100.9,39.4,101.4,39.9z M96.3,17.1c0.3-0.4,0.9-0.5,1.5-0.1s0.8,1,0.5,1.4c-0.3,0.4-0.9,0.5-1.5,0.1
				S96,17.5,96.3,17.1z M97.2,42.5c0.5,0.5,0.6,1.3,0.1,1.7c-0.4,0.5-1.2,0.4-1.7-0.1c-0.5-0.5-0.6-1.3-0.1-1.7
				C95.9,41.9,96.7,42,97.2,42.5z M94.3,21c0.4-0.5,1.2-0.4,1.7,0.1s0.6,1.3,0.1,1.7c-0.4,0.5-1.2,0.4-1.7-0.1
				C93.9,22.3,93.8,21.5,94.3,21z M94.1,34.7c0.5-0.4,1.3-0.3,1.7,0.3c0.5,0.6,0.4,1.3,0,1.7c-0.5,0.4-1.3,0.3-1.7-0.3
				C93.6,35.9,93.6,35.1,94.1,34.7z M91.7,25.5c0.4-0.3,1-0.2,1.4,0.3c0.4,0.5,0.5,1.2,0.1,1.5c-0.4,0.3-1,0.2-1.4-0.3
				C91.4,26.5,91.3,25.8,91.7,25.5z M91.8,40.3c-0.4,0.5-1.2,0.4-1.7-0.1c-0.5-0.5-0.6-1.3-0.1-1.7s1.2-0.4,1.7,0.1
				C92.2,39.1,92.3,39.8,91.8,40.3z M87.1,11c0.3-0.5,1.1-0.7,1.7-0.3c0.6,0.4,0.9,1.1,0.6,1.6s-1.1,0.7-1.7,0.3
				C87,12.3,86.8,11.6,87.1,11z M85.3,15.5c0.3-0.6,1-0.8,1.7-0.5c0.7,0.3,1,1,0.7,1.6c-0.3,0.6-1,0.8-1.7,0.5
				C85.3,16.8,85,16.1,85.3,15.5z M87.5,35.3c-0.4,0.5-1.2,0.4-1.7-0.1c-0.5-0.5-0.6-1.3-0.1-1.7s1.2-0.4,1.7,0.1
				C87.9,34.1,87.9,34.9,87.5,35.3z M75,12.7c0.2-0.6,0.9-0.8,1.6-0.6c0.7,0.3,1,0.9,0.8,1.5s-0.9,0.8-1.6,0.6
				C75.1,13.9,74.7,13.2,75,12.7z M64,16.8c0.2-0.6,0.8-1,1.4-0.8c0.6,0.2,1,0.8,0.8,1.4s-0.8,1-1.4,0.8S63.8,17.4,64,16.8z
				 M58.6,33.1c0.2-0.6,1-0.8,1.6-0.5c0.7,0.3,1,1,0.8,1.6c-0.2,0.6-1,0.8-1.6,0.5C58.7,34.4,58.4,33.7,58.6,33.1z M55.2,13.4
				c0.7,0.1,1.2,0.6,1.2,1.2c-0.1,0.6-0.7,1.1-1.4,1c-0.7-0.1-1.2-0.6-1.2-1.2C53.9,13.7,54.5,13.3,55.2,13.4z M54.5,19.2
				c0.7-0.2,1.4,0.2,1.6,0.9c0.1,0.6-0.3,1.3-1,1.5c-0.7,0.2-1.4-0.2-1.6-0.9S53.8,19.3,54.5,19.2z M52.8,25.7
				c0.1-0.6,0.8-1.1,1.6-0.9s1.2,0.8,1.1,1.4c-0.1,0.6-0.8,1.1-1.6,0.9C53.2,27,52.7,26.4,52.8,25.7z M45.5,28.1
				c0,0.5-0.5,0.9-1.1,1c-0.7,0-1.2-0.3-1.2-0.8c0-0.5,0.5-0.9,1.1-1C44.9,27.3,45.5,27.6,45.5,28.1z M45.2,22.4
				c0.1,0.5-0.3,1-0.9,1.2c-0.6,0.1-1.2-0.2-1.3-0.7c-0.1-0.5,0.3-1,0.9-1.2C44.5,21.6,45.1,21.9,45.2,22.4z M43.6,17.7
				c0.5,0,0.9,0.3,0.9,0.7s-0.4,0.7-0.9,0.7c-0.5,0-0.9-0.3-0.9-0.7C42.7,18.1,43.1,17.7,43.6,17.7z M42.1,49.8
				c-0.7,0-1.3-0.3-1.4-0.8c0-0.5,0.5-1,1.2-1c0.7,0,1.3,0.3,1.4,0.8S42.8,49.8,42.1,49.8z M43.3,42.7c-0.7-0.1-1.1-0.7-1-1.3
				s0.7-1,1.4-0.8s1.1,0.7,1,1.3C44.5,42.4,43.9,42.8,43.3,42.7z M44.3,35c-0.6,0-1.1-0.5-1.1-1.1c0-0.6,0.6-1,1.2-1
				c0.6,0,1.1,0.5,1.1,1.1C45.5,34.7,45,35.1,44.3,35z M49.6,47.4c-0.1,0.5-0.7,0.8-1.3,0.7s-1-0.7-0.8-1.2c0.1-0.5,0.7-0.8,1.3-0.7
				C49.4,46.3,49.8,46.9,49.6,47.4z M50,41.3c-0.7-0.1-1.2-0.8-1-1.4s0.8-1,1.5-0.9c0.7,0.1,1.2,0.8,1,1.4
				C51.4,41.1,50.8,41.5,50,41.3z M50.9,33c0.1-0.6,0.7-1.1,1.4-1c0.7,0.1,1.2,0.6,1.2,1.3c-0.1,0.6-0.7,1.1-1.4,1
				S50.9,33.6,50.9,33z M53.6,47.1c-0.6-0.1-1-0.7-0.9-1.2s0.7-0.9,1.3-0.8s1,0.7,0.9,1.2S54.2,47.2,53.6,47.1z M57.1,40.8
				c-0.2,0.5-0.9,0.7-1.5,0.5c-0.6-0.2-0.9-0.9-0.7-1.4c0.2-0.5,0.9-0.7,1.5-0.5C57,39.6,57.3,40.3,57.1,40.8z M58.9,48.4
				c-0.6,0-1.1-0.3-1.1-0.7c0-0.4,0.4-0.8,1-0.8c0.6,0,1.1,0.3,1.1,0.7S59.5,48.4,58.9,48.4z M62.2,42.9c-0.3,0.5-0.9,0.6-1.4,0.3
				c-0.5-0.3-0.7-0.9-0.5-1.4s0.9-0.6,1.4-0.3C62.3,41.8,62.5,42.5,62.2,42.9z M63.5,28.4c-0.2,0.5-0.8,0.8-1.5,0.6
				c-0.7-0.2-1.1-0.8-1-1.3c0.2-0.5,0.8-0.8,1.5-0.6S63.6,27.9,63.5,28.4z M63.1,23.9c-0.6-0.3-0.9-0.9-0.7-1.4
				c0.2-0.5,0.9-0.8,1.5-0.5c0.6,0.3,0.9,0.9,0.7,1.4C64.4,24,63.7,24.2,63.1,23.9z M66.9,46.3c-0.4,0.5-1.1,0.6-1.7,0.2
				c-0.6-0.4-0.8-1.2-0.4-1.7c0.4-0.5,1.1-0.6,1.7-0.2C67.1,45.1,67.2,45.8,66.9,46.3z M67,36c-0.3,0.6-1,0.7-1.7,0.4
				s-0.9-1.1-0.6-1.6s1-0.7,1.7-0.4C67,34.7,67.3,35.4,67,36z M67.3,12.4c-0.2,0.6-0.9,0.9-1.6,0.7c-0.7-0.2-1.1-0.9-0.9-1.5
				c0.2-0.6,0.9-0.9,1.6-0.7C67,11.1,67.5,11.7,67.3,12.4z M68.2,31.5c-0.6-0.4-0.8-1.1-0.5-1.7s1.1-0.6,1.7-0.2
				c0.6,0.4,0.8,1.1,0.5,1.7C69.5,31.8,68.8,31.9,68.2,31.5z M71.8,49.2c-0.5,0.4-1.3,0.3-1.7-0.3c-0.5-0.6-0.4-1.3,0-1.7
				c0.5-0.4,1.3-0.3,1.7,0.3C72.4,48,72.3,48.8,71.8,49.2z M73.4,39.5c-0.3,0.5-1.1,0.7-1.7,0.3c-0.6-0.4-0.9-1.1-0.6-1.6
				c0.3-0.5,1.1-0.7,1.7-0.3C73.5,38.2,73.7,38.9,73.4,39.5z M73.6,25.4c-0.3,0.6-1.2,0.7-2,0.3c-0.8-0.4-1.2-1.2-0.9-1.8
				c0.3-0.6,1.2-0.7,2-0.3S73.9,24.8,73.6,25.4z M73.4,19.1c0.2-0.6,1-0.9,1.9-0.7s1.4,1,1.2,1.6c-0.2,0.6-1,0.9-1.9,0.7
				S73.2,19.7,73.4,19.1z M75.1,33.2c0.3-0.5,1.1-0.7,1.7-0.3c0.6,0.4,0.9,1.1,0.6,1.6c-0.3,0.5-1.1,0.7-1.7,0.3
				C75.1,34.5,74.8,33.8,75.1,33.2z M76.2,42.5c0.5-0.4,1.3-0.3,1.7,0.3s0.4,1.3,0,1.7s-1.3,0.3-1.7-0.3
				C75.7,43.7,75.8,42.9,76.2,42.5z M78.8,52.3c-0.2,0.6-1,0.8-1.8,0.5c-0.8-0.3-1.2-1-1-1.5c0.2-0.6,1-0.8,1.8-0.5
				S79,51.8,78.8,52.3z M78.9,30.5c-0.6-0.4-0.9-1.1-0.6-1.6c0.3-0.5,1.1-0.7,1.7-0.3c0.6,0.4,0.9,1.1,0.6,1.6
				C80.3,30.7,79.6,30.8,78.9,30.5z M83,48.2c-0.3,0.5-1.2,0.5-1.8,0.1c-0.7-0.5-0.9-1.2-0.6-1.7c0.3-0.5,1.2-0.5,1.8-0.1
				C83.1,46.9,83.4,47.7,83,48.2z M83.3,39.7c-0.5,0.4-1.3,0.3-1.7-0.3c-0.5-0.6-0.4-1.3,0-1.7c0.5-0.4,1.3-0.3,1.7,0.3
				C83.8,38.5,83.8,39.3,83.3,39.7z M83.8,25.3c-0.3,0.5-1.1,0.7-1.7,0.3s-0.9-1.1-0.6-1.6s1.1-0.7,1.7-0.3S84.1,24.7,83.8,25.3z
				 M83.8,19.6c0.3-0.5,1.1-0.7,1.7-0.3c0.6,0.4,0.9,1.1,0.6,1.6c-0.3,0.5-1.1,0.7-1.7,0.3C83.7,20.9,83.5,20.2,83.8,19.6z M86.8,53
				c-0.5,0.4-1.3,0.3-1.7-0.3c-0.5-0.6-0.4-1.3,0-1.7c0.5-0.4,1.3-0.3,1.7,0.3C87.3,51.8,87.2,52.6,86.8,53z M87.8,44.4
				c-0.5,0.4-1.3,0.3-1.7-0.3c-0.5-0.6-0.4-1.3,0-1.7c0.5-0.4,1.3-0.3,1.7,0.3C88.4,43.2,88.3,44,87.8,44.4z M88.9,30.2
				c0.4-0.5,1.2-0.4,1.7,0.1s0.6,1.3,0.1,1.7c-0.4,0.5-1.2,0.4-1.7-0.1C88.5,31.4,88.4,30.6,88.9,30.2z M90.8,57.4
				c-0.5,0.4-1.3,0.3-1.7-0.3c-0.5-0.6-0.4-1.3,0-1.7c0.5-0.4,1.3-0.3,1.7,0.3C91.3,56.2,91.2,56.9,90.8,57.4z M91.9,48.2
				c-0.5-0.5-0.6-1.3-0.1-1.7c0.4-0.5,1.2-0.4,1.7,0.1c0.5,0.5,0.6,1.3,0.1,1.7C93.2,48.7,92.4,48.7,91.9,48.2z M94.1,54.2
				c-0.5-0.6-0.4-1.3,0-1.7c0.5-0.4,1.3-0.3,1.7,0.3c0.5,0.6,0.4,1.3,0,1.7C95.4,54.9,94.6,54.8,94.1,54.2z M97.9,60.8
				c-0.5,0.4-1.3,0.3-1.7-0.3c-0.5-0.6-0.4-1.3,0-1.7c0.5-0.4,1.3-0.3,1.7,0.3C98.4,59.6,98.4,60.4,97.9,60.8z M97.7,32.8
				c-0.5-0.5-0.6-1.2-0.3-1.6c0.4-0.4,1.1-0.3,1.6,0.2c0.5,0.5,0.6,1.2,0.3,1.6C98.9,33.4,98.2,33.3,97.7,32.8z M99.5,50.1
				c-0.5-0.6-0.4-1.3,0-1.7c0.5-0.4,1.3-0.3,1.7,0.3c0.5,0.6,0.4,1.3,0,1.7C100.8,50.8,100,50.7,99.5,50.1z M101.3,54.2
				c0.5-0.4,1.3-0.3,1.7,0.3c0.5,0.6,0.4,1.3,0,1.7c-0.5,0.4-1.3,0.3-1.7-0.3C100.7,55.4,100.8,54.6,101.3,54.2z M102.6,64.5
				c-0.6-0.1-0.9-0.7-0.8-1.2s0.7-0.9,1.2-0.8c0.6,0.1,0.9,0.7,0.8,1.2C103.7,64.2,103.2,64.6,102.6,64.5z M105,45.9
				c-0.5,0.4-1.3,0.3-1.7-0.3c-0.5-0.6-0.4-1.3,0-1.7c0.5-0.4,1.3-0.3,1.7,0.3C105.5,44.7,105.4,45.5,105,45.9z M105.1,38
				c-0.4,0.5-1.2,0.4-1.7-0.1c-0.5-0.5-0.6-1.3-0.1-1.7c0.4-0.5,1.2-0.4,1.7,0.1C105.5,36.7,105.6,37.5,105.1,38z M104.5,23.3
				c-0.6-0.4-0.7-1.2-0.3-1.7c0.4-0.5,1.2-0.5,1.7-0.1s0.7,1.2,0.3,1.7C105.8,23.7,105.1,23.8,104.5,23.3z M106.4,31.4
				c0.4-0.5,1.2-0.4,1.7,0.1c0.5,0.5,0.6,1.3,0.1,1.7s-1.2,0.4-1.7-0.1C106,32.6,106,31.9,106.4,31.4z M106.6,50.5
				c0.5-0.4,1.3-0.3,1.7,0.3c0.5,0.6,0.4,1.3,0,1.7c-0.5,0.4-1.3,0.3-1.7-0.3C106.1,51.6,106.1,50.9,106.6,50.5z M108.4,61.4
				c-0.4,0.4-1.1,0.2-1.5-0.3c-0.4-0.5-0.4-1.2,0-1.6c0.4-0.4,1.1-0.2,1.5,0.3C108.8,60.3,108.8,61,108.4,61.4z M109.1,42.9
				c-0.4,0.4-1.1,0.3-1.6-0.2c-0.5-0.5-0.6-1.2-0.3-1.6c0.4-0.4,1.1-0.3,1.6,0.2C109.3,41.8,109.4,42.6,109.1,42.9z M109.9,36.5
				c0.4-0.3,1-0.2,1.4,0.3c0.4,0.5,0.5,1.2,0.1,1.5c-0.4,0.3-1,0.2-1.5-0.3C109.6,37.5,109.5,36.8,109.9,36.5z M111,49
				c-0.4-0.5-0.5-1.2-0.1-1.5c0.4-0.3,1-0.2,1.4,0.3c0.4,0.5,0.5,1.2,0.1,1.5C112.1,49.7,111.4,49.6,111,49z M113.9,57.4
				c-0.4,0.3-1,0.2-1.4-0.2c-0.4-0.4-0.4-1.1,0-1.4c0.4-0.3,1-0.2,1.4,0.2S114.3,57,113.9,57.4z M115.3,44.7
				c-0.5-0.5-0.6-1.3-0.2-1.7c0.4-0.4,1.2-0.4,1.7,0.1s0.6,1.3,0.2,1.7C116.6,45.3,115.9,45.2,115.3,44.7z M117.5,53.3
				c-0.3,0.2-0.7,0.1-1-0.2s-0.3-0.8-0.1-1.1s0.7-0.1,1,0.2S117.8,53.1,117.5,53.3z M117.1,30.4c-0.5-0.5-0.6-1.3-0.1-1.7
				c0.4-0.5,1.2-0.4,1.7,0.1c0.5,0.5,0.6,1.3,0.1,1.7C118.4,30.9,117.6,30.9,117.1,30.4z M118.8,37.9c0.4-0.4,1.2-0.4,1.7,0.1
				c0.5,0.5,0.6,1.3,0.2,1.7s-1.2,0.4-1.7-0.1C118.4,39.1,118.4,38.3,118.8,37.9z M121,48.8c-0.3,0.4-1,0.3-1.5-0.2
				s-0.6-1.1-0.2-1.5s1-0.3,1.5,0.2S121.4,48.5,121,48.8z M121.8,34.5c-0.5-0.5-0.6-1.3-0.1-1.7c0.4-0.5,1.2-0.4,1.7,0.1
				c0.5,0.5,0.6,1.3,0.1,1.7C123.1,35,122.3,35,121.8,34.5z M124.6,44.2c-0.3,0.3-0.9,0.2-1.3-0.2c-0.4-0.4-0.5-0.9-0.2-1.3
				c0.3-0.3,0.9-0.2,1.3,0.2C124.8,43.4,124.9,43.9,124.6,44.2z M126.6,41.2c-0.3,0.3-0.9,0.2-1.3-0.2c-0.4-0.4-0.5-0.9-0.2-1.3
				s0.9-0.2,1.3,0.2S126.8,40.9,126.6,41.2z"/>
		</g>
		<path class="st0" d="M125.4,70.2c0.1-1,0.3-2.1-0.6-3c-0.4-0.5-0.3-1.2,0.3-1.8c0.8-0.7,1-1.8,1.3-2.8c0.5-1.4,0.8-1.7,2-1.6
			c0.4,0,0.7,0.1,0.9,0.5c0.6,1.1,1.2,2.2,1.6,3c0.3,0.6,0.4,1,0.3,1.5c-0.1,0.7,0,1.4,0.3,2.1c0.3,0.7,0.1,1.1-0.6,1.1
			c-0.4,0-0.7,0.3-0.8,0.7c-0.8,2.3-2.3,4.3-3.4,6.4c-1.1,2.2-2.7,4-4.3,5.8c-0.2,0.2-0.4,0.6-0.8,0.5c-0.4-0.2-0.2-0.6,0-0.9
			c0.2-0.5,0.4-1,0.6-1.4c0.3-0.6,0.6-1.3-0.6-1.4c-0.6-0.1-0.4-0.5-0.1-0.9c0.6-0.7,1.1-1.5,1.7-2.1
			C124.9,74.2,125.2,72.2,125.4,70.2z M31,67.7c0.4-0.3,0.8-0.7,1.2-1c0.5-0.4,1.1-1,1.5,0.1c0.3,0.6,0.6,0.2,0.9-0.1
			c0.5-0.7,1.1-1.5,1.5-2.3c1-2,2.9-2.8,4.8-3.6c0.9-0.4,1.9-0.8,3-0.3c0.6,0.3,1.3,0,1.6-0.8c0.4-1,1.4-1.4,2.3-2
			c1.2-0.9,1.4-1.2,1-2.4c-0.1-0.4-0.3-0.6-0.7-0.7c-1.2-0.2-2.4-0.5-3.4-0.7c-0.7-0.1-1.1-0.1-1.5,0.1c-0.7,0.3-1.3,0.4-2.1,0.3
			c-0.7-0.1-1,0.2-0.9,0.9c0.1,0.4-0.1,0.8-0.4,1c-2,1.4-3.5,3.4-5.2,5c-1.8,1.7-3,3.8-4.4,5.8c-0.2,0.3-0.5,0.6-0.2,0.9
			C30.5,68.3,30.8,67.9,31,67.7z M79.6,146.8c-0.5,0-1,0.1-1.5,0.2c-0.7,0.1-1.4,0.2-1.2-0.9c0.1-0.6-0.4-0.5-0.8-0.4
			c-0.8,0.3-1.7,0.6-2.5,1.1c-1.9,1.1-4,0.8-6,0.5c-1-0.2-2.1-0.3-2.7-1.4c-0.3-0.5-1.1-0.7-1.8-0.2c-0.9,0.6-2,0.4-3,0.5
			c-1.5,0-1.8,0.3-2.1,1.5c-0.1,0.4-0.1,0.7,0.2,1c0.9,0.9,1.8,1.7,2.4,2.4c0.5,0.5,0.9,0.7,1.3,0.7c0.7,0.1,1.4,0.4,1.9,0.9
			c0.5,0.5,1,0.4,1.3-0.3c0.2-0.4,0.5-0.6,0.9-0.6c2.5-0.1,4.7-1,7.1-1.4c2.5-0.5,4.6-1.5,6.8-2.5c0.3-0.1,0.7-0.2,0.7-0.6
			C80.4,146.7,79.9,146.8,79.6,146.8z M36.9,68.8c-0.3,0.2-0.6,0.1-0.8,0.1c-0.9-0.1-1.8-0.3-2.7-0.3c-0.4,0-1.1-0.2-1.3,0.3
			c-0.1,0.4,0.5,0.6,0.8,0.9c0.2,0.2,0.4,0.4,0.7,0.6c0.2,0.2,0.3,0.4,0.3,0.7c0,1.7,0.5,1.4,1.6,0.9c0.4-0.2,0.8-0.4,1.2-0.6
			c0.4-0.2,0.8-0.3,1.3-0.2c1.7,0.2,3.2-0.5,4.4-1.7c0.4-0.4,0.7-0.7,1.2-0.8c0.6-0.1,0.9-0.4,0.9-1c0-0.8,0.2-1.6,0.6-2.2
			c0.1-0.2,0.2-0.5,0.1-0.7c-0.2-0.6-0.3-1.2-0.5-1.8c-0.1-0.3-0.1-0.5-0.4-0.7c-0.8-0.7-1.2-0.6-1.8,0.3c-0.3,0.5-0.7,1-1.1,1.6
			c-0.1,0.2-0.3,0.3-0.6,0.3c-0.8,0.1-1.3,0.7-1,1.5c0.1,0.2,0.1,0.4-0.1,0.6C38.8,67.2,37.9,68.1,36.9,68.8z M93.3,80.7
			c0.2,0.2,0.3,0.4,0.3,0.7c0,0.3,0,0.6,0,0.9c0,0.4-0.2,1,0.2,1.2c0.5,0.2,0.8-0.4,1-0.8c0.5-0.7,0.9-1.5,1.4-2.3
			c0.2-0.2,0.3-0.5,0.6-0.6c1.2-0.4,2.4-0.6,3.6-0.8c0.3,0,0.4,0.1,0.5,0.3c0.5,0.7,1.2,0.7,1.8,0.1c0.2-0.2,0.4-0.3,0.6-0.3
			c0.6,0,1.3,0.1,1.9,0.1c1.1,0.1,1.4-0.2,1.4-1.2c0-0.3-0.1-0.5-0.3-0.7c-0.4-0.5-0.8-1-1.1-1.5c-0.2-0.2-0.4-0.3-0.7-0.4
			c-0.8-0.1-1.5-0.4-2.2-0.9c-0.5-0.4-0.9-0.3-1.4,0.1c-0.4,0.4-0.9,0.5-1.4,0.5c-1.7,0.2-3.1,0.9-4,2.4c-0.2,0.4-0.6,0.7-1,0.9
			c-0.4,0.2-0.8,0.4-1.2,0.6C92.4,79.4,91.9,79.7,93.3,80.7z M21.6,79.9c0.4,0.1,0.9,0,1.2,0.4c0.3,0.3,0.4,0.8,0.9,0.6
			c0.5-0.2,0.4-0.7,0.4-1.2c0.1-1.1,2.5-4,3.6-4c1.3,0.1,1.3-0.6,1.3-1.5c0-0.5,0.1-1,0.1-1.4c0.2-2.6-0.7-3.3-3.2-2.6
			c-0.7,0.2-1,0.5-1.1,1.2c-0.1,0.7-0.3,1.3-0.4,2c-0.1,0.6-0.3,1-0.9,1.1c-1,0.2-1,0.7-0.6,1.5c0.5,0.8,0.1,1.5-0.5,2
			c-0.4,0.3-0.7,0.5-1.1,0.8c-0.2,0.2-0.4,0.4-0.3,0.7C21,79.8,21.3,79.9,21.6,79.9z M89.4,142.5c0.9,0.1,1-0.4,0.9-1.1
			c-0.2-0.8,0.2-1.3,0.9-1.6c0.4-0.1,0.7-0.3,1.1-0.4c0.2-0.1,0.5-0.2,0.5-0.5c0-0.3-0.2-0.4-0.4-0.5c-0.4-0.2-0.8-0.2-1-0.6
			c-0.2-0.3-0.2-0.8-0.7-0.7c-0.5,0.1-0.5,0.6-0.6,0.9c-0.3,0.9-3.1,2.8-4,2.6c-1.1-0.3-1.2,0.2-1.4,1c-0.1,0.4-0.3,0.8-0.4,1.2
			c-0.8,2.2-0.2,3,2.1,3c0.6,0,1-0.2,1.2-0.8c0.2-0.6,0.6-1.1,0.8-1.6C88.6,142.8,88.9,142.4,89.4,142.5z M64.5,86.1
			c0.2,0.1,0.5,0.1,0.7,0.2c2.1,0.6,4.5,0.5,5.9,2.3c2.3,1.3,4,1.8,5.8,1.5C77.4,90,78,90,78,89.2c0-1.7-0.1-2.1-1.1-2.3
			c-1.5-0.3-3-0.7-4.5-1c-1.7-0.2-3.4-0.4-4.5-2c-0.4-0.5-1-0.6-1.1,0.3c-0.1,0.6-0.4,0.8-1,0.8c-0.4,0-0.9,0.1-1.3,0.2
			c-0.3,0.1-0.7,0-0.7,0.5C64,86,64.3,86.1,64.5,86.1z M20.7,95.2c-0.4-1.4-0.4-1.4,1-1.7c0.9-0.2,1-0.6,0.6-1.3
			c-0.2-0.5-0.5-1-0.2-1.5c1-1.6,0.7-3.3,0.6-5c-0.1-1.2-0.2-2.3-0.3-3.5c0-0.2,0-0.5-0.3-0.6c-0.2-0.1-0.4,0.1-0.6,0.2
			c-1,1.2-2.1,2.3-2.9,3.6c-0.4,0.6-0.7,1.1-1.4,1.5c-0.8,0.4-0.8,1.3,0,1.8c0.3,0.2,0.5,0.5,0.5,0.8c0,1.3,0,2.7,0,4
			c0,0.4,0.1,0.8-0.5,1c-0.6,0.5-0.4,1.3-0.6,2c-0.2,0.7,0.1,1,0.8,0.8c1.1-0.3,1.8,0.2,2.3,1.2c0.2,0.3,0.4,0.6,0.6,0.9
			c0.3,0.3,0.4,1,1,0.8c0.5-0.2,0.5-0.8,0.5-1.3c0-0.3-0.1-0.6-0.1-0.8C21.3,97.2,21,96.2,20.7,95.2z M45.4,124.2
			c0.1,0.8,0.8,1,1.3,0.1c0.4-0.7,0.9-0.7,1.5-0.5c0.5,0.1,0.9,0.3,1.4,0.4c0.4,0.1,0.8,0.2,1.1-0.2c0.2-0.5-0.2-0.7-0.5-1
			c-1-0.7-2-1.4-2.9-2.2c-0.8-0.6-1.9-1.1-2.3-2.1c-0.8-1.9-2.3-3.1-3.6-4.5c-0.6-0.7-1.3-1.2-2.2-1.2c-0.2-0.1-0.4-0.1-0.6-0.2
			c-0.8-0.2-1.5-0.4-2,0.6c-0.7,1.7-0.7,2.3,0.3,3.1c1.4,1,2.8,2.1,4.2,3C43.1,120.7,44.9,121.7,45.4,124.2z M107.3,75.5
			c0.5,0.2,0.5,0.6,0.4,1c-0.1,0.3-0.2,0.6-0.2,1c-0.1,0.3-0.1,0.6,0.2,0.7c0.3,0.2,0.5-0.1,0.6-0.4c0.5-0.7,0.9-1.4,1.4-2
			c0.4-0.6,0.7-1.3,1.4-1.6c1.3-0.6,2.1-1.6,3-2.5c0.5-0.4,0.8-0.9,0.8-1.5c0-0.2,0.1-0.3,0.1-0.4c0.2-0.6,0.3-1.1-0.4-1.4
			c-1.2-0.5-1.6-0.4-2.1,0.3c-0.7,1-1.4,1.9-2,3c-0.7,1.3-1.5,2.6-3.1,2.9C106.8,74.8,106.7,75.2,107.3,75.5z M24.3,86.8
			c-0.7,0.4-0.6,1,0.3,1.2c0.6,0.1,0.8,0.5,0.8,1.1c0,0.5,0,1,0,1.4c0,0.4-0.1,1,0.5,1.1c0.6,0.1,0.7-0.4,0.9-0.8
			c0.5-1.5,1.1-2.9,1.6-4.4c0.3-0.7,0.6-1.4,1.2-1.9c1.8-1.4,2.5-3.5,3.7-5.3c0.3-0.7,0.1-1.5,0.1-2.2c0-0.7,0.1-1.4-1-1.6
			c-2-0.3-2.5-0.2-3,1c-0.6,1.6-1.2,3.2-1.7,4.8C27.1,83.4,26.6,85.6,24.3,86.8z M42.1,82c1.5,0.4,3,0.2,4.4,0
			c0.9-0.1,2-0.6,2.2-1.7c0.2-0.9-0.9-1.9-2-2c-0.6,0.1-1.1,0.2-1.7,0.4c-2.1,0.5-4,1.8-6.3,0.7c-0.5-0.2-1.1-0.1-1,0.7
			c0.1,0.6-0.4,0.9-0.8,1.2c-0.4,0.3-1,0.5-0.7,1.1c0.3,0.6,0.8,0.2,1.3,0.1C39.1,82.3,40.6,81.6,42.1,82z M118.2,92.9
			c0.5,0.2,0.6-0.3,0.9-0.6c0.8-0.9,1.3-2.1,2.5-2.6c1.1-0.5,1.9-1.4,2.7-2.2c0.5-0.5,0.9-1.4,0.5-2.2c-0.4-0.6-1.5-0.7-2.2-0.2
			c-0.3,0.4-0.6,0.7-0.8,1.1c-1,1.3-1.5,3.1-3.5,3.6c-0.4,0.1-0.7,0.5-0.2,0.9c0.4,0.4,0.2,0.8,0.1,1.2
			C118,92.2,117.7,92.7,118.2,92.9z M111.7,121.8c0.9-0.8,1.9-1.5,2.9-2.2c0.7-0.5,1.5-0.7,2.3-0.3c0.3,0.2,0.8,0.5,1.1,0.2
			c0.3-0.3-0.1-0.7-0.2-1.1c-0.2-0.6-0.1-1,0.4-1.3c0.6-0.4,1.2-0.8,1.8-1.3c0.1-0.1,0.2-0.2,0.2-0.4c-0.1-0.1-0.2-0.1-0.4-0.1
			c-0.8,0-1.6,0-2.3,0.6c-0.5,0.4-1.1,0.8-1.9,0.9c-2.3,0.3-4.5,0.9-6.6,1.7c-0.4,0.1-0.7,0.2-1,0c-0.5-0.3-0.8-0.1-1.1,0.3
			c-0.3,0.4-0.5,0.9-0.9,1.3c-1,0.9-0.6,2-0.7,3.1c0,0.1,0.1,0.2,0.1,0.2c0.7,0.4,1.3,0.7,2.1,0.9c0.4,0.1,0.7-0.2,1.1-0.3
			c0.2-0.1,0.5-0.3,0.7,0.1c0.4,0.8,1.1,0.4,1.7,0.3c0.5-0.1,0.3-0.6,0.4-1c0-0.2,0-0.3,0-0.5C111.1,122.3,111.3,122,111.7,121.8z
			 M82.4,138.6c-1.8,0.1-3.6,0.2-5.3,0.3c-1.7,0.1-3.5-0.1-5.1,0.5c-0.5,0.2-0.9,0.2-1.2-0.2c-0.1-0.2-0.4-0.2-0.6-0.1
			c-0.6,0.5-1.7,0.6-1.5,1.8c0,0.2-0.1,0.5-0.3,0.7c-0.3,0.6-0.7,1.1-1,1.6c-0.2,0.4-0.3,0.7-0.1,1.1c0.5,1,1.9,1.5,2.9,0.9
			c0.3-0.2,0.7-0.4,1.1-0.2c1.4,0.5,2.2,0.1,2.5-1.5c0.1-0.3,0.3-0.5,0.5-0.6c0.4-0.2,0.8-0.6,1.2-0.7c1.3-0.4,2.6-1.3,3.9-0.1
			c0.4,0.3,0.7,0.2,1-0.2c0.6-1,1.5-1.9,2.3-2.7c0.2-0.2,0.4-0.3,0.3-0.6C83,138.4,82.7,138.6,82.4,138.6z M128.5,92.4
			c0.2-0.4,0.3-0.7,0.1-1.1c-0.5-1-1.9-1.5-2.9-0.9c-0.3,0.2-0.7,0.4-1.1,0.2c-1.4-0.5-2.2-0.1-2.5,1.5c-0.1,0.3-0.3,0.5-0.5,0.6
			c-0.4,0.2-0.8,0.6-1.2,0.7c-1.3,0.4-2.6,1.3-3.9,0.1c-0.4-0.3-0.7-0.2-1,0.2c-0.6,1-1.5,1.9-2.3,2.7c-0.2,0.2-0.4,0.3-0.3,0.6
			c0.1,0.3,0.5,0.2,0.7,0.2c1.8-0.1,3.6-0.2,5.3-0.3c1.7-0.1,3.5,0.1,5.1-0.5c0.5-0.2,0.9-0.2,1.2,0.2c0.1,0.2,0.4,0.2,0.6,0.1
			c0.6-0.5,1.7-0.6,1.5-1.8c0-0.2,0.1-0.5,0.3-0.7C127.8,93.5,128.1,93,128.5,92.4z M46,132.7c-0.1-0.5-0.4-0.7-0.8-0.6
			c-1.7,0.6-2.5-0.8-3.6-1.6c-0.4-0.3-0.6-0.8-0.9-1.2c-0.2-0.2-0.3-0.4-0.2-0.7c0.3-1.5-0.3-2.3-1.7-2.3c-0.5,0-0.7-0.3-0.9-0.6
			c-0.7-0.9-2.2-1.1-3-0.4c-0.4,0.3-0.4,0.7-0.4,1.1c0.1,0.6,0.2,1.3,0.3,1.9c0,0.3,0.1,0.6,0,0.8c-0.7,1,0.3,1.5,0.6,2.2
			c0.1,0.2,0.4,0.3,0.6,0.1c0.5-0.3,0.9-0.1,1.2,0.3c1.3,1.2,3,1.7,4.5,2.5c1.6,0.8,3.2,1.6,4.8,2.4c0.2,0.1,0.5,0.4,0.7,0.1
			c0.2-0.2,0.1-0.5,0-0.7C46.6,135,46.2,133.9,46,132.7z M113.2,129.6c0.1-0.1,0.2-0.1,0.3-0.2c0.2-0.1,0.5-0.5,0.7-0.3c0,0,0,0,0,0
			c0.1-0.2,0.3-0.3,0.6-0.4c0.1,0,0.1-0.1,0.2-0.1c0.4-0.3,0.6-0.6,0.4-1.1c0-0.2,0-0.3,0.1-0.4c0.2-0.4,0.5-0.5,0.9-0.4
			c0.4,0,0.7-0.2,0.5-0.5c-0.3-0.6,0.2-0.6,0.5-0.7c0.3-0.1,0.7-0.1,1-0.2c0.3-0.1,0.4-0.2,0.1-0.4c-0.2-0.2-0.3-0.4-0.4-0.6
			c-0.2-0.5-0.4-0.9-0.5-1.4c-0.1-0.1-0.1-0.3-0.3-0.3c0,0-0.1,0-0.1,0c-0.2,0.3-0.3,0.6-0.5,0.8c0,0,0,0.1,0,0.1
			c0,0.6-0.5,1.2-1.2,1.3c-0.3,0-0.5,0-0.8,0.2c-0.4,0.3-0.9,0.6-1.3,0.9c-0.8,0.5-1.3,1.1-1.6,2.1c-0.2,0.7-0.1,1.1,0.5,1.6
			C112.7,129.8,112.9,129.9,113.2,129.6z M130.3,76.6c-0.1,0.2-0.1,0.3-0.2,0.5c-0.2,0.3-0.4,1.1-0.8,0.9c0,0,0,0,0,0
			c0,0.4-0.2,0.7-0.5,1c0,0.1-0.1,0.2-0.2,0.3c-0.3,0.7-0.3,1.3,0.2,1.8c0.2,0.2,0.2,0.4,0.2,0.6c0,0.7-0.4,1-0.9,1.3
			c-0.5,0.2-0.8,0.7-0.3,1.1c0.8,0.6,0.2,1-0.2,1.4c-0.4,0.4-0.9,0.7-1.3,1c-0.4,0.3-0.5,0.6,0.1,0.7c0.4,0.1,0.7,0.3,1,0.5
			c0.6,0.5,1.2,1,1.8,1.5c0.2,0.2,0.4,0.4,0.7,0.2c0,0,0.1,0,0.2,0c0-0.5,0-1.1,0-1.5c0,0-0.1-0.1-0.1-0.1c-0.5-0.9-0.2-2.1,0.7-2.7
			c0.4-0.2,0.7-0.4,0.9-0.9c0.4-0.7,0.7-1.5,1.2-2.2c0.8-1.3,1-2.6,0.6-4.1c-0.3-1.1-0.7-1.7-1.8-1.9
			C130.9,75.9,130.6,76,130.3,76.6z M65.7,81.8c1.3,0.1,2.5,0.1,3.8,0.2c0.4,0,1,0,1.2,0.5c0.3,0.9,1.1,1.1,1.9,1.1
			c0.4,0,0.9-0.1,1.3,0.1c2.2,1,4.6,1.2,7.1,1.1l0.8-1.2c0.3-0.5,0.9-1.1,0.1-1.6c-0.8-0.6-1.5-1.2-2.6-1.1
			c-0.9,0.1-1.3-0.6-1.9-1.1c-0.2-0.1-1.4-0.3-2,0c-0.1,0.5-0.5,1.2-0.8,1.1c-1.6-0.2-3.2,0-4.6-1.2c-0.6-0.5-1.3-1-2.1-1.2
			c-0.6-0.2-1,0-1,0.6c0,0.6-0.4,0.8-0.9,0.8c-0.3,0-0.6,0.1-1,0.2c-0.3,0.1-0.7,0-0.8,0.4c-0.1,0.4,0.2,0.7,0.4,1
			C65,81.8,65.4,81.8,65.7,81.8z M67.6,134.8c0.5,0.2,1.2,0.4,1.3,1.2c0.2,0.9,0.7,1,1.4,0.5c1.1-0.8,2.2-0.9,3.4-0.6
			c1.7,0.3,3.4,0.4,5,0.5c0.5,0,1.3,0.2,1.2-0.7c-0.1-0.8-0.7-0.6-1.2-0.5c-0.8,0.1-1.6,0.3-2.3-0.3c-1.1-1-2.3-2-3.2-3.1
			c-0.4-0.5-0.8-0.8-1.3-1c-0.4-0.1-0.8-0.1-1.6,0c-0.5,0-0.9,0.1-1.2,0.1c-0.3,0-1.7,0.1-2.1,1c-0.1,0.1-0.1,0.5-0.2,1.2
			c-0.1,0.8-0.1,0.9,0,1.1C66.8,134.3,67.1,134.6,67.6,134.8z M110.9,91.8c-0.2,0.4-0.6,1,0.2,1.3c0.7,0.2,0.7-0.4,0.9-0.8
			c0.2-0.7,0.3-1.5,1.1-1.8c1.2-0.6,2.4-1.2,3.7-1.6c0.6-0.2,1-0.4,1.3-0.8c0.2-0.3,0.3-0.6,0.6-1.3c0.2-0.4,0.3-0.8,0.3-1.1
			c0.1-0.3,0.5-1.4-0.1-2.1c-0.1-0.1-0.4-0.3-0.9-0.6c-0.6-0.4-0.7-0.4-0.9-0.4c-0.3,0-0.6,0.2-0.9,0.5c-0.4,0.4-0.8,0.8-1.4,0.7
			c-0.8-0.2-1.1,0.2-0.9,0.9c0.3,1.1,0,2.1-0.7,3.1C112.3,89.1,111.6,90.5,110.9,91.8z M58.8,139.8c0,0.1,0.1,0.3,0.2,0.4
			c0.1,0.2,0.4,0.3,0.6,0.2c1.1-0.7,2.3-0.5,3.5-0.6c0.3,0,0.7,0.1,0.7-0.3c0.1-0.4-0.4-0.4-0.6-0.6c-0.6-0.3-1.3-0.4-1.8-0.9
			c-1.9-1.9-3.9-3.6-6.5-4.5c-0.6-0.2-1.2-0.5-1.7-0.8c-0.5-0.4-1-0.3-1.5,0.1c-0.4,0.4-0.9,0.7-1.5,0.7c-0.3,0-0.6,0.2-0.7,0.5
			c-0.2,0.6-0.4,1.3-0.5,1.9c-0.1,0.2-0.1,0.5,0.1,0.7c0.5,0.4,0.9,1,1.7,1.2c0.3,0.1,0.6,0.2,0.7,0.5c0.2,0.5,0.6,0.6,1,0.6
			l1.1-0.2c0-0.4,0.5-0.6,0.9-0.6c0.5,0,1-0.1,1.4,0C57.2,138.2,58.4,138.4,58.8,139.8z M115.7,75.5c-0.6,1.2-1.2,2.4-2.9,2.4
			c-0.2,0-0.4,0-0.5,0.1c-0.3,0.1-0.5,0.3-0.4,0.6c0.3,1.4-0.3,2.6-0.7,3.9c-0.1,0.3-0.4,0.7,0,0.9c0.4,0.2,0.6-0.2,0.9-0.5
			c0.5-0.5,0.9-1.2,1.6-1.5c2.7-1.3,5.3-2.8,7.2-5.2c0.4-0.6,0.9-1.1,1.5-1.5c0.6-0.4,0.8-1,0.4-1.6c-0.3-0.6-0.4-1.2-0.2-1.8
			c0.1-0.3,0.1-0.7-0.2-0.9c-0.6-0.4-1.2-0.9-1.8-1.3c-0.2-0.2-0.5-0.3-0.8-0.1c-0.7,0.4-1.4,0.6-1.9,1.3c-0.2,0.3-0.4,0.5-0.8,0.5
			c-0.6,0-0.9,0.4-1,0.8l-0.2,1.2c0.5,0.2,0.5,0.7,0.3,1.2C116,74.5,115.9,75,115.7,75.5z M74.3,77.7c0.5-0.1,1-0.2,1.5-0.4
			c1.2-0.6,2.4-0.7,3.6-0.5c1.5,0.2,2.9,0.9,4.4,1.3c0.8,0.2,1.6,0.5,1.9,1.4c0.1,0.4,0.5,0.5,0.8,0.2c0.9-1.1,2.4-0.7,3.5-1.4
			c0.1-0.1,0.3,0,0.5,0l0.2-0.1c0.2-0.3,0.4-0.6,0.5-0.9c0.1-0.3,0.3-0.6,0.3-0.8c0-0.5-0.2-0.9-0.5-1.2c-0.6-0.6-1.2-1-2-1.1
			c-0.2,0-0.5-0.1-0.7-0.3c-0.3-0.7-1-0.7-1.6-0.9c-0.6,0-1.3-0.2-1.6,0.6c-0.1,0.2-0.3,0.1-0.5,0.1c-1-0.1-2,0-3,0.4
			c-1,0.4-2,0.5-3.1,0.3c-0.8-0.2-1.5,0-2.3,0.1c-0.4,0-0.7,0.2-0.5,0.7c0.2,0.5,0,0.8-0.4,1c-0.5,0.3-1,0.7-1.4,1
			c-0.2,0.2-0.6,0.3-0.4,0.7C73.6,78,74.1,77.7,74.3,77.7z M133.4,121.3c-1.4,1.5-2.8,2.9-4.2,4.4c-4.2,4.1-8.7,7.9-13.6,11
			c-1.4,0.9-3.2,0.3-4.4,1.6c0.3-1.4,0.6-2.6,0.2-4c-0.5-2-1.6-3.6-2.9-5.2c-1-1.1-2-2.3-3.2-3.2c-2.5-1.9-3.6-4.5-3.4-7.6
			c0-0.4,0.3-0.9-0.1-1.1c-0.5-0.2-0.8,0.3-1,0.6c-1.5,1.5-1.8,3.4-1.7,5.4c0.2,2.5,0.2,5,0,7.5c-0.3,4.1-2,7.4-5.1,10
			c-1.8,1.6-3.6,3.1-3.9,5.7c-0.1,0.8-0.7,1.5-1.4,2c3.4,1,17.2-4.2,25-9.2c7.6-4.9,14.2-10.9,19.9-17.8
			C133.5,121.5,133.5,121.4,133.4,121.3z M26.8,104.9c0.1,0,0.1,0.1,0.1,0.2c0.2,0.8,0.5,1.6,1,2.3c0.6,1,1.3,1.8,2.4,2.3
			c0.6,0.3,1.2,0.5,1.9,0.6c0.3,0.1,0.4,0.2,0.4,0.5c0.1,0.8,0.3,1.6,1.1,2.1c0.4,0.2,0.7,0.5,1.1,0.6c0.4,0.1,0.5,0,0.5-0.3
			c0-0.2,0-0.3,0-0.5c-0.1-0.7-0.2-1.4-0.4-2c0-0.2,0-0.4,0.3-0.5c0.5-0.1,0.4-0.2,0.7,0.2c0.1,0.1,0.1,0.2,0.2,0.4
			c0,0.1,0.1,0.2,0.2,0.2c0.1,0,0.2-0.1,0.2-0.2c0.1-0.2,0.2-0.5,0.1-0.7c-0.1-0.4,0-0.8,0.2-1.1c0.1-0.1,0.1-0.2,0.1-0.3
			c0.1-0.2,0.2-0.2,0.3-0.1c0.7,0.5,1.3,0.9,2.1,1.2c0.3,0.1,0.5,0.1,0.5-0.3c0.1-1-0.2-1.8-1-2.4c-0.4-0.3-0.7-0.5-1.1-0.6
			c-0.1,0-0.2-0.1-0.2-0.3c0-0.9-0.3-1.7-0.7-2.5c-0.4-1-0.9-1.9-1.8-2.5c-0.7-0.5-1.4-0.9-2.2-1.2c-0.3-0.1-0.7-0.2-1.1-0.3
			c0.2-0.2,0.5-0.2,0.7-0.2c1.2-0.1,2.3,0.2,3.3,0.7c0.5,0.2,1,0.3,1.6,0.2c0.5,0,0.6-0.2,0.5-0.6c0-0.2-0.1-0.3-0.2-0.5
			c-0.2-0.5-0.6-0.9-1-1.3c-0.6-0.6-1.3-0.9-2.1-0.9c-0.8,0-1.5,0.1-2.3,0.2c-0.4,0-0.7,0-1.1,0.2c-0.7,0.4-1.2,0.9-1.1,1.8
			c0,0.1,0,0.3-0.2,0.3c-0.5,0-0.9,0.2-1.2,0.4c-0.2,0.1-0.3,0.1-0.4-0.1c-0.1-0.3-0.2-0.6-0.2-0.8c-0.1-0.9-0.6-1.4-1.5-1.6
			c-0.7-0.1-1.2,0.2-1.3,1c0,0.1,0,0.1,0,0.2c-0.1,0.9,0.1,1.7,1,2.2c0.2,0.1,0.4,0.3,0.6,0.4c0.2,0.1,0.2,0.2,0.1,0.4
			c-0.2,0.4-0.4,0.9-0.4,1.3c0,0.2-0.1,0.2-0.2,0.2c-0.2,0-0.3,0-0.5,0.1c-1,0.2-1.1,0.3-1.3,1.2c-0.2,1-0.3,1.9-0.4,2.9
			c-0.2,1.6,0.3,3,1,4.3c0.2,0.4,0.4,0.4,0.8,0.1c0.5-0.5,0.8-1.2,1.1-1.8c0.1-0.3,0.1-0.6,0-0.9c-0.2-0.9-0.5-1.7-0.4-2.6
			c0-0.4,0-0.8,0.2-1.2C26.7,105,26.7,104.9,26.8,104.9z M55.9,93.5c1.2-0.5,2.3-1.1,3.4-1.7c1.8-0.9,4,0.3,4,2.3
			c0,0.9,0.3,1.3,1.2,1.4c1.2,0.2,2.4,0.4,3.6,0.6c1,0.2,2,0.4,1.9,1.7c0,0.8,0.5,0.7,1,0.6c2.3-0.3,4.5-0.1,6.7,0.3
			c4.3,0.8,8.6,0.4,12.8-0.5c2.2-0.4,4.1-0.5,6,0.9c1.6,1.2,2.6,0.6,2.7-1.3c0.1-1.2,0.8-1.5,1.7-1.8c2.4-0.9,4.7-2,6.6-3.7
			c1-0.9,2-1.9,1.1-3.4c-0.2-0.4,0-0.7,0.2-1c0.3-0.4,0.5-0.8,0.7-1.3c0.6-1.1,1.6-2.4,0.5-3.5c-1-1-2.6-0.8-3.9-0.3
			c-2.6,1-5.2,2.1-7.7,3.1c-4.1,1.7-8.1,2.6-12.1-0.1c-1.1-0.7-2-0.5-2.3,1.1c-0.7,3.6-0.8,3.7-4.4,3.9c-3,0.2-5.9,0.4-8.9,0.2
			c-0.9-0.1-1.7-0.2-2.5-0.9c-0.6-0.8-1.2-1.7-2.6-1.2c-0.2,0.1-0.9-0.7-1.2-1.2c-1.1-1.8-2.5-3.3-4.2-4.5c-1.8-1.3-3.1-2.8-3.2-5.2
			c0-0.5-0.1-1.1-0.7-1.2c-0.7-0.1-0.8,0.6-1,1.1c-0.5,1.5-0.6,3.1-0.1,4.6c0.4,1.3,0.9,2.5,1.3,3.8c0.7,2.4,0.4,3.4-1.7,4.7
			c-0.7,0.5-1.4,1-0.8,1.9C54.4,94,55.2,93.8,55.9,93.5z M46.6,86.6c0.2,0.2,0.2,0.3,0,0.5c-1.4,0.9-2.9,1.7-4.7,1.4
			c-0.4-0.1-0.9-0.1-1.3-0.1c-0.3,0-0.7,0-0.7,0.3c-0.1,0.3,0.3,0.4,0.5,0.5c0.1,0.1,0.3,0.2,0.5,0.3c0.5,0.2,0.6,0.6,0.3,1
			c-0.1,0.2-0.2,0.4,0,0.6c0.2,0.2,0.5,0.1,0.7,0c0.2-0.1,0.3-0.2,0.4-0.4c0.3-0.5,0.8-0.6,1.3-0.7c1.3-0.2,2.6,0.2,3.8,0.2
			c0.1,0,0.2,0.1,0.2,0.1c0.2,0.8,0.7,0.4,1,0.1c0.2-0.2,0.5-0.3,0.8-0.4c1.3-0.4,2.5-1.1,3.4-2.2c0.3-0.4,0.5-0.8,0.1-1.3
			c-0.3-0.3-0.6-0.3-0.9-0.4c-1.7-0.3-3.4,0.1-5.2,0.1C46.5,86.2,46.4,86.3,46.6,86.6z M42.8,99.1c-0.1,1.3-0.5,2.4-1.6,3.1
			c-0.3,0.2-0.7,0.6-0.5,0.9c0.2,0.3,0.6-0.1,0.9-0.2c0.2-0.1,0.4-0.1,0.5-0.2c0.2-0.1,0.5,0,0.7,0.2c0.1,0.1,0.2,0.4,0.5,0.3
			c0.3-0.1,0.3-0.4,0.3-0.7c0-0.2,0-0.4,0-0.6c-0.1-0.7,0-1.2,0.4-1.8c0.5-0.8,1.2-1.4,1.9-1.9c0.2-0.1,0.4-0.3,0.7-0.2
			c0.4,0.2,0.6-0.1,0.7-0.4c0.2-0.6,0.6-1.2,1.1-1.7c0.4-0.5,0.8-1.1,1.1-1.7c0.1-0.3,0.2-0.6,0.2-0.9c-0.1-0.3-0.3-0.5-0.6-0.5
			c-0.4-0.1-0.7-0.1-1.1,0.1c-1.5,0.5-2.8,1.2-4.1,2.1c-0.3,0.2-0.6,0.4-0.1,0.7c0.2,0.1,0,0.3-0.1,0.4
			C43.2,97.1,42.9,98.1,42.8,99.1z M67.4,127.8c0.9,0.2,1.9,0.2,2.7,0.8c0.2,0.2,0.5,0.2,0.7,0c0.6-0.7,1.2-0.3,1.9-0.2
			c0.5,0.1,0.9,0.6,1.5,0.2c0.2-0.1,0.4,0.2,0.5,0.4c0.2,0.3,0.3,0.6,0.5,0.9c0.4,0.5,0.9,0.5,1-0.2c0.2-0.9,0.6-1.4,1.5-1.7
			c0.7-0.2,0.3-0.6,0-0.9c-0.6-0.4-1.4-0.3-2.1-0.4c-0.6,0-1.2-0.1-1.5-0.8c-0.1-0.3-0.5-0.4-0.7-0.5c-0.7-0.2-1.5-0.4-1.9-1.3
			c-0.1-0.3-0.5-0.3-0.7-0.3c-1.8,0-3.5,0.1-5.3,0.1c-0.5,0-1,0.1-1.5,0.4c-0.3,0.2-0.5,0.5-0.5,0.8c0.1,0.7,0.6,1.1,1.1,1.4
			C65.5,127.4,66.4,127.6,67.4,127.8z M32.6,123.6c-0.5-0.1-0.9,0-1.5,0.1c-0.4-0.1-1.1,0.5-1.4-0.4c-0.1-0.4-0.3-0.6-0.6-0.8
			c-0.6-0.5-1.3-1.2-1.1-1.9c0.2-0.7-0.1-1.1-0.4-1.6c-0.5-0.9-1-1.9-1.5-2.8c-0.5-0.8-1-1.6-1.7-2.2c-0.9-0.8-1.8-0.6-2.1,0.6
			c-0.1,0.2-0.1,0.5-0.1,0.7c-0.1,1.7,0.2,3.3,1,4.8c0.4,0.8,0.9,1.5,0.9,2.5c0,0.3,0.1,0.6,0.5,0.6c1-0.2,1.5,0.4,2,1.1
			c0.3,0.4,0.6,0.9,1.2,0.7c0.9-0.3,1.5,0.2,2,0.8c0.5,0.6,1,1.1,1.8,1.5c0.3,0.1,0.7,0.3,0.9,0.1c0.3-0.3,0.1-0.6-0.1-0.9
			c-0.5-0.8-0.3-1.4,0.4-1.9c0.1-0.1,0.2-0.1,0.2-0.2C33.2,123.9,33.1,123.7,32.6,123.6z M20.5,109.2c-0.2-1.2-0.1-2.4-0.7-3.5
			c0,0,0,0,0-0.2c-0.1-0.5-0.3-1.1-0.8-1.6c-0.2-0.2-0.3-0.5-0.6-0.4c-0.3,0.1-0.4,0.4-0.4,0.7c-0.2,1-0.2,2-0.2,3
			c0,0.3-0.1,0.9,0.6,0.7c0.2,0,0.2,0.2,0.3,0.3c0.6,1,1.2,2,1.1,3.3c0,0.1,0,0.3,0.1,0.4c0.2,0.1,0.3-0.1,0.4-0.2
			c0.1-0.2,0.3-0.4,0.6-0.4c0.4,0,0.4-0.2,0.2-0.5C20.8,110.3,20.6,109.7,20.5,109.2z M62,131.4c0.1,0.3,0.3,0.7,0.5,1
			c0.1,0.2,0.3,0.4,0.5,0.3c0.3,0,0.3-0.3,0.3-0.5c0.1-0.5,0.2-0.9,0.7-1.2c0.4-0.3,0.3-0.6-0.1-0.8c-1.8-0.7-2.6-2.3-3.8-3.6
			c-0.2-0.2-0.5-0.5-0.3-0.8c0.4-0.7,0-0.9-0.5-1.1c-1.3-0.6-2-1.8-3.1-2.6c-0.7-0.5-1.4-1.1-2.2-1.4c-0.9-0.4-1.3,0-1.2,1
			c0,0.1,0,0.2,0.1,0.4c0.6,1.6,1.5,2.9,2.4,4.3c0.1,0.1,0.2,0.2,0.3,0.2c2.1,0.5,3.4,2.3,5.3,3.2C61.4,130,61.8,130.7,62,131.4z
			 M52.9,116.6c0.2-0.6-0.3-0.6-0.7-0.7c-1.7-0.6-2.8-1.9-3.6-3.5c-0.2-0.3-0.4-0.7,0-0.9c0.6-0.4,0.4-0.7,0.1-1.1
			c-0.6-0.8-0.9-1.8-1.3-2.7c-0.4-1-1-1.9-1.9-2.5c-0.4-0.3-0.8-0.6-1.3-0.3c-0.4,0.3-0.5,0.7-0.5,1.2c0,1.3,0.2,2.7,0.7,3.9
			c1.2,3,3.6,5,6.1,6.8c0.4,0.3,0.8,0.7,1.3,1c0.3,0.2,0.6,0.5,0.9,0.7c0.3,0.2,0.8,0.6,1.1,0.2c0.3-0.4-0.2-0.6-0.4-0.9
			C53,117.5,52.6,117.3,52.9,116.6z M80.2,128.8c0.2,0.1,0.4,0.2,0.5,0.3c1.4,0.6,2.8,0.8,4.2,0.5c0.8-0.1,1.5-0.3,2.3,0
			c0.2,0.1,0.5,0.1,0.6-0.3c0.1-0.8,0.7-1.1,1.4-1.3c0.4-0.1,0.9-0.3,0.9-0.8c0-0.9,0.6-1.1,1.2-1.4c0.6-0.3,1.2-0.5,1.7-1
			c0.2-0.2,0.4-0.5,0.3-0.7c-0.1-0.3-0.5-0.2-0.7-0.2c-0.8,0.2-1.2-0.1-1.5-0.8c0-0.1-0.1-0.2-0.1-0.3c-0.2-0.4-0.4-0.3-0.6,0
			c-0.2,0.3-0.3,0.7-0.3,1.2c-0.2,0.3,0.1,1.1-0.7,1.1c-0.3,0-0.6,0.1-0.8,0.3c-0.6,0.4-1.3,0.7-1.9,0.4c-0.5-0.3-0.9-0.2-1.4-0.2
			c-0.9,0.1-1.8,0.3-2.7,0.5c-0.8,0.2-1.6,0.3-2.3,0.8C79.4,127.4,79.3,128.2,80.2,128.8z M47,129c0.6,0.6,1.4,0.8,2.1,1.1
			c0.6,0.2,1.3,0.4,1.8,1c0.2,0.2,0.4,0.3,0.7,0.2c1.6-0.6,3,0.1,4.3,0.7c0.6,0.3,0.9,0.6,1.2-0.3c0.1-0.2,0.3-0.3,0.5-0.5
			c0.2-0.1,0.4-0.2,0.3-0.5c-0.1-0.3-0.3-0.3-0.7-0.4c-1.5,0.3-2.7-0.6-3.9-1.4c-0.4-0.2-0.9-0.4-0.9-1c0-0.3-0.3-0.4-0.5-0.4
			c-1.5-0.3-3.1-0.4-4.6-0.2c-0.4,0.1-0.8,0.2-0.9,0.6C46.4,128.4,46.7,128.7,47,129z M30.2,94.3c-0.1,0.2-0.2,0.4,0,0.6
			c0.2,0.1,0.5,0,0.6-0.2c0.7-0.6,1.3-0.7,2,0c0.1,0.1,0.3,0.3,0.5,0.2c0.2-0.1,0.2-0.4,0.2-0.6c-0.1-0.4-0.2-0.7-0.4-1.1
			c-0.1-0.5-0.2-0.9,0.3-1.2c0.5-0.2,0.6-0.6,0.8-1.1c0.3-0.8,0.7-0.9,1.3-0.5c0.3,0.2,0.4,0,0.4-0.2c0.2-1.5,1.3-2.6,2-3.9
			c0.3-0.5,0.5-0.9,0.6-1.5c0.1-0.7-0.3-1.1-1.1-0.9c-0.8,0.2-1.4,0.7-2.1,1.2c-1,0.7-1.7,1.7-2.7,2.5c-0.1,0-0.1,0.1-0.1,0.2
			c0.2,1-0.5,1.6-0.9,2.4c-0.1,0.2-0.2,0.4-0.1,0.6c0.4,0.9-0.1,1.5-0.6,2.1C30.7,93.3,30.4,93.7,30.2,94.3z M42.6,91.8
			c-0.3-0.1-0.6,0.1-0.9,0.3c-1,0.9-1.7,2-2.2,3.2c-0.1,0.2-0.2,0.4,0,0.6c0.4,0.3,0.3,0.7,0.3,1.1c-0.1,1.2-0.1,2.5-1.1,3.3
			c-0.1,0.3-0.3,0.4-0.1,0.6c0.1,0.2,0.3,0,0.5,0c0.2,0,0.4-0.1,0.6-0.1c0.7,0.2,0.7-0.2,0.8-0.7c0.3-1.2,0.5-2.5,1.7-3.3
			c0.2-0.2,0.3-0.4,0.2-0.6c-0.1-0.6,0.1-1.1,0.3-1.7c0.2-0.6,0.4-1.3,0.3-2C43,92.3,43,91.9,42.6,91.8z M30.5,119.3
			c1.5,1.2,3.7,1.4,5,3c0.1,0.2,0.4,0.2,0.5-0.1c0.2-0.7,0.7-0.3,1-0.1c1.3,0.8,2.8,1.4,3.5,2.9c0.2,0.4,0.5,0.5,0.7,0
			c0.2-0.4,0.6-0.5,1-0.4c0.3,0,0.6,0.1,0.7-0.2c0.1-0.3-0.2-0.5-0.5-0.6c-0.3-0.2-0.5-0.3-0.8-0.4c-0.9-0.3-1.7-0.9-2.2-1.7
			c-1-1.5-2.8-2.3-3.9-3.9c-0.1,0-0.4-0.1-0.6-0.2c-1.3-0.4-2.6-0.4-3.9-0.4c-0.6,0-1.5-0.2-1.8,0.6C29.1,118.5,30,118.9,30.5,119.3
			z M94.8,134.7c0.4-0.3,0.8-0.5,1.1-0.9c0.2-0.3,0.2-0.6-0.3-0.5c-0.4,0-0.9,0.1-1.3,0.3c-1.1,0.5-2.2,0.4-3.2-0.3
			c-0.9-0.5-1.8-1.2-2.8-1.5c-0.3-0.1-0.6-0.2-0.9-0.2c-0.3-0.1-0.7-0.1-0.4-0.6c0.1-0.3-0.1-0.4-0.3-0.4c-0.3,0-0.6,0-0.9,0
			c-1.7,0.3-3.4,0.6-5.1,0.9c-0.3,0-0.6,0.1-0.8,0.2c-0.9,0.3-1,0.9-0.3,1.5c1,0.8,2.3,1.2,3.6,1.6c0.9,0.3,1.9,0.5,2.8,1
			c0.3,0.2,0.6,0.3,0.8-0.2c0.1-0.3,0.3-0.3,0.6-0.3c1-0.1,2.1-0.2,3.1-0.2c0.9,0,1.7,0.2,2.4,0.8c0.4,0.3,0.8,0.5,1.3,0.6
			c0.2,0,0.4,0.1,0.6-0.1c0.2-0.2,0-0.4-0.1-0.5C94.2,135.4,94.4,135,94.8,134.7z M97.7,123.9c0.1-0.2,0.3-0.4,0.4-0.7
			c0.1-0.3,0.3-0.6,0-0.8c-0.3-0.2-0.4,0.2-0.5,0.4c-0.2,0.3-0.4,0.6-0.8,0.5c-0.4-0.1-0.4,0.3-0.4,0.5c-0.3,1.2-1,2.1-2,2.8
			c-0.2,0.1-0.4,0.3-0.6,0.1c-0.3-0.4-0.5-0.2-0.7,0.1c-0.5,0.5-1.1,0.8-1.7,1.2c-0.6,0.4-1.2,0.9-1.5,1.6c-0.1,0.3-0.3,0.6-0.1,0.9
			c0.2,0.3,0.6,0.2,0.9,0.2c0.9-0.1,1.8-0.4,2.6-0.9c1.9-1.1,3-3,4-4.9C97.3,124.6,97.5,124.3,97.7,123.9z M122.3,127.8
			c0.4-0.3,0.7-0.6,1.1-0.9c0.2-0.2,0.6-0.5,0.4-0.9c-0.2-0.4-0.7-0.2-1-0.1c-0.5,0.2-0.9,0.1-1.1-0.4c-0.1-0.3-0.3-0.7-0.6-0.6
			c-0.4,0.1-0.4,0.6-0.3,1c0,0.3,0.1,0.5,0.1,0.8c0,0.3-0.1,0.6-0.4,0.7c-0.4,0.1-0.5,0.4-0.8,0.6c-0.3,0.4-0.8,0.7-1.3,0.7
			c-0.2,0-0.5,0.1-0.6,0.2c-1.1,1.3-2.3,2.6-3.1,4.1c-0.5,0.8-0.1,1.4,0.8,1.4c0.8,0,1.5-0.2,2.1-0.7c1.3-1.1,3.1-1.6,3.6-3.5
			c0-0.2,0.3-0.4,0.4-0.6c0.2-0.2,0.3-0.5,0.3-0.8C121.7,128.4,122,128.1,122.3,127.8z"/>
	</g>
	<rect x="159.7" y="83.9" class="st0" width="22.9" height="14.3"/>
</g>
</svg>
