<?xml version="1.0" encoding="utf-8"?>
<!-- Generator: Adobe Illustrator 27.0.0, SVG Export Plug-In . SVG Version: 6.00 Build 0)  -->
<svg version="1.1" id="Layer_1" xmlns="http://www.w3.org/2000/svg" xmlns:xlink="http://www.w3.org/1999/xlink" x="0px" y="0px"
	 viewBox="0 0 259.44 123.17" style="enable-background:new 0 0 259.44 123.17;" xml:space="preserve">
<style type="text/css">
	.st0{fill:url(#SVGID_1_);}
	.st1{fill:url(#SVGID_00000095327362972130851010000017338284068604938121_);}
	.st2{fill:url(#SVGID_00000127761227325125669780000003303133985478966659_);}
	.st3{fill:url(#SVGID_00000054949382610304875320000004178302467593248912_);}
	.st4{fill:url(#SVGID_00000070081390352845743120000009128741506966614422_);}
	.st5{fill:url(#SVGID_00000040560574438157651890000000233048647489886889_);}
	.st6{fill:#143360;}
	.st7{fill:#DEFCF5;}
</style>
<g>
	<g>
		
			<linearGradient id="SVGID_1_" gradientUnits="userSpaceOnUse" x1="14.3318" y1="33.3992" x2="256.7538" y2="115.6378" gradientTransform="matrix(1 0 0 -1 0 89.2756)">
			<stop  offset="0" style="stop-color:#DAE9B4"/>
			<stop  offset="0.5056" style="stop-color:#ECF5E6"/>
			<stop  offset="1" style="stop-color:#AADEE9"/>
		</linearGradient>
		<path class="st0" d="M48.94,13.03c-6.4-2.84-13.12-3.22-19.96-2.08c-5.36,0.89-10.31,2.78-14.58,6.23
			C6.85,23.3,2.84,31.47,0.98,40.83C0.55,42.97,0.32,45.16,0,47.32c0,2.4,0,4.8,0,7.2c0.32,2.2,0.59,4.41,0.96,6.61
			c2.32,13.65,12.63,24.13,26.28,26.75c1.32,0.25,7.08,0.76,9.43,0.51c2.59-0.28,6.81-1.71,9.68-3.86c4.95-3.72,7.6-8.64,6.56-14.86
			c-1.43-8.59-11.13-12.16-16.44-10.9c-3.96,0.95-7.01,4.01-7.41,7.67c-0.47,4.26,1.48,7.93,5.15,9.68
			c3.63,1.74,7.73,0.96,10.67-2.02c0.2-0.2,0.42-0.38,0.72-0.66c-0.75,3.08-3.25,5.46-6.33,5.76c-1.76,0.17-3.62,0.14-5.33-0.26
			c-8.6-2.02-12.27-12.18-6.93-19.02c2.05-2.63,4.88-4.15,8.04-4.89c3.25-0.75,6.6-1.13,9.89-1.72c4.52-0.81,8.74-2.34,12.1-5.59
			c5.21-5.04,6.34-11.35,5.22-18.21C60.95,21.52,56.16,16.23,48.94,13.03z M16.2,67.06c-2.01-2.25-4.07-9.87-3.22-15.53
			c1.23-8.24,5.7-14.46,12.27-19.91c-0.42,3.5,1.23,5.63,3.84,7.57C16.8,44.76,12.81,54.12,16.2,67.06z M39.66,35.06
			c-2.84-0.02-5.1-2.3-5.09-5.12c0.01-2.74,2.41-5.17,5.09-5.18c2.88-0.01,4.99,2.21,4.99,5.24C44.64,32.99,42.59,35.07,39.66,35.06
			z"/>
		
			<linearGradient id="SVGID_00000054253444973327186520000011723244269870889616_" gradientUnits="userSpaceOnUse" x1="35.0298" y1="-27.6139" x2="277.4518" y2="54.6246" gradientTransform="matrix(1 0 0 -1 0 89.2756)">
			<stop  offset="0" style="stop-color:#DAE9B4"/>
			<stop  offset="0.5056" style="stop-color:#ECF5E6"/>
			<stop  offset="1" style="stop-color:#AADEE9"/>
		</linearGradient>
		<path style="fill:url(#SVGID_00000054253444973327186520000011723244269870889616_);" d="M259.2,38.96
			c-0.31-3.55-1.47-6.76-3.8-9.51c-2.98-3.51-6.93-5.3-11.28-6.34c-5.59-1.34-11.26-1.27-16.92-0.67c-3.13,0.33-6.26,0.83-9.13,2.27
			c-5,2.51-5.93,9.1-1.82,12.95c0.31,0.29,1.03,0.46,1.43,0.31c3.78-1.34,7.64-2.31,11.65-2.55c3.25-0.2,6.48-0.15,9.56,1.09
			c2.38,0.96,3.36,2.79,2.91,5.27c-2.24,0.24-4.5,0.45-6.75,0.75c-4.11,0.53-8.25,0.93-12.32,1.73c-3.74,0.74-7.18,2.37-9.46,5.62
			c-3.17,4.52-3.43,9.55-1.89,14.66c1.57,5.23,5.54,8.13,10.47,9.87c5.56,1.96,11.34,2.18,17.15,1.83c4.2-0.25,8.36-0.83,12.24-2.54
			c3.98-1.75,7.75-3.8,8.2-8.86c0-7.84,0-15.68,0-23.52C259.36,40.53,259.27,39.74,259.2,38.96z M242.07,61.55
			c-0.01,0.26-0.45,0.65-0.76,0.75c-3.32,1.08-6.7,1.44-10.12,0.58c-1.55-0.39-2.7-1.34-3.2-2.93c-0.62-1.99,0-3.79,1.92-4.57
			c1.48-0.61,3.11-0.94,4.71-1.15c2.43-0.33,4.89-0.45,7.48-0.67C242.1,56.3,242.12,58.93,242.07,61.55z"/>
		
			<linearGradient id="SVGID_00000123404906216531207910000010955602326216740493_" gradientUnits="userSpaceOnUse" x1="29.5418" y1="-11.4363" x2="271.9637" y2="70.8022" gradientTransform="matrix(1 0 0 -1 0 89.2756)">
			<stop  offset="0" style="stop-color:#DAE9B4"/>
			<stop  offset="0.5056" style="stop-color:#ECF5E6"/>
			<stop  offset="1" style="stop-color:#AADEE9"/>
		</linearGradient>
		<path style="fill:url(#SVGID_00000123404906216531207910000010955602326216740493_);" d="M195.84,46.61
			c-3.62-2.04-7.56-3.15-11.57-4.1c-2.09-0.49-4.17-1.06-6.22-1.7c-0.97-0.31-1.6-1.1-1.61-2.17c-0.01-1.11,0.6-1.93,1.6-2.32
			c0.88-0.35,1.82-0.63,2.75-0.75c5.63-0.69,10.93,0.68,16.12,2.66c0.53,0.2,0.87,0.33,1.35-0.14c3.02-3.01,4.2-9.35-0.94-12.7
			c-0.96-0.63-2-1.18-3.08-1.57c-4.73-1.75-9.66-2.08-14.64-1.79c-4.68,0.26-9.18,1.26-13.23,3.72c-4.69,2.85-7.19,7-7.34,12.53
			c-0.18,6.35,2.42,11.05,8.22,13.79c1.87,0.88,3.82,1.64,5.81,2.18c3.11,0.84,6.3,1.39,9.43,2.19c2.28,0.58,3.28,1.68,3.22,3.16
			c-0.05,1.46-1.35,2.88-3.5,3.04c-2.92,0.21-5.9,0.2-8.81-0.12c-3.43-0.37-6.58-1.84-9.68-3.34c-0.37-0.18-1.06-0.22-1.35,0.01
			c-3.38,2.58-4.07,8.05-1.5,11.43c1.56,2.05,3.71,3.24,6.08,4.07c4.13,1.45,8.42,1.73,12.08,1.75c5.13,0.02,9.53-0.39,13.74-1.99
			c7.54-2.86,11.4-9.13,10.46-17.14C202.67,52.47,200.04,48.97,195.84,46.61z"/>
		
			<linearGradient id="SVGID_00000096027247070133085240000015849249325121366422_" gradientUnits="userSpaceOnUse" x1="19.9719" y1="16.7737" x2="262.3939" y2="99.0123" gradientTransform="matrix(1 0 0 -1 0 89.2756)">
			<stop  offset="0" style="stop-color:#DAE9B4"/>
			<stop  offset="0.5056" style="stop-color:#ECF5E6"/>
			<stop  offset="1" style="stop-color:#AADEE9"/>
		</linearGradient>
		<path style="fill:url(#SVGID_00000096027247070133085240000015849249325121366422_);" d="M117.66,23.01
			c-4.06-1.21-7.98-0.5-11.77,1.17c-0.34,0.15-0.63,0.69-0.73,1.1c-2.22,9.76-4.39,19.52-6.6,29.28c-0.43,1.92-0.98,3.82-1.47,5.72
			c-0.13,0-0.26,0.01-0.39,0.01c-0.13-0.35-0.29-0.7-0.38-1.06c-1.71-6.6-3.41-13.2-5.12-19.79c-0.95-3.66-1.85-7.34-2.9-10.98
			c-0.79-2.72-2.46-4.75-5.31-5.52c-4.54-1.22-8.69-0.36-12.44,2.47c-0.58,0.44-0.76,0.87-0.53,1.63c2.29,7.5,4.33,15.1,6.87,22.52
			c2.43,7.12,5.35,14.07,8.09,21.09c0.9,2.3,2.68,3.66,5.01,4.25c1.62,0.41,3.28,0.73,4.94,0.85c3.62,0.27,7.17-0.12,10.57-1.51
			c1.17-0.48,2.02-1.17,2.51-2.38c2.91-7.2,5.98-14.35,8.75-21.61c2.36-6.18,4.31-12.51,5.53-19.04
			C123.08,26.95,121.53,24.15,117.66,23.01z"/>
		
			<linearGradient id="SVGID_00000152948764359705911670000007636442312196004756_" gradientUnits="userSpaceOnUse" x1="25.3329" y1="0.9703" x2="267.755" y2="83.2089" gradientTransform="matrix(1 0 0 -1 0 89.2756)">
			<stop  offset="0" style="stop-color:#DAE9B4"/>
			<stop  offset="0.5056" style="stop-color:#ECF5E6"/>
			<stop  offset="1" style="stop-color:#AADEE9"/>
		</linearGradient>
		<path style="fill:url(#SVGID_00000152948764359705911670000007636442312196004756_);" d="M148.77,30.74
			c-0.22-4.49-2.57-6.79-7.03-7.22c-3.6-0.34-7.09,0.13-10.78,0.84c0,0.5,0,0.93,0,1.37c-0.01,13.52-0.01,27.03-0.01,40.55
			c0,0.88,0.04,1.76,0.09,2.64c0.23,3.44,2.28,5.71,5.66,6.27c4.04,0.67,8.02,0.21,12.08-0.65c0-0.5,0-0.97,0-1.44
			c0-13.6,0-27.19,0-40.79C148.79,31.78,148.8,31.26,148.77,30.74z"/>
		
			<linearGradient id="SVGID_00000089575010213382870600000016561842525413518508_" gradientUnits="userSpaceOnUse" x1="13.1515" y1="36.8785" x2="255.5737" y2="119.117" gradientTransform="matrix(1 0 0 -1 0 89.2756)">
			<stop  offset="0" style="stop-color:#DAE9B4"/>
			<stop  offset="0.5056" style="stop-color:#ECF5E6"/>
			<stop  offset="1" style="stop-color:#AADEE9"/>
		</linearGradient>
		<path style="fill:url(#SVGID_00000089575010213382870600000016561842525413518508_);" d="M139.89,0c-5.76-0.01-9.81,3.9-9.79,9.46
			c0.02,5.48,4.09,9.36,9.79,9.35c5.76-0.01,9.69-3.83,9.69-9.41S145.66,0.01,139.89,0z"/>
	</g>
</g>
<g>
	<g>
		<path class="st6" d="M79.88-120.46c-2.21-0.98-4.52-1.11-6.88-0.72c-1.85,0.31-3.55,0.96-5.03,2.15c-2.6,2.11-3.99,4.93-4.63,8.15
			c-0.15,0.74-0.23,1.49-0.34,2.24c0,0.83,0,1.65,0,2.48c0.11,0.76,0.2,1.52,0.33,2.28c0.8,4.71,4.35,8.32,9.06,9.22
			c0.46,0.09,2.44,0.26,3.25,0.18c0.89-0.1,2.35-0.59,3.34-1.33c1.71-1.28,2.62-2.98,2.26-5.12c-0.49-2.96-3.84-4.19-5.67-3.76
			c-1.37,0.33-2.42,1.38-2.55,2.64c-0.16,1.47,0.51,2.73,1.78,3.34c1.25,0.6,2.67,0.33,3.68-0.7c0.07-0.07,0.14-0.13,0.25-0.23
			c-0.26,1.06-1.12,1.88-2.18,1.99c-0.61,0.06-1.25,0.05-1.84-0.09c-2.97-0.7-4.23-4.2-2.39-6.56c0.71-0.91,1.68-1.43,2.77-1.69
			c1.12-0.26,2.28-0.39,3.41-0.59c1.56-0.28,3.01-0.81,4.17-1.93c1.8-1.74,2.19-3.91,1.8-6.28
			C84.02-117.53,82.37-119.35,79.88-120.46z M68.59-101.83c-0.69-0.78-1.4-3.4-1.11-5.35c0.42-2.84,1.97-4.99,4.23-6.86
			c-0.14,1.21,0.42,1.94,1.32,2.61C68.8-109.52,67.42-106.29,68.59-101.83z M76.68-112.86c-0.98-0.01-1.76-0.79-1.75-1.77
			c0-0.94,0.83-1.78,1.75-1.79c0.99,0,1.72,0.76,1.72,1.81C78.4-113.57,77.69-112.86,76.68-112.86z"/>
		<path class="st6" d="M152.37-111.52c-0.11-1.22-0.51-2.33-1.31-3.28c-1.03-1.21-2.39-1.83-3.89-2.19
			c-1.93-0.46-3.88-0.44-5.83-0.23c-1.08,0.11-2.16,0.29-3.15,0.78c-1.72,0.87-2.04,3.14-0.63,4.46c0.11,0.1,0.36,0.16,0.49,0.11
			c1.3-0.46,2.63-0.8,4.02-0.88c1.12-0.07,2.23-0.05,3.3,0.38c0.82,0.33,1.16,0.96,1,1.82c-0.77,0.08-1.55,0.16-2.33,0.26
			c-1.42,0.18-2.84,0.32-4.25,0.6c-1.29,0.26-2.48,0.82-3.26,1.94c-1.09,1.56-1.18,3.29-0.65,5.05c0.54,1.8,1.91,2.8,3.61,3.4
			c1.92,0.68,3.91,0.75,5.91,0.63c1.45-0.09,2.88-0.29,4.22-0.88c1.37-0.6,2.67-1.31,2.83-3.05c0-2.7,0-5.41,0-8.11
			C152.43-110.97,152.4-111.25,152.37-111.52z M146.47-103.73c0,0.09-0.16,0.22-0.26,0.26c-1.14,0.37-2.31,0.5-3.49,0.2
			c-0.53-0.13-0.93-0.46-1.1-1.01c-0.21-0.69,0-1.31,0.66-1.58c0.51-0.21,1.07-0.32,1.62-0.4c0.84-0.11,1.69-0.16,2.58-0.23
			C146.48-105.54,146.48-104.63,146.47-103.73z"/>
		<path class="st6" d="M130.53-108.88c-1.25-0.7-2.61-1.09-3.99-1.41c-0.72-0.17-1.44-0.37-2.14-0.59
			c-0.33-0.11-0.55-0.38-0.56-0.75c0-0.38,0.21-0.67,0.55-0.8c0.3-0.12,0.63-0.22,0.95-0.26c1.94-0.24,3.77,0.23,5.56,0.92
			c0.18,0.07,0.3,0.11,0.47-0.05c1.04-1.04,1.45-3.22-0.32-4.38c-0.33-0.22-0.69-0.41-1.06-0.54c-1.63-0.6-3.33-0.72-5.05-0.62
			c-1.61,0.09-3.17,0.43-4.56,1.28c-1.62,0.98-2.48,2.41-2.53,4.32c-0.06,2.19,0.83,3.81,2.83,4.75c0.64,0.3,1.32,0.57,2,0.75
			c1.07,0.29,2.17,0.48,3.25,0.76c0.79,0.2,1.13,0.58,1.11,1.09c-0.02,0.5-0.47,0.99-1.21,1.05c-1.01,0.07-2.03,0.07-3.04-0.04
			c-1.18-0.13-2.27-0.63-3.34-1.15c-0.13-0.06-0.37-0.08-0.47,0c-1.17,0.89-1.4,2.78-0.52,3.94c0.54,0.71,1.28,1.12,2.1,1.4
			c1.42,0.5,2.9,0.6,4.16,0.6c1.77,0.01,3.29-0.13,4.74-0.69c2.6-0.99,3.93-3.15,3.61-5.91
			C132.88-106.86,131.98-108.06,130.53-108.88z"/>
		<path class="st6" d="M103.57-117.01c-1.4-0.42-2.75-0.17-4.06,0.4c-0.12,0.05-0.22,0.24-0.25,0.38
			c-0.77,3.36-1.51,6.73-2.28,10.09c-0.15,0.66-0.34,1.32-0.51,1.97c-0.04,0-0.09,0-0.13,0c-0.04-0.12-0.1-0.24-0.13-0.37
			c-0.59-2.28-1.18-4.55-1.77-6.82c-0.33-1.26-0.64-2.53-1-3.79c-0.27-0.94-0.85-1.64-1.83-1.9c-1.57-0.42-3-0.12-4.29,0.85
			c-0.2,0.15-0.26,0.3-0.18,0.56c0.79,2.59,1.49,5.21,2.37,7.76c0.84,2.45,1.84,4.85,2.79,7.27c0.31,0.79,0.92,1.26,1.73,1.47
			c0.56,0.14,1.13,0.25,1.7,0.29c1.25,0.09,2.47-0.04,3.64-0.52c0.4-0.17,0.7-0.4,0.87-0.82c1-2.48,2.06-4.95,3.02-7.45
			c0.81-2.13,1.49-4.31,1.91-6.56C105.44-115.66,104.91-116.62,103.57-117.01z"/>
		<path class="st6" d="M114.3-114.35c-0.08-1.55-0.89-2.34-2.42-2.49c-1.24-0.12-2.44,0.04-3.72,0.29c0,0.17,0,0.32,0,0.47
			c0,4.66,0,9.32,0,13.98c0,0.3,0.01,0.61,0.03,0.91c0.08,1.19,0.79,1.97,1.95,2.16c1.39,0.23,2.77,0.07,4.16-0.22
			c0-0.17,0-0.33,0-0.5c0-4.69,0-9.37,0-14.06C114.31-113.99,114.31-114.17,114.3-114.35z"/>
		<path class="st6" d="M111.24-124.95c-1.99,0-3.38,1.34-3.38,3.26c0.01,1.89,1.41,3.23,3.38,3.22c1.99,0,3.34-1.32,3.34-3.24
			S113.23-124.94,111.24-124.95z"/>
	</g>
</g>
<g>
	<g>
		<path class="st7" d="M5.05,115.33v-17.7h4.77l3.36,9.13c0.12,0.34,0.25,0.78,0.4,1.31s0.3,1.11,0.45,1.73
			c0.15,0.62,0.3,1.22,0.44,1.81c0.14,0.59,0.26,1.11,0.35,1.56h-0.64c0.09-0.44,0.21-0.96,0.35-1.54s0.29-1.18,0.44-1.81
			c0.15-0.62,0.3-1.2,0.45-1.74c0.15-0.54,0.27-0.98,0.39-1.33l3.33-9.13h4.79v17.7h-3.16v-8.93c0-0.38,0-0.84,0.01-1.38
			c0.01-0.54,0.02-1.12,0.04-1.73c0.02-0.62,0.03-1.24,0.05-1.87c0.02-0.63,0.02-1.23,0.02-1.8h0.23c-0.16,0.62-0.33,1.26-0.52,1.92
			c-0.19,0.65-0.37,1.29-0.55,1.9s-0.35,1.18-0.52,1.69c-0.16,0.51-0.3,0.94-0.42,1.27l-3.27,8.93h-2.7l-3.31-8.93
			c-0.12-0.33-0.26-0.75-0.42-1.25c-0.16-0.5-0.34-1.06-0.52-1.67c-0.19-0.61-0.37-1.25-0.56-1.91s-0.37-1.31-0.55-1.95h0.26
			c0.01,0.53,0.02,1.11,0.04,1.73c0.02,0.62,0.03,1.25,0.04,1.87c0.01,0.62,0.02,1.21,0.04,1.76c0.01,0.55,0.02,1.02,0.02,1.42v8.93
			H5.05z"/>
		<path class="st7" d="M31.05,115.6c-0.84,0-1.6-0.15-2.27-0.46c-0.67-0.3-1.2-0.75-1.59-1.35c-0.39-0.59-0.58-1.33-0.58-2.2
			c0-0.75,0.14-1.37,0.42-1.86s0.66-0.88,1.14-1.18s1.02-0.51,1.62-0.67c0.6-0.15,1.23-0.26,1.88-0.32
			c0.77-0.09,1.39-0.16,1.88-0.23s0.84-0.17,1.06-0.31s0.34-0.36,0.34-0.67v-0.06c0-0.44-0.09-0.81-0.26-1.11
			c-0.17-0.3-0.43-0.54-0.78-0.7c-0.34-0.16-0.77-0.24-1.28-0.24c-0.51,0-0.96,0.08-1.34,0.24c-0.38,0.16-0.68,0.36-0.92,0.62
			c-0.24,0.25-0.41,0.53-0.52,0.82l-2.86-0.58c0.26-0.78,0.67-1.43,1.21-1.94s1.2-0.89,1.95-1.15c0.76-0.25,1.58-0.38,2.46-0.38
			c0.62,0,1.26,0.07,1.89,0.22s1.22,0.39,1.75,0.74c0.53,0.35,0.96,0.82,1.28,1.4s0.49,1.32,0.49,2.21v8.87h-2.96v-1.83h-0.12
			c-0.2,0.37-0.47,0.72-0.81,1.04c-0.34,0.32-0.77,0.58-1.28,0.77C32.35,115.51,31.75,115.6,31.05,115.6z M31.85,113.31
			c0.64,0,1.19-0.13,1.66-0.38c0.46-0.25,0.82-0.59,1.08-1c0.26-0.42,0.39-0.87,0.39-1.36V109c-0.1,0.08-0.28,0.15-0.52,0.23
			c-0.24,0.07-0.51,0.13-0.81,0.19c-0.3,0.06-0.59,0.1-0.88,0.14c-0.29,0.04-0.53,0.07-0.73,0.1c-0.46,0.06-0.88,0.17-1.25,0.31
			c-0.37,0.14-0.66,0.34-0.87,0.6c-0.21,0.26-0.31,0.59-0.31,1c0,0.38,0.1,0.7,0.29,0.96c0.19,0.26,0.46,0.45,0.8,0.59
			C31.03,113.24,31.41,113.31,31.85,113.31z"/>
		<path class="st7" d="M44.4,97.63v17.7h-3.09v-17.7H44.4z"/>
		<path class="st7" d="M52.57,115.57c-1.04,0-1.98-0.27-2.81-0.8c-0.83-0.53-1.48-1.31-1.95-2.33c-0.48-1.02-0.71-2.26-0.71-3.72
			c0-1.47,0.24-2.72,0.73-3.74c0.49-1.02,1.14-1.79,1.97-2.31c0.83-0.52,1.75-0.78,2.76-0.78c0.79,0,1.44,0.13,1.94,0.4
			c0.5,0.27,0.9,0.58,1.2,0.94c0.3,0.36,0.52,0.71,0.67,1.02h0.13v-6.62h3.09v17.7h-3.03v-2.1h-0.19c-0.16,0.32-0.39,0.66-0.69,1.02
			c-0.31,0.36-0.71,0.68-1.21,0.93S53.34,115.57,52.57,115.57z M53.42,113.03c0.67,0,1.24-0.18,1.71-0.54
			c0.47-0.36,0.82-0.87,1.07-1.51c0.25-0.65,0.37-1.41,0.37-2.27c0-0.86-0.12-1.61-0.36-2.25s-0.6-1.13-1.07-1.49
			c-0.47-0.36-1.04-0.54-1.72-0.54c-0.7,0-1.28,0.18-1.75,0.55c-0.47,0.37-0.82,0.88-1.06,1.52c-0.24,0.64-0.36,1.38-0.36,2.2
			c0,0.82,0.12,1.56,0.36,2.21c0.24,0.65,0.59,1.17,1.06,1.54C52.15,112.84,52.73,113.03,53.42,113.03z"/>
		<path class="st7" d="M64.4,100.18c-0.49,0-0.91-0.17-1.27-0.5c-0.35-0.33-0.53-0.73-0.53-1.19c0-0.47,0.18-0.88,0.53-1.21
			c0.35-0.33,0.77-0.49,1.27-0.49c0.5,0,0.92,0.16,1.28,0.49c0.35,0.33,0.53,0.73,0.53,1.19c0,0.47-0.18,0.87-0.53,1.2
			C65.33,100.01,64.9,100.18,64.4,100.18z M62.86,115.33v-13.28h3.09v13.28H62.86z"/>
		<path class="st7" d="M72.99,115.33l-4.94-13.28h3.3l2.42,7.22c0.29,0.85,0.53,1.7,0.74,2.55c0.21,0.86,0.42,1.72,0.63,2.6h-0.77
			c0.22-0.88,0.43-1.75,0.64-2.6c0.2-0.85,0.44-1.71,0.72-2.55l2.41-7.22h3.28l-4.96,13.28H72.99z"/>
		<path class="st7" d="M89.37,115.6c-1.34,0-2.49-0.28-3.45-0.84c-0.96-0.56-1.7-1.35-2.22-2.38s-0.78-2.22-0.78-3.61
			c0-1.37,0.26-2.57,0.77-3.6c0.51-1.03,1.23-1.83,2.17-2.42c0.94-0.58,2.04-0.87,3.31-0.87c0.81,0,1.58,0.13,2.31,0.39
			s1.38,0.67,1.95,1.21c0.57,0.55,1.01,1.24,1.33,2.08c0.32,0.84,0.48,1.85,0.48,3.01v0.97H84.38v-2.1h9.32l-1.45,0.62
			c0-0.74-0.11-1.4-0.34-1.97c-0.23-0.57-0.57-1.01-1.03-1.32c-0.46-0.32-1.02-0.47-1.7-0.47c-0.68,0-1.26,0.16-1.73,0.48
			c-0.48,0.32-0.84,0.75-1.09,1.28c-0.25,0.53-0.37,1.13-0.37,1.79v1.45c0,0.84,0.14,1.55,0.43,2.13s0.69,1.01,1.2,1.31
			s1.11,0.44,1.79,0.44c0.45,0,0.86-0.07,1.23-0.2s0.69-0.32,0.96-0.58c0.27-0.26,0.47-0.57,0.61-0.94l2.84,0.58
			c-0.21,0.71-0.58,1.34-1.09,1.87c-0.51,0.53-1.16,0.95-1.93,1.25S90.36,115.6,89.37,115.6z"/>
		<path class="st7" d="M102.91,115.6c-1.02,0-1.92-0.15-2.71-0.44s-1.43-0.72-1.93-1.28c-0.5-0.56-0.83-1.24-0.98-2.04l2.89-0.55
			c0.18,0.66,0.5,1.15,0.97,1.47c0.46,0.32,1.07,0.48,1.82,0.48c0.76,0,1.36-0.15,1.81-0.46c0.45-0.3,0.67-0.68,0.67-1.13
			c0-0.38-0.15-0.7-0.44-0.94s-0.74-0.44-1.35-0.58l-2.27-0.49c-1.25-0.27-2.19-0.71-2.8-1.33c-0.62-0.62-0.93-1.41-0.93-2.39
			c0-0.82,0.23-1.54,0.68-2.14c0.45-0.6,1.08-1.07,1.88-1.4c0.8-0.33,1.74-0.5,2.8-0.5c1.01,0,1.87,0.14,2.59,0.43
			c0.72,0.29,1.31,0.68,1.76,1.19s0.76,1.11,0.93,1.8l-2.76,0.55c-0.15-0.47-0.42-0.86-0.82-1.18c-0.4-0.32-0.95-0.48-1.67-0.48
			c-0.66,0-1.21,0.14-1.65,0.43s-0.66,0.66-0.66,1.11c0,0.39,0.15,0.71,0.44,0.96c0.29,0.25,0.78,0.45,1.45,0.59l2.26,0.48
			c1.26,0.27,2.19,0.7,2.8,1.29c0.61,0.59,0.91,1.36,0.91,2.29c0,0.84-0.24,1.58-0.72,2.21c-0.48,0.64-1.15,1.14-2.01,1.5
			C105.01,115.42,104.02,115.6,102.91,115.6z"/>
		<path class="st7" d="M120.69,97.63v17.7h-3.17v-17.7H120.69z"/>
		<path class="st7" d="M124.11,115.33v-13.28h2.9l0.12,3.19h-0.23c0.19-0.79,0.48-1.44,0.88-1.94s0.87-0.87,1.4-1.11
			c0.53-0.24,1.09-0.36,1.68-0.36c0.96,0,1.73,0.3,2.32,0.9c0.59,0.6,1.01,1.49,1.25,2.66h-0.37c0.18-0.79,0.49-1.45,0.93-1.98
			c0.44-0.53,0.96-0.92,1.57-1.19c0.61-0.26,1.25-0.4,1.94-0.4c0.8,0,1.52,0.17,2.15,0.52s1.14,0.86,1.51,1.53s0.56,1.5,0.56,2.49
			v8.96h-3.09v-8.48c0-0.82-0.23-1.42-0.68-1.8s-0.99-0.57-1.63-0.57c-0.49,0-0.92,0.11-1.28,0.32s-0.64,0.51-0.84,0.88
			c-0.19,0.38-0.29,0.81-0.29,1.31v8.34h-3.02v-8.62c0-0.67-0.21-1.21-0.63-1.62c-0.42-0.41-0.96-0.61-1.62-0.61
			c-0.45,0-0.87,0.1-1.24,0.31s-0.67,0.51-0.9,0.92c-0.22,0.4-0.33,0.9-0.33,1.5v8.14H124.11z"/>
		<path class="st7" d="M146.01,115.33v-13.28h2.9l0.12,3.19h-0.23c0.19-0.79,0.49-1.44,0.88-1.94c0.4-0.5,0.87-0.87,1.4-1.11
			c0.53-0.24,1.09-0.36,1.68-0.36c0.96,0,1.73,0.3,2.32,0.9c0.59,0.6,1.01,1.49,1.25,2.66h-0.37c0.18-0.79,0.49-1.45,0.93-1.98
			c0.44-0.53,0.96-0.92,1.57-1.19c0.61-0.26,1.25-0.4,1.94-0.4c0.8,0,1.52,0.17,2.15,0.52s1.14,0.86,1.51,1.53s0.56,1.5,0.56,2.49
			v8.96h-3.09v-8.48c0-0.82-0.23-1.42-0.68-1.8s-0.99-0.57-1.63-0.57c-0.49,0-0.92,0.11-1.28,0.32s-0.64,0.51-0.84,0.88
			c-0.19,0.38-0.29,0.81-0.29,1.31v8.34h-3.02v-8.62c0-0.67-0.21-1.21-0.63-1.62c-0.42-0.41-0.96-0.61-1.62-0.61
			c-0.45,0-0.87,0.1-1.24,0.31s-0.67,0.51-0.9,0.92c-0.22,0.4-0.33,0.9-0.33,1.5v8.14H146.01z"/>
		<path class="st7" d="M169.45,100.18c-0.49,0-0.91-0.17-1.26-0.5c-0.35-0.33-0.53-0.73-0.53-1.19c0-0.47,0.18-0.88,0.53-1.21
			c0.35-0.33,0.77-0.49,1.26-0.49c0.5,0,0.92,0.16,1.28,0.49c0.35,0.33,0.53,0.73,0.53,1.19c0,0.47-0.18,0.87-0.53,1.2
			C170.38,100.01,169.95,100.18,169.45,100.18z M167.91,115.33v-13.28H171v13.28H167.91z"/>
		<path class="st7" d="M180,120.58c-1.06,0-1.99-0.13-2.77-0.4c-0.79-0.27-1.43-0.64-1.94-1.1s-0.87-0.99-1.09-1.57l2.61-0.94
			c0.14,0.25,0.34,0.5,0.59,0.76c0.25,0.26,0.58,0.48,1,0.65c0.42,0.17,0.94,0.26,1.58,0.26c0.96,0,1.73-0.22,2.3-0.67
			c0.58-0.45,0.87-1.15,0.87-2.1v-2.51h-0.26c-0.15,0.32-0.37,0.64-0.67,0.98s-0.69,0.62-1.18,0.85c-0.5,0.23-1.13,0.34-1.89,0.34
			c-1.01,0-1.93-0.24-2.76-0.72c-0.83-0.48-1.48-1.2-1.97-2.16c-0.49-0.96-0.73-2.16-0.73-3.6c0-1.46,0.25-2.69,0.74-3.69
			c0.49-1.01,1.15-1.77,1.98-2.29c0.83-0.52,1.75-0.78,2.77-0.78c0.78,0,1.43,0.13,1.94,0.39c0.51,0.26,0.91,0.58,1.21,0.94
			s0.53,0.71,0.69,1.03h0.17v-2.2h3.03v13.31c0,1.18-0.27,2.16-0.81,2.93c-0.54,0.77-1.27,1.35-2.21,1.72S181.2,120.58,180,120.58z
			 M180.02,112.69c0.67,0,1.24-0.16,1.71-0.48c0.47-0.32,0.82-0.79,1.07-1.4c0.25-0.61,0.37-1.34,0.37-2.18
			c0-0.84-0.12-1.57-0.36-2.2c-0.24-0.63-0.6-1.12-1.06-1.47c-0.47-0.35-1.04-0.53-1.72-0.53c-0.7,0-1.28,0.18-1.75,0.55
			c-0.47,0.37-0.83,0.87-1.06,1.5c-0.24,0.63-0.36,1.35-0.36,2.16c0,0.82,0.12,1.53,0.36,2.14c0.24,0.61,0.6,1.08,1.07,1.42
			C178.75,112.53,179.33,112.69,180.02,112.69z"/>
		<path class="st7" d="M189.49,115.33v-13.28h2.99v2.22h0.14c0.24-0.77,0.65-1.36,1.25-1.78s1.27-0.62,2.03-0.62
			c0.17,0,0.37,0.01,0.58,0.02s0.4,0.04,0.55,0.06v2.84c-0.13-0.04-0.33-0.08-0.62-0.11s-0.57-0.05-0.84-0.05
			c-0.57,0-1.08,0.12-1.54,0.37c-0.46,0.25-0.81,0.58-1.07,1.02c-0.26,0.43-0.39,0.93-0.39,1.49v7.82H189.49z"/>
		<path class="st7" d="M202.85,115.6c-0.84,0-1.6-0.15-2.27-0.46c-0.67-0.3-1.2-0.75-1.59-1.35s-0.58-1.33-0.58-2.2
			c0-0.75,0.14-1.37,0.42-1.86s0.66-0.88,1.14-1.18c0.48-0.29,1.02-0.51,1.62-0.67c0.6-0.15,1.23-0.26,1.88-0.32
			c0.77-0.09,1.39-0.16,1.88-0.23c0.48-0.06,0.84-0.17,1.06-0.31s0.34-0.36,0.34-0.67v-0.06c0-0.44-0.09-0.81-0.26-1.11
			c-0.17-0.3-0.43-0.54-0.78-0.7c-0.34-0.16-0.77-0.24-1.28-0.24c-0.51,0-0.96,0.08-1.34,0.24c-0.38,0.16-0.68,0.36-0.92,0.62
			c-0.24,0.25-0.41,0.53-0.52,0.82l-2.86-0.58c0.26-0.78,0.67-1.43,1.21-1.94s1.2-0.89,1.95-1.15c0.76-0.25,1.58-0.38,2.46-0.38
			c0.63,0,1.26,0.07,1.89,0.22s1.22,0.39,1.75,0.74s0.96,0.82,1.28,1.4c0.32,0.59,0.49,1.32,0.49,2.21v8.87h-2.96v-1.83h-0.12
			c-0.2,0.37-0.47,0.72-0.81,1.04c-0.34,0.32-0.77,0.58-1.28,0.77C204.15,115.51,203.55,115.6,202.85,115.6z M203.65,113.31
			c0.64,0,1.19-0.13,1.66-0.38c0.46-0.25,0.82-0.59,1.08-1c0.26-0.42,0.39-0.87,0.39-1.36V109c-0.1,0.08-0.27,0.15-0.52,0.23
			c-0.24,0.07-0.51,0.13-0.81,0.19c-0.3,0.06-0.59,0.1-0.88,0.14c-0.29,0.04-0.53,0.07-0.73,0.1c-0.46,0.06-0.88,0.17-1.25,0.31
			s-0.66,0.34-0.87,0.6c-0.21,0.26-0.31,0.59-0.31,1c0,0.38,0.1,0.7,0.29,0.96c0.19,0.26,0.46,0.45,0.8,0.59
			C202.83,113.24,203.21,113.31,203.65,113.31z"/>
		<path class="st7" d="M219.25,102.05v2.42h-7.54v-2.42H219.25z M213.6,98.89h3.09v12.7c0,0.48,0.1,0.84,0.31,1.06
			c0.21,0.23,0.54,0.34,1.01,0.34c0.14,0,0.33-0.02,0.56-0.05c0.23-0.04,0.42-0.07,0.56-0.1l0.49,2.39
			c-0.34,0.1-0.69,0.18-1.04,0.22c-0.36,0.04-0.7,0.06-1.02,0.06c-1.28,0-2.25-0.32-2.93-0.95c-0.68-0.63-1.02-1.54-1.02-2.71V98.89
			z"/>
		<path class="st7" d="M223.24,100.18c-0.49,0-0.91-0.17-1.26-0.5c-0.35-0.33-0.53-0.73-0.53-1.19c0-0.47,0.18-0.88,0.53-1.21
			c0.35-0.33,0.77-0.49,1.26-0.49c0.5,0,0.92,0.16,1.28,0.49c0.35,0.33,0.53,0.73,0.53,1.19c0,0.47-0.18,0.87-0.53,1.2
			C224.17,100.01,223.74,100.18,223.24,100.18z M221.7,115.33v-13.28h3.09v13.28H221.7z"/>
		<path class="st7" d="M233.83,115.6c-1.29,0-2.41-0.29-3.36-0.86s-1.68-1.37-2.2-2.4s-0.78-2.22-0.78-3.58
			c0-1.38,0.26-2.58,0.78-3.62s1.25-1.83,2.2-2.41c0.95-0.57,2.07-0.85,3.36-0.85c1.3,0,2.42,0.29,3.37,0.85
			c0.95,0.57,1.68,1.37,2.2,2.41s0.78,2.24,0.78,3.62c0,1.36-0.26,2.56-0.78,3.58s-1.25,1.83-2.2,2.4S235.13,115.6,233.83,115.6z
			 M233.83,113.1c0.72,0,1.32-0.19,1.8-0.58c0.48-0.39,0.84-0.91,1.07-1.57s0.35-1.39,0.35-2.2c0-0.82-0.12-1.55-0.35-2.21
			s-0.59-1.18-1.07-1.57c-0.48-0.39-1.08-0.58-1.8-0.58s-1.32,0.19-1.79,0.58c-0.47,0.39-0.82,0.91-1.06,1.56s-0.35,1.39-0.35,2.21
			c0,0.81,0.12,1.54,0.35,2.2s0.59,1.18,1.06,1.57C232.51,112.9,233.11,113.1,233.83,113.1z"/>
		<path class="st7" d="M245.96,107.55v7.78h-3.09v-13.28h2.92l0.05,3.28h-0.25c0.37-1.15,0.92-2.01,1.64-2.58
			c0.72-0.57,1.62-0.86,2.71-0.86c0.91,0,1.71,0.19,2.39,0.58c0.68,0.39,1.21,0.95,1.59,1.7s0.56,1.65,0.56,2.72v8.44h-3.09v-7.97
			c0-0.89-0.23-1.58-0.69-2.09s-1.09-0.76-1.9-0.76c-0.55,0-1.03,0.12-1.46,0.36c-0.43,0.24-0.76,0.58-1.01,1.04
			C246.09,106.36,245.96,106.91,245.96,107.55z"/>
	</g>
</g>
</svg>
