<?xml version="1.0" encoding="utf-8"?>
<!-- Generator: Adobe Illustrator 27.0.0, SVG Export Plug-In . SVG Version: 6.00 Build 0)  -->
<svg version="1.1" id="Layer_1" xmlns="http://www.w3.org/2000/svg" xmlns:xlink="http://www.w3.org/1999/xlink" x="0px" y="0px"
	 viewBox="0 0 118.72 136.71" style="enable-background:new 0 0 118.72 136.71;" xml:space="preserve">
<style type="text/css">
	.st0{fill-rule:evenodd;clip-rule:evenodd;fill:#FFFFFF;}
	.st1{fill:#FFFFFF;}
</style>
<g>
	<path class="st0" d="M116.73,13.18C98.66,5.06,79.17,0.58,59.37,0l0,0C39.56,0.58,20.06,5.06,1.99,13.18L0,14.02v2.15
		c0,51.29,12.77,91,57.6,119.45l1.74,1.09l1.74-1.09c44.86-28.45,57.63-68.06,57.63-119.45v-2.26L116.73,13.18z M59.34,132.95
		c-42.38-26.9-56.1-64.19-56.1-116.7C20.91,8.29,39.97,3.9,59.34,3.32c18.18,0,36.4,4.41,56.1,12.74c0,52.51-13.72,89.81-56.1,116.7
		V132.95z"/>
	<path class="st0" d="M28.09,64.9c-0.08-1.8-0.86-3.5-2.18-4.74c-1.61,3.87,0,4.38,1.69,7.27c1.5-1.99,3.46,0,5.31-4.46
		C31.08,62.75,29.27,63.48,28.09,64.9z M27.71,66.67c-0.27-0.34-0.2-0.84,0.14-1.11c0.02-0.01,0.03-0.02,0.05-0.04
		C28.15,65.74,28.17,66.56,27.71,66.67L27.71,66.67z"/>
	<path class="st0" d="M69.36,101.62c1.17-1.22,0.65-2.72,1.47-4.46c-2.72,1.06-4.11,2.42-3.84,4.41c-1.24,0.55-2.53,1-3.84,1.36
		c-1.36,0.38-2.67,0.94-3.89,1.66c-1.19-0.68-2.46-1.21-3.78-1.58c-1.31-0.35-2.6-0.81-3.84-1.36c0.27-1.99-1.03-3.35-3.84-4.41
		c0.82,1.88,0.3,3.24,1.47,4.46c-3.59-0.44-3.59,0.82-5.61,1.2c1.31,0.7,2.73,1.18,4.19,1.42c1.31,0.09,2.56-0.52,3.29-1.61
		c1.14,0.51,2.31,0.93,3.51,1.25c1.27,0.31,2.48,0.8,3.62,1.44c-0.54,0.41-1.05,0.87-1.52,1.36c-0.54,0.55-1.1,1.08-1.69,1.58
		c-0.72-0.17-1.47-0.04-2.1,0.35c-0.45,0.28-0.78,0.7-0.95,1.2c1.62,0.24,3.27-0.19,4.57-1.2c0.33-0.27,0.82-0.73,1.47-1.39
		c0.39-0.43,0.82-0.84,1.28-1.2c0.47,0.36,0.91,0.76,1.31,1.2c0.46,0.5,0.95,0.96,1.47,1.39c1.29,1,2.93,1.43,4.55,1.2
		c-0.16-0.5-0.5-0.93-0.95-1.2c-0.61-0.41-1.36-0.54-2.07-0.35c-0.6-0.5-1.17-1.02-1.72-1.58c-0.46-0.49-0.97-0.95-1.5-1.36
		c1.12-0.65,2.33-1.13,3.59-1.44c1.21-0.33,2.39-0.75,3.54-1.25c0.73,1.09,1.99,1.7,3.29,1.61c1.47-0.24,2.88-0.72,4.19-1.42
		C73.01,102.44,73.04,101.18,69.36,101.62z"/>
	<path class="st0" d="M35.47,86.21c-1.17,2.12-2.26,3.84-1.77,4.85c-1.41-1.26-3.29-1.87-5.17-1.66c2.18,4.27,3.19,2.42,6.75,3.65
		C34.87,91.87,37.62,90.65,35.47,86.21z M34.08,91.66c0.3,0,0.98,0.38,0.79,0.84c-0.43,0.06-0.83-0.23-0.9-0.66
		c-0.01-0.08-0.01-0.16,0-0.24L34.08,91.66z"/>
	<path class="st0" d="M47.2,100.99c-0.98-3.24,0.76-3.65-3.19-5.96c-0.41,2.07-0.52,3.84,0.79,4.9c-1.74-0.57-3.66-0.3-5.17,0.73
		C43.77,104.04,45.11,100.72,47.2,100.99z M45.57,100.23c0.24-0.19,1.06,0,1.06,0.46c-0.41,0.17-0.88-0.01-1.06-0.41L45.57,100.23z"
		/>
	<path class="st0" d="M40.81,92.47c-0.9,1.57-0.96,3.49-0.16,5.12c-1.75-0.69-3.69-0.69-5.44,0c1.8,2.21,4.92,2.81,7.4,1.42
		C42.44,97.21,44.02,95.03,40.81,92.47z M41.19,97.92c0.3-0.19,1.09,0,1.03,0.52c-0.4,0.17-0.86-0.02-1.03-0.43c0,0,0-0.01,0-0.01
		L41.19,97.92z"/>
	<path class="st0" d="M30.98,84.28c1.53-1.36,2.05-3.53,1.31-5.44c-1.64,0.82-2.77,2.38-3.05,4.19c-0.97-1.55-2.61-2.56-4.44-2.72
		c1.12,4.76,2.45,3.51,5.44,5.23C30.22,85.04,30.68,84.5,30.98,84.28z M29.89,84.61c-0.4-0.12-0.64-0.54-0.52-0.94
		c0.01-0.03,0.02-0.06,0.03-0.09C29.73,83.6,30.22,84.25,29.89,84.61z"/>
	<path class="st0" d="M38.74,96.2c-0.27-2.2,1.66-3.16-1.12-6.78c-0.93,2.1-1.88,3.81-0.98,4.93c-1.45-1.21-3.43-1.58-5.23-0.98
		C33.27,96.01,34.74,96.77,38.74,96.2z M38.14,95.71c-0.43,0.08-0.84-0.21-0.92-0.64c0-0.02-0.01-0.05-0.01-0.07
		C37.51,94.84,38.25,95.25,38.14,95.71z"/>
	<path class="st0" d="M33.35,82.59c-0.49,0.68-2.59,2.72-2.29,4.44c-1.23-1.22-2.9-1.9-4.63-1.88c2.18,4.74,3.65,2.72,6.12,4.36
		C32.91,87.22,35.14,86.21,33.35,82.59z M32.12,88.72c-0.43-0.06-0.73-0.47-0.66-0.9c0-0.02,0.01-0.04,0.01-0.05
		C31.8,87.74,32.39,88.31,32.12,88.72L32.12,88.72z"/>
	<path class="st0" d="M42.3,49.87c-1.56-1.04-3.54-1.2-5.25-0.44c1.29-1.37,1.73-3.33,1.17-5.12c-2.14,0.69-3.35,2.96-2.72,5.12
		c0.04,0.66-0.08,1.32-0.33,1.93c0.35-0.18,0.74-0.28,1.14-0.3C38.68,51.29,40.1,52.05,42.3,49.87z M35.8,50.58
		c0-0.45,0.37-0.82,0.82-0.82c0.01,0,0.02,0,0.03,0C36.7,50.09,36.26,50.77,35.8,50.58L35.8,50.58z"/>
	<path class="st0" d="M45.81,47.26c-1.46-1.16-3.44-1.42-5.15-0.68c1.35-1.22,2.05-3.01,1.88-4.82c-4.36,1.71-2.34,4.68-3.92,6.32
		c0.4-0.18,0.85-0.18,1.25,0c0.86,0.52,1.86,0.76,2.86,0.68C43.87,48.52,44.93,48,45.81,47.26z M39.36,47.56
		c0.01-0.44,0.37-0.78,0.81-0.77c0.03,0,0.06,0,0.09,0.01c0.05,0.33-0.44,0.95-0.84,0.76L39.36,47.56z"/>
	<path class="st0" d="M47.58,43.94c0.3-0.41,0.87-1.47,1.8-3.21c-2.53,0.33-6.12,0.35-6.48,3.57c0,0.6-0.98,1.2-1.17,1.52
		c0.51-0.18,1.05-0.24,1.58-0.16C44.96,46.06,46.68,45.37,47.58,43.94z"/>
	<path class="st0" d="M33.97,52.76c0.48-0.78,0.75-1.67,0.76-2.59c0.06-0.88-0.16-1.76-0.63-2.5c-3.65,3.46-0.9,4.76-1.72,7.24
		c0.48-0.3,1.1-0.3,1.58,0c1.88,0.6,3.78-0.79,5.17-2.23C37.55,51.7,35.54,51.73,33.97,52.76z M32.97,54.09
		c-0.1-0.43,0.17-0.85,0.6-0.94c0.02,0,0.04-0.01,0.05-0.01c0.14,0.3-0.16,1.06-0.65,0.87V54.09z"/>
	<path class="st0" d="M27.6,76.77c1.55-2.23,3.76-0.65,3.48-5.91c-1.66,0.5-3.04,1.67-3.78,3.24c-0.54-1.79-1.79-3.29-3.46-4.14
		C23.57,74.07,25.07,74.78,27.6,76.77z M27.39,74.97c0.35,0.24,0.44,0.71,0.2,1.06c-0.02,0.03-0.04,0.06-0.07,0.08
		c-0.35-0.26-0.43-0.75-0.17-1.1C27.36,75,27.37,74.98,27.39,74.97L27.39,74.97z"/>
	<path class="st0" d="M28.53,81.07c0.9-1.96,3.1-1.22,2.72-6.26c-1.51,0.8-2.68,2.13-3.27,3.73c-0.38-1.5-1.61-2.01-3.95-3.29
		C23.95,78.01,25.83,80.45,28.53,81.07z M28.04,79.33c0.33,0,0.71,0.82,0.33,1.12c-0.39-0.2-0.53-0.68-0.33-1.07
		c0.01-0.02,0.02-0.03,0.03-0.05L28.04,79.33z"/>
	<path class="st0" d="M27.36,69.47c-0.26-1.82-1.3-3.43-2.86-4.41c-1.14,4.76,1.96,5.44,2.72,7.16c1.23-2.31,3.38-0.33,4.46-5.44
		C29.75,67.13,27.9,67.62,27.36,69.47z M27.36,71.46c-0.32-0.31-0.33-0.83-0.02-1.15c0.01-0.01,0.01-0.01,0.02-0.02
		c0.22,0.19,0.35,0.98-0.11,1.17H27.36z"/>
	<path class="st0" d="M36.7,55.81c-1.85-0.7-3.93-0.35-5.44,0.93c0.33-0.87,0.52-1.79,0.57-2.72c0.06-1.04-0.28-2.06-0.95-2.86
		c-1.93,1.7-2.32,4.56-0.93,6.72c0.17,0.3,0.23,0.64,0.16,0.98c0.6-0.49,1.23,0,2.31-0.27C34.2,58.37,35.78,57.35,36.7,55.81z
		 M30.68,58.23c-0.17-0.4,0.03-0.86,0.43-1.03c0.03-0.01,0.06-0.02,0.09-0.03c0.05,0.27-0.16,1.06-0.65,1.06H30.68z"/>
	<path class="st0" d="M29.32,60.84c0.45-1.82-0.08-3.75-1.39-5.09c-1.25,1.84-1.25,4.26,0,6.1c0.33,0.35,0.54,0.8,0.6,1.28
		c0.16-0.35,0.87-0.54,1.42-0.57c2.72,0.27,3.16-2.1,4.3-3.57C32.41,58.82,30.59,59.5,29.32,60.84z M28.83,62.31
		c-0.2-0.39-0.04-0.86,0.35-1.06c0.02-0.01,0.04-0.02,0.06-0.03C29.43,61.49,29.32,62.18,28.83,62.31L28.83,62.31z"/>
	<path class="st0" d="M90.81,78.51c-0.6-1.6-1.78-2.93-3.29-3.73c-0.49,5.04,1.71,4.3,2.72,6.26c2.74-0.58,4.69-3.02,4.63-5.83
		C92.42,76.52,91.14,77.04,90.81,78.51z M90.32,80.41c-0.38-0.3,0-1.03,0.3-1.12c0.24,0.36,0.15,0.85-0.22,1.1
		c-0.03,0.02-0.05,0.03-0.08,0.05V80.41z"/>
	<path class="st0" d="M85.01,91.06c0.49-1.01-0.6-2.72-1.8-4.85c-2.5,4.76,0.63,5.66,0.22,6.72c3.08-0.84,5.06,0,6.75-3.65
		C88.29,89.1,86.4,89.75,85.01,91.06z M83.82,92.45c-0.19-0.46,0.49-0.93,0.82-0.84c0.02,0.45-0.34,0.83-0.79,0.84
		C83.84,92.45,83.83,92.45,83.82,92.45z"/>
	<path class="st0" d="M87,66.75c1.09,5.14,3.24,3.16,4.44,5.44c0.82-1.71,3.92-2.4,2.72-7.16c-1.54,1-2.58,2.6-2.86,4.41
		C90.79,67.62,88.93,67.13,87,66.75z M91.44,71.46c-0.46-0.19-0.3-0.98,0-1.17c0.32,0.29,0.35,0.79,0.06,1.12
		C91.48,71.42,91.46,71.44,91.44,71.46L91.44,71.46z"/>
	<path class="st0" d="M82.43,51.07c0.39,0.02,0.77,0.12,1.12,0.3c-0.24-0.61-0.35-1.27-0.3-1.93c0.61-2.16-0.59-4.42-2.72-5.12
		c-0.55,1.79-0.11,3.74,1.17,5.12c-1.71-0.77-3.69-0.6-5.25,0.44C78.59,52.05,80.01,51.29,82.43,51.07z M82.89,50.58
		c-0.44,0.19-0.9-0.49-0.82-0.82c0.43-0.06,0.83,0.24,0.89,0.67c0.01,0.05,0.01,0.1,0.01,0.14H82.89z"/>
	<path class="st0" d="M89.48,83.05c-0.29-1.8-1.42-3.36-3.05-4.19c-0.75,1.91-0.22,4.08,1.31,5.44c0.27,0.22,0.76,0.76,0.68,1.17
		c3.02-1.71,4.38-0.46,5.44-5.23C92.04,80.45,90.42,81.49,89.48,83.05z M88.83,84.61c-0.35-0.35,0.14-1.01,0.46-1.03
		c0.16,0.4-0.04,0.86-0.44,1.03C88.84,84.6,88.83,84.6,88.83,84.61L88.83,84.61z"/>
	<path class="st0" d="M90.62,64.9c-1.18-1.42-2.99-2.15-4.82-1.93c1.85,4.57,3.81,2.48,5.31,4.46c1.63-2.89,3.27-3.4,1.66-7.27
		C91.46,61.39,90.68,63.1,90.62,64.9z M91,66.67c-0.49,0-0.46-0.93-0.22-1.14c0.41,0.2,0.58,0.68,0.38,1.09
		c-0.01,0.02-0.02,0.04-0.03,0.05H91z"/>
	<path class="st0" d="M84.42,58.99c1.14,1.47,1.74,3.84,4.33,3.57c0.54,0,1.23,0.22,1.42,0.57c0.05-0.48,0.26-0.94,0.6-1.28
		c1.29-1.83,1.29-4.27,0-6.1c-1.27,1.37-1.79,3.27-1.39,5.09C88.09,59.49,86.26,58.81,84.42,58.99z M89.48,61.22
		c0.41,0.18,0.6,0.67,0.41,1.08c0,0,0,0.01,0,0.01C89.4,62.18,89.26,61.49,89.48,61.22L89.48,61.22z"/>
	<path class="st0" d="M84.74,54.85c0.47-0.3,1.08-0.3,1.55,0c-0.79-2.48,1.93-3.78-1.69-7.24c-0.49,0.74-0.72,1.62-0.65,2.5
		c0.04,0.91,0.31,1.8,0.79,2.59c-1.55-1.04-3.57-1.09-5.17-0.14C80.96,54.01,82.97,55.45,84.74,54.85z M85.07,53.14
		c0.41,0.07,0.69,0.46,0.63,0.87C85.26,54.2,84.96,53.44,85.07,53.14z"/>
	<path class="st0" d="M73.91,99.93c1.31-1.06,1.17-2.72,0.79-4.9c-3.97,2.31-2.23,2.72-3.21,5.96c2.1-0.27,3.46,3.05,7.59-0.33
		C77.56,99.63,75.65,99.36,73.91,99.93z M72.06,100.69c0-0.49,0.82-0.65,1.09-0.46c-0.18,0.41-0.64,0.61-1.06,0.46L72.06,100.69z"/>
	<path class="st0" d="M85.34,82.59c-1.8,3.62,0.44,4.63,0.79,6.91c2.48-1.61,3.95,0.38,6.15-4.36c-1.73-0.02-3.4,0.66-4.63,1.88
		C87.93,85.4,85.86,83.27,85.34,82.59z M86.57,88.72c-0.24-0.41,0.33-0.98,0.65-0.95c0.1,0.43-0.17,0.85-0.6,0.94
		C86.6,88.71,86.58,88.71,86.57,88.72z"/>
	<path class="st0" d="M86.21,58.64c1.09,0.19,1.72-0.22,2.34,0.27c-0.09-0.33-0.05-0.69,0.14-0.98c1.41-2.15,1.02-5.01-0.9-6.72
		c-0.67,0.8-1.02,1.82-0.98,2.86c0.04,0.94,0.24,1.86,0.6,2.72c-1.47-1.19-3.47-1.54-5.25-0.9C83.02,57.37,84.51,58.38,86.21,58.64z
		 M87.66,57.17c0.43,0.14,0.67,0.6,0.53,1.03c0,0.01-0.01,0.02-0.01,0.04C87.68,58.23,87.46,57.44,87.66,57.17z"/>
	<path class="st0" d="M78.07,97.56c0.79-1.63,0.72-3.55-0.19-5.12c-3.19,2.56-1.61,4.74-1.91,6.4c2.49,1.4,5.63,0.8,7.43-1.42
		C81.67,96.81,79.77,96.86,78.07,97.56z M76.47,98.49c0-0.46,0.76-0.71,1.03-0.52c-0.11,0.42-0.54,0.68-0.96,0.57
		c-0.02-0.01-0.05-0.01-0.07-0.02L76.47,98.49z"/>
	<path class="st0" d="M78.84,48.1c0.4-0.18,0.85-0.18,1.25,0c-1.61-1.63,0.44-4.6-3.95-6.32c-0.18,1.82,0.53,3.61,1.91,4.82
		c-1.71-0.74-3.69-0.48-5.15,0.68c0.88,0.77,1.94,1.29,3.08,1.52C76.98,48.88,77.98,48.63,78.84,48.1z M79.33,47.56
		c-0.44,0.19-0.93-0.44-0.87-0.76c0.43-0.05,0.82,0.27,0.87,0.7C79.32,47.52,79.32,47.54,79.33,47.56z"/>
	<path class="st0" d="M75.3,45.65c0.53-0.07,1.07-0.02,1.58,0.16c-0.19-0.33-1.12-0.93-1.17-1.52c-0.35-3.21-3.97-3.24-6.48-3.57
		c0.54,1.1,1.14,2.18,1.8,3.21C71.93,45.37,73.65,46.06,75.3,45.65z"/>
	<path class="st0" d="M91.38,74.1c-0.73-1.57-2.1-2.74-3.76-3.24c-0.3,5.25,1.93,3.67,3.48,5.91c2.53-1.99,4-2.72,3.73-6.81
		C93.18,70.82,91.94,72.31,91.38,74.1z M91.19,76.11c-0.29-0.29-0.28-0.75,0-1.04c0.04-0.04,0.08-0.07,0.13-0.1
		c0.26,0.37,0.18,0.88-0.19,1.14c0,0,0,0,0,0L91.19,76.11z"/>
	<path class="st0" d="M82.07,94.35c0.9-1.12,0-2.72-0.98-4.93c-2.72,3.62-0.84,4.57-1.14,6.78c4,0.57,5.44-0.19,7.35-2.72
		C85.53,92.85,83.55,93.18,82.07,94.35z M80.58,95.71c-0.14-0.46,0.6-0.82,0.9-0.71c-0.02,0.42-0.38,0.74-0.8,0.72
		C80.64,95.72,80.61,95.72,80.58,95.71L80.58,95.71z"/>
	<path class="st0" d="M106.66,34.76l-3.4,0.54h-0.16l3.08-0.57c0.26-0.08,0.41-0.35,0.33-0.61c0-0.01,0-0.01-0.01-0.02
		c-0.08-0.24-0.33-0.38-0.58-0.31c-0.01,0-0.01,0-0.02,0.01l-2.86,1.36l0,0l0,0l2.53-1.33c0.18-0.16,0.2-0.43,0.04-0.61
		c-0.01-0.01-0.02-0.03-0.04-0.04c-0.15-0.17-0.41-0.18-0.58-0.02c-0.01,0.01-0.01,0.01-0.02,0.02l-2.12,2.01l0,0l0,0l1.99-2.07
		c0.18-0.18,0.18-0.47,0-0.65c-0.14-0.17-0.4-0.2-0.58-0.05c-0.02,0.02-0.04,0.03-0.05,0.05l-1.36,2.59l0,0l0,0l1.36-2.86
		c0.09-0.26-0.04-0.54-0.3-0.63c0,0,0,0,0,0c-0.24-0.08-0.5,0.05-0.59,0.29c0,0.01-0.01,0.03-0.01,0.04l-0.63,3.05v-0.14l0.54-3.35
		c0.03-0.34-0.22-0.65-0.57-0.68c-0.02,0-0.04,0-0.06,0c-0.33,0-0.71,0.3-0.65,0.65l0.54,3.4 M102.49,34.98l-0.54-3.08
		c-0.09-0.26-0.37-0.39-0.62-0.3c0,0,0,0,0,0c-0.23,0.05-0.38,0.29-0.32,0.52c0.01,0.03,0.01,0.05,0.03,0.08l1.36,2.86l0,0l0,0
		l-1.33-2.53c-0.18-0.18-0.47-0.18-0.65,0c-0.17,0.14-0.2,0.4-0.05,0.58c0.02,0.02,0.03,0.04,0.05,0.05l2.01,2.1l0,0l0,0l-2.07-1.99
		c-0.18-0.18-0.47-0.18-0.65,0c-0.17,0.14-0.2,0.4-0.05,0.58c0.02,0.02,0.03,0.04,0.05,0.05l2.59,1.39l0,0l-2.86-1.36
		c-0.23-0.1-0.51,0-0.61,0.23c-0.01,0.01-0.01,0.03-0.02,0.04c-0.09,0.24,0.04,0.51,0.28,0.59c0.01,0,0.01,0,0.02,0.01l3.1,0.6
		h-0.16l-3.32-0.57c-0.34-0.03-0.65,0.22-0.68,0.57c0,0.02,0,0.04,0,0.06c-0.03,0.33,0.21,0.62,0.54,0.65c0.04,0,0.08,0,0.11,0
		l3.38-0.54l0,0l-3.05,0.6c-0.23,0.06-0.37,0.3-0.31,0.53c0,0.01,0.01,0.03,0.01,0.04c0.09,0.26,0.37,0.39,0.62,0.3c0,0,0,0,0,0
		l2.86-1.36l0,0l-2.59,1.39c-0.17,0.14-0.2,0.4-0.05,0.58c0.02,0.02,0.03,0.04,0.05,0.05c0.18,0.18,0.47,0.18,0.65,0l2.07-1.99l0,0
		l0,0l-2.01,2.12c-0.17,0.14-0.2,0.4-0.05,0.58c0.02,0.02,0.03,0.04,0.05,0.05c0.18,0.18,0.47,0.18,0.65,0l1.33-2.56l0,0l0,0
		l-1.36,2.72c-0.09,0.24,0.04,0.51,0.28,0.59c0.01,0,0.01,0,0.02,0.01c0.26,0.09,0.53-0.05,0.62-0.31c0-0.01,0-0.01,0.01-0.02
		l0.54-3.05c0.03,0.05,0.03,0.11,0,0.16l-0.54,3.35c-0.02,0.36,0.26,0.67,0.62,0.68c0,0,0,0,0,0c0.35,0.02,0.64-0.25,0.65-0.6
		c0-0.02,0-0.04,0-0.06l-0.54-3.4l0,0l0.57,3.05c0.06,0.25,0.31,0.4,0.56,0.34c0.01,0,0.03-0.01,0.04-0.01
		c0.26-0.09,0.39-0.37,0.3-0.62c0,0,0,0,0,0l-1.36-2.72l0,0l0,0l1.36,2.59c0.14,0.17,0.4,0.2,0.58,0.05
		c0.02-0.02,0.04-0.03,0.05-0.05c0.18-0.18,0.18-0.47,0-0.65l-1.99-2.07l0,0l0,0l2.12,2.01c0.15,0.17,0.41,0.18,0.58,0.02
		c0.01-0.01,0.01-0.01,0.02-0.02c0.18-0.18,0.18-0.47,0-0.65l-2.53-1.31l0,0l0,0l2.86,1.39c0.24,0.08,0.5-0.05,0.59-0.29
		c0-0.01,0.01-0.03,0.01-0.04c0.08-0.24-0.05-0.5-0.29-0.59c-0.01,0-0.03-0.01-0.04-0.01l-3.08-0.57h0.19l3.32,0.54
		c0.34,0.03,0.65-0.22,0.68-0.57c0-0.02,0-0.04,0-0.06c0.16-0.76-0.14-1.03-0.49-0.95L102.49,34.98z M102.6,35.28L102.6,35.28
		c0,0,0.05,0.22,0,0.22L102.6,35.28z"/>
	<path class="st0" d="M20.17,34.76l-3.4,0.54h-0.14l3.05-0.57c0.26-0.08,0.41-0.35,0.33-0.61c0-0.01,0-0.01-0.01-0.02
		c-0.05-0.23-0.29-0.38-0.52-0.32c-0.03,0.01-0.05,0.01-0.08,0.03l-2.72,1.36l0,0l0,0l2.53-1.33c0.18-0.18,0.18-0.47,0-0.65
		c-0.17-0.17-0.44-0.18-0.62-0.01c0,0-0.01,0.01-0.01,0.01l-2.12,2.01l0,0l0,0l1.99-2.07c0.18-0.18,0.18-0.47,0-0.65
		c-0.14-0.17-0.4-0.2-0.58-0.05c-0.02,0.02-0.04,0.03-0.05,0.05l-1.39,2.59l0,0l0,0l1.2-2.83c0.09-0.25-0.03-0.53-0.27-0.63
		c-0.24-0.08-0.5,0.05-0.59,0.29c0,0.01-0.01,0.03-0.01,0.04l-0.57,3.02v-0.14l0.54-3.35c0-0.35-0.28-0.63-0.62-0.63
		c-0.35,0-0.63,0.28-0.63,0.62c0,0,0,0.01,0,0.01l0.54,3.4v0.08l-0.57-3.08c-0.09-0.26-0.37-0.39-0.62-0.3c0,0,0,0,0,0
		c-0.23,0.05-0.38,0.29-0.32,0.52c0.01,0.03,0.01,0.05,0.03,0.08l1.36,2.86l0,0l0,0l-1.33-2.53c-0.18-0.18-0.47-0.18-0.65,0
		c-0.17,0.17-0.18,0.44-0.01,0.62c0,0,0.01,0.01,0.01,0.01l2.01,2.1l0,0l0,0l-2.07-1.99c-0.18-0.18-0.47-0.18-0.65,0
		c-0.17,0.14-0.2,0.4-0.05,0.58c0.02,0.02,0.03,0.04,0.05,0.05l2.59,1.39l0,0l-2.72-1.36c-0.23-0.1-0.51,0-0.61,0.23
		c-0.01,0.01-0.01,0.03-0.02,0.04c-0.08,0.24,0.05,0.5,0.29,0.59c0.01,0,0.03,0.01,0.04,0.01l3.08,0.6h-0.16l-3.48-0.63
		c-0.36-0.02-0.67,0.26-0.68,0.62c0,0,0,0,0,0c-0.02,0.35,0.25,0.64,0.6,0.65c0.02,0,0.04,0,0.06,0l3.4-0.54l0,0l-3.02,0.6
		c-0.24,0.05-0.39,0.28-0.34,0.51c0,0.02,0.01,0.04,0.02,0.06c0.09,0.26,0.37,0.39,0.62,0.3c0,0,0,0,0,0l2.72-1.36l0,0l-2.59,1.39
		c-0.17,0.14-0.2,0.4-0.05,0.58c0.02,0.02,0.03,0.04,0.05,0.05c0.18,0.18,0.47,0.18,0.65,0l2.07-1.99l0,0l0,0l-2.01,2.12
		c-0.17,0.17-0.18,0.44-0.01,0.62c0,0,0.01,0.01,0.01,0.01c0.18,0.18,0.47,0.18,0.65,0l1.33-2.56l0,0l0,0l-1.36,2.72
		c-0.09,0.24,0.04,0.51,0.28,0.59c0.01,0,0.01,0,0.02,0.01c0.26,0.09,0.53-0.05,0.62-0.31c0-0.01,0-0.01,0.01-0.02l0.57-3.05v0.16
		l-0.57,3.35c-0.02,0.36,0.26,0.67,0.62,0.68c0,0,0,0,0,0c0.35,0.02,0.64-0.25,0.65-0.6c0-0.02,0-0.04,0-0.06l-0.54-3.4l0,0
		l0.6,3.05c0.06,0.25,0.31,0.4,0.56,0.34c0.01,0,0.03-0.01,0.04-0.01c0.25-0.1,0.37-0.38,0.27-0.63l-1.36-2.72l0,0l0,0l1.39,2.59
		c0.14,0.17,0.4,0.2,0.58,0.05c0.02-0.02,0.04-0.03,0.05-0.05c0.18-0.18,0.18-0.47,0-0.65l-1.99-2.07l0,0l0,0l2.12,2.01
		c0.17,0.17,0.44,0.18,0.62,0.01c0,0,0.01-0.01,0.01-0.01c0.18-0.18,0.18-0.47,0-0.65l-2.53-1.31l0,0l0,0l2.72,1.39
		c0.22,0.09,0.48-0.01,0.57-0.23c0.01-0.03,0.02-0.06,0.03-0.1c0.08-0.24-0.05-0.5-0.29-0.59c-0.01,0-0.03-0.01-0.04-0.01
		l-3.05-0.57h0.16l3.35,0.54c0.36,0.02,0.67-0.26,0.68-0.62c0,0,0,0,0,0C20.82,34.95,20.53,34.68,20.17,34.76z"/>
	<path class="st0" d="M39.42,30.49c-0.15,0.07-0.3,0.12-0.46,0.14c-0.38,0.02-0.66,0.34-0.64,0.71c0.02,0.38,0.34,0.66,0.71,0.64
		c0.08,0,0.16-0.02,0.23-0.05c0.77-0.52,1.49-1.12,2.15-1.77c0.37,0.04,0.75,0.04,1.12,0c0.24,0,0.48-0.06,0.68-0.19
		c0.13-0.17,0.13-0.4,0-0.57c0-0.19-0.27-0.22-0.49-0.35l0.82-0.6c0.14-0.11,0.24-0.26,0.27-0.44c-0.02-0.29-0.26-0.5-0.55-0.49
		c-0.09,0.01-0.17,0.03-0.24,0.08l-1.39,0.9l0,0c-0.41-0.16-1.09,0-1.25,0.38c-0.12,0.24-0.06,0.53,0.14,0.71l-0.24,0.22
		C40,30.06,39.72,30.29,39.42,30.49z"/>
	<path class="st0" d="M50.31,29.32c-0.33,0-0.76,0.33-0.73,0.71c0.03,0.38,0,0,0,0.19c0.06,0.26,0.3,0.44,0.57,0.44
		c0.59-0.08,1.15-0.3,1.63-0.65l0.33-0.19l0.33-0.19c0.4-0.23,0.77-0.53,1.09-0.87c0.54-0.76,0-1.47-0.71-1.69
		c-0.64-0.07-1.29-0.01-1.91,0.19c-0.34,0.19-0.47,0.62-0.28,0.96c0.03,0.06,0.07,0.11,0.12,0.15c0.08,0.08,0.19,0.13,0.3,0.14
		c0.41,0,0.71-0.24,1.23-0.22l0,0C51.74,28.82,51.05,29.18,50.31,29.32z"/>
	<path class="st0" d="M45.84,30.95c0.58,0.02,1.15-0.08,1.69-0.3c0.71-0.27,1.17-1.14,0.65-1.63l-0.24-0.19
		c0-0.14,0.76-0.38,0.87-0.46c0.21-0.13,0.31-0.39,0.22-0.63c-0.02-0.21-0.16-0.39-0.35-0.46c-0.4-0.04-0.8,0.07-1.12,0.33
		c-0.33,0.22-0.9,0.63-1.01,1.01c-0.04,0.19,0.01,0.39,0.14,0.54c0.09,0.1,0.19,0.18,0.3,0.24l0,0c-0.71,0.38-0.79,0-1.33,0.14
		c-0.13,0.03-0.25,0.08-0.35,0.16c-0.29,0.19-0.36,0.58-0.16,0.87c0.04,0.06,0.1,0.12,0.16,0.16L45.84,30.95z"/>
	<polygon class="st0" points="38.46,30.95 38.46,30.95 38.46,30.98 38.46,30.95 38.46,30.95 	"/>
	<path class="st0" d="M42.47,25.72L42.47,25.72c0.27-0.3,0.57-0.44,0.79-0.79c0.12-0.32-0.04-0.68-0.36-0.81
		c-0.09-0.03-0.19-0.05-0.29-0.04h-0.16c-0.28,0.18-0.53,0.41-0.73,0.68c-0.29,0.34-0.51,0.74-0.63,1.17
		c-0.06,0.3,0.03,0.6,0.24,0.82l0.22,0.19c0.46,0.24,1.58,0.27,1.85-0.33c0.07-0.18,0.07-0.39,0-0.57
		c-0.09-0.21-0.32-0.33-0.54-0.27c0,0-0.44,0.19-0.52,0l0,0L42.47,25.72z"/>
	<polygon class="st0" points="34.05,28.91 33.18,30.46 33.37,30.43 33.7,30.35 34.52,29.48 35.09,30.03 35.58,29.92 34.9,28.72 	"/>
	<path class="st0" d="M30.22,32.69c0.01,0.31,0.22,0.59,0.52,0.68c0.49,0.16,1.42-0.98,1.66-1.39c1.1,0,2.2-0.13,3.27-0.38l0,0h0.24
		h0.35c0.79-0.3,1.5-0.6,1.77-1.44c0.12-0.34-0.06-0.71-0.4-0.83c-0.06-0.02-0.13-0.04-0.2-0.04c-0.41,0-0.46,0.14-0.65,0.41
		c-0.2,0.32-0.49,0.57-0.84,0.71c-1.17,0.46-2.42,0.69-3.67,0.68c-0.25-0.33-0.68-0.49-1.09-0.41c-0.38,0.04-0.72,0.25-0.93,0.57
		c-0.19,0.37-0.08,0.81,0.24,1.06l0,0C30.36,32.41,30.27,32.54,30.22,32.69z"/>
	<path class="st0" d="M33.97,25.86c-0.61,0.65-1.32,1.2-2.1,1.63c-0.44,0.33,0,1.09,0.44,1.09c0.1,0.03,0.2,0.03,0.3,0
		c0.34-0.2,0.65-0.43,0.93-0.71l0.76-0.63L34.57,27l0.3-0.27c0.23-0.21,0.25-0.57,0.04-0.81c-0.01-0.01-0.02-0.02-0.04-0.04
		C34.63,25.48,34.27,25.59,33.97,25.86z"/>
	<path class="st0" d="M25.1,35.66c0.28-0.29,0.53-0.6,0.76-0.93c0.06-0.08,0.12-0.16,0.16-0.24c0.15-0.24,0.28-0.5,0.38-0.76
		l0.52-0.22c0.14,0.28,0.45,0.44,0.76,0.38c0.75-0.21,1.36-0.76,1.63-1.5c0.01-0.08,0.01-0.16,0-0.24
		c-0.01-0.36-0.31-0.64-0.68-0.63c-0.09,0-0.17,0.02-0.25,0.06c-0.3,0.14-0.19,0.41-0.33,0.63c-0.09,0.13-0.2,0.24-0.33,0.33
		c0-0.24-0.41-0.65-0.73-0.54c-0.33,0.11-0.41,0.41-0.71,0.6h-0.22c-0.28-0.09-0.58-0.02-0.79,0.19c-0.32,0.26-0.4,0.71-0.19,1.06
		c-0.26,0.46-0.59,0.87-0.98,1.22h-0.27c-0.38,0.12-0.6,0.52-0.49,0.9c0.11,0.27,0.38,0.45,0.68,0.44
		C24.45,36.37,24.88,35.91,25.1,35.66z"/>
	<path class="st0" d="M26.57,31.14c0.39-0.12,0.73-0.37,0.95-0.71c0.38-0.49,0.43-1.17,0.14-1.71c-0.29-0.46-0.83-0.69-1.36-0.57
		C24.09,28.61,24.42,31.93,26.57,31.14z M26.57,29.32c0.16,0.22-0.27,0.84-0.6,0.73c-0.33-0.11,0.16-0.84,0.41-0.84
		c0.1-0.02,0.21,0.02,0.27,0.11H26.57z"/>
	<path class="st0" d="M94.05,27.44c-1.27-0.04-2.48,0.5-3.29,1.47c-0.35,0.42-0.35,1.03,0,1.44c0.33,0.44,1.25,0.9,1.66,0.44
		c0.07-0.05,0.12-0.13,0.14-0.22c0.09-0.29-0.06-0.59-0.35-0.69c-0.08-0.03-0.17-0.03-0.25-0.02c-0.27,0-0.33,0-0.27-0.24
		c0.51-0.58,1.22-0.94,1.99-1.01h0.41c0.14,0,0,0.19,0,0.27c0,0.08-1.17,0.27-1.36,0.54c-0.11,0.18-0.11,0.4,0,0.57
		c0.12,0.22,0.35,0.35,0.6,0.33c0.39-0.04,0.77-0.15,1.12-0.33c0.26-0.09,0.49-0.25,0.65-0.46c0.29-0.33,0.39-0.78,0.27-1.2
		C95.14,27.8,94.63,27.45,94.05,27.44z"/>
	<path class="st0" d="M82.13,33.56c0.16,0.3,0.44,0.33,0.76,0.3h0.44c0.66-0.2,1.3-0.43,1.93-0.71l2.72-0.95
		c0.32-0.1,0.49-0.44,0.39-0.75c-0.01-0.03-0.02-0.06-0.04-0.09c-0.14-0.54-0.76-0.35-1.14-0.3l0,0l0,0c0.03-0.09,0.03-0.18,0-0.27
		c0.04-0.12,0.04-0.26,0-0.38c-0.16-0.27-0.51-0.36-0.78-0.19c0,0,0,0,0,0c-0.21,0.08-0.39,0.22-0.52,0.41
		c-0.41,0.3-0.9,0-1.28,0.38c-0.19,0.21-0.18,0.54,0.03,0.73c0.04,0.03,0.08,0.06,0.13,0.09c0.21,0.08,0.43,0.13,0.65,0.16
		c-0.69,0.39-1.45,0.64-2.23,0.73C82.35,32.23,81.78,32.99,82.13,33.56z"/>
	<path class="st0" d="M72.22,30.82c-0.08,0.4,0.19,0.78,0.59,0.86c0.04,0.01,0.08,0.01,0.12,0.01c1.54-0.29,3.01-0.85,4.36-1.66
		c0.13-0.15,0.21-0.33,0.24-0.52c0.22-0.87-0.84-1.39-1.55-1.42c-0.71-0.03-1.69,0.3-1.88,1.12c-0.08,0.21-0.08,0.44,0,0.65v0.16
		l-0.84,0.24c-0.24,0-0.35,0-0.57,0C72.45,30.37,72.28,30.57,72.22,30.82z M75.65,29.15c0.3,0,0.38,0,0.38,0.14
		c0,0.14,0,0.19,0,0.24h-0.19c-0.08,0.06-0.19,0.06-0.27,0l0,0C75.49,29.41,75.52,29.24,75.65,29.15
		C75.65,29.16,75.65,29.16,75.65,29.15z"/>
	<path class="st0" d="M78.89,30.22l0.33,0.14c-0.3,0.12-0.59,0.29-0.84,0.49c-0.27,0.27,0,0.76,0.16,0.9
		c0.29,0.18,0.6,0.32,0.93,0.44c0.54,0.21,1.11,0.34,1.69,0.38c0.17-0.01,0.32-0.1,0.41-0.24c0.17-0.24,0.17-0.57,0-0.82
		c-0.35-0.35-0.57,0-1.31-0.35l0,0c0.3-0.13,0.57-0.3,0.82-0.52c0.05-0.11,0.05-0.24,0-0.35c0-0.41-0.46-0.57-0.87-0.76
		c0.27-0.16,0.38-0.24,0.38-0.57c-0.05-0.36-0.39-0.6-0.74-0.55c-0.04,0.01-0.09,0.02-0.13,0.03l0,0c-0.35,0.2-0.69,0.43-1.01,0.68
		C78.18,29.51,78.37,30,78.89,30.22z"/>
	<path class="st0" d="M58.94,27.82c0-0.79-0.35-1.39-1.14-1.03c-0.79,0.35-1.88,1.22-2.97,1.69l0,0c-0.49,0.16-0.54,1.33,0.24,1.33
		c0.19-0.01,0.37-0.06,0.54-0.14c0.44-0.22,0.76-0.6,1.36-0.95l0.9-0.63c-0.1,0.28-0.29,0.52-0.54,0.68
		c-0.09,0.06-0.17,0.15-0.22,0.24c-0.13,0.32,0.02,0.69,0.34,0.82c0.19,0.08,0.42,0.06,0.59-0.06c0.26-0.15,0.48-0.37,0.63-0.63
		C58.85,28.74,58.95,28.28,58.94,27.82z"/>
	<path class="st0" d="M39.12,27.55c0.07,0.07,0.15,0.13,0.24,0.16c0.46,0.22,1.58,0.14,1.8-0.52c0.06-0.18,0.06-0.37,0-0.54
		c-0.12-0.19-0.35-0.28-0.57-0.22c0,0-0.41,0.24-0.52,0.16l0,0v-0.14l0,0c0.27-0.33,0.54-0.46,0.73-0.87
		c0.1-0.32-0.08-0.65-0.39-0.75c-0.1-0.03-0.21-0.04-0.32-0.01h-0.16c-0.26,0.22-0.49,0.48-0.68,0.76c-0.26,0.36-0.44,0.76-0.52,1.2
		C38.73,27.09,38.87,27.37,39.12,27.55z"/>
	<path class="st0" d="M48.1,23.6c-2.2-0.3-2.99,2.97-0.71,2.91c0.41,0.01,0.81-0.12,1.14-0.35c0.52-0.35,0.79-0.96,0.68-1.58
		C49.09,24.05,48.64,23.66,48.1,23.6z M47.28,25.32c-0.35-0.24,0.41-0.73,0.65-0.68c0.06,0.04,0.11,0.1,0.14,0.16
		C48.16,25.07,47.58,25.51,47.28,25.32z"/>
	<path class="st0" d="M52.18,31.41c-0.68,0.58-1.46,1.04-2.29,1.36c-0.26,0.25-0.27,0.66-0.03,0.92c0.09,0.1,0.22,0.17,0.35,0.19
		h0.3c0.36-0.15,0.69-0.35,1.01-0.57l0.82-0.54l0.33-0.22l0.35-0.33c0.26-0.19,0.32-0.55,0.14-0.82
		C52.87,31.11,52.51,31.2,52.18,31.41z"/>
	<path class="st0" d="M56.98,31.2c-0.69,0.57-1.46,1.02-2.29,1.36c-0.46,0.27-0.19,1.09,0.3,1.14h0.3c0.36-0.15,0.7-0.34,1.01-0.57
		l0.82-0.54l0.33-0.22l0.33-0.22c0.26-0.18,0.33-0.53,0.15-0.79c-0.01-0.01-0.01-0.02-0.02-0.02C57.66,30.9,57.28,30.98,56.98,31.2z
		"/>
	<path class="st0" d="M64.11,28.75c-0.09,0.29,0.03,0.61,0.3,0.76c0.41,0.33,1.63-0.54,1.99-0.87c1.06,0.29,2.14,0.45,3.24,0.49
		h0.71c0.81,0.06,1.6-0.27,2.12-0.9c0.21-0.29,0.15-0.7-0.14-0.91c-0.06-0.04-0.12-0.07-0.18-0.09c-0.38-0.14-0.49,0-0.76,0.22
		c-0.28,0.26-0.63,0.43-1.01,0.49c-1.24,0.11-2.5,0-3.7-0.33c-0.12-0.41-0.5-0.69-0.93-0.68c-0.38-0.06-0.76,0.04-1.06,0.27
		c-0.26,0.33-0.26,0.79,0,1.12l0,0C64.41,28.39,64.19,28.47,64.11,28.75z"/>
	<path class="st0" d="M68.76,26.13c0.41,0.01,0.81-0.11,1.14-0.35c0.52-0.35,0.79-0.96,0.68-1.58c-0.12-0.52-0.56-0.91-1.09-0.98
		C67.27,22.92,66.64,26.19,68.76,26.13z M68.76,24.94c-0.33-0.24,0.41-0.73,0.65-0.65c0.24,0.08,0,0,0,0.14s-0.52,0.71-0.76,0.52
		L68.76,24.94z"/>
	<path class="st0" d="M78.62,24.83c-0.13-0.52-0.56-0.91-1.09-0.98c-2.23-0.27-2.99,2.97-0.73,2.94c0.41,0,0.81-0.12,1.14-0.35
		C78.45,26.07,78.72,25.45,78.62,24.83z M76.68,25.59c-0.33-0.27,0.41-0.76,0.65-0.68c0.08,0.01,0.14,0.08,0.14,0.16
		C77.53,25.32,76.93,25.78,76.68,25.59z"/>
	<path class="st0" d="M77.53,35.39c0.38-0.08,0.74-0.2,1.09-0.35l0.9-0.38l0.35-0.16l0.38-0.14c0.29-0.15,0.41-0.5,0.27-0.79
		c-0.16-0.46-0.54-0.46-0.9-0.3c-0.78,0.44-1.62,0.76-2.5,0.93c-0.49,0.19-0.38,1.03,0,1.17C77.25,35.43,77.39,35.44,77.53,35.39z"
		/>
	<path class="st0" d="M88.12,26c-2.23-0.27-2.99,2.97-0.73,2.94c0.41,0,0.8-0.13,1.14-0.35c0.52-0.35,0.79-0.98,0.68-1.61
		C89.08,26.46,88.65,26.07,88.12,26z M87.27,27.74c-0.33-0.27,0.41-0.76,0.65-0.68c0.07,0.03,0.11,0.09,0.14,0.16
		C88.15,27.47,87.52,27.93,87.27,27.74L87.27,27.74z"/>
	<path class="st0" d="M88.8,33.32c-0.36-0.15-0.78-0.01-0.98,0.33c0,0.06,0,0.13,0,0.19c-0.06,0.25,0.06,0.52,0.3,0.63
		c0.58,0.15,1.19,0.15,1.77,0h0.38h0.38c0.47-0.04,0.93-0.15,1.36-0.33c0.82-0.46,0.71-1.25,0-1.8c-0.54-0.36-1.15-0.59-1.8-0.65
		c-0.39,0.03-0.69,0.36-0.66,0.75c0,0.06,0.02,0.12,0.03,0.17c0.04,0.11,0.12,0.21,0.22,0.27c0.35,0.16,0.73,0,1.17,0.3l0,0
		C90.28,33.45,89.52,33.5,88.8,33.32z"/>
	<path class="st0" d="M47.97,14.97c-0.28,0.04-0.55-0.06-0.73-0.27c-0.15-0.17-0.24-0.38-0.27-0.6l-1.55,0.24
		c0.07,0.52,0.32,1.01,0.71,1.36c0.57,0.39,1.26,0.52,1.93,0.38c0.44-0.02,0.88-0.13,1.28-0.33c0.32-0.18,0.56-0.46,0.71-0.79
		c0.17-0.32,0.24-0.68,0.22-1.03c-0.03-0.29-0.13-0.57-0.3-0.82c-0.18-0.26-0.44-0.46-0.73-0.57c-0.51-0.19-1.04-0.32-1.58-0.38
		c-0.2,0-0.4-0.05-0.57-0.16c-0.08-0.05-0.14-0.12-0.16-0.22c-0.02-0.13,0.04-0.25,0.14-0.33c0.13-0.16,0.34-0.23,0.54-0.19
		c0.19-0.06,0.39-0.06,0.57,0c0.16,0.14,0.26,0.33,0.3,0.54l1.55-0.24c-0.07-0.5-0.35-0.94-0.76-1.22
		c-0.48-0.26-1.04-0.36-1.58-0.27c-0.45,0.03-0.9,0.14-1.31,0.33c-0.28,0.16-0.5,0.4-0.65,0.68c-0.14,0.27-0.19,0.57-0.16,0.87
		c0.02,0.41,0.22,0.79,0.54,1.03c0.49,0.33,1.05,0.52,1.63,0.57c0.31,0.01,0.6,0.1,0.87,0.24c0.11,0.1,0.18,0.24,0.22,0.38
		c0,0.16-0.06,0.31-0.16,0.44C48.5,14.85,48.24,14.99,47.97,14.97z"/>
	
		<rect x="53.66" y="9.82" transform="matrix(0.9986 -0.0523 0.0523 0.9986 -0.5888 2.8694)" class="st1" width="1.66" height="5.72"/>
	<polygon class="st0" points="56.76,9.66 56.65,15.38 58.01,15.41 58.09,11.02 59.04,15.41 60.27,15.43 61.39,11.08 61.33,15.46 
		62.67,15.49 62.77,9.75 60.6,9.72 59.7,13.18 58.94,9.69 	"/>
	<path class="st0" d="M81.8,15.19h0.14c0.14,0.02,0.28,0.09,0.38,0.19c0.11,0.14,0.2,0.31,0.24,0.49l0.6,1.88l1.85,0.3l-0.54-1.77
		c-0.04-0.14-0.1-0.28-0.16-0.41l-0.22-0.33l-0.41-0.27c0.21,0.04,0.42,0.04,0.63,0c0.23-0.11,0.44-0.27,0.6-0.46
		c0.17-0.23,0.28-0.5,0.33-0.79c0.08-0.31,0.08-0.64,0-0.95c-0.12-0.26-0.32-0.48-0.57-0.63c-0.36-0.17-0.75-0.28-1.14-0.33
		l-2.72-0.41l-0.9,5.63l1.66,0.27L81.8,15.19z M82.16,12.96l0.82,0.22c0.22,0.02,0.43,0.11,0.6,0.24c0.06,0.15,0.06,0.31,0,0.46
		c-0.01,0.23-0.2,0.42-0.44,0.44H82.7h-0.71L82.16,12.96z"/>
	
		<rect x="94.72" y="17.79" transform="matrix(0.309 -0.9511 0.9511 0.309 49.723 105.6702)" class="st1" width="5.72" height="1.66"/>
	<polygon class="st0" points="91.93,19.87 93.51,20.33 94.71,16.2 96.31,16.66 96.72,15.3 91.87,13.91 91.49,15.27 93.1,15.73 	"/>
	<path class="st0" d="M87.38,17.64l1.85,0.44v0.98l1.69,0.38l-0.65-6.02l-1.85-0.41l-3.24,5.12l1.63,0.38L87.38,17.64z M89.04,14.65
		v2.15l-1.17-0.27L89.04,14.65z"/>
	<path class="st0" d="M99.14,20.88c0.06,0.47,0.26,0.9,0.57,1.25c0.36,0.37,0.81,0.64,1.31,0.79c0.48,0.21,1.01,0.27,1.52,0.19
		c0.45-0.08,0.87-0.3,1.2-0.63c0.39-0.41,0.69-0.9,0.87-1.44c0.28-0.73,0.28-1.53,0-2.26c-0.33-0.7-0.95-1.22-1.69-1.44
		c-0.69-0.3-1.48-0.3-2.18,0c-0.69,0.4-1.2,1.04-1.44,1.8C99.1,19.69,99.05,20.29,99.14,20.88z M100.94,19.76
		c0.11-0.42,0.36-0.8,0.71-1.06c0.27-0.16,0.6-0.16,0.87,0c0.3,0.09,0.55,0.33,0.65,0.63c0.14,0.39,0.14,0.81,0,1.2
		c-0.11,0.46-0.37,0.87-0.73,1.17c-0.28,0.15-0.62,0.15-0.9,0c-0.3-0.09-0.55-0.33-0.65-0.63
		C100.76,20.64,100.78,20.18,100.94,19.76z"/>
	<path class="st0" d="M74.81,16.2c0.44,0.3,0.96,0.48,1.5,0.52c0.45,0.08,0.91,0.08,1.36,0c0.48-0.13,0.95-0.31,1.39-0.54l0.27-2.42
		l-2.53-0.33l-0.14,1.2l1.09,0.14v0.52c-0.19,0.1-0.39,0.17-0.6,0.22c-0.18,0.04-0.37,0.04-0.54,0c-0.35-0.03-0.67-0.22-0.87-0.52
		c-0.18-0.42-0.24-0.88-0.16-1.33c0.03-0.46,0.2-0.9,0.49-1.25c0.24-0.23,0.57-0.33,0.9-0.27c0.21,0.01,0.42,0.1,0.57,0.24
		c0.16,0.13,0.26,0.31,0.27,0.52h1.63c-0.04-0.34-0.15-0.66-0.33-0.95c-0.16-0.26-0.39-0.48-0.65-0.63
		c-0.42-0.17-0.86-0.28-1.31-0.33c-0.48-0.12-0.99-0.12-1.47,0c-0.48,0.18-0.9,0.5-1.2,0.93c-0.31,0.47-0.49,1.02-0.54,1.58
		c-0.08,0.54-0.04,1.09,0.14,1.61C74.2,15.52,74.46,15.9,74.81,16.2z"/>
	<polygon class="st0" points="65.28,11.27 66.1,15.68 67.32,15.73 68.6,11.43 68.38,15.79 69.72,15.87 70.02,10.15 67.86,10.04 
		66.83,13.47 66.18,9.96 64,9.83 63.7,15.54 65.06,15.63 	"/>
	
		<rect x="69.11" y="12.37" transform="matrix(0.0873 -0.9962 0.9962 0.0873 52.5356 83.7436)" class="st1" width="5.72" height="1.66"/>
	<polygon class="st0" points="105.89,24.83 107.12,21.94 107.74,25.62 109.16,26.21 111.39,20.96 109.98,20.33 108.72,23.25 
		108.1,19.55 106.68,18.95 104.45,24.2 	"/>
	<polygon class="st0" points="25.15,18.86 22.7,19.65 21.37,15.54 19.79,16.06 21.56,21.51 25.59,20.2 	"/>
	<path class="st0" d="M28.66,19.35c0.32-0.1,0.63-0.24,0.93-0.41c0.24-0.15,0.45-0.35,0.6-0.6c0.17-0.29,0.28-0.62,0.33-0.95
		c0.04-0.49-0.01-0.98-0.16-1.44c-0.08-0.36-0.21-0.71-0.38-1.03c-0.15-0.31-0.36-0.58-0.63-0.79c-0.23-0.2-0.51-0.34-0.82-0.41
		c-0.39-0.1-0.81-0.1-1.2,0l-2.4,0.6l1.39,5.44L28.66,19.35z M27.22,15.14c0.3-0.13,0.65-0.13,0.95,0c0.31,0.31,0.52,0.71,0.57,1.14
		c0.1,0.33,0.14,0.67,0.14,1.01c-0.01,0.19-0.1,0.37-0.24,0.49c-0.2,0.15-0.43,0.25-0.68,0.3h-0.38l-0.76-3.02L27.22,15.14z"/>
	<polygon class="st0" points="38.03,17.31 39.09,11.35 37.43,11.62 36.89,15.87 35.06,12 33.35,12.28 36.26,17.61 	"/>
	<polygon class="st0" points="45,16.33 44.83,15.05 42,15.41 41.87,14.29 44.43,13.96 44.29,12.82 41.73,13.12 41.62,12.22 
		44.37,11.9 44.21,10.67 39.83,11.22 40.51,16.9 	"/>
	
		<rect x="31.45" y="12.67" transform="matrix(0.9816 -0.1908 0.1908 0.9816 -2.3701 6.4439)" class="st1" width="1.66" height="5.72"/>
	<path class="st0" d="M15.46,17.61v6.07l1.58-0.6v-0.95l1.77-0.65l0.57,0.79l1.61-0.6l-3.84-4.68L15.46,17.61z M16.93,20.82
		l-0.14-2.2l1.25,1.71L16.93,20.82z"/>
	<polygon class="st0" points="11.73,25.32 12.88,24.85 12.14,20.42 13.83,24.45 15.08,23.9 12.85,18.65 10.83,19.49 11.43,23.03 
		9.31,20.14 7.3,20.99 9.53,26.27 10.78,25.75 9.09,21.72 	"/>
	<path class="st0" d="M62.18,47.18c-0.19,0.22,0,1.17,0,1.33c-0.23-0.21-0.38-0.49-0.44-0.79c-0.24,0.3,0,0.79,0,1.12
		c0,0.33-0.35-0.35-0.46-0.79c-0.09,0.4-0.09,0.82,0,1.22c-0.19-0.25-0.34-0.53-0.46-0.82c-0.22,0.41,0,0.95,0,1.25
		c-0.24-0.18-0.43-0.41-0.54-0.68c-0.09,0.46,0.01,0.94,0.27,1.33c-0.22,0-0.46-0.54-0.52-0.54c0.01,0.45,0.13,0.89,0.35,1.28
		c-0.28-0.2-0.51-0.46-0.68-0.76c0,0.3,0.44,1.25,0.38,1.44c-0.19-0.35-0.41-0.69-0.65-1.01c-0.02,0.51-0.09,1.02-0.19,1.52
		c-0.01-0.45-0.07-0.9-0.16-1.33c-0.14,0.24-0.14,0.63-0.35,0.87c0-0.33,0-0.87,0-1.28c-0.18,0.24-0.35,0.49-0.49,0.76
		c0-0.35,0.3-1.06,0.24-1.2c-0.16,0.27-0.3,0.6-0.35,0.57c0.12-0.35,0.17-0.72,0.14-1.09c-0.16,0.19-0.27,0.49-0.52,0.63
		c-0.24,0.14,0.33-0.98,0.16-1.28c0,0.24-0.14,0.3-0.49,0.65c0.14-0.35,0.38-1.03,0.16-1.36c-0.07,0.3-0.22,0.57-0.44,0.79
		c0.14-0.42,0.14-0.86,0-1.28c-0.03,0.26-0.15,0.49-0.33,0.68c0.12-0.38,0.12-0.79,0-1.17c0,0.23-0.06,0.46-0.19,0.65
		c0.01-0.37-0.04-0.73-0.14-1.09c-0.04,0.23-0.11,0.45-0.22,0.65c0-0.16,0-0.93-0.19-1.01c-0.19-0.08,0,0.54,0,0.71
		c-0.13-0.3-0.3-0.58-0.49-0.84c0,0,0.19,0.54,0.19,0.73c0,0.19-0.44-0.68-0.52-0.65c-0.08,0.03,0.27,0.52,0.3,0.71
		c0.03,0.19-0.46-0.46-0.6-0.44c0.08,0.12,0.17,0.24,0.27,0.35c0,0,0.44,0.41,0.38,0.38c-0.21-0.1-0.43-0.19-0.65-0.27
		c0,0,0.79,0.6,0.82,0.65c-0.26-0.1-0.52-0.18-0.79-0.24c0,0.14,0.68,0.41,1.01,0.68c0.33,0.27-0.52-0.16-0.9-0.24
		c0,0.35,0.95,0.68,1.14,0.79c0.19,0.11-0.76-0.16-0.9-0.24c0,0.41,0.79,0.71,0.98,0.73c0.19,0.03-0.65,0-0.87,0
		s0.76,0.54,0.95,0.54s-0.41,0-0.79,0c0,0.16,0.65,0.27,1.01,0.33c-0.27,0.09-0.56,0.14-0.84,0.16c0.16,0.22,1.01,0.19,1.23,0.46
		c-0.34-0.04-0.69-0.04-1.03,0c0,0.19,0.73,0,1.2,0.71c-0.26-0.2-0.59-0.3-0.93-0.27c0.37,0.31,0.71,0.65,1.01,1.03
		c-0.39-0.14-0.75-0.38-1.03-0.68c0.09,0.47,0.25,0.92,0.49,1.33c-0.52-0.14-0.73-1.28-0.73-1.47c-0.3,0.44,0,0.98-0.16,1.2
		s-0.05-1.33-0.33-1.33c0.01,0.37-0.05,0.74-0.19,1.09c-0.04-0.44-0.19-0.86-0.44-1.22c0,0,0,0.65,0,0.71
		c-0.02-0.46-0.2-0.89-0.52-1.22c0.07,0.28,0.07,0.57,0,0.84c0-0.27-0.22-0.84-0.63-1.03c0.05,0.29,0.05,0.58,0,0.87
		c-0.41-0.33-0.27-0.57-0.76-0.93c0,0,0.14,0.93,0,0.87c-0.14-0.05-0.27-0.79-0.65-0.9c0.05,0.22,0.05,0.46,0,0.68
		c-0.16,0-0.38-0.6-0.65-0.68c-0.27-0.08,0,0.33,0.19,0.57c0.19,0.24-0.38-0.52-0.71-0.6c0,0.3,0.22,0.3,0.19,0.63
		c-0.18-0.26-0.45-0.45-0.76-0.52c0.11,0.14,0.19,0.31,0.22,0.49c-0.2-0.19-0.46-0.29-0.73-0.3c0.13,0.08,0.25,0.19,0.33,0.33
		c-0.23,0.03-0.46,0.12-0.65,0.24c0.19-0.01,0.38-0.01,0.57,0c0,0-0.22,0.16-0.22,0.35c0,0.19,0.68-0.35,0.79-0.3
		c0.11,0.05-0.35,0.22-0.35,0.41c0.29-0.17,0.62-0.24,0.95-0.22c-0.33,0-0.52,0.24-0.57,0.44c0.44-0.12,0.9-0.18,1.36-0.19
		c-0.38,0-0.73,0.27-0.73,0.38c0.41-0.06,0.82-0.06,1.23,0c-0.54,0.27-0.6,0.38-0.63,0.46c0.6-0.16,0.95-0.3,1.33-0.14
		c-0.29,0.08-0.55,0.23-0.76,0.44l1.14-0.16c0,0,0.19,0,0,0S53.3,53,53.46,53.03h0.76c0,0,0.27,0,0.16,0
		c-0.11,0-0.44,0.16-0.46,0.35c0.42-0.11,0.86-0.11,1.28,0c0,0-0.52,0-0.65,0.3c-0.14,0.3,1.14,0,1.25,0.24
		c-0.22,0.02-0.44,0.02-0.65,0c0.24,0.19,0.63,0.35,0.73,0.82c-0.54-0.27-0.79-0.76-0.93-0.73c0.07,0.33,0.07,0.68,0,1.01
		c-0.08-0.55-0.46-1-0.98-1.17c0.24,0.33,0.39,0.71,0.44,1.12c-0.57-0.63-0.68-1.2-1.28-1.17c0.27,0.29,0.46,0.65,0.54,1.03
		c0,0-0.79-1.06-1.01-0.98c-0.22,0.08,0.33,0.6,0.3,1.01c-0.24-0.46-0.35-0.76-0.87-0.95c0.19,0.29,0.29,0.63,0.27,0.98
		c-0.24-0.22-0.65-0.87-0.95-0.87c-0.3,0,0.46,0.68,0.38,0.98c-0.16-0.19-0.52-0.82-0.82-0.84c-0.3-0.03,0.35,0.57,0.41,0.9
		c0.05,0.33-0.52-0.6-1.06-0.63c0.19,0.21,0.34,0.45,0.44,0.71c-0.32-0.28-0.74-0.42-1.17-0.38c0.28,0.16,0.52,0.39,0.71,0.65
		c-0.35-0.16-0.71-0.49-1.2-0.35c0.16,0.14,0.6,0.38,0.65,0.52c-0.52-0.14-0.87-0.33-1.23-0.16c0.22,0.08,0.43,0.2,0.6,0.35
		c-0.29-0.18-0.66-0.18-0.95,0c0.35,0,0.6,0,0.65,0.14c0.05,0.14-0.52,0.19-0.6,0.46c0.16-0.13,0.36-0.21,0.57-0.22
		c-0.16,0.13-0.27,0.31-0.3,0.52c0.19-0.24,0.43-0.45,0.71-0.6c0,0.22-0.22,0.35-0.14,0.63c0.22-0.35,0.35-0.6,0.54-0.68
		c0.19-0.08-0.22,0.35-0.16,0.65c0.05,0.3,0.38-0.54,0.65-0.68c-0.14,0.27-0.27,0.38-0.19,0.76c0.44-0.52,0.41-0.54,0.68-0.84
		c-0.03,0.24-0.03,0.49,0,0.73c0.2-0.31,0.46-0.58,0.76-0.79c-0.12,0.23-0.2,0.48-0.24,0.73c0.22-0.29,0.49-0.55,0.79-0.76
		c0,0.19-0.14,0.33-0.19,0.73c0.27-0.26,0.53-0.55,0.76-0.84c-0.1,0.27-0.16,0.56-0.19,0.84c0.27-0.22,0.46-0.49,0.82-0.84
		c-0.09,0.26-0.09,0.55,0,0.82c0.27-0.27,0.38-0.71,0.84-0.84c-0.21,0.24-0.31,0.56-0.24,0.87c0-0.14,0.54-0.84,0.93-0.82
		c-0.27,0.35-0.44,0.49-0.38,0.84c0.22-0.35,0.73-0.9,0.98-0.84c-0.23,0.22-0.39,0.5-0.44,0.82c0.3-0.27,0.66-0.46,1.06-0.54
		c0,0.19-0.14,0.27-0.65,0.63c0.27,0,0.54,0.05,0.79,0.16c-0.19,0.19-0.98,0-1.66,0.3c0.44,0.16,0.68,0,0.93,0.38
		c-0.35,0-1.12-0.19-1.52,0c0,0,0.3,0.14,0.76,0.41c-0.24,0.16-0.9-0.24-1.69,0.16c0.39,0.05,0.76,0.18,1.09,0.38
		c0,0-1.23-0.22-1.72,0.16c0.46,0,0.84,0,1.12,0.38c-0.49-0.14-1.31-0.24-1.5,0c-0.19,0.24,0.71,0.27,0.76,0.44
		c-0.43-0.12-0.88-0.12-1.31,0c0.27,0.14,0.57,0,0.84,0.52c-0.49-0.14-0.87-0.3-1.31,0c0.33,0.01,0.64,0.15,0.84,0.41
		c-0.38,0-0.79-0.24-1.17,0c0.27,0,0.52,0,0.65,0.33c0.14,0.33-0.87,0-0.98,0.3c0.32-0.1,0.66-0.1,0.98,0
		c-0.42-0.04-0.85,0.06-1.2,0.3c0.63,0,0.87,0,0.98,0c-0.44-0.06-0.87,0.12-1.14,0.46c0.26-0.12,0.56-0.16,0.84-0.14
		c-0.54,0.27-0.79,0.41-0.93,0.82c0.25-0.17,0.52-0.28,0.82-0.33c-0.33,0.16-0.71,0.38-0.65,0.87c0.14-0.27,0.37-0.48,0.65-0.6
		c0,0.14-0.44,0.54-0.41,0.84c0.14-0.3,0.35-0.35,0.52-0.6s0,0.46,0,0.6c0.26-0.27,0.4-0.63,0.38-1.01
		c0.16,0.22,0.14,0.54,0.22,0.71s0-0.79,0.16-1.2c0.05,0.26,0.16,0.5,0.33,0.71c-0.06-0.39-0.06-0.78,0-1.17
		c0.01,0.31,0.11,0.62,0.3,0.87c-0.03-0.4-0.03-0.8,0-1.2c0,0.3,0.14,0.73,0.41,0.82c-0.04-0.43-0.04-0.87,0-1.31
		c0.11,0.29,0.2,0.59,0.27,0.9c0,0,0.19-0.38,0.3-1.5c0,0.35,0,0.54,0.19,1.06c0.16-0.45,0.23-0.93,0.22-1.42c0,0.35,0,0.79,0.3,0.9
		c0.3,0.11,0-1.25,0.16-1.31c-0.03,0.34,0.04,0.68,0.19,0.98c0-0.35,0-1.22,0.24-1.25c-0.08,0.31-0.03,0.63,0.14,0.9
		c0.02-0.33,0.1-0.66,0.24-0.95c-0.06,0.2-0.06,0.4,0,0.6c0.16-0.32,0.27-0.66,0.33-1.01c0.15,0.28,0.15,0.62,0,0.9
		c0.3-0.16,0.52-0.73,0.65-0.9c0.16,0.36,0.2,0.76,0.11,1.14c0.27-0.18,0.56-0.31,0.87-0.38c-0.35,0.33-0.9,0.52-0.98,0.65
		c0.27-0.01,0.54-0.07,0.79-0.16c-0.44,0.33-0.82,0.38-0.87,0.6c0.28-0.15,0.61-0.2,0.93-0.14c-0.55,0.1-1.03,0.4-1.36,0.84
		c0.37-0.14,0.75-0.24,1.14-0.27c-0.5,0.18-0.95,0.48-1.31,0.87c0.71-0.22,0.95-0.44,1.25-0.41c-0.98,0.54-1.28,0.79-1.36,0.95
		c0.36-0.2,0.76-0.33,1.17-0.38c-0.51,0.15-0.94,0.48-1.23,0.93c0.34-0.23,0.74-0.35,1.14-0.35c-0.49,0.09-0.92,0.38-1.17,0.82
		c0.33-0.22,0.72-0.33,1.12-0.33c-0.45,0.19-0.85,0.48-1.17,0.84c0.54-0.22,0.82-0.3,0.98-0.24c-0.41,0.14-0.93,0.46-0.93,0.71
		c0.29-0.19,0.63-0.28,0.98-0.27c-0.49,0.22-0.65,0.22-0.87,0.65c0.25-0.17,0.54-0.27,0.84-0.3c-0.22,0.16-0.6,0.19-0.79,0.79
		c0.23-0.19,0.48-0.34,0.76-0.44c-0.24,0.25-0.52,0.44-0.52,0.87c0.15-0.18,0.32-0.33,0.52-0.46c0,0.16-0.41,0.41-0.46,1.03
		c0.11-0.21,0.28-0.38,0.49-0.49c-0.22,0.26-0.38,0.57-0.46,0.9c0.14-0.19,0.32-0.34,0.52-0.46c-0.19,0.3-0.27,0.74,0,0.93
		c0.03-0.2,0.08-0.4,0.14-0.6c0,0.14,0,0.27,0.33,0.46c-0.07-0.23-0.11-0.47-0.14-0.71c0,0,0.16,0.41,0.38,0.44
		c-0.09-0.28-0.15-0.56-0.19-0.84c0.2,0.12,0.35,0.3,0.44,0.52c-0.05-0.32-0.13-0.64-0.24-0.95c0.22,0.14,0.4,0.33,0.54,0.54
		c0-0.52-0.57-1.22-0.46-1.14c0.21,0.16,0.4,0.34,0.57,0.54c-0.01-0.4-0.15-0.78-0.41-1.09c0.21,0.21,0.4,0.44,0.57,0.68
		c-0.04-0.43-0.2-0.85-0.46-1.2c0.27,0.14,0.49,0.65,0.54,0.71c-0.03-0.44-0.18-0.86-0.44-1.22c0.3,0,0.35,0.49,0.52,0.6
		c-0.07-0.41-0.21-0.8-0.44-1.14c0.24,0.19,0.27,0.27,0.49,0.44c-0.07-0.38-0.2-0.75-0.38-1.09c0.15,0.09,0.28,0.21,0.38,0.35
		c-0.01-0.39-0.11-0.77-0.3-1.12c0.24,0,0.35,0.38,0.41,0.52c0.08-0.28,0.2-0.54,0.35-0.79c-0.01,0.29-0.07,0.57-0.16,0.84
		c0.13-0.29,0.42-0.48,0.73-0.49c-0.65,0.57-0.82,0.9-0.82,1.09c0.22-0.18,0.47-0.32,0.73-0.41c-0.38,0.3-0.65,0.72-0.76,1.2
		c0.14-0.22,0.35-0.39,0.6-0.49c-0.3,0.38-0.63,0.84-0.57,0.95c0.18-0.19,0.39-0.36,0.63-0.49c-0.34,0.33-0.53,0.78-0.54,1.25
		c0.14-0.32,0.41-0.56,0.73-0.68c-0.39,0.39-0.61,0.92-0.63,1.47c0.14-0.36,0.41-0.65,0.76-0.82c-0.31,0.38-0.51,0.85-0.57,1.33
		c0.24-0.33,0.38-0.57,0.68-0.71c0.3-0.14-0.57,0.9-0.57,1.17c0.27-0.15,0.51-0.34,0.71-0.57c0,0.24-0.63,0.9-0.63,1.01
		c0.2-0.12,0.41-0.22,0.63-0.3c-0.14,0.27-0.24,0.57-0.27,0.87c0,0,0.3-0.33,0.44-0.63c0,0.6,0,1.2,0,1.82
		c-2.05,0.05-4.01,0.9-5.44,2.37c-1,1.05-1.72,2.33-2.1,3.73c-0.38,1.38-0.38,2.84,0,4.22l-7.35-13.04c0.18-0.14,0.25-0.38,0.19-0.6
		c-0.14-0.22-0.54-0.22-0.9,0c-0.35,0.22-0.54,0.57-0.44,0.79c0.2,0.13,0.45,0.13,0.65,0v0.14c-2.23,3.38-4.27,3.89-7.05,8.49
		c1.06,2.45,2.72,3.97,3.7,6.45c2.31-3.62,6.12-6.81,6.72-8.74c-1.51-1.81-2.65-3.9-3.35-6.15l11.13,20.33h0.3
		c-2.05,0.24-4.06,0.68-6.02,1.33l0.52,1.28c-1.49,0.38-2.91,0.98-4.22,1.8c0.92,0.21,1.83,0.48,2.72,0.82
		c-0.41,0.93-0.82,1.93-1.23,2.89c1.93-0.93,3.97-1.63,6.07-2.07l-0.38-1.03c1.49-0.46,3.04-0.74,4.6-0.82l1.44,2.72v0.54
		c-0.38,1.47-1.12,2.42-2.48,2.5c-0.22,0-0.33,0-0.3,0.3v0.54c0,0.24,0,0.35,0.27,0.33c1.05,0.06,2.1,0.19,3.13,0.38
		c1.04-0.19,2.1-0.32,3.16-0.38c0.18,0,0.26-0.11,0.24-0.33v-0.54c0-0.19,0-0.3-0.3-0.3c-1.33,0-2.07-1.03-2.48-2.5v-0.54l1.47-2.72
		l0,0c1.5,0.07,2.98,0.34,4.41,0.79l-0.38,1.03c2.1,0.47,4.14,1.19,6.07,2.15c-0.44-0.95-0.82-1.96-1.23-2.89
		c0.89-0.33,1.8-0.61,2.72-0.82c-1.31-0.8-2.73-1.39-4.22-1.77l0.52-1.31c-1.95-0.65-3.97-1.1-6.02-1.33h0.46l11.05-20.58
		c-0.68,2.27-1.82,4.37-3.35,6.18c0.63,1.91,4.44,5.12,6.75,8.71c0.95-2.48,2.72-4,3.7-6.42c-2.72-4.6-4.85-5.14-7.05-8.49
		c0.27,0,0.52,0,0.63,0s0-0.57-0.44-0.79s-0.76-0.22-0.9,0c-0.06,0.22,0.01,0.46,0.19,0.6l-7.4,13.18c0.19-0.57,0.3-1.17,0.35-1.77
		c0.05-0.67,0.01-1.35-0.14-2.01c0,0,0,0.41,0,0.54c-0.08,0.97-0.39,1.9-0.9,2.72l-2.5-3.29l2.42-3.95l-4.36,1.33l-2.18-2.45v-0.87
		c0.9-0.2,1.83-0.2,2.72,0c-0.85-0.42-1.78-0.67-2.72-0.74v-0.95l0,0c0.01-0.08,0.01-0.16,0-0.25v-0.3c0,0,0.16,0.25,0.27,0.22
		c-0.1-0.21-0.19-0.43-0.27-0.65v-0.14c0.19,0.11,0.34,0.27,0.44,0.46c-0.02-0.32-0.18-0.62-0.44-0.82c0.21,0.09,0.41,0.2,0.6,0.33
		c-0.18-0.27-0.38-0.54-0.6-0.79l0,0c0,0,0.52,0.27,0.63,0.35c-0.14-0.34-0.34-0.64-0.6-0.9c0.22,0,0.3,0,0.68,0.49
		c-0.11-0.37-0.35-0.69-0.68-0.9c0.25,0,0.5,0.09,0.68,0.27c0-0.46-0.49-0.65-0.71-0.84c0.23,0.06,0.44,0.18,0.6,0.35
		c0-0.41-0.19-0.46-0.63-0.9c0.3,0,0.58,0.11,0.79,0.33c-0.14-0.37-0.43-0.66-0.79-0.82c0.27,0,0.52,0,0.98,0.27
		c-0.21-0.39-0.55-0.68-0.95-0.84c0.37,0.03,0.73,0.16,1.03,0.38c-0.14-0.38-0.47-0.66-0.87-0.73c0.14,0,0.57,0,0.82,0.14
		c0-0.33-0.46-0.44-0.82-0.6c0.3-0.06,0.6-0.06,0.9,0c0-0.41-0.76-0.6-0.76-0.63c0.31-0.03,0.63,0.07,0.87,0.27
		c0-0.41-0.19-0.84,0-0.95c0.15,0.28,0.25,0.58,0.3,0.9c0.06-0.29,0.21-0.57,0.41-0.79c0,0.35-0.14,0.54-0.16,0.98
		c0.14-0.33,0.42-0.58,0.76-0.68c-0.36,0.29-0.6,0.69-0.68,1.14c0.3-0.22,0.71-0.71,0.82-0.6c0.11,0.11-0.71,0.65-0.79,1.14
		c0.24-0.24,0.49-0.49,0.79-0.46c-0.19,0.24-0.73,0.65-0.79,1.17c0.33-0.35,0.6-0.54,0.84-0.52c0.24,0.03-0.63,0.46-0.82,1.01
		c0.44-0.38,0.63-0.49,0.87-0.52c-0.3,0.24-0.79,0.63-0.82,1.14c0.22-0.16,0.38-0.49,0.87-0.54c-0.4,0.23-0.7,0.61-0.82,1.06
		c0.46-0.41,0.52-0.44,0.79-0.46c0.27-0.03-0.52,0.27-0.63,1.09c0.27-0.33,0.38-0.52,0.65-0.6c-0.36,0.32-0.59,0.77-0.65,1.25
		c0.2-0.3,0.45-0.57,0.73-0.79c-0.24,0.3-0.63,0.93-0.54,1.2c0.22-0.23,0.42-0.47,0.6-0.74c0,0.22-0.41,0.54-0.22,1.42
		c0,0,0.14-0.57,0.3-0.95c0,0.27,0,0.68,0.27,0.74c0.05-0.34,0-0.69-0.14-1.01c0.33,0.19,0.3,0.38,0.49,0.54
		c0-0.38-0.12-0.74-0.35-1.03c0.14,0,0.33,0.3,0.49,0.49c0.06-0.45-0.09-0.9-0.41-1.22c0.28,0.17,0.52,0.39,0.71,0.65
		c-0.06-0.48-0.34-0.9-0.76-1.14c0.21,0.07,0.42,0.15,0.63,0.24c-0.07-0.36-0.3-0.67-0.63-0.84c0.29-0.01,0.56,0.12,0.73,0.35
		c-0.11-0.4-0.35-0.76-0.68-1.01c0.19,0,0.54,0.33,0.79,0.52c0-0.49-0.63-0.9-0.71-1.01c-0.08-0.11,0.44,0.19,0.68,0.3
		c-0.14-0.44-0.79-0.82-0.79-0.82s0.57,0,0.87,0.3c-0.17-0.34-0.43-0.61-0.76-0.79c0.19,0,0.71,0.35,0.82,0.33
		c-0.2-0.32-0.48-0.58-0.82-0.76c0.24-0.05,0.49-0.05,0.73,0c-0.22-0.29-0.54-0.5-0.9-0.57c0.21-0.04,0.42-0.04,0.63,0
		c-0.27-0.2-0.5-0.45-0.68-0.73v-0.33c0.49,0.24,0.63,0.71,0.87,0.87c-0.09-0.35-0.16-0.7-0.19-1.06c0.28,0.35,0.46,0.78,0.49,1.22
		c0.14-0.38,0-0.71,0.19-0.93c0.16,0.46,0,1.09,0.27,1.44c-0.03-0.27-0.03-0.55,0-0.82c-0.02,0.42,0.04,0.85,0.16,1.25
		c0.05-0.28,0.11-0.57,0.19-0.84c0.01,0.48,0.09,0.96,0.24,1.42c0-0.19,0-0.54,0.19-0.82c0.01,0.48,0.15,0.95,0.41,1.36
		c0,0,0-0.65,0-0.9c0.02,0.44,0.14,0.88,0.33,1.28c-0.03-0.3-0.03-0.6,0-0.9c0.01,0.42,0.11,0.84,0.3,1.22
		c0.01-0.32,0.06-0.64,0.14-0.95c0.04,0.43,0.13,0.85,0.27,1.25c0-0.49,0-0.68,0-0.9c0.09,0.41,0.24,0.8,0.44,1.17
		c0-0.35,0-0.46,0-0.68c0.06,0.29,0.18,0.57,0.35,0.82c-0.05-0.21-0.05-0.42,0-0.63c0,0.22,0.16,0.52,0.35,0.71
		c0-0.33,0-0.38,0-0.54c0.2,0.11,0.37,0.26,0.52,0.44c0-0.3-0.27-0.6-0.6-0.76c0.22-0.05,0.46-0.05,0.68,0
		c-0.26-0.23-0.57-0.4-0.9-0.49c0.22-0.08,0.46-0.08,0.68,0c-0.28-0.27-0.61-0.47-0.98-0.6c0.23-0.05,0.47-0.05,0.71,0
		c-0.24-0.27-0.59-0.44-0.95-0.46c0.29-0.06,0.58-0.06,0.87,0c-0.31-0.24-0.71-0.32-1.09-0.22c0.26-0.15,0.55-0.22,0.84-0.22
		c-0.41-0.27-0.54-0.19-1.06,0c0.27-0.22,0.61-0.33,0.95-0.3c-0.16-0.22-0.76-0.22-1.17,0c0-0.14,0.35-0.22,0.95-0.33
		c-0.48-0.1-0.99-0.1-1.47,0c0.34-0.21,0.72-0.33,1.12-0.35c-0.82-0.33-0.9,0-1.44,0c0.34-0.2,0.73-0.28,1.12-0.25
		c-0.49-0.22-1.06-0.22-1.55,0c0.37-0.2,0.78-0.31,1.2-0.33c-0.56-0.11-1.13-0.11-1.69,0c0.24-0.19,0.57-0.14,1.28-0.33
		c-0.53-0.13-1.08-0.13-1.61,0c0.35-0.18,0.73-0.32,1.12-0.41c-0.35-0.27-1.23,0-1.66,0c0.29-0.13,0.59-0.23,0.9-0.3
		c-0.22-0.16-0.68,0-1.23,0c0.31-0.07,0.61-0.17,0.9-0.3c-0.16,0-0.93,0-1.42,0c0.3-0.02,0.59-0.08,0.87-0.19
		c-0.28-0.17-0.51-0.4-0.68-0.68c0.22,0,1.03,0.71,1.36,0.68c-0.46-0.35-0.52-0.54-0.54-0.73c-0.03-0.19,0.76,0.71,0.84,0.65
		c-0.02-0.21-0.11-0.41-0.24-0.57c0.3,0.18,0.56,0.41,0.79,0.68c-0.03-0.33-0.2-0.64-0.46-0.84c0.19,0,0.76,0.63,0.98,0.95
		c-0.06-0.35-0.21-0.68-0.44-0.95c0.22,0,0.76,0.9,0.9,1.03c0.01-0.34-0.1-0.67-0.33-0.93c0.35,0.14,0.82,1.03,0.9,1.03
		c0.11-0.41,0.04-0.84-0.19-1.2c0.71,0.65,1.01,1.03,1.12,1.12c0.11,0.08,0-0.24-0.3-0.87c0.49,0.24,0.54,0.46,0.84,0.98
		c0.16-0.22,0-0.63-0.16-0.9c-0.16-0.27,0.71,0.76,0.82,0.95c0.02-0.33-0.07-0.65-0.24-0.93c0.16,0,0.38,0.49,0.76,0.98
		c0-0.27-0.06-0.54-0.16-0.79c0.33,0.3,0.6,0.82,0.84,0.93c0.24,0.11-0.22-0.44-0.22-0.71c0.3,0.35,0.54,0.6,0.9,0.63
		c0,0-0.38-0.35-0.38-0.49s0.49,0,0.79,0.24c-0.16-0.27-0.73-0.44-0.84-0.49c0.31-0.07,0.63-0.02,0.9,0.14
		c-0.21-0.36-0.64-0.52-1.03-0.38c0.26-0.12,0.55-0.19,0.84-0.19c-0.38-0.23-0.83-0.29-1.25-0.19c0.24-0.17,0.51-0.28,0.79-0.33
		c-0.45-0.16-0.95-0.04-1.28,0.3c0-0.16,0.24-0.27,0.73-0.65c-0.42,0-0.84,0.15-1.17,0.41c0.22-0.25,0.5-0.43,0.82-0.54
		c-0.33-0.27-0.76,0-0.98,0.27c0-0.24,0.16-0.41,0.35-0.63c-0.49,0-0.73,0.33-1.01,0.6c0.02-0.32,0.18-0.62,0.44-0.82
		c-0.52,0-0.73,0.33-1.06,0.73c0-0.57,0.24-0.65,0.38-0.9c-0.42,0.13-0.8,0.38-1.06,0.73c0.06-0.3,0.2-0.57,0.41-0.79
		c-0.33,0-0.93,0.44-1.25,0.82c0-0.49,0.33-0.65,0.71-0.93c-0.65,0-1.55,0.9-1.52,0.79c0.14-0.36,0.38-0.68,0.68-0.93
		c-0.9,0-1.2,0.76-1.5,0.79c0.22-0.49,0.38-0.63,0.38-0.79c-0.49,0-0.76,0.6-1.06,0.79c0-0.44,0-0.44,0.3-0.84
		c-0.76,0-0.98,0.65-1.25,0.6c0.14-0.24,0.34-0.43,0.57-0.57c-0.32,0.03-0.64-0.02-0.93-0.16c0.6-0.27,0.76,0,1.09,0
		c-0.3-0.24-0.66-0.38-1.03-0.41c0.16-0.19,0.84,0,1.2,0.22c0-0.38-0.38-0.46-0.82-0.63c0.3-0.22,1.17,0.41,1.25,0.3
		c0.08-0.11,0-0.38-0.6-0.57c0.54-0.22,0.73,0,1.12,0.19c0-0.33,0-0.38-0.46-0.65c0.52,0,0.82,0.22,1.17,0.24
		c-0.2-0.22-0.42-0.42-0.65-0.6c0.37,0.12,0.74,0.22,1.12,0.3c-0.18-0.18-0.37-0.36-0.57-0.52c0.34,0.14,0.72,0.21,1.09,0.19
		c-0.19-0.2-0.41-0.36-0.65-0.49c0.39,0.02,0.76,0.11,1.12,0.27c-0.19-0.35-0.44-0.44-0.46-0.63c0.44,0,0.41,0.16,1.09,0.35
		c0-0.16-0.63-0.41-0.63-0.54c0.32,0.04,0.64,0.11,0.95,0.22c-0.14-0.27-0.44-0.38-0.52-0.46c-0.08-0.08,0.35,0.14,0.84,0.27
		c0-0.27-0.22-0.24-0.49-0.44c0.44,0,0.65,0,0.95,0c0.3,0-0.87-0.24-0.14-0.3c0.74-0.05-0.35-0.14-0.57-0.16
		c-0.22-0.03,0.46-0.19,0.52-0.38c-0.34,0-0.66,0.12-0.93,0.33c0.06-0.22,0.15-0.43,0.27-0.63c-0.35,0-0.54,0.38-0.9,0.82
		c0.04-0.28,0.12-0.56,0.24-0.82c-0.49,0.16-0.6,0.63-0.79,0.95c-0.01-0.32,0.05-0.64,0.19-0.93c-0.35,0.14-0.52,0.44-0.76,0.95
		c-0.04-0.28-0.04-0.56,0-0.84c-0.44,0.33-0.38,1.03-0.52,1.12s0-0.65-0.16-0.98c-0.27,0.19-0.19,0.93-0.19,1.17
		c-0.27-0.22-0.16-0.76-0.27-1.03c-0.27,0.14-0.19,0.95-0.27,1.25c-0.23-0.28-0.36-0.64-0.35-1.01c-0.26,0.39-0.32,0.87-0.16,1.31
		c-0.2-0.3-0.31-0.65-0.33-1.01c-0.24,0-0.27,1.33-0.27,1.39c-0.18-0.36-0.24-0.77-0.16-1.17c-0.52,0.3-0.27,0.84-0.35,1.69
		c-0.21-0.36-0.32-0.78-0.3-1.2c-0.36,0.44-0.41,1.06-0.14,1.55c-0.23-0.26-0.4-0.57-0.52-0.9c-0.14,0,0,0.57-0.33,1.12
		c-0.14-0.35-0.14-0.74,0-1.09c-0.24,0-0.44,0.27-0.57,0.33c-0.14,0.05,0.71-0.79,0.9-0.93c-0.24-0.06-0.49-0.06-0.73,0
		c0.3-0.31,0.68-0.54,1.09-0.68c0-0.14-0.46,0-0.57,0s0,0,0-0.16c0.23-0.1,0.46-0.22,0.68-0.35c0.14,0-0.35,0-0.49,0s0,0,0-0.16
		c0.35-0.14,0.7-0.31,1.03-0.49c-0.28-0.06-0.57-0.06-0.84,0c0.19-0.35,0.57-0.41,1.17-0.6c0,0-0.19,0-0.79,0
		c0.31-0.27,0.67-0.48,1.06-0.6c0,0-0.46,0-0.84,0c0.36-0.22,0.76-0.37,1.17-0.46c-0.27-0.04-0.55-0.04-0.82,0
		c0.31-0.18,0.67-0.27,1.03-0.24c-0.19-0.2-0.47-0.27-0.73-0.19c0.27-0.19,0.6-0.28,0.93-0.27c0-0.16-0.44,0-0.54-0.16
		c-0.11-0.16,0.6-0.19,0.82-0.16c-0.09-0.12-0.23-0.18-0.38-0.19l0.49-0.33c-0.23,0.02-0.46,0.07-0.68,0.16
		c-0.04-0.15-0.04-0.31,0-0.46c-0.22,0.15-0.37,0.39-0.41,0.65c0-0.19-0.16-0.41,0-0.52c-0.23,0.22-0.35,0.53-0.33,0.84
		c-0.22-0.24-0.14-0.33-0.22-0.65c-0.17,0.32-0.27,0.67-0.3,1.03C62.39,47.56,62.28,47.42,62.18,47.18z M55.23,72.19
		c0.21-0.5,0.49-0.96,0.82-1.39c0.33-0.41,0.72-0.78,1.14-1.09l0.52-0.35c0.42-0.25,0.87-0.45,1.33-0.6l0,0
		c-0.47,0.15-0.91,0.35-1.33,0.6l-0.52,0.35c-0.42,0.31-0.79,0.68-1.12,1.09C55.73,71.22,55.44,71.69,55.23,72.19
		c-1.4,3.16,0.02,6.86,3.18,8.26c0.14,0.06,0.29,0.12,0.44,0.18l0,0c-3.26-1.16-4.96-4.74-3.8-8
		C55.11,72.48,55.17,72.34,55.23,72.19z M59.04,68.93L59.04,68.93L59.04,68.93z M54.88,74.75c0.01-0.69,0.12-1.38,0.33-2.04
		c0.11-0.29,0.24-0.57,0.38-0.84c0.12-0.25,0.27-0.49,0.44-0.71l0.54-0.65c0.39-0.42,0.84-0.78,1.33-1.06c0,0,0.57-0.33,0.79-0.41
		v4.06L54.88,74.75z M56.35,75.32l-1.39-0.44l0,0L56.35,75.32z M58.8,76.28v1.12c0,1.01,0,2.04,0,3.08c-2.26-0.91-3.81-3.02-4-5.44
		L58.8,76.28z M57.17,74.78h1.8l0,0H57.17z M58.85,69.04L58.85,69.04z M58.61,90.08c0,0.27,0,0.54,0,0.82l-0.46-0.82H58.61z
		 M55.75,85.99L55.75,85.99l-2.53-4.52c1.4,1.58,3.35,2.55,5.44,2.72c0,0.6,0,1.17,0,1.74h0.35C57.93,85.9,56.84,85.92,55.75,85.99z
		 M67.29,76.28L67.29,76.28c0.05,0.37,0.05,0.75,0,1.12c0.01-0.38-0.04-0.75-0.14-1.12H67.29z M60.02,90.89v-0.82h0.46L60.02,90.89z
		 M66.23,78.51c0.25-0.42,0.44-0.87,0.57-1.33l0,0c-0.12,0.48-0.31,0.94-0.57,1.36c-0.69,1.15-1.67,2.08-2.86,2.69
		c-1,0.55-2.1,0.88-3.24,0.98c1.14-0.1,2.24-0.43,3.24-0.98C64.56,80.61,65.55,79.66,66.23,78.51z M59.75,80.93L59.75,80.93
		c0.35,0.07,0.7,0.12,1.06,0.14c-0.36-0.04-0.71-0.1-1.06-0.19V80.93z M63.43,80.41c-1.16,0.5-2.44,0.62-3.67,0.35v-0.52l2.12-2.94
		l4.22,0.95c-0.68,0.93-1.61,1.65-2.67,2.1V80.41z M59.73,79.16L59.73,79.16l1.23-4.55l0,0L59.73,79.16z M66.04,78.1l-3.65-2.5
		L66.04,78.1z M64.27,75.76l-0.76-1.01l0,0L64.27,75.76z M63.51,74.75L63.51,74.75l-2.56-0.14l0,0L63.51,74.75l2.23-3.65
		L63.51,74.75z M61.74,72.33l4.03-1.22l0,0l-4,1.22H61.74z M61.49,73.04l-0.54,1.58l0,0L61.49,73.04z M60.95,74.62L60.95,74.62
		h-1.31l0,0H60.95z M59.64,73.74l0.82,0.54L59.64,73.74z M60.98,68.49L60.98,68.49c-0.34-0.03-0.69-0.03-1.03,0
		c0.34-0.05,0.69-0.06,1.03-0.05V68.49z M59.59,68.68c0.32-0.08,0.65-0.14,0.98-0.16C60.24,68.55,59.91,68.6,59.59,68.68z
		 M59.83,85.86c0-0.57,0-1.14,0-1.74c2.16-0.13,4.17-1.11,5.61-2.72l-2.72,4.71l0,0c-1.18-0.13-2.37-0.2-3.57-0.19L59.83,85.86z"/>
</g>
</svg>
