<svg xmlns="http://www.w3.org/2000/svg" xmlns:xlink="http://www.w3.org/1999/xlink" viewBox="0 0 301.13 61.72"><defs><style>.cls-1,.cls-10,.cls-11,.cls-12,.cls-13,.cls-14,.cls-15,.cls-16,.cls-17,.cls-18,.cls-19,.cls-2,.cls-20,.cls-21,.cls-22,.cls-23,.cls-24,.cls-25,.cls-26,.cls-27,.cls-28,.cls-29,.cls-3,.cls-30,.cls-31,.cls-32,.cls-33,.cls-34,.cls-35,.cls-36,.cls-37,.cls-38,.cls-39,.cls-4,.cls-40,.cls-41,.cls-42,.cls-43,.cls-44,.cls-45,.cls-46,.cls-47,.cls-48,.cls-49,.cls-5,.cls-50,.cls-51,.cls-52,.cls-53,.cls-54,.cls-55,.cls-56,.cls-57,.cls-58,.cls-59,.cls-6,.cls-60,.cls-61,.cls-62,.cls-63,.cls-64,.cls-65,.cls-66,.cls-67,.cls-68,.cls-69,.cls-70,.cls-71,.cls-72,.cls-73,.cls-74,.cls-75,.cls-76,.cls-78,.cls-79,.cls-8,.cls-81,.cls-82,.cls-83,.cls-84,.cls-85,.cls-87,.cls-88,.cls-89,.cls-9,.cls-90,.cls-91,.cls-93,.cls-94,.cls-95,.cls-96{fill-rule:evenodd;}.cls-1{fill:url(#linear-gradient);}.cls-2{fill:url(#linear-gradient-2);}.cls-3{fill:url(#linear-gradient-3);}.cls-4{fill:url(#linear-gradient-4);}.cls-5{fill:url(#linear-gradient-5);}.cls-6{fill:url(#linear-gradient-6);}.cls-7{fill:url(#linear-gradient-7);}.cls-8{fill:url(#linear-gradient-8);}.cls-9{fill:url(#linear-gradient-9);}.cls-10{fill:url(#linear-gradient-10);}.cls-11{fill:url(#linear-gradient-11);}.cls-12{fill:url(#linear-gradient-12);}.cls-13{fill:url(#linear-gradient-13);}.cls-14{fill:url(#linear-gradient-14);}.cls-15{fill:url(#linear-gradient-15);}.cls-16{fill:url(#linear-gradient-16);}.cls-17{fill:url(#linear-gradient-17);}.cls-18{fill:url(#linear-gradient-18);}.cls-19{fill:url(#linear-gradient-19);}.cls-20{fill:url(#linear-gradient-20);}.cls-21{fill:url(#linear-gradient-21);}.cls-22{fill:url(#linear-gradient-22);}.cls-23{fill:url(#linear-gradient-23);}.cls-24{fill:url(#linear-gradient-24);}.cls-25{fill:url(#linear-gradient-25);}.cls-26{fill:url(#linear-gradient-26);}.cls-27{fill:url(#linear-gradient-27);}.cls-28{fill:url(#linear-gradient-28);}.cls-29{fill:url(#linear-gradient-29);}.cls-30{fill:url(#linear-gradient-30);}.cls-31{fill:url(#linear-gradient-31);}.cls-32{fill:url(#linear-gradient-32);}.cls-33{fill:url(#linear-gradient-33);}.cls-34{fill:url(#linear-gradient-34);}.cls-35{fill:url(#linear-gradient-35);}.cls-36{fill:url(#linear-gradient-36);}.cls-37{fill:url(#linear-gradient-37);}.cls-38{fill:url(#linear-gradient-38);}.cls-39{fill:url(#linear-gradient-39);}.cls-40{fill:url(#linear-gradient-40);}.cls-41{fill:url(#linear-gradient-41);}.cls-42{fill:url(#linear-gradient-42);}.cls-43{fill:url(#linear-gradient-43);}.cls-44{fill:url(#linear-gradient-44);}.cls-45{fill:url(#linear-gradient-45);}.cls-46{fill:url(#linear-gradient-46);}.cls-47{fill:url(#linear-gradient-47);}.cls-48{fill:url(#linear-gradient-48);}.cls-49{fill:url(#linear-gradient-49);}.cls-50{fill:url(#linear-gradient-50);}.cls-51{fill:url(#linear-gradient-51);}.cls-52{fill:url(#linear-gradient-52);}.cls-53{fill:url(#linear-gradient-53);}.cls-54{fill:url(#linear-gradient-54);}.cls-55{fill:url(#linear-gradient-55);}.cls-56{fill:url(#linear-gradient-56);}.cls-57{fill:url(#linear-gradient-57);}.cls-58{fill:url(#linear-gradient-58);}.cls-59{fill:url(#linear-gradient-59);}.cls-60{fill:url(#linear-gradient-60);}.cls-61{fill:url(#linear-gradient-61);}.cls-62{fill:url(#linear-gradient-62);}.cls-63{fill:url(#linear-gradient-63);}.cls-64{fill:url(#linear-gradient-64);}.cls-65{fill:url(#linear-gradient-65);}.cls-66{fill:url(#linear-gradient-66);}.cls-67{fill:url(#linear-gradient-67);}.cls-68{fill:url(#linear-gradient-68);}.cls-69{fill:url(#linear-gradient-69);}.cls-70{fill:url(#linear-gradient-70);}.cls-71{fill:url(#linear-gradient-71);}.cls-72{fill:url(#linear-gradient-72);}.cls-73{fill:url(#linear-gradient-73);}.cls-74{fill:url(#linear-gradient-74);}.cls-75{fill:url(#linear-gradient-75);}.cls-76{fill:url(#linear-gradient-76);}.cls-77{fill:url(#linear-gradient-77);}.cls-78{fill:url(#linear-gradient-78);}.cls-79{fill:url(#linear-gradient-79);}.cls-80{fill:url(#linear-gradient-80);}.cls-81{fill:url(#linear-gradient-81);}.cls-82{fill:url(#linear-gradient-82);}.cls-83{fill:url(#linear-gradient-83);}.cls-84{fill:url(#linear-gradient-84);}.cls-85{fill:url(#linear-gradient-85);}.cls-86{fill:url(#linear-gradient-86);}.cls-87{fill:url(#linear-gradient-87);}.cls-88{fill:url(#linear-gradient-88);}.cls-89{fill:url(#linear-gradient-89);}.cls-90{fill:url(#linear-gradient-90);}.cls-91{fill:url(#linear-gradient-91);}.cls-92{fill:url(#linear-gradient-92);}.cls-93{fill:url(#linear-gradient-93);}.cls-94{fill:url(#linear-gradient-94);}.cls-95{fill:url(#linear-gradient-95);}.cls-96{fill:url(#linear-gradient-96);}</style><linearGradient id="linear-gradient" x1="20.06" y1="4.34" x2="307.1" y2="14.11" gradientUnits="userSpaceOnUse"><stop offset="0" stop-color="#5c445a"/><stop offset="1" stop-color="#379576"/></linearGradient><linearGradient id="linear-gradient-2" x1="19.83" y1="11.08" x2="306.87" y2="20.85" xlink:href="#linear-gradient"/><linearGradient id="linear-gradient-3" x1="19.31" y1="26.31" x2="306.35" y2="36.07" xlink:href="#linear-gradient"/><linearGradient id="linear-gradient-4" x1="18.7" y1="44.17" x2="305.75" y2="53.93" xlink:href="#linear-gradient"/><linearGradient id="linear-gradient-5" x1="19.21" y1="29.12" x2="306.26" y2="38.88" xlink:href="#linear-gradient"/><linearGradient id="linear-gradient-6" x1="19.39" y1="24.11" x2="306.43" y2="33.87" xlink:href="#linear-gradient"/><linearGradient id="linear-gradient-7" x1="19.41" y1="23.52" x2="306.45" y2="33.29" xlink:href="#linear-gradient"/><linearGradient id="linear-gradient-8" x1="19.43" y1="22.84" x2="306.47" y2="32.6" xlink:href="#linear-gradient"/><linearGradient id="linear-gradient-9" x1="19.46" y1="22.04" x2="306.5" y2="31.81" xlink:href="#linear-gradient"/><linearGradient id="linear-gradient-10" x1="19.38" y1="24.27" x2="306.42" y2="34.03" xlink:href="#linear-gradient"/><linearGradient id="linear-gradient-11" x1="19.42" y1="23.08" x2="306.46" y2="32.85" xlink:href="#linear-gradient"/><linearGradient id="linear-gradient-12" x1="19.63" y1="16.88" x2="306.67" y2="26.65" xlink:href="#linear-gradient"/><linearGradient id="linear-gradient-13" x1="19.23" y1="28.6" x2="306.28" y2="38.36" xlink:href="#linear-gradient"/><linearGradient id="linear-gradient-14" x1="19.42" y1="23.15" x2="306.46" y2="32.92" xlink:href="#linear-gradient"/><linearGradient id="linear-gradient-15" x1="19.61" y1="17.39" x2="306.66" y2="27.15" xlink:href="#linear-gradient"/><linearGradient id="linear-gradient-16" x1="19.66" y1="16.17" x2="306.7" y2="25.93" xlink:href="#linear-gradient"/><linearGradient id="linear-gradient-17" x1="19.17" y1="30.3" x2="306.22" y2="40.07" xlink:href="#linear-gradient"/><linearGradient id="linear-gradient-18" x1="19.34" y1="25.52" x2="306.38" y2="35.29" xlink:href="#linear-gradient"/><linearGradient id="linear-gradient-19" x1="19.23" y1="28.73" x2="306.27" y2="38.5" xlink:href="#linear-gradient"/><linearGradient id="linear-gradient-20" x1="19.26" y1="27.83" x2="306.3" y2="37.59" xlink:href="#linear-gradient"/><linearGradient id="linear-gradient-21" x1="19.43" y1="22.85" x2="306.47" y2="32.62" xlink:href="#linear-gradient"/><linearGradient id="linear-gradient-22" x1="19.3" y1="26.72" x2="306.34" y2="36.48" xlink:href="#linear-gradient"/><linearGradient id="linear-gradient-23" x1="19.38" y1="24.25" x2="306.42" y2="34.02" xlink:href="#linear-gradient"/><linearGradient id="linear-gradient-24" x1="19.86" y1="10.19" x2="306.9" y2="19.95" xlink:href="#linear-gradient"/><linearGradient id="linear-gradient-25" x1="19.89" y1="9.18" x2="306.94" y2="18.94" xlink:href="#linear-gradient"/><linearGradient id="linear-gradient-26" x1="19.92" y1="8.4" x2="306.96" y2="18.17" xlink:href="#linear-gradient"/><linearGradient id="linear-gradient-27" x1="19.81" y1="11.5" x2="306.86" y2="21.26" xlink:href="#linear-gradient"/><linearGradient id="linear-gradient-28" x1="19.54" y1="19.69" x2="306.58" y2="29.46" xlink:href="#linear-gradient"/><linearGradient id="linear-gradient-29" x1="19.48" y1="21.32" x2="306.52" y2="31.08" xlink:href="#linear-gradient"/><linearGradient id="linear-gradient-30" x1="19.59" y1="17.96" x2="306.64" y2="27.72" xlink:href="#linear-gradient"/><linearGradient id="linear-gradient-31" x1="19.77" y1="12.92" x2="306.81" y2="22.68" xlink:href="#linear-gradient"/><linearGradient id="linear-gradient-32" x1="19.71" y1="14.55" x2="306.75" y2="24.32" xlink:href="#linear-gradient"/><linearGradient id="linear-gradient-33" x1="19.51" y1="20.58" x2="306.55" y2="30.35" xlink:href="#linear-gradient"/><linearGradient id="linear-gradient-34" x1="19.36" y1="24.92" x2="306.4" y2="34.69" xlink:href="#linear-gradient"/><linearGradient id="linear-gradient-35" x1="19.62" y1="17.12" x2="306.67" y2="26.89" xlink:href="#linear-gradient"/><linearGradient id="linear-gradient-36" x1="19.88" y1="9.66" x2="306.92" y2="19.42" xlink:href="#linear-gradient"/><linearGradient id="linear-gradient-37" x1="19.45" y1="22.15" x2="306.5" y2="31.91" xlink:href="#linear-gradient"/><linearGradient id="linear-gradient-38" x1="19.68" y1="15.35" x2="306.73" y2="25.12" xlink:href="#linear-gradient"/><linearGradient id="linear-gradient-39" x1="19.74" y1="13.77" x2="306.78" y2="23.54" xlink:href="#linear-gradient"/><linearGradient id="linear-gradient-40" x1="19.84" y1="10.88" x2="306.88" y2="20.64" xlink:href="#linear-gradient"/><linearGradient id="linear-gradient-41" x1="19.24" y1="28.34" x2="306.28" y2="38.1" xlink:href="#linear-gradient"/><linearGradient id="linear-gradient-42" x1="19.4" y1="23.6" x2="306.45" y2="33.36" xlink:href="#linear-gradient"/><linearGradient id="linear-gradient-43" x1="19.79" y1="12.2" x2="306.83" y2="21.96" xlink:href="#linear-gradient"/><linearGradient id="linear-gradient-44" x1="19.27" y1="27.35" x2="306.32" y2="37.12" xlink:href="#linear-gradient"/><linearGradient id="linear-gradient-45" x1="19.91" y1="8.75" x2="306.95" y2="18.52" xlink:href="#linear-gradient"/><linearGradient id="linear-gradient-46" x1="19.93" y1="8.06" x2="306.97" y2="17.83" xlink:href="#linear-gradient"/><linearGradient id="linear-gradient-47" x1="19.56" y1="18.85" x2="306.61" y2="28.62" xlink:href="#linear-gradient"/><linearGradient id="linear-gradient-48" x1="19.32" y1="26.16" x2="306.36" y2="35.93" xlink:href="#linear-gradient"/><linearGradient id="linear-gradient-49" x1="20.04" y1="4.8" x2="307.08" y2="14.56" xlink:href="#linear-gradient"/><linearGradient id="linear-gradient-50" x1="20.01" y1="5.88" x2="307.05" y2="15.64" xlink:href="#linear-gradient"/><linearGradient id="linear-gradient-51" x1="20.09" y1="3.51" x2="307.13" y2="13.28" xlink:href="#linear-gradient"/><linearGradient id="linear-gradient-52" x1="20.1" y1="3.04" x2="307.14" y2="12.8" xlink:href="#linear-gradient"/><linearGradient id="linear-gradient-53" x1="20.1" y1="3.19" x2="307.14" y2="12.95" xlink:href="#linear-gradient"/><linearGradient id="linear-gradient-54" x1="268.75" y1="12.44" x2="274.55" y2="12.63" xlink:href="#linear-gradient"/><linearGradient id="linear-gradient-55" x1="20.14" y1="1.93" x2="307.18" y2="11.7" xlink:href="#linear-gradient"/><linearGradient id="linear-gradient-56" x1="20.09" y1="3.53" x2="307.13" y2="13.29" xlink:href="#linear-gradient"/><linearGradient id="linear-gradient-57" x1="20.07" y1="4.12" x2="307.11" y2="13.89" xlink:href="#linear-gradient"/><linearGradient id="linear-gradient-58" x1="20.12" y1="2.62" x2="307.16" y2="12.38" xlink:href="#linear-gradient"/><linearGradient id="linear-gradient-59" x1="20.03" y1="5.22" x2="307.07" y2="14.98" xlink:href="#linear-gradient"/><linearGradient id="linear-gradient-60" x1="20.08" y1="3.66" x2="307.12" y2="13.43" xlink:href="#linear-gradient"/><linearGradient id="linear-gradient-61" x1="20.12" y1="2.65" x2="307.16" y2="12.42" xlink:href="#linear-gradient"/><linearGradient id="linear-gradient-62" x1="20.08" y1="3.75" x2="307.12" y2="13.51" xlink:href="#linear-gradient"/><linearGradient id="linear-gradient-63" x1="20.1" y1="3.14" x2="307.14" y2="12.91" xlink:href="#linear-gradient"/><linearGradient id="linear-gradient-64" x1="20.09" y1="3.26" x2="307.14" y2="13.03" xlink:href="#linear-gradient"/><linearGradient id="linear-gradient-65" x1="20.11" y1="2.76" x2="307.15" y2="12.53" xlink:href="#linear-gradient"/><linearGradient id="linear-gradient-66" x1="20.13" y1="2.23" x2="307.17" y2="11.99" xlink:href="#linear-gradient"/><linearGradient id="linear-gradient-67" x1="20.15" y1="1.69" x2="307.19" y2="11.46" xlink:href="#linear-gradient"/><linearGradient id="linear-gradient-68" x1="20.06" y1="4.4" x2="307.1" y2="14.17" xlink:href="#linear-gradient"/><linearGradient id="linear-gradient-69" x1="20.06" y1="4.26" x2="307.1" y2="14.03" xlink:href="#linear-gradient"/><linearGradient id="linear-gradient-70" x1="20.12" y1="2.64" x2="307.16" y2="12.4" xlink:href="#linear-gradient"/><linearGradient id="linear-gradient-71" x1="20.16" y1="1.28" x2="307.2" y2="11.05" xlink:href="#linear-gradient"/><linearGradient id="linear-gradient-72" x1="20.16" y1="1.42" x2="307.2" y2="11.18" xlink:href="#linear-gradient"/><linearGradient id="linear-gradient-73" x1="20.04" y1="4.69" x2="307.09" y2="14.46" xlink:href="#linear-gradient"/><linearGradient id="linear-gradient-74" x1="20.13" y1="2.08" x2="307.18" y2="11.84" xlink:href="#linear-gradient"/><linearGradient id="linear-gradient-75" x1="20.06" y1="4.15" x2="307.11" y2="13.92" xlink:href="#linear-gradient"/><linearGradient id="linear-gradient-76" x1="20.3" y1="-2.67" x2="307.34" y2="7.09" xlink:href="#linear-gradient"/><linearGradient id="linear-gradient-77" x1="20.31" y1="-2.94" x2="307.35" y2="6.83" gradientTransform="translate(0.69 -14.52) rotate(3)" xlink:href="#linear-gradient"/><linearGradient id="linear-gradient-78" x1="20.31" y1="-3.04" x2="307.35" y2="6.72" xlink:href="#linear-gradient"/><linearGradient id="linear-gradient-79" x1="20.29" y1="-2.51" x2="307.33" y2="7.26" xlink:href="#linear-gradient"/><linearGradient id="linear-gradient-80" x1="20.25" y1="-1.3" x2="307.29" y2="8.47" gradientTransform="translate(210.31 -273.48) rotate(72)" xlink:href="#linear-gradient"/><linearGradient id="linear-gradient-81" x1="20.27" y1="-1.78" x2="307.31" y2="7.98" xlink:href="#linear-gradient"/><linearGradient id="linear-gradient-82" x1="20.28" y1="-2.07" x2="307.32" y2="7.69" xlink:href="#linear-gradient"/><linearGradient id="linear-gradient-83" x1="20.23" y1="-0.79" x2="307.27" y2="8.98" xlink:href="#linear-gradient"/><linearGradient id="linear-gradient-84" x1="20.3" y1="-2.8" x2="307.34" y2="6.96" xlink:href="#linear-gradient"/><linearGradient id="linear-gradient-85" x1="20.31" y1="-3.03" x2="307.35" y2="6.74" xlink:href="#linear-gradient"/><linearGradient id="linear-gradient-86" x1="20.31" y1="-2.96" x2="307.35" y2="6.8" gradientTransform="translate(265.15 -277.38) rotate(84.99)" xlink:href="#linear-gradient"/><linearGradient id="linear-gradient-87" x1="20.2" y1="0.03" x2="307.25" y2="9.8" xlink:href="#linear-gradient"/><linearGradient id="linear-gradient-88" x1="20.22" y1="-0.37" x2="307.26" y2="9.39" xlink:href="#linear-gradient"/><linearGradient id="linear-gradient-89" x1="20.24" y1="-1.08" x2="307.28" y2="8.69" xlink:href="#linear-gradient"/><linearGradient id="linear-gradient-90" x1="20.28" y1="-2.06" x2="307.32" y2="7.7" xlink:href="#linear-gradient"/><linearGradient id="linear-gradient-91" x1="20.29" y1="-2.38" x2="307.33" y2="7.39" xlink:href="#linear-gradient"/><linearGradient id="linear-gradient-92" x1="20.26" y1="-1.6" x2="307.3" y2="8.17" gradientTransform="translate(6.26 -51.27) rotate(11)" xlink:href="#linear-gradient"/><linearGradient id="linear-gradient-93" x1="20.19" y1="0.35" x2="307.24" y2="10.12" xlink:href="#linear-gradient"/><linearGradient id="linear-gradient-94" x1="20.16" y1="1.19" x2="307.21" y2="10.96" xlink:href="#linear-gradient"/><linearGradient id="linear-gradient-95" x1="19.57" y1="18.72" x2="306.61" y2="28.48" xlink:href="#linear-gradient"/><linearGradient id="linear-gradient-96" x1="19.36" y1="24.94" x2="306.4" y2="34.71" xlink:href="#linear-gradient"/></defs><title>aslogo</title><g id="Layer_2" data-name="Layer 2"><g id="Layer_1-2" data-name="Layer 1"><path class="cls-1" d="M201.65,10.71Q204.07,9,204.07,7c-.14-2.68-1.34-4-3.61-4a4.11,4.11,0,0,0-2.55,1.36,74.07,74.07,0,0,1-6.54,5,30.8,30.8,0,0,1-2.83,1.76,2.73,2.73,0,0,0-1.34,2.47,5.41,5.41,0,0,0,1.8,3.58,2.93,2.93,0,0,0,2.18.47,12.3,12.3,0,0,0,4.14-2.3Q198,13.3,201.65,10.71Z"/><path class="cls-2" d="M197.15,16.23A19,19,0,0,1,194.34,18,2.81,2.81,0,0,0,193,20.51a4.88,4.88,0,0,0,.6,1.91,5.17,5.17,0,0,0,1.26,1.64,3.33,3.33,0,0,0,2.14.52,13,13,0,0,0,4.15-2.32l6.32-4.67q2.37-1.65,2.43-3.6c-.15-2.68-1.34-4-3.6-4a4.25,4.25,0,0,0-2.57,1.33A59.64,59.64,0,0,1,197.15,16.23Z"/><path class="cls-3" d="M218.59,25.34c-.77-.63-1.76-.58-3,.17a47.86,47.86,0,0,1-5.53,2.69,16.65,16.65,0,0,1-6,.95,110.26,110.26,0,0,1-15.28-.69A5.14,5.14,0,0,0,187,25.78a5.64,5.64,0,0,0-3.64-1.1,9.31,9.31,0,0,0-2.55.37,6,6,0,0,0-2.21,1.41,5.87,5.87,0,0,0-1.43,3.5A4.21,4.21,0,0,0,178.69,33a5.42,5.42,0,0,0-1.69,1.5,2.59,2.59,0,0,0-.38,2.19A4,4,0,0,0,178.05,39a7.45,7.45,0,0,0,.89.61,4.4,4.4,0,0,0,1.56.37,4.69,4.69,0,0,0,3.26-1.37l3.69-3.08a153.54,153.54,0,0,0,16.7.83,32.56,32.56,0,0,0,7.59-1A28,28,0,0,0,217.66,33a5,5,0,0,0,2.86-4.28,3.42,3.42,0,0,0-.5-1.93A5.64,5.64,0,0,0,218.59,25.34Z"/><path class="cls-4" d="M233.62,45.46a72.31,72.31,0,0,1-6.57,5c-1.08.71-2,1.3-2.84,1.75a2.76,2.76,0,0,0-1.34,2.46,5.1,5.1,0,0,0,.61,2,5.51,5.51,0,0,0,1.24,1.6,3,3,0,0,0,2.17.49A12.56,12.56,0,0,0,231,56.4q2.73-2,6.3-4.61,2.43-1.65,2.43-3.64c-.18-2.7-1.37-4.06-3.59-4.07A4.2,4.2,0,0,0,233.62,45.46Z"/><path class="cls-5" d="M241.31,26.38a8.35,8.35,0,0,0-5.46-1.8,13,13,0,0,0-7.43,2.52q-3.21,2.38-3.31,5.31a5.32,5.32,0,0,0,.53,2.22,6,6,0,0,0,3,2.49,28.77,28.77,0,0,1-5.88,3.76c-1.32.94-2,1.94-1.93,3a5.56,5.56,0,0,0,1,2.75,3.34,3.34,0,0,0,3,1.37q1.41,0,4.9-2.64,1.62-1.29,4.36-3.75c1.82-1.64,3.84-3.55,6-5.72s3.3-3.86,3.28-5A5.49,5.49,0,0,0,241.31,26.38Zm-6.51,5.89a2.57,2.57,0,0,1-.91.35c-.6,0-.9-.2-.9-.62a1,1,0,0,1,.33-.67,1.45,1.45,0,0,1,.81-.37c.81-.16,1.22,0,1.22.57A3.7,3.7,0,0,1,234.8,32.27Z"/><polygon class="cls-6" points="73.46 31.98 67.07 10.61 57.87 10.61 68.48 41.64 78.48 41.64 89.09 10.61 79.89 10.61 73.46 31.98"/><rect class="cls-7" x="91.68" y="10.61" width="8.4" height="31.03"/><path class="cls-8" d="M128.11,28.6a6.86,6.86,0,0,0-2.59-2.79,16.17,16.17,0,0,0-3.22-1.59l-3.83-1.3A19.48,19.48,0,0,1,114,21.27a2,2,0,0,1-1.15-1.74,1.77,1.77,0,0,1,.78-1.47,3.78,3.78,0,0,1,2.27-.58A5.28,5.28,0,0,1,121,20.94l7-3.9a11.91,11.91,0,0,0-4.88-5.28A14.56,14.56,0,0,0,115.86,10a12.43,12.43,0,0,0-8.15,2.66,8.52,8.52,0,0,0-3.26,7,7.7,7.7,0,0,0,2.63,6.22,18.21,18.21,0,0,0,7.13,3.48c2.12.58,3.5,1,4.12,1.24q2.22.84,2.22,2.19c0,1.38-1.28,2.07-3.85,2.07a6.53,6.53,0,0,1-6.48-4.12L103,34.59a11.12,11.12,0,0,0,4.79,5.63,16.36,16.36,0,0,0,8.64,2.09,14.71,14.71,0,0,0,9.06-2.58A8.41,8.41,0,0,0,129,32.6,8.93,8.93,0,0,0,128.11,28.6Z"/><path class="cls-9" d="M139.43,10.61,129,41.64h9.1l1.42-4.48h11.19l1.57,4.48h8.65L150,10.61Zm2.2,19.73,3.29-10.55,3.33,10.55Z"/><path class="cls-10" d="M246.22,30.87a8.5,8.5,0,0,0-3.28-6.82,11.39,11.39,0,0,0-7.42-2.47h0a16,16,0,0,0-9.14,3.11A12.42,12.42,0,0,0,223.21,28a6.2,6.2,0,0,0-.93-2.82A8.85,8.85,0,0,0,220.16,23a4.87,4.87,0,0,0-3-1.07,6.24,6.24,0,0,0-3.25,1,46.06,46.06,0,0,1-5.13,2.5,13.86,13.86,0,0,1-4.94.74l-3.31,0c.66-.4,1.37-.88,2.15-1.46L208.9,20c2.38-1.64,3.64-3.66,3.69-6v-.22c-.29-5.45-3.85-6.61-5.78-6.84V6.91C206.58,2.6,204.11,0,200.2,0h0a6.76,6.76,0,0,0-4.51,2.09,71.92,71.92,0,0,1-6.23,4.74,29.1,29.1,0,0,1-2.6,1.62,5.62,5.62,0,0,0-2.9,5v.13a8,8,0,0,0,.79,3.15l.1.22a8.89,8.89,0,0,0,1.95,2.51,5.11,5.11,0,0,0,2.92,1.17,7.73,7.73,0,0,0,.92,3.19,8.64,8.64,0,0,0,1.44,2c-.52,0-1-.08-1.48-.12a8.3,8.3,0,0,0-2-2.25A8.61,8.61,0,0,0,183,21.68h0a12.37,12.37,0,0,0-3.38.5,9,9,0,0,0-3.35,2.07l0,0,0,0-.23.26,0,0,0,0A8.77,8.77,0,0,0,173.91,30a6.42,6.42,0,0,0,.55,2.62,1.09,1.09,0,0,0-.13.17,5.52,5.52,0,0,0-.89,4.66,7,7,0,0,0,2.48,3.89,9.66,9.66,0,0,0,1.28.87,7,7,0,0,0,2.77.75l.49,0a7.8,7.8,0,0,0,5-2.08l2.72-2.26c4.75.47,10.05.71,15.78.71H204a35.88,35.88,0,0,0,8.29-1.1,31.13,31.13,0,0,0,6.54-2.55A8.51,8.51,0,0,0,221.88,33a8.33,8.33,0,0,0,.75,2.86,5.21,5.21,0,0,0,.71,1.18q-1,.61-2.16,1.17h0l0,0-.28.17,0,0,0,0c-2.72,1.93-3.23,4.13-3.19,5.63a8.65,8.65,0,0,0,1.55,4.26,5.92,5.92,0,0,0,2.29,2,6,6,0,0,0-1.8,4.1v.16a7.82,7.82,0,0,0,1,3.4,8.34,8.34,0,0,0,2,2.51,5.55,5.55,0,0,0,3.72,1.21,5.72,5.72,0,0,0,.58,0h.06l.27,0h.07a14.65,14.65,0,0,0,5.33-2.84l6.23-4.56c2.46-1.66,3.72-3.72,3.72-6.1V48c-.26-4.09-2.29-5.77-4.07-6.45,1.16-1.1,2.38-2.27,3.62-3.5C245,35.17,246.25,33,246.22,30.87Zm-54.7-7.53a6.63,6.63,0,0,1-.82-2.83v-.15a5.67,5.67,0,0,1,.1-.75l-.37,0a4.5,4.5,0,0,1-3-1,7.81,7.81,0,0,1-1.7-2.19l-.08-.17a7.22,7.22,0,0,1-.71-2.74v-.1a4.64,4.64,0,0,1,2.39-4.13A30.57,30.57,0,0,0,190,7.68a71.2,71.2,0,0,0,6.37-4.84A5.84,5.84,0,0,1,200.19,1c3.38,0,5.42,2.19,5.62,5.94V7a5.87,5.87,0,0,1-.09.94L206,8c1.6,0,5.31.61,5.59,5.94V14c-.05,2-1.15,3.72-3.29,5.19L202,23.87a19.74,19.74,0,0,1-3.64,2.23c-1.72,0-3.25-.09-4.59-.16a3.27,3.27,0,0,1-.5-.32A6.85,6.85,0,0,1,191.52,23.34Zm30.73,5.55a7,7,0,0,1-3.92,5.89A29.89,29.89,0,0,1,212,37.24a34.36,34.36,0,0,1-8.06,1.07h0a157.52,157.52,0,0,1-16.1-.75c-1,.87-2.06,1.71-3,2.54a6.87,6.87,0,0,1-4.32,1.84l-.38,0a6.24,6.24,0,0,1-2.39-.62,9.64,9.64,0,0,1-1.14-.78,6,6,0,0,1-2.13-3.33,4.57,4.57,0,0,1,.71-3.85,7.64,7.64,0,0,1,.51-.62,5.53,5.53,0,0,1-.73-2.76,7.82,7.82,0,0,1,1.84-4.72L177,25a7.87,7.87,0,0,1,3-1.85,11.57,11.57,0,0,1,3.08-.46h0a7.62,7.62,0,0,1,5,1.55,7.47,7.47,0,0,1,2,2.41c1,.12,2.15.21,3.54.29a6.6,6.6,0,0,0,3.07.65h.27l.39,0h.1a6.65,6.65,0,0,0,1.27-.41c1.58,0,3.3,0,5.19,0a14.69,14.69,0,0,0,5.3-.81,45.49,45.49,0,0,0,5.29-2.58,5.19,5.19,0,0,1,2.73-.87,4,4,0,0,1,2.45.87,8,8,0,0,1,1.88,2,5.51,5.51,0,0,1,.82,3Zm14.1,13.21c1.71.12,4.83,1,5.14,5.92v.13c0,2-1.12,3.81-3.31,5.29L232,58A13.64,13.64,0,0,1,227,60.67l-.27,0h-.51a4.58,4.58,0,0,1-3.07-1,7.42,7.42,0,0,1-1.71-2.19,6.82,6.82,0,0,1-.86-2.92v-.13A4.67,4.67,0,0,1,223,50.43c.24-.13.51-.3.78-.46a5.07,5.07,0,0,1-3.81-2.2A7.6,7.6,0,0,1,218.57,44c0-1.3.41-3.12,2.77-4.79l.28-.17a28.44,28.44,0,0,0,3.27-1.86,5.32,5.32,0,0,1-1.35-1.78,7.24,7.24,0,0,1-.69-3.08c.09-2.6,1.47-4.9,4.12-6.86a14.89,14.89,0,0,1,8.54-2.92h0a10.41,10.41,0,0,1,6.79,2.25,7.54,7.54,0,0,1,2.91,6.05c0,1.78-1.17,3.78-3.88,6.45C239.56,39.08,237.89,40.67,236.35,42.1Z"/><path class="cls-11" d="M152.11,8.28l-.23-.67H137l-.23.68-6.34,18.79a9.88,9.88,0,0,0-3.59-3.82,22.32,22.32,0,0,0-2-1.13l6.12-3.39.83-.46-.42-.85-.84-1.71a15,15,0,0,0-6.09-6.56A17.54,17.54,0,0,0,115.59,7a15.46,15.46,0,0,0-10,3.33,12,12,0,0,0-2.73,3.1V7.61H77.4l-.22.71-4,13.22L69.26,8.33l-.21-.72H53.41l.45,1.33,12,35,.24.67H80.36L80.6,44l7.81-22.86V44.64h14.41V40.22A15.29,15.29,0,0,0,106,42.79a21.71,21.71,0,0,0,18.9.68l-.4,1.17H140l.23-.7,1.19-3.78h6.87L149.61,44l.23.67h15l-.47-1.33Zm-1.56,35.36L149,39.16h-8.3l-1.42,4.48H125.91l.86-2.56-.31.26a16.72,16.72,0,0,1-10.26,3,18.4,18.4,0,0,1-9.68-2.38,13.36,13.36,0,0,1-4.7-4.72v6.43H89.41V15.09L79.65,43.64H66.79l-12-35H68.3L73.2,25,78.14,8.61h23.68V32.84l6.55-3.6a16.3,16.3,0,0,1-2.85-1.92,9.66,9.66,0,0,1-3.34-7.75,10.5,10.5,0,0,1,4-8.51A14.44,14.44,0,0,1,115.59,8,16.6,16.6,0,0,1,123.91,10a14,14,0,0,1,5.69,6.13l.83,1.71-7.94,4.4.19.06a17.82,17.82,0,0,1,3.64,1.78,8.89,8.89,0,0,1,3.32,3.6h0a9.74,9.74,0,0,1,.81,2.46l7.28-21.56h13.44l12.27,35ZM102.82,31.15V25.73a10.34,10.34,0,0,0,2.05,2.35,15.65,15.65,0,0,0,1.49,1.12Z"/><path class="cls-12" d="M114.79,19.57h0a16,16,0,0,0,3.68,1.35,3.1,3.1,0,0,0-2.83-1.44A3.46,3.46,0,0,0,114.79,19.57Z"/><path class="cls-13" d="M117.94,32.64a3.7,3.7,0,0,0-.58-.26c-.4-.16-1.39-.48-3.94-1.18-.35-.09-.7-.2-1-.3a4.53,4.53,0,0,0,4.06,1.87A6.85,6.85,0,0,0,117.94,32.64Z"/><polygon class="cls-14" points="144.09 28.34 145.26 28.34 144.67 26.47 144.09 28.34"/><path class="cls-15" d="M300.4,6a55.42,55.42,0,0,0-21.07-4.84h0A55.41,55.41,0,0,0,258.25,6l-.73.31v.79c0,18.84,4.69,33.43,21.16,43.88l.64.4.64-.4c16.48-10.45,21.17-25,21.17-43.88V6.27Zm-21.08,44c-15.57-9.88-20.61-23.58-20.61-42.87a54.08,54.08,0,0,1,20.61-4.75C286,2.38,292.69,4,299.93,7.06,299.93,26.35,294.89,40.05,279.32,49.93Z"/><path class="cls-16" d="M267.84,25a2.55,2.55,0,0,0-.8-1.74c-.59,1.42,0,1.61.62,2.67.55-.73,1.27,0,1.95-1.64A2,2,0,0,0,267.84,25Zm-.14.65a.29.29,0,0,1,.07-.42C267.86,25.31,267.87,25.61,267.7,25.65Z"/><path class="cls-17" d="M283,38.49c.43-.45.24-1,.54-1.64-1,.39-1.51.89-1.41,1.62a10.2,10.2,0,0,1-1.41.5,6,6,0,0,0-1.43.61A6.14,6.14,0,0,0,277.9,39a9.68,9.68,0,0,1-1.41-.5c.1-.73-.38-1.23-1.41-1.62.3.69.11,1.19.54,1.64-1.32-.16-1.32.3-2.06.44a4.86,4.86,0,0,0,1.54.52,1.35,1.35,0,0,0,1.21-.59,8.85,8.85,0,0,0,1.29.46,5.28,5.28,0,0,1,1.33.53,5,5,0,0,0-.56.5,8.48,8.48,0,0,1-.62.58,1,1,0,0,0-.77.13.83.83,0,0,0-.35.44,2.22,2.22,0,0,0,1.68-.44q.18-.15.54-.51a3.84,3.84,0,0,1,.47-.44,3.9,3.9,0,0,1,.48.44,5.4,5.4,0,0,0,.54.51,2.2,2.2,0,0,0,1.67.44.78.78,0,0,0-.35-.44.94.94,0,0,0-.76-.13,8.18,8.18,0,0,1-.63-.58,5,5,0,0,0-.55-.5,5.06,5.06,0,0,1,1.32-.53,9.13,9.13,0,0,0,1.3-.46,1.34,1.34,0,0,0,1.21.59,5,5,0,0,0,1.54-.52C284.34,38.79,284.35,38.33,283,38.49Z"/><path class="cls-18" d="M270.55,32.83c-.43.78-.83,1.41-.65,1.78A2.45,2.45,0,0,0,268,34c.8,1.57,1.17.89,2.48,1.34C270.33,34.91,271.34,34.46,270.55,32.83Zm-.51,2c.11,0,.36.14.29.31A.29.29,0,0,1,270,34.81Z"/><path class="cls-19" d="M274.86,38.26c-.36-1.19.28-1.34-1.17-2.19-.15.76-.19,1.41.29,1.8a2.17,2.17,0,0,0-1.9.27C273.6,39.38,274.09,38.16,274.86,38.26Zm-.6-.28c.09-.07.39,0,.39.17A.3.3,0,0,1,274.26,38Z"/><path class="cls-20" d="M272.51,35.13a2,2,0,0,0-.06,1.88,2.74,2.74,0,0,0-2,0,2.15,2.15,0,0,0,2.72.52C273.11,36.87,273.69,36.07,272.51,35.13Zm.14,2c.11-.07.4,0,.38.19A.29.29,0,0,1,272.65,37.16Z"/><path class="cls-21" d="M268.9,32.12a1.8,1.8,0,0,0,.48-2,2.07,2.07,0,0,0-1.12,1.54,2.15,2.15,0,0,0-1.63-1c.41,1.75.9,1.29,2,1.92C268.62,32.4,268.79,32.2,268.9,32.12Zm-.4.12a.28.28,0,0,1-.18-.38C268.44,31.87,268.62,32.11,268.5,32.24Z"/><path class="cls-22" d="M271.75,36.5c-.1-.81.61-1.16-.41-2.49-.34.77-.69,1.4-.36,1.81a2,2,0,0,0-1.92-.36C269.74,36.43,270.28,36.71,271.75,36.5Zm-.22-.18a.29.29,0,0,1-.34-.26C271.3,36,271.57,36.15,271.53,36.32Z"/><path class="cls-23" d="M269.77,31.5c-.18.25-.95,1-.84,1.63a2.38,2.38,0,0,0-1.7-.69c.8,1.74,1.34,1,2.25,1.6C269.61,33.2,270.43,32.83,269.77,31.5Zm-.45,2.25a.29.29,0,0,1-.24-.35C269.2,33.39,269.42,33.6,269.32,33.75Z"/><path class="cls-24" d="M273.06,19.48a2,2,0,0,0-1.93-.16,1.91,1.91,0,0,0,.43-1.88,1.53,1.53,0,0,0-1,1.88,1.64,1.64,0,0,1-.12.71,1,1,0,0,1,.42-.11C271.73,20,272.25,20.28,273.06,19.48Zm-2.39.26a.3.3,0,0,1,.31-.3C271,19.56,270.84,19.81,270.67,19.74Z"/><path class="cls-25" d="M274.35,18.52a1.85,1.85,0,0,0-1.89-.25,2.11,2.11,0,0,0,.69-1.77c-1.6.63-.86,1.72-1.44,2.32a.57.57,0,0,1,.46,0,1.76,1.76,0,0,0,1.05.25A2.56,2.56,0,0,0,274.35,18.52Zm-2.37.11a.29.29,0,0,1,.33-.28C272.33,18.47,272.15,18.7,272,18.63Z"/><path class="cls-26" d="M275,17.3c.11-.15.32-.54.66-1.18-.93.12-2.25.13-2.38,1.31,0,.22-.36.44-.43.56a1.24,1.24,0,0,1,.58-.06A1.45,1.45,0,0,0,275,17.3Z"/><path class="cls-27" d="M270,20.54a1.87,1.87,0,0,0,.28-.95,1.52,1.52,0,0,0-.23-.92c-1.34,1.27-.33,1.75-.63,2.66a.55.55,0,0,1,.58,0c.69.22,1.39-.29,1.9-.82A1.78,1.78,0,0,0,270,20.54Zm-.37.49a.29.29,0,0,1,.24-.35C269.92,20.79,269.81,21.07,269.63,21Z"/><path class="cls-28" d="M267.66,29.36c.57-.82,1.38-.24,1.28-2.17a2.25,2.25,0,0,0-1.39,1.19,2.53,2.53,0,0,0-1.27-1.52C266.18,28.37,266.73,28.63,267.66,29.36Zm-.08-.66a.28.28,0,0,1,.05.42A.29.29,0,0,1,267.58,28.7Z"/><path class="cls-29" d="M268,30.94c.33-.72,1.14-.45,1-2.3a2.54,2.54,0,0,0-1.2,1.37c-.14-.55-.59-.74-1.45-1.21A2.13,2.13,0,0,0,268,30.94Zm-.18-.64c.12,0,.26.3.12.41A.29.29,0,0,1,267.83,30.3Z"/><path class="cls-30" d="M267.57,26.68a2.3,2.3,0,0,0-1.05-1.62c-.42,1.75.72,2,1,2.63.45-.85,1.24-.12,1.64-2C268.45,25.82,267.77,26,267.57,26.68Zm0,.73a.3.3,0,0,1,0-.43C267.65,27.05,267.7,27.34,267.53,27.41Z"/><path class="cls-31" d="M271,21.66A2,2,0,0,0,269,22a3.28,3.28,0,0,0,.21-1,1.49,1.49,0,0,0-.35-1.05,1.91,1.91,0,0,0-.34,2.47.51.51,0,0,1,.06.36c.22-.18.45,0,.85-.1A2.11,2.11,0,0,0,271,21.66Zm-2.21.89a.29.29,0,0,1,.19-.39C269,22.26,268.92,22.55,268.74,22.55Z"/><path class="cls-32" d="M268.29,23.51a2,2,0,0,0-.51-1.87,2,2,0,0,0,0,2.24.83.83,0,0,1,.22.47c.06-.13.32-.2.52-.21,1,.1,1.16-.77,1.58-1.31A2.22,2.22,0,0,0,268.29,23.51Zm-.18.54a.29.29,0,0,1,.15-.4C268.33,23.75,268.29,24,268.11,24.05Z"/><path class="cls-33" d="M290.88,30a2.57,2.57,0,0,0-1.21-1.37c-.18,1.85.63,1.58,1,2.3a2.14,2.14,0,0,0,1.7-2.14C291.47,29.27,291,29.46,290.88,30Zm-.18.7c-.14-.11,0-.38.11-.41A.29.29,0,0,1,290.7,30.71Z"/><path class="cls-34" d="M288.75,34.61c.18-.37-.22-1-.66-1.78-.92,1.75.23,2.08.08,2.47,1.13-.31,1.86,0,2.48-1.34A2.43,2.43,0,0,0,288.75,34.61Zm-.44.51c-.07-.17.18-.34.3-.31A.3.3,0,0,1,288.31,35.12Z"/><path class="cls-35" d="M289.48,25.68c.4,1.89,1.19,1.16,1.63,2,.3-.63,1.44-.88,1-2.63a2.36,2.36,0,0,0-1.05,1.62C290.87,26,290.19,25.82,289.48,25.68Zm1.63,1.73c-.17-.07-.11-.36,0-.43A.29.29,0,0,1,291.11,27.41Z"/><path class="cls-36" d="M287.8,19.92a1,1,0,0,1,.41.11,1.62,1.62,0,0,1-.11-.71,1.54,1.54,0,0,0-1-1.88,1.93,1.93,0,0,0,.43,1.88,2,2,0,0,0-1.93.16C286.39,20.28,286.91,20,287.8,19.92Zm.17-.18c-.16.07-.33-.18-.3-.3A.29.29,0,0,1,288,19.74Z"/><path class="cls-37" d="M290.39,31.67a2.1,2.1,0,0,0-1.12-1.54,1.8,1.8,0,0,0,.48,2c.1.08.28.28.25.43,1.11-.63,1.61-.17,2-1.92A2.15,2.15,0,0,0,290.39,31.67Zm-.24.57c-.13-.13.05-.37.17-.38A.29.29,0,0,1,290.15,32.24Z"/><path class="cls-38" d="M290.81,25a2,2,0,0,0-1.77-.71c.68,1.68,1.4.91,1.95,1.64.6-1.06,1.2-1.25.61-2.67A2.5,2.5,0,0,0,290.81,25Zm.14.65c-.18,0-.17-.34-.08-.42A.3.3,0,0,1,291,25.65Z"/><path class="cls-39" d="M288.53,22.83c.42.54.64,1.41,1.59,1.31.2,0,.45.08.52.21a.77.77,0,0,1,.22-.47,1.94,1.94,0,0,0,0-2.24,2.09,2.09,0,0,0-.51,1.87A2.21,2.21,0,0,0,288.53,22.83Zm1.86.82a.3.3,0,0,1,.15.4C290.36,24,290.31,23.75,290.39,23.65Z"/><path class="cls-40" d="M288.65,21.31a.53.53,0,0,1,.57,0c-.29-.91.71-1.39-.62-2.66a1.45,1.45,0,0,0-.24.92,2,2,0,0,0,.29.95,1.78,1.78,0,0,0-1.9-.05C287.26,21,288,21.53,288.65,21.31Zm.12-.63A.28.28,0,0,1,289,21C288.84,21.07,288.73,20.79,288.77,20.68Z"/><path class="cls-41" d="M284.67,37.87c.48-.39.43-1,.29-1.8-1.46.85-.82,1-1.18,2.19.77-.1,1.27,1.12,2.79-.12A2.17,2.17,0,0,0,284.67,37.87Zm-.68.28c0-.18.3-.24.4-.17A.31.31,0,0,1,284,38.15Z"/><path class="cls-42" d="M288.87,31.5c-.66,1.33.16,1.7.29,2.54.91-.59,1.45.14,2.26-1.6a2.38,2.38,0,0,0-1.7.69C289.82,32.53,289.06,31.75,288.87,31.5Zm.45,2.25c-.09-.15.12-.36.24-.35A.29.29,0,0,1,289.32,33.75Z"/><path class="cls-43" d="M289.19,22.7c.4.07.63-.08.86.1a.45.45,0,0,1,.05-.36,1.91,1.91,0,0,0-.33-2.47,1.54,1.54,0,0,0-.36,1.05,3,3,0,0,0,.22,1,2,2,0,0,0-1.93-.33A2.09,2.09,0,0,0,289.19,22.7Zm.53-.54a.3.3,0,0,1,.19.39C289.73,22.55,289.65,22.26,289.72,22.16Z"/><path class="cls-44" d="M286.2,37a2,2,0,0,0-.07-1.88c-1.17.94-.59,1.74-.7,2.35a2.16,2.16,0,0,0,2.73-.52A2.74,2.74,0,0,0,286.2,37Zm-.59.34c0-.17.28-.26.38-.19A.29.29,0,0,1,285.61,37.35Z"/><path class="cls-45" d="M286.48,18.83a.57.57,0,0,1,.46,0c-.59-.6.16-1.69-1.45-2.32a2.09,2.09,0,0,0,.7,1.77,1.85,1.85,0,0,0-1.89.25,2.46,2.46,0,0,0,1.13.56A1.78,1.78,0,0,0,286.48,18.83Zm.18-.2c-.16.07-.34-.16-.32-.28A.29.29,0,0,1,286.66,18.63Z"/><path class="cls-46" d="M285.18,17.93a1.24,1.24,0,0,1,.58.06c-.07-.12-.41-.34-.43-.56-.13-1.18-1.46-1.19-2.38-1.31a11.79,11.79,0,0,0,.66,1.18A1.45,1.45,0,0,0,285.18,17.93Z"/><path class="cls-47" d="M291.09,28.38a2.23,2.23,0,0,0-1.38-1.19c-.11,1.93.71,1.35,1.28,2.17.93-.73,1.47-1,1.37-2.5A2.57,2.57,0,0,0,291.09,28.38Zm-.07.74a.27.27,0,0,1,.05-.42A.3.3,0,0,1,291,29.12Z"/><path class="cls-48" d="M287.67,35.82c.33-.41,0-1-.36-1.81-1,1.33-.31,1.68-.42,2.49,1.47.21,2-.07,2.7-1A2,2,0,0,0,287.67,35.82Zm-.55.5c-.05-.17.22-.3.33-.26A.28.28,0,0,1,287.12,36.32Z"/><path class="cls-49" d="M296.7,13.93l-1.25.2h-.06l1.13-.21a.18.18,0,0,0,.12-.23.17.17,0,0,0-.22-.11l-1.05.5,0,0,0,0,.93-.49a.16.16,0,0,0,0-.24.15.15,0,0,0-.22,0l-.78.74h0l0,0,.73-.76a.17.17,0,0,0,0-.24.15.15,0,0,0-.23,0l-.5.95h0v0l.5-1.05a.18.18,0,0,0-.11-.23.17.17,0,0,0-.22.12L295.24,14v-.05l.2-1.23a.23.23,0,0,0-.23-.25c-.12,0-.26.11-.24.24l.2,1.25a0,0,0,0,1,0,.05l-.2-1.13a.18.18,0,0,0-.23-.11.16.16,0,0,0-.11.22l.5,1.05a0,0,0,0,1,0,0v0l-.49-.93a.17.17,0,0,0-.24,0,.15.15,0,0,0,0,.23l.74.77s0,0,0,0l0,0-.76-.73a.17.17,0,0,0-.24,0,.15.15,0,0,0,0,.23l.95.51h0l-1.05-.5a.17.17,0,0,0-.23.1.17.17,0,0,0,.11.22l1.14.22H295l-1.22-.21a.23.23,0,0,0-.25.23.22.22,0,0,0,.24.24l1.24-.2h0l-1.12.22a.16.16,0,0,0-.11.21.18.18,0,0,0,.23.11l1.05-.5h0l-.95.51a.15.15,0,0,0,0,.23.17.17,0,0,0,.24,0l.76-.73,0,0v0l-.74.78a.15.15,0,0,0,0,.23.17.17,0,0,0,.24,0l.49-.94v0s0,0,0,0l-.5,1a.17.17,0,0,0,.11.22.18.18,0,0,0,.23-.12l.2-1.12a.06.06,0,0,1,0,.06l-.2,1.23a.24.24,0,0,0,.23.25.23.23,0,0,0,.24-.24l-.2-1.25v0l.21,1.12a.17.17,0,0,0,.22.12.18.18,0,0,0,.11-.23l-.5-1s0,0,0,0h0l.5.95a.15.15,0,0,0,.23,0,.17.17,0,0,0,0-.24l-.73-.76,0,0,0,0,.78.74a.15.15,0,0,0,.22,0,.17.17,0,0,0,0-.24l-.93-.48,0,0h0l1.05.51a.17.17,0,0,0,.22-.12.17.17,0,0,0-.12-.22l-1.13-.21h.07l1.22.2a.23.23,0,0,0,.25-.23C296.94,14,296.83,13.9,296.7,13.93Zm-1.49.27a0,0,0,1,1,0-.08s0,0,0,0S295.23,14.2,295.21,14.2Z"/><path class="cls-50" d="M264.93,13.93l-1.25.2h-.05l1.12-.21a.18.18,0,0,0,.12-.23.16.16,0,0,0-.22-.11l-1,.5,0,0,0,0,.93-.49a.17.17,0,0,0,0-.24.16.16,0,0,0-.23,0l-.78.74h0s0,0,0,0l.73-.76a.17.17,0,0,0,0-.24.15.15,0,0,0-.23,0l-.51.95h0v0L264,13a.18.18,0,0,0-.1-.23.17.17,0,0,0-.22.12L263.47,14v-.05l.2-1.23a.23.23,0,1,0-.46,0l.2,1.25V14l-.21-1.13a.18.18,0,0,0-.23-.11.16.16,0,0,0-.11.22l.5,1.05,0,0,0,0-.49-.93a.17.17,0,0,0-.24,0,.16.16,0,0,0,0,.23l.74.77,0,0,0,0-.76-.73a.17.17,0,0,0-.24,0,.15.15,0,0,0,0,.23l.95.51h0l-1-.5a.17.17,0,0,0-.23.1.17.17,0,0,0,.12.22l1.13.22h-.06L262,13.92a.24.24,0,0,0-.25.23.23.23,0,0,0,.24.24l1.25-.2h0l-1.11.22a.16.16,0,0,0-.12.21.18.18,0,0,0,.23.11l1-.5h0l-.95.51a.15.15,0,0,0,0,.23.17.17,0,0,0,.24,0l.76-.73,0,0,0,0-.74.78a.16.16,0,0,0,0,.23.17.17,0,0,0,.24,0l.49-.94,0,0,0,0-.5,1a.17.17,0,0,0,.11.22.18.18,0,0,0,.23-.12l.21-1.12v.06l-.21,1.23a.24.24,0,0,0,.23.25.23.23,0,0,0,.24-.24l-.2-1.25v0l.22,1.12a.17.17,0,0,0,.22.12.18.18,0,0,0,.1-.23l-.5-1s0,0,0,0h0l.51.95a.15.15,0,0,0,.23,0,.17.17,0,0,0,0-.24l-.73-.76,0,0,0,0,.78.74a.16.16,0,0,0,.23,0,.17.17,0,0,0,0-.24l-.93-.48,0,0h0l1,.51a.16.16,0,0,0,.22-.12.17.17,0,0,0-.12-.22l-1.12-.21h.06l1.23.2a.24.24,0,0,0,.25-.23C265.17,14,265.06,13.9,264.93,13.93Zm-1.49.27a0,0,0,0,1,0-.08,0,0,0,0,1,0,.08A0,0,0,0,1,263.44,14.2Z"/><path class="cls-51" d="M272,12.36a.55.55,0,0,1-.17.05.25.25,0,1,0,.11.48,5.65,5.65,0,0,0,.79-.65,2.08,2.08,0,0,0,.41,0,.45.45,0,0,0,.25-.07.17.17,0,0,0,0-.21c0-.07-.1-.08-.18-.13l.3-.22a.27.27,0,0,0,.1-.16.19.19,0,0,0-.29-.15l-.51.33h0c-.15-.06-.4,0-.46.14a.22.22,0,0,0,.05.26l-.09.08A2,2,0,0,1,272,12.36Z"/><path class="cls-52" d="M276,11.93c-.12,0-.28.12-.27.26s0,0,0,.07a.21.21,0,0,0,.21.16,1.31,1.31,0,0,0,.6-.24l.12-.07.12-.07a1.7,1.7,0,0,0,.4-.32c.2-.28,0-.54-.26-.62a1.68,1.68,0,0,0-.7.07.26.26,0,0,0-.06.41.16.16,0,0,0,.11.05c.15,0,.26-.09.45-.08l0,0A1.34,1.34,0,0,1,276,11.93Z"/><path class="cls-53" d="M274.36,12.53a1.51,1.51,0,0,0,.62-.11c.26-.1.43-.42.24-.6l-.09-.07c0-.05.28-.14.32-.17a.19.19,0,0,0,.08-.23.2.2,0,0,0-.13-.17.56.56,0,0,0-.41.12c-.12.08-.33.23-.37.37a.24.24,0,0,0,.05.2.48.48,0,0,0,.11.09s0,0,0,0c-.26.14-.29,0-.49.05a.3.3,0,0,0-.13.06.23.23,0,0,0,0,.38Z"/><polygon class="cls-54" points="271.65 12.53 271.65 12.53 271.65 12.54 271.65 12.53 271.65 12.53 271.65 12.53"/><path class="cls-55" d="M273.12,10.61l0,0c.1-.11.21-.16.29-.29a.23.23,0,0,0-.24-.31l-.06,0a1.07,1.07,0,0,0-.27.25,1.13,1.13,0,0,0-.23.43.33.33,0,0,0,.09.3l.08.07c.17.09.58.1.68-.12a.3.3,0,0,0,0-.21.17.17,0,0,0-.2-.1s-.16.07-.19,0h0Z"/><polygon class="cls-56" points="270.03 11.78 269.71 12.35 269.78 12.34 269.9 12.31 270.2 11.99 270.41 12.19 270.59 12.15 270.34 11.71 270.03 11.78"/><path class="cls-57" d="M268.62,13.17a.27.27,0,0,0,.19.25c.18.06.52-.36.61-.51a5.39,5.39,0,0,0,1.2-.14h0l.09,0,.13,0c.29-.11.55-.22.65-.53a.24.24,0,0,0-.22-.32c-.15,0-.17.05-.24.15a.63.63,0,0,1-.31.26,3.67,3.67,0,0,1-1.35.25.4.4,0,0,0-.4-.15.45.45,0,0,0-.34.21.31.31,0,0,0,.09.39h0A.29.29,0,0,0,268.62,13.17Z"/><path class="cls-58" d="M270,10.66a3.24,3.24,0,0,1-.77.6c-.16.12,0,.4.16.4a.22.22,0,0,0,.11,0,1.7,1.7,0,0,0,.34-.26l.28-.23.1-.09.11-.1a.21.21,0,0,0,0-.31C270.24,10.52,270.11,10.56,270,10.66Z"/><path class="cls-59" d="M266.74,14.26a3.17,3.17,0,0,0,.28-.34.7.7,0,0,0,.06-.09,1.47,1.47,0,0,0,.14-.28l.19-.08a.26.26,0,0,0,.28.14.89.89,0,0,0,.6-.55.29.29,0,0,0,0-.09.24.24,0,0,0-.34-.21c-.11.05-.07.15-.12.23a.46.46,0,0,1-.12.12c0-.09-.15-.24-.27-.2s-.15.15-.26.22l-.08,0a.28.28,0,0,0-.29.07.3.3,0,0,0-.07.39,1.73,1.73,0,0,1-.36.45l-.1,0a.27.27,0,0,0-.18.33.26.26,0,0,0,.25.16C266.5,14.52,266.66,14.35,266.74,14.26Z"/><path class="cls-60" d="M267.28,12.6a.65.65,0,0,0,.35-.26.58.58,0,0,0,.05-.63.47.47,0,0,0-.5-.21C266.37,11.67,266.49,12.89,267.28,12.6Zm0-.67c.06.08-.1.31-.22.27s.06-.31.15-.31A.1.1,0,0,1,267.31,11.93Z"/><path class="cls-61" d="M292.07,11.24a1.51,1.51,0,0,0-1.21.54.41.41,0,0,0,0,.53c.12.16.46.33.61.16a.14.14,0,0,0,.05-.08.2.2,0,0,0-.22-.26c-.1,0-.12,0-.1-.09a1.1,1.1,0,0,1,.73-.37h.15c.05,0,0,.07,0,.1s-.43.1-.5.2a.2.2,0,0,0,0,.21.23.23,0,0,0,.22.12,1.24,1.24,0,0,0,.41-.12.51.51,0,0,0,.24-.17.47.47,0,0,0,.1-.44A.53.53,0,0,0,292.07,11.24Z"/><path class="cls-62" d="M287.69,13.49c.06.11.16.12.28.11l.16,0a6,6,0,0,0,.71-.26l1-.35a.22.22,0,0,0,.13-.31c-.05-.2-.28-.13-.42-.11h0l0,0a.18.18,0,0,0,0-.1.24.24,0,0,0,0-.14.21.21,0,0,0-.29-.07.4.4,0,0,0-.19.15c-.15.11-.33,0-.47.14a.19.19,0,0,0,.06.3,1.05,1.05,0,0,0,.24.06,2.2,2.2,0,0,1-.82.27C287.77,13,287.56,13.28,287.69,13.49Z"/><path class="cls-63" d="M284.05,12.48a.27.27,0,0,0,.26.32,4.83,4.83,0,0,0,1.6-.61A.38.38,0,0,0,286,12c.08-.32-.31-.51-.57-.52s-.62.11-.69.41a.33.33,0,0,0,0,.24l0,.06-.31.09c-.09,0-.13,0-.21,0A.29.29,0,0,0,284.05,12.48Zm1.26-.61c.11,0,.14,0,.14.05s0,.07,0,.09l-.07,0a.08.08,0,0,1-.1,0,.07.07,0,0,1,0,0A.1.1,0,0,1,285.31,11.87Z"/><path class="cls-64" d="M286.5,12.26l.12.05a1.33,1.33,0,0,0-.31.18c-.1.1,0,.28.06.33a1.8,1.8,0,0,0,.34.16,2.21,2.21,0,0,0,.62.14.2.2,0,0,0,.15-.09.26.26,0,0,0,0-.3c-.13-.13-.21,0-.48-.13h0a1.1,1.1,0,0,0,.3-.19.15.15,0,0,0,0-.13c0-.15-.17-.21-.32-.28.1-.06.14-.09.14-.21a.24.24,0,0,0-.32-.19l0,0a3,3,0,0,0-.37.25C286.24,12,286.31,12.18,286.5,12.26Z"/><path class="cls-65" d="M279.17,11.38c0-.29-.13-.51-.42-.38s-.69.45-1.09.62l0,0c-.18.06-.2.49.09.49a.58.58,0,0,0,.2-.05c.16-.08.28-.22.5-.35l.33-.23a.5.5,0,0,1-.2.25.24.24,0,0,0-.08.09.23.23,0,0,0,.34.28.63.63,0,0,0,.23-.23A1.11,1.11,0,0,0,279.17,11.38Z"/><path class="cls-66" d="M271.89,11.28a.24.24,0,0,0,.09.06c.17.08.58.05.66-.19a.29.29,0,0,0,0-.2.19.19,0,0,0-.21-.08s-.15.09-.19.06h0l0-.05,0,0c.1-.12.2-.17.27-.32a.22.22,0,0,0-.26-.28l-.06,0a1.35,1.35,0,0,0-.25.28,1.07,1.07,0,0,0-.19.44A.34.34,0,0,0,271.89,11.28Z"/><path class="cls-67" d="M275.19,9.83c-.81-.11-1.1,1.09-.26,1.07a.7.7,0,0,0,.42-.13.58.58,0,0,0,.25-.58A.48.48,0,0,0,275.19,9.83Zm-.3.63c-.13-.09.15-.27.24-.25a.15.15,0,0,1,.05.06C275.21,10.37,275,10.53,274.89,10.46Z"/><path class="cls-68" d="M276.69,12.7a3,3,0,0,1-.84.5.24.24,0,0,0,.12.41h.11a2,2,0,0,0,.37-.21l.3-.2.12-.08L277,13a.22.22,0,0,0,.05-.3C276.94,12.59,276.81,12.62,276.69,12.7Z"/><path class="cls-69" d="M278.45,12.62a3.27,3.27,0,0,1-.84.5c-.17.1-.07.4.11.42h.11a1.68,1.68,0,0,0,.37-.21l.3-.2.12-.08.12-.08a.21.21,0,0,0,.05-.3C278.7,12.51,278.56,12.54,278.45,12.62Z"/><path class="cls-70" d="M281.07,11.72a.24.24,0,0,0,.11.28c.15.12.6-.2.73-.32a5.27,5.27,0,0,0,1.19.18h.26a.92.92,0,0,0,.78-.33.24.24,0,0,0-.12-.37c-.14-.05-.18,0-.28.08a.68.68,0,0,1-.37.18,3.91,3.91,0,0,1-1.36-.12.35.35,0,0,0-.34-.25.51.51,0,0,0-.39.1.33.33,0,0,0,0,.41h0C281.18,11.59,281.1,11.62,281.07,11.72Z"/><path class="cls-71" d="M282.78,10.76a.68.68,0,0,0,.42-.13.58.58,0,0,0,.25-.58.47.47,0,0,0-.4-.36C282.23,9.58,282,10.78,282.78,10.76Zm0-.44c-.12-.09.15-.27.24-.24s0,0,0,.05S282.83,10.39,282.74,10.32Z"/><path class="cls-72" d="M286.4,10.28a.48.48,0,0,0-.4-.36c-.82-.1-1.1,1.09-.27,1.08a.75.75,0,0,0,.42-.13A.6.6,0,0,0,286.4,10.28Zm-.71.28c-.12-.1.15-.28.24-.25a.06.06,0,0,1,.05.06C286,10.46,285.78,10.63,285.69,10.56Z"/><path class="cls-73" d="M286,14.16a1.87,1.87,0,0,0,.4-.13l.33-.14.13-.06.14-.05a.22.22,0,0,0,.1-.29c-.06-.17-.2-.17-.33-.11a3,3,0,0,1-.92.34c-.18.07-.14.38,0,.43A.19.19,0,0,0,286,14.16Z"/><path class="cls-74" d="M289.89,10.71c-.82-.1-1.1,1.09-.27,1.08a.77.77,0,0,0,.42-.13.59.59,0,0,0,.25-.59A.48.48,0,0,0,289.89,10.71Zm-.31.64c-.12-.1.15-.28.24-.25a.1.1,0,0,1,.05.06C289.9,11.25,289.67,11.42,289.58,11.35Z"/><path class="cls-75" d="M290.14,13.4a.29.29,0,0,0-.36.12.64.64,0,0,0,0,.07.2.2,0,0,0,.11.23,1.32,1.32,0,0,0,.65,0h.14l.14,0a1.71,1.71,0,0,0,.5-.12c.3-.17.26-.46,0-.66a1.43,1.43,0,0,0-.66-.24.26.26,0,0,0-.23.34.2.2,0,0,0,.08.1c.13.06.27,0,.43.11h0A1.33,1.33,0,0,1,290.14,13.4Z"/><path class="cls-76" d="M275.14,6.66a.3.3,0,0,1-.27-.1.41.41,0,0,1-.1-.22l-.57.09a.81.81,0,0,0,.26.5.92.92,0,0,0,.71.14,1.2,1.2,0,0,0,.47-.12.61.61,0,0,0,.26-.29.71.71,0,0,0,.08-.38.64.64,0,0,0-.11-.3.58.58,0,0,0-.27-.21,2.56,2.56,0,0,0-.58-.14.37.37,0,0,1-.21-.06.12.12,0,0,1-.06-.08.13.13,0,0,1,.05-.12A.21.21,0,0,1,275,5.3a.33.33,0,0,1,.21,0,.35.35,0,0,1,.11.2l.57-.09a.66.66,0,0,0-.28-.45.92.92,0,0,0-.58-.1,1.34,1.34,0,0,0-.48.12.64.64,0,0,0-.24.25.59.59,0,0,0-.06.32.5.5,0,0,0,.2.38,1.26,1.26,0,0,0,.6.21.72.72,0,0,1,.32.09.29.29,0,0,1,.08.14.25.25,0,0,1-.06.16A.28.28,0,0,1,275.14,6.66Z"/><rect class="cls-77" x="277.23" y="4.76" width="0.61" height="2.1" transform="translate(0.08 14.54) rotate(-3)"/><polygon class="cls-78" points="278.37 4.71 278.33 6.81 278.83 6.82 278.86 5.21 279.21 6.82 279.66 6.83 280.07 5.23 280.05 6.84 280.54 6.85 280.58 4.74 279.78 4.73 279.45 6 279.17 4.72 278.37 4.71"/><path class="cls-79" d="M287.57,6.74h.05a.26.26,0,0,1,.14.07.49.49,0,0,1,.09.18l.22.69.68.11-.2-.65a1.14,1.14,0,0,0-.06-.15l-.08-.12-.15-.1a.66.66,0,0,0,.23,0,.62.62,0,0,0,.22-.17.64.64,0,0,0,.12-.29.67.67,0,0,0,0-.35.52.52,0,0,0-.21-.23,1.34,1.34,0,0,0-.42-.12l-1-.15-.33,2.07.61.1Zm.13-.82L288,6a.41.41,0,0,1,.22.09.23.23,0,0,1,0,.17.17.17,0,0,1-.16.16h-.16l-.26,0Z"/><rect class="cls-80" x="292.31" y="7.69" width="2.1" height="0.61" transform="translate(195.11 284.53) rotate(-72)"/><polygon class="cls-81" points="291.29 8.46 291.87 8.63 292.31 7.11 292.9 7.28 293.05 6.78 291.27 6.27 291.13 6.77 291.72 6.94 291.29 8.46"/><path class="cls-82" d="M289.62,7.64l.68.16v.36l.62.14-.24-2.21L290,5.94l-1.19,1.88.6.14Zm.61-1.1,0,.79-.43-.1Z"/><path class="cls-83" d="M293.94,8.83a.85.85,0,0,0,.21.46,1.12,1.12,0,0,0,.48.29,1,1,0,0,0,.56.07.85.85,0,0,0,.44-.23,1.41,1.41,0,0,0,.32-.53,1.14,1.14,0,0,0,0-.83,1,1,0,0,0-.62-.53,1,1,0,0,0-.8,0,1.17,1.17,0,0,0-.53.66A1.28,1.28,0,0,0,293.94,8.83Zm.66-.41a.72.72,0,0,1,.26-.39.31.31,0,0,1,.32,0,.37.37,0,0,1,.24.23.64.64,0,0,1,0,.44.79.79,0,0,1-.27.43.35.35,0,0,1-.33,0,.37.37,0,0,1-.24-.23A.76.76,0,0,1,294.6,8.42Z"/><path class="cls-84" d="M285,7.11a1.09,1.09,0,0,0,.55.19,1.37,1.37,0,0,0,.5,0,2.29,2.29,0,0,0,.51-.2l.1-.89-.93-.12-.05.44.4.05,0,.19a1,1,0,0,1-.22.08.45.45,0,0,1-.2,0,.43.43,0,0,1-.32-.19.86.86,0,0,1-.06-.49.79.79,0,0,1,.18-.46.39.39,0,0,1,.33-.1.34.34,0,0,1,.21.09.26.26,0,0,1,.1.19l.6,0a.85.85,0,0,0-.12-.35.66.66,0,0,0-.24-.23,1.64,1.64,0,0,0-.48-.12,1.16,1.16,0,0,0-.54,0,.93.93,0,0,0-.44.34,1.29,1.29,0,0,0-.2.58,1.27,1.27,0,0,0,.05.59A.86.86,0,0,0,285,7.11Z"/><polygon class="cls-85" points="281.5 5.3 281.8 6.92 282.25 6.94 282.72 5.36 282.64 6.96 283.13 6.99 283.24 4.89 282.45 4.85 282.07 6.11 281.83 4.82 281.03 4.77 280.92 6.87 281.42 6.9 281.5 5.3"/><rect class="cls-86" x="282.89" y="5.7" width="2.1" height="0.61" transform="translate(253.18 288.34) rotate(-84.99)"/><polygon class="cls-87" points="296.42 10.28 296.87 9.22 297.1 10.57 297.62 10.79 298.44 8.86 297.92 8.63 297.46 9.7 297.23 8.34 296.71 8.12 295.89 10.05 296.42 10.28"/><polygon class="cls-88" points="266.76 8.09 265.86 8.38 265.37 6.87 264.79 7.06 265.44 9.06 266.92 8.58 266.76 8.09"/><path class="cls-89" d="M268.05,8.27a1.61,1.61,0,0,0,.34-.15.66.66,0,0,0,.22-.22,1,1,0,0,0,.12-.35,1.34,1.34,0,0,0-.06-.53,1.42,1.42,0,0,0-.14-.38.85.85,0,0,0-.23-.29A.67.67,0,0,0,268,6.2a.86.86,0,0,0-.44,0l-.88.22.51,2Zm-.53-1.55a.44.44,0,0,1,.35,0,.71.71,0,0,1,.21.42,1.17,1.17,0,0,1,.05.37.26.26,0,0,1-.09.18.59.59,0,0,1-.25.11l-.14,0-.28-1.11Z"/><polygon class="cls-90" points="271.49 7.52 271.88 5.33 271.27 5.43 271.07 6.99 270.4 5.57 269.77 5.67 270.84 7.63 271.49 7.52"/><polygon class="cls-91" points="274.05 7.16 273.99 6.69 272.95 6.82 272.9 6.41 273.84 6.29 273.79 5.87 272.85 5.98 272.81 5.65 273.82 5.53 273.76 5.08 272.15 5.28 272.4 7.37 274.05 7.16"/><rect class="cls-92" x="269.07" y="5.82" width="0.61" height="2.1" transform="translate(3.64 51.52) rotate(-11)"/><path class="cls-93" d="M263.2,7.63l0,2.23.58-.22,0-.35.65-.24.21.29.59-.22L263.82,7.4Zm.54,1.18L263.69,8l.46.63Z"/><polygon class="cls-94" points="261.83 10.46 262.25 10.29 261.98 8.66 262.6 10.14 263.06 9.94 262.24 8.01 261.5 8.32 261.72 9.62 260.94 8.56 260.2 8.87 261.02 10.81 261.48 10.62 260.86 9.14 261.83 10.46"/><path class="cls-95" d="M280.36,18.49c-.07.08,0,.43,0,.49a.52.52,0,0,1-.16-.29c-.09.11,0,.29,0,.41s-.13-.13-.17-.29a1,1,0,0,0,0,.45,1.33,1.33,0,0,1-.17-.3c-.08.15,0,.35,0,.46a.62.62,0,0,1-.2-.25.66.66,0,0,0,.1.49c-.08,0-.17-.2-.19-.2a1,1,0,0,0,.13.47.87.87,0,0,1-.25-.28c0,.11.16.46.14.53a2.76,2.76,0,0,0-.24-.37,3.57,3.57,0,0,1-.07.56,2.73,2.73,0,0,0-.06-.49c-.05.09-.05.23-.13.32,0-.12,0-.32,0-.47a2,2,0,0,0-.18.28c0-.13.11-.39.09-.44-.06.1-.11.22-.13.21a1,1,0,0,0,.05-.4c-.06.07-.1.18-.19.23s.12-.36.06-.47c0,.09-.05.11-.18.24.05-.13.14-.38.06-.5a.64.64,0,0,1-.16.29.75.75,0,0,0,0-.47.45.45,0,0,1-.12.25.7.7,0,0,0,0-.43.43.43,0,0,1-.07.24,1.46,1.46,0,0,0-.05-.4.85.85,0,0,1-.08.24c0-.06,0-.34-.07-.37s0,.2,0,.26a1.81,1.81,0,0,0-.18-.31s.07.2.07.27-.16-.25-.19-.24.1.19.11.26-.17-.17-.22-.16a1.13,1.13,0,0,0,.1.13s.16.15.14.14a2.44,2.44,0,0,0-.24-.1s.29.22.3.24a2.57,2.57,0,0,0-.29-.09c0,.05.25.15.37.25s-.19-.06-.33-.09c0,.13.35.25.42.29s-.28-.06-.33-.09c0,.15.29.26.36.27s-.24,0-.32,0,.28.2.35.2-.15,0-.29,0c0,.06.24.1.37.12a1.29,1.29,0,0,1-.31.06c.06.08.37.07.45.17a1.67,1.67,0,0,0-.38,0c0,.07.27,0,.44.26a.5.5,0,0,0-.34-.1,2.44,2.44,0,0,1,.37.38,1,1,0,0,1-.38-.25,1.57,1.57,0,0,0,.18.49c-.19-.05-.27-.47-.27-.54-.11.16,0,.36-.06.44S278,20,277.9,20a1,1,0,0,1-.07.4,1,1,0,0,0-.16-.45s0,.24,0,.26a.69.69,0,0,0-.19-.45.63.63,0,0,1,0,.31c0-.1-.08-.31-.23-.38a1,1,0,0,1,0,.32c-.15-.12-.1-.21-.28-.34,0,0,.05.34,0,.32s-.1-.29-.24-.33a.53.53,0,0,1,0,.25c-.06,0-.14-.22-.24-.25s0,.12.07.21-.14-.19-.26-.22c0,.11.08.11.07.23a.46.46,0,0,0-.28-.19.38.38,0,0,1,.08.18.41.41,0,0,0-.27-.11.34.34,0,0,1,.12.12.6.6,0,0,0-.24.09,1.38,1.38,0,0,1,.21,0s-.08.06-.08.13.25-.13.29-.11-.13.08-.13.15a.61.61,0,0,1,.35-.08c-.12,0-.19.09-.21.16a2,2,0,0,1,.5-.07c-.14,0-.27.1-.27.14a1.45,1.45,0,0,1,.45,0c-.2.1-.22.14-.23.17.22-.06.35-.11.49-.05a.66.66,0,0,0-.28.16l.42-.06s.07,0,0,0-.19.12-.13.13l.28,0s.1,0,.06,0-.16.06-.17.13a.93.93,0,0,1,.47,0s-.19,0-.24.11.42,0,.46.09a1.34,1.34,0,0,1-.24,0c.09.07.23.13.27.3-.2-.1-.29-.28-.34-.27a.88.88,0,0,1,0,.37.53.53,0,0,0-.36-.43.86.86,0,0,1,.16.41c-.21-.23-.25-.44-.47-.43a.81.81,0,0,1,.2.38s-.29-.39-.37-.36.12.22.11.37c-.09-.17-.13-.28-.32-.35a.6.6,0,0,1,.1.36c-.09-.08-.24-.32-.35-.32s.17.25.14.36c-.06-.07-.19-.3-.3-.31s.13.21.15.33-.19-.22-.39-.23a.8.8,0,0,1,.16.26.57.57,0,0,0-.43-.14.8.8,0,0,1,.26.24c-.13-.06-.26-.18-.44-.13.06.05.22.14.24.19-.19-.05-.32-.12-.45-.06a.64.64,0,0,1,.22.13.33.33,0,0,0-.35,0c.13,0,.22,0,.24.05s-.19.07-.22.17a.35.35,0,0,1,.21-.08.3.3,0,0,0-.11.19.87.87,0,0,1,.26-.22c0,.08-.08.13-.05.23.08-.13.13-.22.2-.25s-.08.13-.06.24.14-.2.24-.25c-.05.1-.1.14-.07.28.16-.19.15-.2.25-.31a1.07,1.07,0,0,0,0,.27,1,1,0,0,1,.28-.29.86.86,0,0,0-.09.27,1.3,1.3,0,0,1,.29-.28c0,.07-.05.12-.07.27a3.27,3.27,0,0,0,.28-.31,1.41,1.41,0,0,0-.07.31c.1-.08.17-.18.3-.31a.46.46,0,0,0,0,.3c.1-.1.14-.26.31-.31a.37.37,0,0,0-.09.32c0-.05.2-.31.34-.3-.1.13-.16.18-.14.31.08-.13.27-.33.36-.31a.52.52,0,0,0-.16.3.82.82,0,0,1,.39-.2c0,.07-.05.1-.24.23a.68.68,0,0,1,.29.06c-.07.07-.36,0-.61.11.16.06.25,0,.34.14-.13,0-.41-.07-.56,0,0,0,.11.05.28.15-.09.06-.33-.09-.62.06a1,1,0,0,1,.4.14s-.45-.08-.63.06c.17,0,.31,0,.41.14-.18-.05-.48-.09-.55,0s.26.1.28.16a.91.91,0,0,0-.48,0c.1.05.21,0,.31.19-.18-.05-.32-.11-.48,0a.41.41,0,0,1,.31.15c-.14,0-.29-.09-.43,0,.1,0,.19,0,.24.12s-.32,0-.36.11a.63.63,0,0,1,.36,0,.66.66,0,0,0-.44.11c.23,0,.32,0,.36,0a.46.46,0,0,0-.42.17.62.62,0,0,1,.31-.05c-.2.1-.29.15-.34.3a.75.75,0,0,1,.3-.12c-.12.06-.26.14-.24.32a.5.5,0,0,1,.24-.22c0,.05-.16.2-.15.31.05-.11.13-.13.19-.22s0,.17,0,.22a.5.5,0,0,0,.14-.37c.06.08.05.2.08.26s0-.29.06-.44a.62.62,0,0,0,.12.26,1.4,1.4,0,0,1,0-.43.56.56,0,0,0,.11.32,2.57,2.57,0,0,1,0-.44c0,.11.05.27.15.3a2.86,2.86,0,0,1,0-.48,3.11,3.11,0,0,1,.1.33s.07-.14.11-.55c0,.13,0,.2.07.39a1.46,1.46,0,0,0,.08-.52c0,.13,0,.29.11.33s0-.46.06-.48a.66.66,0,0,0,.07.36c0-.13,0-.45.09-.46a.41.41,0,0,0,.05.33.9.9,0,0,1,.09-.35.37.37,0,0,0,0,.22,1.33,1.33,0,0,0,.12-.37.35.35,0,0,1,0,.33c.11-.06.19-.27.24-.33A.64.64,0,0,1,278,23a1,1,0,0,1,.32-.14c-.13.12-.33.19-.36.24a1,1,0,0,0,.29-.06c-.16.12-.3.14-.32.22a.51.51,0,0,1,.34-.05.79.79,0,0,0-.5.31,1.52,1.52,0,0,1,.42-.1,1.17,1.17,0,0,0-.48.32c.26-.08.35-.16.46-.15-.36.2-.47.29-.5.35a1.23,1.23,0,0,1,.43-.14.79.79,0,0,0-.45.34.78.78,0,0,1,.42-.13.62.62,0,0,0-.43.3.72.72,0,0,1,.41-.12,1.17,1.17,0,0,0-.43.31c.2-.08.3-.11.36-.09-.15.05-.34.17-.34.26a.63.63,0,0,1,.36-.1c-.18.08-.24.08-.32.24a.68.68,0,0,1,.31-.11c-.08.06-.22.07-.29.29a.92.92,0,0,1,.28-.16c-.09.09-.19.16-.19.32a.93.93,0,0,1,.19-.17c0,.06-.15.15-.17.38a.45.45,0,0,1,.18-.18.84.84,0,0,0-.17.33.64.64,0,0,1,.19-.17c-.07.11-.1.27,0,.34a2,2,0,0,1,.05-.22c0,.05,0,.1.12.17a1.33,1.33,0,0,1-.05-.26s.06.15.14.16a1.86,1.86,0,0,1-.07-.31.4.4,0,0,1,.16.19,2,2,0,0,0-.09-.35.73.73,0,0,1,.2.2c0-.19-.21-.45-.17-.42a1.26,1.26,0,0,1,.21.2.63.63,0,0,0-.15-.4,1.64,1.64,0,0,1,.21.25.88.88,0,0,0-.17-.44c.1.05.18.24.2.26a.88.88,0,0,0-.16-.45c.11,0,.13.18.19.22a1.11,1.11,0,0,0-.16-.42c.09.07.1.1.18.16a1.48,1.48,0,0,0-.14-.4.43.43,0,0,1,.14.13.93.93,0,0,0-.11-.41c.09,0,.13.14.15.19a1.14,1.14,0,0,1,.13-.29,1.07,1.07,0,0,1-.06.31.3.3,0,0,1,.27-.18c-.24.21-.3.33-.3.4a.87.87,0,0,1,.27-.15.79.79,0,0,0-.28.44.47.47,0,0,1,.22-.18c-.11.14-.23.31-.21.35a1,1,0,0,1,.23-.18.67.67,0,0,0-.2.46.47.47,0,0,1,.27-.25.8.8,0,0,0-.23.54.56.56,0,0,1,.28-.3,1,1,0,0,0-.21.49c.09-.12.14-.21.25-.26s-.21.33-.21.43a1,1,0,0,0,.26-.21c0,.09-.23.33-.23.37a1.24,1.24,0,0,1,.23-.11.9.9,0,0,0-.1.32s.11-.12.16-.23c0,.22,0,.44,0,.67a2.9,2.9,0,0,0-2,.87,3.17,3.17,0,0,0-.77,1.37,2.91,2.91,0,0,0,0,1.55l-2.7-4.79a.21.21,0,0,0,.07-.22c-.05-.08-.2-.08-.33,0s-.2.21-.16.29a.22.22,0,0,0,.24,0l0,.05c-.82,1.24-1.57,1.43-2.59,3.12.39.9,1,1.46,1.36,2.37.85-1.33,2.25-2.5,2.47-3.21a6.55,6.55,0,0,1-1.23-2.26l4.09,7.47h.11a11,11,0,0,0-2.21.49l.19.47a5.45,5.45,0,0,0-1.55.66,7.68,7.68,0,0,1,1,.3c-.15.34-.3.71-.45,1.06A9.7,9.7,0,0,1,277,35l-.14-.38a6.93,6.93,0,0,1,1.69-.3l.53,1v.2c-.14.54-.41.89-.91.92-.08,0-.12,0-.11.11v.2c0,.09,0,.13.1.12a9,9,0,0,1,1.15.14,9.18,9.18,0,0,1,1.16-.14q.1,0,.09-.12v-.2c0-.07,0-.11-.11-.11-.49,0-.76-.38-.91-.92v-.2l.54-1h0a6.44,6.44,0,0,1,1.62.29l-.14.38a9.7,9.7,0,0,1,2.23.79c-.16-.35-.3-.72-.45-1.06a7.68,7.68,0,0,1,1-.3,5.62,5.62,0,0,0-1.55-.65l.19-.48a11,11,0,0,0-2.21-.49l.17,0L285,25.24a6.38,6.38,0,0,1-1.23,2.27c.23.7,1.63,1.88,2.48,3.2.35-.91,1-1.47,1.36-2.36-1-1.69-1.78-1.89-2.59-3.12.1,0,.19,0,.23,0s0-.21-.16-.29-.28-.08-.33,0a.21.21,0,0,0,.07.22L282.11,30a2.88,2.88,0,0,0,.13-.65,2.51,2.51,0,0,0-.05-.74s0,.15,0,.2a2.24,2.24,0,0,1-.33,1l-.92-1.21.89-1.45-1.6.49-.8-.9v-.32a2.25,2.25,0,0,1,1,0,2.67,2.67,0,0,0-1-.27V25.8l0,0a.51.51,0,0,0,0-.09V25.6s.06.09.1.08a2.55,2.55,0,0,1-.1-.24v-.05a.42.42,0,0,1,.16.17.42.42,0,0,0-.16-.3,1.28,1.28,0,0,1,.22.12,3.06,3.06,0,0,0-.22-.29h0s.19.1.23.13a1,1,0,0,0-.22-.33c.08,0,.11,0,.25.18a.57.57,0,0,0-.25-.33.35.35,0,0,1,.25.1c0-.17-.18-.24-.26-.31a.45.45,0,0,1,.22.13c0-.15-.07-.17-.23-.33a.4.4,0,0,1,.29.12.53.53,0,0,0-.29-.3c.1,0,.19,0,.36.1a.68.68,0,0,0-.35-.31.74.74,0,0,1,.38.14.43.43,0,0,0-.32-.27c.05,0,.21,0,.3.05,0-.12-.17-.16-.3-.22a.77.77,0,0,1,.33,0c0-.15-.28-.22-.28-.23a.44.44,0,0,1,.32.1c0-.15-.07-.31,0-.35a1.07,1.07,0,0,1,.11.33.63.63,0,0,1,.15-.29c0,.13-.05.2-.06.36a.43.43,0,0,1,.28-.25.7.7,0,0,0-.25.42c.11-.08.26-.26.3-.22s-.26.24-.29.42c.09-.09.18-.18.29-.17-.07.09-.27.24-.29.43.12-.13.22-.2.31-.19s-.23.17-.3.37c.16-.14.23-.18.32-.19-.11.09-.29.23-.3.42.08-.06.14-.18.32-.2a.63.63,0,0,0-.3.39c.17-.15.19-.16.29-.17s-.19.1-.23.4c.1-.12.14-.19.24-.22a.74.74,0,0,0-.24.46,1.21,1.21,0,0,1,.27-.29c-.09.11-.23.34-.2.44a1.8,1.8,0,0,0,.22-.27c0,.08-.15.2-.08.52,0,0,.05-.21.11-.35,0,.1,0,.25.1.27a.71.71,0,0,0-.05-.37c.12.07.11.14.18.2a.6.6,0,0,0-.13-.38c.05,0,.12.11.18.18a.54.54,0,0,0-.15-.45.91.91,0,0,1,.26.24.56.56,0,0,0-.28-.42,1.57,1.57,0,0,1,.23.09.44.44,0,0,0-.23-.31.32.32,0,0,1,.27.13.67.67,0,0,0-.25-.37c.07,0,.2.12.29.19,0-.18-.23-.33-.26-.37s.16.07.25.11c-.05-.16-.29-.3-.29-.3s.21,0,.32.11a.66.66,0,0,0-.28-.29c.07,0,.26.13.3.12a.82.82,0,0,0-.3-.28.72.72,0,0,1,.27,0,.56.56,0,0,0-.33-.21.65.65,0,0,1,.23,0,1,1,0,0,1-.25-.27l0-.12c.18.09.23.26.32.32a2.44,2.44,0,0,1-.07-.39.81.81,0,0,1,.18.45c.05-.14,0-.26.07-.34.06.17,0,.4.1.53a1.44,1.44,0,0,1,0-.3,1.32,1.32,0,0,0,.06.46,3.12,3.12,0,0,1,.07-.31,1.68,1.68,0,0,0,.09.52c0-.07,0-.2.07-.3a1,1,0,0,0,.15.5s0-.24,0-.33a1.25,1.25,0,0,0,.12.47,1.64,1.64,0,0,1,0-.33,1.11,1.11,0,0,0,.11.45,1.78,1.78,0,0,1,.05-.35,1.79,1.79,0,0,0,.1.46c0-.18,0-.25,0-.33a1.76,1.76,0,0,0,.16.43c0-.13,0-.17,0-.25a.76.76,0,0,0,.13.3.53.53,0,0,1,0-.23c0,.08.06.19.13.26,0-.12,0-.14,0-.2a.65.65,0,0,1,.19.16c0-.11-.1-.22-.22-.28a.62.62,0,0,1,.25,0,.84.84,0,0,0-.33-.18.36.36,0,0,1,.25,0,1,1,0,0,0-.36-.22.68.68,0,0,1,.26,0,.51.51,0,0,0-.35-.17.79.79,0,0,1,.32,0,.46.46,0,0,0-.4-.08.59.59,0,0,1,.31-.08c-.15-.1-.2-.07-.39,0a.49.49,0,0,1,.35-.11c-.06-.08-.28-.08-.43,0,0-.05.13-.08.35-.12a1.3,1.3,0,0,0-.54,0,.9.9,0,0,1,.41-.13c-.3-.12-.33,0-.53,0A.69.69,0,0,1,282,23a.71.71,0,0,0-.57,0,1,1,0,0,1,.44-.12,1.6,1.6,0,0,0-.62,0c.09-.07.21-.05.47-.12a1.23,1.23,0,0,0-.59,0,1.73,1.73,0,0,1,.41-.15c-.13-.1-.45,0-.61,0a1.75,1.75,0,0,1,.33-.11c-.08-.06-.25,0-.45,0a1.58,1.58,0,0,0,.33-.11c-.06,0-.34,0-.52,0a1,1,0,0,0,.32-.07.72.72,0,0,1-.25-.25c.08,0,.38.26.5.25-.17-.13-.19-.2-.2-.27s.28.26.31.24a.38.38,0,0,0-.09-.21,1.24,1.24,0,0,1,.29.25.45.45,0,0,0-.17-.31c.07,0,.28.23.36.35a.74.74,0,0,0-.16-.35c.08,0,.28.33.33.38a.49.49,0,0,0-.12-.34c.13.05.3.38.33.38A.55.55,0,0,0,282,22c.26.24.37.38.41.41s0-.09-.11-.32c.18.09.2.17.31.36.06-.08,0-.23-.06-.33s.26.28.3.35a.56.56,0,0,0-.09-.34c.06,0,.14.18.28.36a.75.75,0,0,0-.06-.29c.12.11.22.3.31.34s-.08-.16-.08-.26c.11.13.2.22.33.23,0,0-.14-.13-.14-.18s.18,0,.29.09c-.06-.1-.27-.16-.31-.18a.45.45,0,0,1,.33.05.32.32,0,0,0-.38-.14.73.73,0,0,1,.31-.07.61.61,0,0,0-.46-.07.71.71,0,0,1,.29-.12A.45.45,0,0,0,283,22c0-.06.09-.1.27-.24a.7.7,0,0,0-.43.15.75.75,0,0,1,.3-.2c-.12-.1-.28,0-.36.1,0-.09.06-.15.13-.23-.18,0-.27.12-.37.22a.42.42,0,0,1,.16-.3c-.19,0-.27.12-.39.27,0-.21.09-.24.14-.33a.76.76,0,0,0-.39.27.58.58,0,0,1,.15-.29c-.12,0-.34.16-.46.3,0-.18.12-.24.26-.34-.24,0-.57.33-.56.29a.83.83,0,0,1,.25-.34c-.33,0-.44.28-.55.29.08-.18.14-.23.14-.29-.18,0-.28.22-.39.29,0-.16,0-.16.11-.31-.28,0-.36.24-.46.22a.6.6,0,0,1,.21-.21.63.63,0,0,1-.34-.06c.22-.1.28,0,.4,0a.7.7,0,0,0-.38-.15c.06-.07.31,0,.44.08,0-.14-.14-.17-.3-.23.11-.08.43.15.46.11s0-.14-.22-.21c.2-.08.27,0,.41.07,0-.12,0-.14-.17-.24.19,0,.3.08.43.09a1.65,1.65,0,0,0-.24-.22,3.62,3.62,0,0,0,.41.11,2.16,2.16,0,0,0-.21-.19.92.92,0,0,0,.4.07.89.89,0,0,0-.24-.18,1.12,1.12,0,0,1,.41.1c-.07-.13-.16-.16-.17-.23.16,0,.15.06.4.13,0-.06-.23-.15-.23-.2a1.67,1.67,0,0,1,.35.08c-.05-.1-.16-.14-.19-.17s.13.05.31.1c0-.1-.08-.09-.18-.16.16,0,.24,0,.35,0s-.32-.09-.05-.11-.13-.05-.21-.06.17-.07.19-.14a.55.55,0,0,0-.34.12.83.83,0,0,1,.1-.23c-.13,0-.2.14-.33.3a1,1,0,0,1,.09-.3c-.18.06-.22.23-.29.35a.72.72,0,0,1,.07-.34c-.13.05-.19.16-.28.35a1,1,0,0,1,0-.31c-.16.12-.14.38-.19.41s0-.24-.06-.36c-.1.07-.07.34-.07.43-.1-.08-.06-.28-.1-.38-.1.05-.07.35-.1.46a.57.57,0,0,1-.13-.37.54.54,0,0,0-.06.48.74.74,0,0,1-.12-.37c-.09,0-.1.49-.1.51a.69.69,0,0,1-.06-.43c-.19.11-.1.31-.13.62a.79.79,0,0,1-.11-.44.51.51,0,0,0-.05.57,1,1,0,0,1-.19-.33c-.05,0,0,.21-.12.41a.53.53,0,0,1,0-.4c-.09,0-.16.1-.21.12s.26-.29.33-.34a.53.53,0,0,0-.27,0,1,1,0,0,1,.4-.25c0-.05-.17,0-.21,0s0,0,0-.06a2,2,0,0,0,.25-.13c.05,0-.13,0-.18,0s0,0,0-.06a3.45,3.45,0,0,0,.38-.18.8.8,0,0,0-.31,0c.07-.13.21-.15.43-.22,0,0-.07,0-.29,0a1.08,1.08,0,0,1,.39-.22s-.17,0-.31,0a1.41,1.41,0,0,1,.43-.17,1,1,0,0,0-.3,0,.67.67,0,0,1,.38-.09.26.26,0,0,0-.27-.07.58.58,0,0,1,.34-.1c0-.06-.16,0-.2-.06s.22-.07.3-.06a.19.19,0,0,0-.14-.07l.18-.12a.79.79,0,0,0-.25.06.36.36,0,0,1,0-.17.35.35,0,0,0-.15.24c0-.07-.06-.15,0-.19a.39.39,0,0,0-.12.31c-.08-.09-.05-.12-.08-.24a1,1,0,0,0-.11.38C280.44,18.63,280.4,18.58,280.36,18.49Zm-2.55,9.19a2.36,2.36,0,0,1,.3-.51,2.28,2.28,0,0,1,.42-.4l.19-.13a2.43,2.43,0,0,1,.49-.22h0a2.43,2.43,0,0,0-.49.22l-.19.13a2.22,2.22,0,0,0-.41.4,2,2,0,0,0-.31.51,2.3,2.3,0,0,0,1.33,3.1h0A2.3,2.3,0,0,1,277.81,27.68Zm1.4-1.2v0l0,0Zm-1.53,2.14a2.56,2.56,0,0,1,.12-.75,2.92,2.92,0,0,1,.14-.31,1.64,1.64,0,0,1,.16-.26l.2-.24a2.05,2.05,0,0,1,.49-.39s.21-.12.29-.15l0,1.49Zm.54.21-.51-.16h0Zm.9.35,0,.41c0,.37,0,.75,0,1.13a2.36,2.36,0,0,1-1.47-2Zm-.6-.55.66,0h0Zm.62-2.11h0v0Zm0,1.54Zm-.09,6.19c0,.1,0,.2,0,.3l-.17-.3ZM278,32.75H278l-.93-1.66a3,3,0,0,0,2,1c0,.22,0,.43,0,.64h.13A11.15,11.15,0,0,0,278,32.75Zm4.24-3.57h0a1.52,1.52,0,0,1,0,.41A1.52,1.52,0,0,0,282.19,29.18Zm-2.67,5.37v-.3h.17ZM281.85,30a2,2,0,0,0,.21-.49h0a1.83,1.83,0,0,1-.21.5A2.65,2.65,0,0,1,280.8,31a3,3,0,0,1-1.19.36A3,3,0,0,0,280.8,31,2.65,2.65,0,0,0,281.85,30Zm-2.38.89h0a2.6,2.6,0,0,0,.39.05A2.6,2.6,0,0,1,279.47,30.87Zm1.35-.19a2.22,2.22,0,0,1-1.35.13v-.19l.78-1.08,1.55.35A2.35,2.35,0,0,1,280.82,30.68Zm-1.36-.46h0l.45-1.67h0Zm2.32-.39-1.34-.92,1.34.92Zm-.65-.86-.28-.37h0Zm-.28-.37h0l-.94-.05h0l.94.05.82-1.34Zm-.65-.89,1.48-.45h0l-1.47.45Zm-.09.26-.2.58h0Zm-.2.58Zm0,0h0l-.48,0h0l.48,0Zm-.48-.32.3.2-.3-.2Zm.49-1.93h0a2.36,2.36,0,0,0-.38,0A2.36,2.36,0,0,1,279.92,26.3Zm-.51.07a2.25,2.25,0,0,1,.36-.06,2.25,2.25,0,0,0-.36.06Zm.09,6.31c0-.21,0-.42,0-.64a3,3,0,0,0,2.06-1l-1,1.73h0a11.38,11.38,0,0,0-1.31-.07Z"/><path class="cls-96" d="M37.24,18.88c.28.09.53.05.62-.11s-.06-.56-.41-.77-.74-.21-.87,0,0,.39.19.59l-7.34,13a7.63,7.63,0,0,0,.36-1.72,6.7,6.7,0,0,0-.14-1.95c0,.11,0,.39,0,.52A6.15,6.15,0,0,1,28.73,31l-2.43-3.2L28.64,24l-4.22,1.29-2.13-2.39c0-.28,0-.56,0-.84A6,6,0,0,1,24.94,22a7.44,7.44,0,0,0-2.67-.72c0-.28,0-.57,0-.85l.06.06a.92.92,0,0,0-.06-.22v-.38c.09.13.17.23.27.21s-.19-.38-.27-.64v-.12a1.06,1.06,0,0,1,.42.44,1.17,1.17,0,0,0-.41-.79c.11,0,.36.21.56.31a4.81,4.81,0,0,0-.58-.76v0a2.88,2.88,0,0,1,.6.37,2.52,2.52,0,0,0-.6-.87c.23.05.3.1.67.46a1.49,1.49,0,0,0-.66-.88,1,1,0,0,1,.65.27c-.1-.44-.45-.62-.69-.83a1.2,1.2,0,0,1,.6.35c-.08-.39-.18-.44-.62-.85a1.08,1.08,0,0,1,.77.29A1.31,1.31,0,0,0,22.2,16a1.54,1.54,0,0,1,1,.27,1.82,1.82,0,0,0-.92-.84,2.23,2.23,0,0,1,1,.39,1.18,1.18,0,0,0-.86-.74,1.82,1.82,0,0,1,.81.15c-.1-.31-.46-.42-.79-.59a2.18,2.18,0,0,1,.86.08c-.13-.4-.72-.57-.73-.61a1.17,1.17,0,0,1,.84.26c-.06-.39-.18-.8,0-.9a2.56,2.56,0,0,1,.27.85,2.15,2.15,0,0,1,.41-.76c0,.34-.14.53-.17.95a1.18,1.18,0,0,1,.76-.65A1.81,1.81,0,0,0,23.93,15c.29-.21.68-.68.81-.6-.28.34-.7.65-.78,1.13.25-.24.48-.49.76-.45-.18.24-.72.62-.77,1.13.33-.35.59-.54.82-.49-.11.18-.6.44-.77,1,.4-.36.59-.48.84-.51-.31.25-.78.61-.8,1.11.21-.16.36-.47.84-.52a1.61,1.61,0,0,0-.8,1c.45-.4.52-.42.79-.45-.07.19-.52.28-.62,1.07.26-.32.36-.5.64-.59-.17.25-.64.59-.63,1.21a3.42,3.42,0,0,1,.69-.77c-.23.31-.59.9-.51,1.17a4.45,4.45,0,0,0,.57-.71c0,.21-.4.53-.21,1.37.08-.07.14-.54.3-.92.08.27.14.67.26.72a1.68,1.68,0,0,0-.12-1c.31.18.28.37.46.53.09-.14-.17-.84-.34-1,.13,0,.33.29.48.49a1.34,1.34,0,0,0-.41-1.19c.23.07.43.34.7.64a1.5,1.5,0,0,0-.74-1.12,2.75,2.75,0,0,1,.62.24,1.15,1.15,0,0,0-.61-.82c.36-.06.66.29.7.32a1.72,1.72,0,0,0-.66-1c.2,0,.53.34.76.52,0-.5-.59-.89-.69-1,.28,0,.42.18.67.31-.13-.43-.76-.81-.76-.81.24-.09.55.09.84.3a1.6,1.6,0,0,0-.74-.76c.2,0,.69.33.79.31a1.82,1.82,0,0,0-.79-.73,1.67,1.67,0,0,1,.71.08,1.46,1.46,0,0,0-.87-.57,2,2,0,0,1,.62,0A2.56,2.56,0,0,1,25.3,13l-.11-.31c.48.23.61.69.87.86a5.29,5.29,0,0,1-.19-1,2.15,2.15,0,0,1,.47,1.19c.14-.37,0-.69.18-.9.18.46,0,1.05.27,1.4a4.2,4.2,0,0,1,.11-.79,3.66,3.66,0,0,0,.17,1.2c.05-.19.08-.5.18-.8a3.83,3.83,0,0,0,.24,1.37c.07-.18,0-.53.17-.79a2.94,2.94,0,0,0,.41,1.33c0-.09-.1-.64,0-.88a3.28,3.28,0,0,0,.32,1.24,4.75,4.75,0,0,1,.06-.88,3.59,3.59,0,0,0,.3,1.2,7,7,0,0,1,.12-.93,4.57,4.57,0,0,0,.28,1.23,5.39,5.39,0,0,1,.09-.89,3.06,3.06,0,0,0,.42,1.14c0-.33,0-.45,0-.67a2,2,0,0,0,.33.8,1.56,1.56,0,0,1,0-.6c.14.21.17.51.34.69,0-.32,0-.38,0-.53a2.35,2.35,0,0,1,.5.42c0-.29-.27-.59-.59-.75a1.92,1.92,0,0,1,.68.12,2.33,2.33,0,0,0-.88-.49,1.13,1.13,0,0,1,.67.12c-.4-.47-.84-.48-1-.6a2,2,0,0,1,.7.12,1.26,1.26,0,0,0-.94-.45,2.51,2.51,0,0,1,.87-.06,1.28,1.28,0,0,0-1.08-.22,1.85,1.85,0,0,1,.84-.21c-.42-.25-.56-.17-1.05-.07a1.44,1.44,0,0,1,.93-.3c-.15-.2-.73-.2-1.15-.09.09-.14.36-.23.93-.33a3.22,3.22,0,0,0-1.41-.08,2.11,2.11,0,0,1,1.07-.33c-.79-.33-.87-.06-1.4,0a2,2,0,0,1,1.11-.32A2,2,0,0,0,27.7,13a2.79,2.79,0,0,1,1.15-.3c-.15-.1-.54-.15-1.64-.09.23-.17.56-.12,1.24-.32a3.22,3.22,0,0,0-1.54,0A4,4,0,0,1,28,11.84c-.34-.28-1.19,0-1.62-.05a3.91,3.91,0,0,1,.88-.3c-.21-.16-.65,0-1.19,0a2.75,2.75,0,0,0,.86-.28c-.15-.08-.89,0-1.37-.11a3.4,3.4,0,0,0,.85-.18,2,2,0,0,1-.66-.67c.22.07,1,.7,1.33.68-.46-.35-.51-.54-.54-.73.18.2.76.68.83.64a1,1,0,0,0-.24-.55,2.53,2.53,0,0,1,.76.66,1.22,1.22,0,0,0-.43-.82c.17-.08.72.61.93.92a2.05,2.05,0,0,0-.41-.92c.2-.07.73.87.87,1,.09-.19-.13-.69-.32-.9.36.14.8,1,.87,1a1.41,1.41,0,0,0-.28-.92c.69.63,1,1,1.08,1.08.06-.14.05-.21-.29-.83.48.23.53.46.82,1,.17-.21,0-.63-.14-.89a8,8,0,0,1,.79.93,1.59,1.59,0,0,0-.24-.89,5.16,5.16,0,0,1,.73.94,1.89,1.89,0,0,0-.15-.77c.32.29.59.79.81.9,0-.18-.22-.42-.22-.68.31.34.55.58.88.62-.08-.12-.36-.35-.36-.48.27.1.47,0,.75.22-.14-.26-.69-.4-.81-.48a1.34,1.34,0,0,1,.88.14.87.87,0,0,0-1-.37,1.74,1.74,0,0,1,.83-.17c-.34-.26-.62-.24-1.21-.19A1.62,1.62,0,0,1,33,10a1.23,1.23,0,0,0-1.2.21c0-.17.25-.26.73-.63-.49-.05-.71.16-1.14.4a1.58,1.58,0,0,1,.78-.54c-.31-.26-.73.11-.95.27,0-.25.18-.39.35-.62-.48,0-.7.32-1,.59A1.05,1.05,0,0,1,31,8.87c-.51,0-.71.32-1,.71,0-.54.24-.62.38-.89a2.16,2.16,0,0,0-1,.72c-.05-.16.22-.61.38-.77-.32-.1-.89.43-1.21.79,0-.46.32-.61.68-.89-.63-.06-1.51.88-1.48.77a2.48,2.48,0,0,1,.65-.91c-.87.09-1.15.77-1.45.79.22-.49.37-.62.38-.77-.48,0-.73.59-1,.75a1,1,0,0,1,.29-.8c-.73.11-1,.62-1.22.58a1.66,1.66,0,0,1,.55-.57,1.67,1.67,0,0,1-.9-.16c.59-.26.74-.08,1.06-.11a2,2,0,0,0-1-.39c.15-.18.8,0,1.16.2-.11-.34-.39-.44-.81-.58.31-.21,1.15.39,1.24.29s-.13-.37-.6-.57c.52-.22.73.09,1.09.18-.07-.3-.1-.37-.46-.63.5.09.81.22,1.16.25a4.81,4.81,0,0,0-.63-.59,6.92,6.92,0,0,0,1.08.29c-.27-.32-.46-.36-.58-.51a2.35,2.35,0,0,0,1.08.19,2.28,2.28,0,0,0-.63-.46A2.45,2.45,0,0,1,29.2,6c-.19-.35-.42-.43-.45-.61.42.1.4.14,1.05.33.05-.14-.59-.39-.6-.52a4.25,4.25,0,0,1,.93.22c-.14-.28-.41-.37-.5-.46.19,0,.34.14.82.25C30.36,5,30.23,5,30,4.83c.42,0,.63.12.92.11,0-.2-.85-.24-.14-.29s-.32-.13-.54-.17c0-.09.44-.17.49-.35a1.26,1.26,0,0,0-.87.31,1.43,1.43,0,0,1,.26-.61c-.36,0-.55.38-.88.8a2.33,2.33,0,0,1,.23-.79c-.48.16-.59.6-.78.92a2.23,2.23,0,0,1,.2-.91c-.34.15-.51.44-.73.94a2.49,2.49,0,0,1,0-.83c-.43.33-.38,1-.5,1.09-.15-.29-.07-.64-.17-1-.25.2-.17.9-.19,1.14-.25-.2-.16-.74-.25-1-.26.14-.19.92-.26,1.22a1.61,1.61,0,0,1-.35-1,1.47,1.47,0,0,0-.16,1.26,2.11,2.11,0,0,1-.32-1c-.25,0-.27,1.31-.28,1.36A2.19,2.19,0,0,1,25.47,5c-.5.29-.26.82-.35,1.64a2.13,2.13,0,0,1-.29-1.17A1.42,1.42,0,0,0,24.7,7a2.36,2.36,0,0,1-.5-.89c-.14.06-.05.57-.32,1.1-.2-.43,0-.77.1-1.06-.23.1-.42.26-.55.31-.06-.31.68-.77.87-.9a1.42,1.42,0,0,0-.7.1A2.81,2.81,0,0,1,24.66,5c-.13-.14-.46,0-.58,0s.05-.11.09-.14.53-.25.67-.35-.35-.05-.48-.09,0-.09,0-.14.63-.28,1-.47a1.78,1.78,0,0,0-.83,0c.2-.34.56-.4,1.14-.59-.09-.06-.17-.13-.76-.06a3.3,3.3,0,0,1,1-.58c-.07-.09-.43,0-.8.07a3.48,3.48,0,0,1,1.12-.46,2.4,2.4,0,0,0-.78-.08,2.08,2.08,0,0,1,1-.25.75.75,0,0,0-.72-.18,1.66,1.66,0,0,1,.9-.27c-.11-.14-.41-.09-.52-.14.05-.1.59-.18.8-.17-.11-.16-.27-.15-.37-.18a3.06,3.06,0,0,1,.47-.31,1.83,1.83,0,0,0-.67.15.9.9,0,0,1,.06-.44A1,1,0,0,0,26,.93a.91.91,0,0,1-.1-.52,1.09,1.09,0,0,0-.32.82c-.2-.25-.14-.31-.21-.63a2.51,2.51,0,0,0-.29,1c-.11-.23-.22-.35-.31-.58-.19.21,0,1.12,0,1.3a1.66,1.66,0,0,1-.42-.77c-.23.27-.07.77,0,1.09a1.75,1.75,0,0,1-.44-.77,2.59,2.59,0,0,0-.08,1.18,2.92,2.92,0,0,1-.45-.78c-.22.4,0,.91.09,1.21a2,2,0,0,1-.53-.67,1.77,1.77,0,0,0,.27,1.29c-.19,0-.46-.52-.5-.53a3,3,0,0,0,.34,1.25,2.16,2.16,0,0,1-.65-.73c0,.29.42,1.2.38,1.4-.15-.13-.35-.71-.65-1-.07.22,0,1.23-.19,1.46a8.1,8.1,0,0,0-.15-1.29c-.15.25-.14.6-.35.86,0-.32,0-.86,0-1.26-.12.17-.3.46-.47.75,0-.34.29-1,.24-1.18a2.94,2.94,0,0,1-.33.58,3.68,3.68,0,0,0,.14-1.06c-.17.18-.28.48-.51.6,0,0,.3-1,.15-1.26a1.58,1.58,0,0,1-.47.66c.12-.35.35-1,.16-1.34a1.83,1.83,0,0,1-.44.77,1.78,1.78,0,0,0,.1-1.24c-.05.17-.09.51-.31.65a1.7,1.7,0,0,0,0-1.12,1.4,1.4,0,0,1-.2.63A3.16,3.16,0,0,0,19.39.67a2.19,2.19,0,0,1-.2.64c0-.16,0-.89-.17-1S19,.88,19,1a4.11,4.11,0,0,0-.45-.83c0,.12.17.55.17.71-.14-.16-.41-.64-.5-.63s.27.52.3.69C18.39,1,18,.51,17.9.53a1.78,1.78,0,0,0,.25.36c.05.08.43.39.36.36A3.35,3.35,0,0,0,17.89,1s.77.57.81.64-.66-.28-.79-.25.67.4,1,.67c0,.08-.51-.15-.87-.23.06.33.93.65,1.1.76-.15.09-.74-.16-.87-.25.1.41.78.69,1,.73-.08.2-.64-.07-.85-.1,0,.27.74.55.93.53-.21.17-.4.07-.77.13.09.15.64.26,1,.3a3.45,3.45,0,0,1-.82.16c.16.23,1,.2,1.2.46a3.55,3.55,0,0,0-1,0c.12.18.72.1,1.17.68a1.22,1.22,0,0,0-.9-.26,5.67,5.67,0,0,1,1,1,2.87,2.87,0,0,1-1-.66,4.31,4.31,0,0,0,.45,1.29c-.49-.14-.7-1.25-.7-1.45-.28.44-.09,1-.16,1.19-.14-.13-.24-1.22-.43-1.43a2.44,2.44,0,0,1-.17,1,2.85,2.85,0,0,0-.44-1.19s.09.63-.11.7a1.68,1.68,0,0,0-.5-1.19,1.86,1.86,0,0,1-.06.82c-.13-.27-.21-.82-.62-1a2.36,2.36,0,0,1,.07.87c-.39-.34-.26-.57-.73-.91,0,0,.12.89.07.86s-.27-.79-.62-.88a1.34,1.34,0,0,1,0,.66c-.15-.12-.36-.6-.63-.67.05.24.14.31.18.56-.18-.17-.37-.5-.68-.6.11.29.2.31.18.62-.19-.21-.42-.49-.73-.49a.9.9,0,0,1,.21.47A1,1,0,0,0,13,4.26a1,1,0,0,1,.3.31,2,2,0,0,0-.63.24h.56c-.07.09-.21.16-.21.34a1.64,1.64,0,0,1,.77-.29c-.07.1-.35.22-.35.39a1.81,1.81,0,0,1,.93-.19c-.33.09-.51.23-.56.4a6,6,0,0,1,1.32-.17c-.35.13-.7.26-.7.37a3.11,3.11,0,0,1,1.18-.08c-.53.26-.57.36-.6.45.59-.15.92-.3,1.28-.13a1.85,1.85,0,0,0-.72.41c.42,0,1-.15,1.1-.15s.18,0,.1.09-.49.32-.34.33.64-.07.75-.07.27,0,.16.06-.44.16-.46.33a2.87,2.87,0,0,1,1.25,0,1.32,1.32,0,0,0-.64.29c.23,0,1.11,0,1.23.26-.13,0-.38,0-.63,0,.22.19.61.34.69.8-.53-.29-.75-.74-.89-.72a2.4,2.4,0,0,1,.09,1,1.4,1.4,0,0,0-1-1.15,2.05,2.05,0,0,1,.42,1.1c-.54-.61-.64-1.17-1.22-1.14a2,2,0,0,1,.53,1s-.78-1-1-1c.12.33.33.58.29,1-.22-.43-.34-.74-.85-.92a1.58,1.58,0,0,1,.27,1c-.23-.21-.62-.87-.91-.85.07.26.45.65.36.94-.16-.18-.49-.79-.81-.82.1.32.37.55.41.87-.15,0-.49-.58-1-.61a2.38,2.38,0,0,1,.44.68,1.61,1.61,0,0,0-1.15-.36,2.16,2.16,0,0,1,.69.63c-.34-.16-.67-.45-1.16-.33.17.13.57.35.63.51-.51-.16-.85-.32-1.18-.17a1.69,1.69,0,0,1,.57.35.89.89,0,0,0-.93.11c.36,0,.59.05.63.13a.75.75,0,0,0-.56.45A1,1,0,0,1,12,9.7a.82.82,0,0,0-.3.51,2.06,2.06,0,0,1,.69-.58.69.69,0,0,0-.15.6c.21-.32.35-.56.53-.65a1.3,1.3,0,0,0-.15.64c.12-.07.37-.52.64-.67a1,1,0,0,0-.2.74c.44-.5.4-.52.69-.82a2,2,0,0,0,0,.73,2.42,2.42,0,0,1,.74-.79,2.23,2.23,0,0,0-.26.72A3.19,3.19,0,0,1,15,9.39a3.8,3.8,0,0,0-.19.72,6.8,6.8,0,0,0,.73-.81,4.2,4.2,0,0,0-.19.81c.27-.21.45-.48.82-.82a1.12,1.12,0,0,0-.09.8c.26-.27.37-.71.8-.82a1.06,1.06,0,0,0-.23.85c.1-.15.53-.82.9-.81-.26.34-.4.48-.35.81.2-.33.71-.87.95-.8a1.43,1.43,0,0,0-.43.78,2.47,2.47,0,0,1,1-.52c-.12.18-.13.27-.64.61a1.8,1.8,0,0,1,.77.16c-.2.19-1,0-1.62.29.43.17.67.06.9.38-.34,0-1.08-.18-1.48.06a5.74,5.74,0,0,0,.75.42c-.26.14-.89-.26-1.66.14A2.65,2.65,0,0,1,16.8,12c.09.07-1.18-.21-1.66.17.46,0,.82,0,1.07.36-.47-.13-1.25-.24-1.46,0,.23,0,.71.26.75.41a2.25,2.25,0,0,0-1.26,0c.27.13.55,0,.82.5-.49-.13-.85-.3-1.27,0a1.1,1.1,0,0,1,.81.41c-.38-.07-.76-.23-1.15.05.28.09.52.09.65.3-.27,0-.83-.08-.94.3a1.6,1.6,0,0,1,.95,0,1.73,1.73,0,0,0-1.17.28c.6,0,.83,0,1,.12a1.28,1.28,0,0,0-1.12.47,1.73,1.73,0,0,1,.82-.15c-.52.28-.77.41-.9.8a2.06,2.06,0,0,1,.78-.31c-.31.15-.68.36-.63.85A1.29,1.29,0,0,1,13.5,16c-.05.12-.43.53-.4.82.13-.3.33-.36.5-.58.07.1,0,.44,0,.57a1.43,1.43,0,0,0,.37-1c.15.22.12.51.21.67a9.88,9.88,0,0,0,.15-1.16,1.67,1.67,0,0,0,.32.7,4.67,4.67,0,0,1,.07-1.15,1.53,1.53,0,0,0,.31.85,6,6,0,0,1,.13-1.17c0,.3.13.71.38.79a9.13,9.13,0,0,1,.09-1.26,6.53,6.53,0,0,1,.28.88,4,4,0,0,0,.28-1.45c.06.32.07.53.19,1a4.2,4.2,0,0,0,.2-1.4c.12.36.12.79.31.89,0-.18-.06-1.22.15-1.27a1.84,1.84,0,0,0,.18,1c0-.36.07-1.2.25-1.24a1.13,1.13,0,0,0,.11.89,2.45,2.45,0,0,1,.25-.93.94.94,0,0,0,.12.57c.09,0,.29-.7.33-1,.08.17.15.35,0,.87.29-.15.49-.72.62-.89a1.68,1.68,0,0,1-.22.78,2.27,2.27,0,0,1,.83-.38c-.34.33-.86.5-.95.64a2.25,2.25,0,0,0,.76-.15c-.41.3-.79.36-.85.58a1.26,1.26,0,0,1,.9-.12,2.06,2.06,0,0,0-1.31.8A3.88,3.88,0,0,1,19.11,14a3,3,0,0,0-1.27.83c.68-.2.92-.41,1.21-.4-.95.54-1.24.79-1.31.95A2.56,2.56,0,0,1,18.87,15c-.61.25-1,.48-1.19.89a2,2,0,0,1,1.1-.34,1.62,1.62,0,0,0-1.14.78,2.08,2.08,0,0,1,1.08-.3,3.15,3.15,0,0,0-1.12.81c.53-.22.8-.29,1-.23-.41.14-.9.44-.9.68A1.51,1.51,0,0,1,18.6,17c-.47.19-.63.19-.83.62a1.87,1.87,0,0,1,.81-.28c-.22.16-.58.18-.77.75a2.18,2.18,0,0,1,.75-.41c-.25.25-.5.43-.52.86.15-.15.39-.45.51-.47a2.56,2.56,0,0,0-.46,1,1.14,1.14,0,0,1,.49-.46,2.2,2.2,0,0,0-.45.87,2.2,2.2,0,0,1,.49-.46c-.17.3-.26.71-.06.92a5.09,5.09,0,0,1,.12-.59c.08.13.06.25.32.44a3.81,3.81,0,0,1-.14-.68c.08.08.18.4.38.42a7,7,0,0,1-.19-.82,1,1,0,0,1,.43.51,4.73,4.73,0,0,0-.25-.94,1.91,1.91,0,0,1,.54.54c0-.52-.56-1.21-.46-1.12a3.93,3.93,0,0,1,.58.53,1.85,1.85,0,0,0-.41-1.07,6.75,6.75,0,0,1,.56.68,2.41,2.41,0,0,0-.44-1.17c.24.13.46.63.52.69a2.47,2.47,0,0,0-.43-1.2c.29.12.35.47.51.58a2.62,2.62,0,0,0-.44-1.1c.26.19.27.27.48.41a3.34,3.34,0,0,0-.36-1,1.69,1.69,0,0,1,.38.34,2.68,2.68,0,0,0-.32-1.08c.24.06.37.37.41.5a2.94,2.94,0,0,1,.34-.75,3.28,3.28,0,0,1-.14.81.75.75,0,0,1,.71-.47c-.63.54-.79.87-.79,1a2.76,2.76,0,0,1,.71-.38,2.09,2.09,0,0,0-.76,1.15,1.28,1.28,0,0,1,.6-.46c-.31.36-.6.81-.55.9a2.49,2.49,0,0,1,.59-.47c-.25.39-.58.73-.52,1.22a1.31,1.31,0,0,1,.71-.67,2.14,2.14,0,0,0-.61,1.45,1.61,1.61,0,0,1,.76-.81,3,3,0,0,0-.58,1.31c.25-.32.39-.57.68-.69,0,.24-.55.87-.56,1.15a4.77,4.77,0,0,0,.69-.56c0,.22-.62.87-.62,1a4.67,4.67,0,0,1,.63-.27,1.88,1.88,0,0,0-.29.84,1.38,1.38,0,0,0,.43-.62c0,.6,0,1.19,0,1.78a7.63,7.63,0,0,0-5.38,2.32,8,8,0,0,0-2,3.61,7.92,7.92,0,0,0,.06,4.13L7.26,18.6a.54.54,0,0,0,.19-.6c-.13-.21-.52-.21-.87,0s-.54.55-.42.77.36.2.64.11l.08.14C4.71,22.3,2.7,22.81,0,27.29c1,2.37,2.66,3.86,3.61,6.27,2.25-3.51,6-6.64,6.55-8.5a17.15,17.15,0,0,1-3.26-6L17.73,38.87l.3,0a29.18,29.18,0,0,0-5.86,1.29l.5,1.26a14.33,14.33,0,0,0-4.11,1.74,22.4,22.4,0,0,1,2.59.8c-.39.9-.78,1.89-1.19,2.8a25.17,25.17,0,0,1,5.91-2.08c-.11-.3-.27-.73-.37-1A18,18,0,0,1,20,42.84l1.43,2.61V46c-.39,1.44-1.1,2.37-2.41,2.45-.21,0-.32.09-.3.29v.52c0,.24.07.35.26.32a21.29,21.29,0,0,1,3.06.37,21.29,21.29,0,0,1,3.06-.37c.19,0,.27-.08.26-.32v-.52c0-.2-.09-.29-.31-.29-1.3-.08-2-1-2.41-2.45v-.53L24,42.85l-.41,0,.42,0h0a18,18,0,0,1,4.3.76l-.37,1a25,25,0,0,1,5.91,2.08c-.41-.91-.8-1.9-1.18-2.8a22.4,22.4,0,0,1,2.59-.8,14.15,14.15,0,0,0-4.1-1.73l.49-1.27a28.39,28.39,0,0,0-5.85-1.28l.46,0,11-20a17.3,17.3,0,0,1-3.26,6c.59,1.86,4.3,5,6.54,8.49,1-2.4,2.59-3.9,3.61-6.26C41.42,22.66,39.41,22.15,37.24,18.88ZM29.67,29.35h0a4.92,4.92,0,0,1-.1,1.08A4.92,4.92,0,0,0,29.67,29.35Zm-7.91-7.73a6.66,6.66,0,0,0-1.87.57A6.66,6.66,0,0,1,21.76,21.62ZM18,25.37A6.21,6.21,0,0,1,18.85,24,5.81,5.81,0,0,1,20,23c.16-.12.33-.24.51-.35A5.19,5.19,0,0,1,21.75,22h0a5.19,5.19,0,0,0-1.29.58c-.18.11-.35.23-.51.35A5.48,5.48,0,0,0,18.86,24,5.87,5.87,0,0,0,18,25.37a6.13,6.13,0,0,0,3.53,8.22h0A6.13,6.13,0,0,1,18,25.37Zm3.71-3.18v.08l-.05-.06ZM17.7,27.86a6.38,6.38,0,0,1,.33-2,8.58,8.58,0,0,1,.35-.81,7.89,7.89,0,0,1,.45-.71,4.76,4.76,0,0,1,.53-.63,6,6,0,0,1,1.29-1,4.59,4.59,0,0,1,.77-.38l.09,4Zm1.42.56L17.78,28h0Zm2.41.92.1,1.08c0,1,0,2-.05,3a6.19,6.19,0,0,1-3.9-5.27Zm-1.6-1.45,1.74-.1h0Zm1.64-5.58h0l0,1.21Zm.1,4.05h0l0,0h0Zm-.15,10.41h0a7.87,7.87,0,0,1-1.2-.15A7.87,7.87,0,0,0,21.52,36.77ZM17.5,33a7.2,7.2,0,0,1-.82-1.24A7.2,7.2,0,0,0,17.5,33Zm3.93,9.76c0,.26,0,.53,0,.8L21,42.79Zm-3-4,.21,0-2.47-4.38a8,8,0,0,0,5.36,2.54l0,1.69h.35C20.69,38.62,19.56,38.67,18.42,38.79Zm4-5.12c0-.17,0-.34,0-.51l2.05-2.85,4.1.92a5.94,5.94,0,0,1-6.14,2.44Zm1,.28a6,6,0,0,1-1-.12h0A6,6,0,0,0,23.48,34Zm.14-6.27-1.2,4.42h0l1.2-4.42Zm0,0Zm5,3.39L25,28.64l3.55,2.42Zm-1.74-2.29-.74-1h0Zm-.74-1h0l-2.47-.13h0l2.47.13,2.19-3.55C28.2,24.39,26.3,27.51,26.1,27.81Zm-1.73-2.36h0l3.92-1.2h0l-3.92,1.2Zm-.23.69-.51,1.54h0Zm-.52,1.54Zm0,0h0l-1.27.07h0l1.27-.07Zm-1.28-.86.81.54-.81-.54Zm1.31-5.11h0a7,7,0,0,0-1,0A6.93,6.93,0,0,1,23.65,21.71Zm-1.37.18a8.81,8.81,0,0,1,1-.15,7,7,0,0,0-1,.16Zm.3,21.69c0-.26,0-.54,0-.8H23Zm2.79-4.8.11,0c-1.16-.12-2.31-.18-3.47-.19h.51l0-1.69a7.75,7.75,0,0,0,2.82-.73,7.87,7.87,0,0,0,2.65-2Zm-2.06-2.1q.4-.07.78-.18a9.74,9.74,0,0,0,1.3-.51,9.74,9.74,0,0,1-1.3.51Q23.72,36.61,23.31,36.68Zm5.45-5.21A7.33,7.33,0,0,1,26,34.26a7.9,7.9,0,0,1-3.16.93A7.85,7.85,0,0,0,26,34.25a7.37,7.37,0,0,0,2.79-2.78,5.49,5.49,0,0,0,.54-1.3v0A5.34,5.34,0,0,1,28.76,31.47Z"/></g></g></svg>