<?xml version="1.0" encoding="utf-8"?>
<!-- Generator: Adobe Illustrator 27.0.0, SVG Export Plug-In . SVG Version: 6.00 Build 0)  -->
<svg version="1.1" id="Layer_1" xmlns="http://www.w3.org/2000/svg" xmlns:xlink="http://www.w3.org/1999/xlink" x="0px" y="0px"
	 viewBox="0 0 259.44 88.45" style="enable-background:new 0 0 259.44 88.45;" xml:space="preserve">
<style type="text/css">
	.st0{fill:#414042;}
	.st1{fill:url(#SVGID_1_);}
	.st2{fill:#E6E7E8;}
	.st3{fill:url(#SVGID_00000015312996644128754750000013955161805382555558_);}
	.st4{fill:url(#SVGID_00000122717142471023926050000008725442536203129774_);}
	.st5{fill:url(#SVGID_00000007386343215952820730000012544920841330215335_);}
	.st6{fill:url(#SVGID_00000176762756365733682210000018443535237139344771_);}
	.st7{fill:url(#SVGID_00000128472368669765966200000009654872203878287500_);}
	.st8{fill:url(#SVGID_00000176038559437691944460000013331748539793738883_);}
	.st9{fill:url(#SVGID_00000157298456408497017690000001981301234312742072_);}
	.st10{fill:url(#SVGID_00000174571538441678951350000016740030205253578127_);}
	.st11{fill:url(#SVGID_00000054973450054394324250000002075953594077908102_);}
	.st12{fill:url(#SVGID_00000154409463568312555700000009857686470745452934_);}
	.st13{fill:url(#SVGID_00000090979243929815896850000012864129955139627439_);}
	.st14{fill:url(#SVGID_00000170992905912778376910000010836852917149262008_);}
</style>
<g>
	<g>
		<linearGradient id="SVGID_1_" gradientUnits="userSpaceOnUse" x1="14.3298" y1="55.8704" x2="256.7518" y2="-26.3682">
			<stop  offset="0" style="stop-color:#DAE9B4"/>
			<stop  offset="0.5056" style="stop-color:#ECF5E6"/>
			<stop  offset="1" style="stop-color:#AADEE9"/>
		</linearGradient>
		<path class="st1" d="M48.94,13.03c-6.4-2.84-13.12-3.22-19.96-2.08c-5.36,0.89-10.31,2.78-14.58,6.23
			C6.85,23.3,2.84,31.47,0.98,40.83C0.55,42.97,0.32,45.16,0,47.32c0,2.4,0,4.8,0,7.2c0.32,2.2,0.59,4.41,0.96,6.61
			c2.32,13.65,12.63,24.13,26.28,26.75c1.32,0.25,7.08,0.76,9.43,0.51c2.59-0.28,6.81-1.71,9.68-3.86c4.95-3.72,7.6-8.64,6.56-14.86
			c-1.43-8.59-11.13-12.16-16.44-10.9c-3.96,0.95-7.01,4.01-7.41,7.67c-0.47,4.26,1.48,7.93,5.15,9.68
			c3.63,1.74,7.73,0.96,10.67-2.02c0.2-0.2,0.42-0.38,0.72-0.66c-0.75,3.08-3.25,5.46-6.33,5.76c-1.76,0.17-3.62,0.14-5.33-0.26
			c-8.6-2.02-12.27-12.18-6.93-19.02c2.05-2.63,4.88-4.15,8.04-4.89c3.25-0.75,6.6-1.13,9.89-1.72c4.52-0.81,8.74-2.34,12.1-5.59
			c5.21-5.04,6.34-11.35,5.22-18.21C60.95,21.52,56.16,16.23,48.94,13.03z M16.2,67.06c-2.01-2.25-4.07-9.87-3.22-15.53
			c1.23-8.24,5.7-14.46,12.27-19.91c-0.42,3.5,1.23,5.63,3.84,7.57C16.8,44.76,12.81,54.12,16.2,67.06z M39.66,35.06
			c-2.84-0.02-5.1-2.3-5.09-5.12c0.01-2.74,2.41-5.17,5.09-5.18c2.88-0.01,4.99,2.21,4.99,5.24C44.64,32.99,42.59,35.07,39.66,35.06
			z"/>
		
			<linearGradient id="SVGID_00000057120041501099584960000011679707977438929313_" gradientUnits="userSpaceOnUse" x1="35.0298" y1="116.8895" x2="277.4518" y2="34.651">
			<stop  offset="0" style="stop-color:#DAE9B4"/>
			<stop  offset="0.5056" style="stop-color:#ECF5E6"/>
			<stop  offset="1" style="stop-color:#AADEE9"/>
		</linearGradient>
		<path style="fill:url(#SVGID_00000057120041501099584960000011679707977438929313_);" d="M259.2,38.96
			c-0.31-3.55-1.47-6.76-3.8-9.51c-2.98-3.51-6.93-5.3-11.28-6.34c-5.59-1.34-11.26-1.27-16.92-0.67c-3.13,0.33-6.26,0.83-9.13,2.27
			c-5,2.51-5.93,9.1-1.82,12.95c0.31,0.29,1.03,0.46,1.43,0.31c3.78-1.34,7.64-2.31,11.65-2.55c3.25-0.2,6.48-0.15,9.56,1.09
			c2.38,0.96,3.36,2.79,2.91,5.27c-2.24,0.24-4.5,0.45-6.75,0.75c-4.11,0.53-8.25,0.93-12.32,1.73c-3.74,0.74-7.18,2.37-9.46,5.62
			c-3.17,4.52-3.43,9.55-1.89,14.66c1.57,5.23,5.54,8.13,10.47,9.87c5.56,1.96,11.34,2.18,17.15,1.83c4.2-0.25,8.36-0.83,12.24-2.54
			c3.98-1.75,7.75-3.8,8.2-8.86c0-7.84,0-15.68,0-23.52C259.36,40.53,259.27,39.74,259.2,38.96z M242.07,61.55
			c-0.01,0.26-0.45,0.65-0.76,0.75c-3.32,1.08-6.7,1.44-10.12,0.58c-1.55-0.39-2.7-1.34-3.2-2.93c-0.62-1.99,0-3.79,1.92-4.57
			c1.48-0.61,3.11-0.94,4.71-1.15c2.43-0.33,4.89-0.45,7.48-0.67C242.1,56.3,242.12,58.93,242.07,61.55z"/>
		
			<linearGradient id="SVGID_00000145050503179294956370000008303075345823836093_" gradientUnits="userSpaceOnUse" x1="29.5395" y1="100.7052" x2="271.9615" y2="18.4667">
			<stop  offset="0" style="stop-color:#DAE9B4"/>
			<stop  offset="0.5056" style="stop-color:#ECF5E6"/>
			<stop  offset="1" style="stop-color:#AADEE9"/>
		</linearGradient>
		<path style="fill:url(#SVGID_00000145050503179294956370000008303075345823836093_);" d="M195.84,46.61
			c-3.62-2.04-7.56-3.15-11.57-4.1c-2.09-0.49-4.17-1.06-6.22-1.7c-0.97-0.31-1.6-1.1-1.61-2.17c-0.01-1.11,0.6-1.93,1.6-2.32
			c0.88-0.35,1.82-0.63,2.75-0.75c5.63-0.69,10.93,0.68,16.12,2.66c0.53,0.2,0.87,0.33,1.35-0.14c3.02-3.01,4.2-9.35-0.94-12.7
			c-0.96-0.63-2-1.18-3.08-1.57c-4.73-1.75-9.66-2.08-14.64-1.79c-4.68,0.26-9.18,1.26-13.23,3.72c-4.69,2.85-7.19,7-7.34,12.53
			c-0.18,6.35,2.42,11.05,8.22,13.79c1.87,0.88,3.82,1.64,5.81,2.18c3.11,0.84,6.3,1.39,9.43,2.19c2.28,0.58,3.28,1.68,3.22,3.16
			c-0.05,1.46-1.35,2.88-3.5,3.04c-2.92,0.21-5.9,0.2-8.81-0.12c-3.43-0.37-6.58-1.84-9.68-3.34c-0.37-0.18-1.06-0.22-1.35,0.01
			c-3.38,2.58-4.07,8.05-1.5,11.43c1.56,2.05,3.71,3.24,6.08,4.07c4.13,1.45,8.42,1.73,12.08,1.75c5.13,0.02,9.53-0.39,13.74-1.99
			c7.54-2.86,11.4-9.13,10.46-17.14C202.67,52.47,200.04,48.97,195.84,46.61z"/>
		
			<linearGradient id="SVGID_00000039111981647996090350000002466165625166859137_" gradientUnits="userSpaceOnUse" x1="19.9719" y1="72.502" x2="262.3939" y2="-9.7366">
			<stop  offset="0" style="stop-color:#DAE9B4"/>
			<stop  offset="0.5056" style="stop-color:#ECF5E6"/>
			<stop  offset="1" style="stop-color:#AADEE9"/>
		</linearGradient>
		<path style="fill:url(#SVGID_00000039111981647996090350000002466165625166859137_);" d="M117.66,23.01
			c-4.06-1.21-7.98-0.5-11.77,1.17c-0.34,0.15-0.63,0.69-0.73,1.1c-2.22,9.76-4.39,19.52-6.6,29.28c-0.43,1.92-0.98,3.82-1.47,5.72
			c-0.13,0-0.26,0.01-0.39,0.01c-0.13-0.35-0.29-0.7-0.38-1.06c-1.71-6.6-3.41-13.2-5.12-19.79c-0.95-3.66-1.85-7.34-2.9-10.98
			c-0.79-2.72-2.46-4.75-5.31-5.52c-4.54-1.22-8.69-0.36-12.44,2.47c-0.58,0.44-0.76,0.87-0.53,1.63c2.29,7.5,4.33,15.1,6.87,22.52
			c2.43,7.12,5.35,14.07,8.09,21.09c0.9,2.3,2.68,3.66,5.01,4.25c1.62,0.41,3.28,0.73,4.94,0.85c3.62,0.27,7.17-0.12,10.57-1.51
			c1.17-0.48,2.02-1.17,2.51-2.38c2.91-7.2,5.98-14.35,8.75-21.61c2.36-6.18,4.31-12.51,5.53-19.04
			C123.08,26.95,121.53,24.15,117.66,23.01z"/>
		
			<linearGradient id="SVGID_00000041989359976842142220000001865217492545811590_" gradientUnits="userSpaceOnUse" x1="25.3329" y1="88.3053" x2="267.755" y2="6.0667">
			<stop  offset="0" style="stop-color:#DAE9B4"/>
			<stop  offset="0.5056" style="stop-color:#ECF5E6"/>
			<stop  offset="1" style="stop-color:#AADEE9"/>
		</linearGradient>
		<path style="fill:url(#SVGID_00000041989359976842142220000001865217492545811590_);" d="M148.77,30.74
			c-0.22-4.49-2.57-6.79-7.03-7.22c-3.6-0.34-7.09,0.13-10.78,0.84c0,0.5,0,0.93,0,1.37c-0.01,13.52-0.01,27.03-0.01,40.55
			c0,0.88,0.04,1.76,0.09,2.64c0.23,3.44,2.28,5.71,5.66,6.27c4.04,0.67,8.02,0.21,12.08-0.65c0-0.5,0-0.97,0-1.44
			c0-13.6,0-27.19,0-40.79C148.79,31.78,148.8,31.26,148.77,30.74z"/>
		
			<linearGradient id="SVGID_00000124158414672883444300000016425985148753903269_" gradientUnits="userSpaceOnUse" x1="13.1512" y1="52.3961" x2="255.5733" y2="-29.8424">
			<stop  offset="0" style="stop-color:#DAE9B4"/>
			<stop  offset="0.5056" style="stop-color:#ECF5E6"/>
			<stop  offset="1" style="stop-color:#AADEE9"/>
		</linearGradient>
		<path style="fill:url(#SVGID_00000124158414672883444300000016425985148753903269_);" d="M139.89,0c-5.76-0.01-9.81,3.9-9.79,9.46
			c0.02,5.48,4.09,9.36,9.79,9.35c5.76-0.01,9.69-3.83,9.69-9.41C149.58,3.82,145.66,0.01,139.89,0z"/>
	</g>
</g>
</svg>
